<svg width="57" height="54" viewBox="0 0 57 54" fill="none" xmlns="http://www.w3.org/2000/svg">
<path d="M13.34 53.3508C12.5501 53.3508 11.7661 53.1051 11.0962 52.6166C9.90844 51.7565 9.32629 50.3201 9.57202 48.875L11.9182 35.2016C11.9972 34.7481 11.8451 34.2859 11.5174 33.9641L1.58271 24.281C0.532481 23.2571 0.160953 21.7534 0.614392 20.358C1.06783 18.9626 2.2497 17.9679 3.70071 17.7573L17.4326 15.7622C17.889 15.6949 18.281 15.4082 18.4858 14.9986L24.6233 2.55682C25.2727 1.24039 26.5862 0.424194 28.0519 0.424194C29.5175 0.424194 30.834 1.24039 31.4805 2.55682L37.6209 14.9986C37.8228 15.4082 38.2177 15.6949 38.6711 15.7622L52.4031 17.7573C53.8541 17.9679 55.0389 18.9626 55.4923 20.3609C55.9457 21.7563 55.5771 23.2571 54.524 24.281L44.5893 33.9641C44.2587 34.2859 44.1095 34.7481 44.1885 35.2016L46.5347 48.8779C46.7804 50.326 46.1982 51.7565 45.0105 52.6195C43.8257 53.4796 42.2782 53.5907 40.9852 52.9091L28.7043 46.4527C28.2976 46.2392 27.8091 46.2392 27.4083 46.4527L15.1245 52.9091C14.5599 53.2075 13.9484 53.3538 13.3429 53.3538L13.34 53.3508ZM28.0519 2.85522C27.5107 2.85522 27.0397 3.14483 26.7998 3.63338L20.6594 16.0752C20.1006 17.2044 19.024 17.9855 17.7778 18.1669L4.04591 20.162C3.50763 20.241 3.08637 20.5949 2.91962 21.1127C2.74995 21.6305 2.88452 22.1659 3.2736 22.5462L13.2083 32.2293C14.1123 33.1099 14.5218 34.3766 14.3083 35.617L11.965 49.2904C11.8743 49.8257 12.082 50.3377 12.5208 50.6565C12.9597 50.9725 13.5096 51.0164 13.9894 50.7618L26.2703 44.3055C27.382 43.7145 28.713 43.7174 29.8276 44.3055L42.1085 50.7618C42.5883 51.0164 43.1412 50.9696 43.5771 50.6565C44.0188 50.3347 44.2265 49.8257 44.1358 49.2904L41.7896 35.617C41.5761 34.3766 41.9856 33.1128 42.8896 32.2323L52.8243 22.5491C53.2163 22.1688 53.345 21.6335 53.1783 21.1157C53.0086 20.6008 52.5874 20.2439 52.0491 20.1649L38.3172 18.1698C37.0739 17.9884 35.9973 17.2073 35.4386 16.081L29.2981 3.6363C29.0582 3.14776 28.5872 2.85814 28.046 2.85814L28.0519 2.85522Z" fill="#DEC8A1"/>
<path d="M42.764 53.775C42.0882 53.775 41.4095 53.6112 40.7835 53.2806L28.5026 46.8242C28.2188 46.6721 27.8824 46.6721 27.6044 46.8242L15.3206 53.2806C13.9106 54.0237 12.1465 53.9037 10.8477 52.9588C9.5283 52.0022 8.87885 50.4108 9.15384 48.8047L11.5 35.1284C11.5556 34.8125 11.4503 34.4907 11.2192 34.2654L1.2874 24.5852C0.120154 23.4472 -0.29233 21.7797 0.210842 20.2293C0.714014 18.6817 2.02753 17.5759 3.63943 17.3389L17.3713 15.3438C17.6873 15.297 17.9623 15.0981 18.1056 14.8085L24.2431 2.36959C24.9628 0.909805 26.4226 0 28.052 0C29.6815 0 31.1413 0.909805 31.8609 2.36959L37.9985 14.8114C38.1418 15.0981 38.4168 15.297 38.7298 15.3438L52.4617 17.3389C54.0765 17.5759 55.3901 18.6817 55.8903 20.2322C56.3935 21.7797 55.9839 23.4472 54.8167 24.5852L44.882 34.2713C44.6509 34.4965 44.5485 34.8154 44.6011 35.1343L46.9473 48.8106C47.2194 50.4166 46.5699 52.0081 45.2535 52.9647C44.5075 53.5059 43.6387 53.7809 42.761 53.7809L42.764 53.775ZM28.0491 45.8676C28.3387 45.8676 28.6313 45.9378 28.8975 46.0782L41.1813 52.5346C42.331 53.1402 43.703 53.0437 44.762 52.2772C45.8181 51.5078 46.3388 50.2323 46.1194 48.951L43.7732 35.2747C43.6708 34.6837 43.8668 34.0811 44.2969 33.6628L54.2316 23.9767C55.1648 23.0669 55.4954 21.7329 55.0917 20.4896C54.6909 19.2522 53.6377 18.3658 52.3447 18.1756L38.6128 16.1805C38.0219 16.0956 37.5099 15.7241 37.2437 15.1858L31.1032 2.74404C30.5269 1.57387 29.3597 0.848371 28.052 0.848371C26.7444 0.848371 25.5771 1.57387 25.0038 2.74404L18.8633 15.1829C18.6 15.7212 18.0851 16.0956 17.4942 16.1805L3.7623 18.1756C2.46926 18.3658 1.41904 19.2492 1.01533 20.4867C0.61455 21.73 0.942196 23.064 1.8754 23.9767L11.8101 33.6628C12.2402 34.084 12.4362 34.6837 12.3338 35.2747L9.98759 48.951C9.76818 50.2353 10.286 51.5107 11.3421 52.2772C12.3806 53.0232 13.7936 53.1285 14.9228 52.5346L27.2066 46.0782C27.467 45.9408 27.7566 45.8676 28.0462 45.8676H28.0491ZM13.3372 51.3498C12.9657 51.3498 12.5971 51.2328 12.2753 50.9988C11.7019 50.5775 11.4298 49.9105 11.5498 49.2143L13.893 35.5438C14.0832 34.438 13.7204 33.3117 12.9159 32.5306L2.98121 22.8475C2.47219 22.3502 2.29959 21.6481 2.519 20.9782C2.7384 20.3082 3.28546 19.846 3.98463 19.7407L17.7165 17.7456C18.8223 17.5818 19.779 16.8884 20.2792 15.885L26.4167 3.44029C26.7297 2.80547 27.3412 2.42517 28.0491 2.42517C28.7571 2.42517 29.3685 2.80547 29.6786 3.44029L35.819 15.885C36.3193 16.8884 37.2759 17.5818 38.3817 17.7456L52.1136 19.7407C52.8157 19.846 53.3627 20.3082 53.5821 20.9782C53.7986 21.6539 53.629 22.3531 53.1229 22.8475L43.1852 32.5306C42.3837 33.3088 42.018 34.438 42.2081 35.5409L44.5543 49.2143C44.6713 49.9135 44.4022 50.5805 43.8288 50.9959C43.2584 51.4025 42.5241 51.4581 41.9127 51.1304L29.6318 44.677C28.6371 44.1533 27.4523 44.1533 26.4694 44.677L14.1885 51.1334C13.9164 51.2767 13.6239 51.3469 13.3372 51.3469V51.3498ZM28.0491 43.4395C28.7278 43.4395 29.4065 43.6033 30.0296 43.931L42.3105 50.3874C42.6411 50.5629 43.0243 50.5395 43.3344 50.3142C43.6445 50.089 43.7849 49.7409 43.7206 49.3606L41.3744 35.6872C41.1374 34.3064 41.5967 32.9022 42.5972 31.928L52.5319 22.2449C52.8069 21.9757 52.8947 21.6071 52.7777 21.2415C52.6606 20.8787 52.371 20.6359 51.9907 20.5803L38.2617 18.5852C36.8809 18.3833 35.6874 17.5174 35.0643 16.2624L28.9238 3.81767C28.5815 3.1302 27.5196 3.1302 27.1773 3.81767L21.0369 16.2624C20.4167 17.5145 19.2202 18.3833 17.8394 18.5852L4.1075 20.5803C3.73012 20.6359 3.4405 20.8787 3.32349 21.2444C3.20354 21.6071 3.29423 21.9757 3.57215 22.2449L13.5039 31.928C14.5074 32.9022 14.9637 34.3093 14.7268 35.6901L12.3835 49.3606C12.3162 49.7409 12.4596 50.089 12.7726 50.3172C13.0798 50.5366 13.463 50.5658 13.7936 50.3874L26.0745 43.931C26.6917 43.6063 27.3704 43.4395 28.0491 43.4395Z" fill="#DEC8A1"/>
</svg>
