<svg width="84" height="64" viewBox="0 0 84 64" fill="none" xmlns="http://www.w3.org/2000/svg">
<path d="M72.7212 63.4667H11.2828C10.8604 63.4667 10.5195 63.1237 10.5195 62.7034V16.0083C10.5195 15.5859 10.8626 15.2449 11.2828 15.2449C11.7031 15.2449 12.0462 15.588 12.0462 16.0083V61.9401H71.9579V16.0083C71.9579 15.5859 72.3009 15.2449 72.7212 15.2449C73.1414 15.2449 73.4845 15.588 73.4845 16.0083V62.7034C73.4845 63.1258 73.1414 63.4667 72.7212 63.4667Z" fill="#DEC8A1"/>
<path d="M72.721 63.7776H11.2827C10.6909 63.7776 10.2085 63.2952 10.2085 62.7034V16.0082C10.2085 15.4165 10.6909 14.934 11.2827 14.934C11.8745 14.934 12.3548 15.4165 12.3548 16.0082V61.6313H71.649V16.0082C71.649 15.4165 72.1314 14.934 72.721 14.934C73.3107 14.934 73.7952 15.4165 73.7952 16.0082V62.7034C73.7952 63.2952 73.3128 63.7776 72.721 63.7776ZM11.2827 15.5537C11.0318 15.5537 10.8282 15.7574 10.8282 16.0061V62.7013C10.8282 62.9521 11.0318 63.1537 11.2827 63.1537H72.7232C72.974 63.1537 73.1777 62.95 73.1777 62.7013V16.0082C73.1777 15.7574 72.974 15.5558 72.7232 15.5558C72.4723 15.5558 72.2686 15.7595 72.2686 16.0082V62.251H11.7373V16.0082C11.7373 15.7574 11.5336 15.5558 11.2827 15.5558V15.5537Z" fill="#DEC8A1"/>
<path d="M82.8761 16.7716H1.07482C0.744618 16.7716 0.45087 16.5593 0.347951 16.2441C0.245032 15.9289 0.356528 15.5859 0.624546 15.3907L21.0861 0.45892C21.2169 0.362434 21.3756 0.310974 21.5364 0.310974H62.4145C62.5775 0.310974 62.734 0.362434 62.8648 0.45892L83.3263 15.3929C83.5944 15.588 83.7059 15.9332 83.6029 16.2463C83.5 16.5614 83.2063 16.7737 82.8761 16.7737V16.7716ZM3.41837 15.2449H80.5325L62.1658 1.83975H21.7851L3.41837 15.2449Z" fill="#DEC8A1"/>
<path d="M82.8758 17.0824H1.07455C0.609272 17.0824 0.197597 16.7844 0.0539388 16.3427C-0.091863 15.8967 0.0646595 15.4143 0.442029 15.1419L20.9036 0.207982C21.0859 0.0750451 21.311 0 21.5361 0H62.4142C62.6415 0 62.8602 0.0729009 63.0468 0.207982L83.5083 15.1419C83.8857 15.4143 84.0422 15.8945 83.8964 16.3405C83.7528 16.7844 83.3411 17.0824 82.8758 17.0824ZM21.5361 0.619658C21.4396 0.619658 21.3453 0.649676 21.2681 0.705424L0.806534 15.6415C0.650011 15.7573 0.581398 15.9632 0.641434 16.1497C0.703615 16.3362 0.875146 16.4627 1.07455 16.4627H82.8758C83.0752 16.4627 83.2467 16.3384 83.3089 16.1497C83.369 15.9632 83.3046 15.7595 83.1438 15.6437L62.6823 0.707568C62.6029 0.65182 62.5107 0.621802 62.4142 0.621802H21.5361V0.619658ZM81.4821 15.5536H2.47039L21.6841 1.52878H62.2663L62.3478 1.58881L81.4821 15.5536ZM4.36796 14.934H79.5845L62.0647 2.14843H21.8856L4.36796 14.934Z" fill="#DEC8A1"/>
<path d="M42.0063 51.9205C41.8412 51.9205 41.6825 51.854 41.5668 51.7382L29.9798 40.1127C28.5068 38.631 27.6963 36.6713 27.6963 34.5915C27.6963 32.5117 28.5111 30.5476 29.9884 29.0682C33.0223 26.0428 37.9646 26.0321 41.0093 29.0424L42.0063 30.0287L42.9969 29.0446C46.0437 26.0299 50.9903 26.0406 54.0264 29.0682C55.4994 30.5412 56.312 32.5052 56.312 34.6001C56.312 36.6949 55.5037 38.6396 54.0371 40.1148L42.4501 51.7404C42.3344 51.8561 42.1757 51.9226 42.0106 51.9226L42.0063 51.9205ZM35.5117 28.0325C33.8285 28.0325 32.1432 28.6715 30.8653 29.9473C29.6217 31.1909 28.9378 32.8397 28.9378 34.5915C28.9378 36.3432 29.6196 37.9921 30.861 39.2378L42.0085 50.4217L53.1559 39.2378C54.3909 37.9964 55.0706 36.3497 55.0706 34.6001C55.0706 32.8504 54.3887 31.1866 53.1494 29.9473C50.5958 27.4022 46.434 27.3914 43.8717 29.928L42.4459 31.3452C42.2036 31.5854 41.8133 31.5854 41.5711 31.3452L40.1366 29.9258C38.8609 28.6629 37.1863 28.0325 35.5117 28.0325Z" fill="#DEC8A1"/>
<path d="M42.0061 52.3344C41.7338 52.3344 41.4657 52.2229 41.2728 52.0277L29.688 40.4065C28.1377 38.8477 27.2822 36.7829 27.2822 34.5916C27.2822 32.4002 28.1399 30.3333 29.6944 28.7766C32.8892 25.5926 38.0951 25.5819 41.2964 28.7488L42.0018 29.4478L42.7008 28.753C45.9084 25.5754 51.1187 25.5883 54.3113 28.7745C55.8637 30.3268 56.717 32.3938 56.717 34.598C56.717 36.8022 55.8658 38.8477 54.322 40.4022L42.7329 52.0277C42.5421 52.2207 42.2741 52.3322 42.0018 52.3322L42.0061 52.3344ZM35.5115 27.2071C33.616 27.2071 31.7185 27.9254 30.2776 29.362C28.8775 30.76 28.1077 32.6168 28.1077 34.5916C28.1077 36.5663 28.8753 38.4189 30.2712 39.8233L41.8581 51.4445C41.9375 51.526 42.0747 51.5239 42.1519 51.4445L53.741 39.819C55.1304 38.421 55.8958 36.5685 55.8958 34.598C55.8958 32.6275 55.1282 30.7535 53.7324 29.3577C50.8592 26.491 46.1721 26.4803 43.2861 29.3384L42.0061 30.612L40.7174 29.3363C39.2809 27.9147 37.3962 27.205 35.5115 27.205V27.2071ZM42.0061 51.0071L30.5671 39.5317C29.2506 38.2066 28.5237 36.4505 28.5237 34.5916C28.5237 32.7326 29.2527 30.9744 30.5735 29.6536C31.89 28.3414 33.6439 27.6188 35.5115 27.6188C37.379 27.6188 39.1136 28.3349 40.4258 29.6321L41.8603 31.0516C41.9417 31.1352 42.0725 31.1331 42.1519 31.0516L43.5777 29.6343C46.3029 26.937 50.7263 26.9498 53.4386 29.6536C54.7552 30.9701 55.482 32.7283 55.482 34.6001C55.482 36.472 54.7594 38.2109 53.4472 39.5274L42.0082 51.0071H42.0061ZM35.5115 28.4464C33.8626 28.4464 32.3167 29.0832 31.1567 30.2389C29.9924 31.4032 29.3513 32.9513 29.3513 34.5916C29.3513 36.2318 29.9903 37.7778 31.1524 38.9485L42.0061 49.8364L52.8619 38.9442C54.0197 37.782 54.6565 36.2383 54.6565 34.598C54.6565 32.9577 54.0176 31.3968 52.8576 30.2368C50.4647 27.8504 46.5645 27.8439 44.1609 30.2196L42.7351 31.6369C42.3341 32.0379 41.6802 32.04 41.2813 31.6369L39.8469 30.2196C38.6912 29.0747 37.1517 28.4443 35.5136 28.4443L35.5115 28.4464Z" fill="#DEC8A1"/>
</svg>
