<svg width="65" height="65" viewBox="0 0 65 65" fill="none" xmlns="http://www.w3.org/2000/svg">
<path d="M32.406 53.684C14.8746 53.684 0.976244 33.6831 0.392645 32.8311C0.216124 32.5735 0.216124 32.2349 0.392645 31.9791C0.974443 31.1271 14.8728 11.1262 32.406 11.1262C49.9392 11.1262 63.8357 31.1271 64.4193 31.9791C64.5958 32.2367 64.5958 32.5753 64.4193 32.8311C63.8375 33.6831 49.9392 53.684 32.406 53.684ZM1.94351 32.4042C4.07437 35.3222 17.0451 52.1745 32.406 52.1745C47.7669 52.1745 60.7376 35.324 62.8684 32.4042C60.7376 29.4862 47.7669 12.6339 32.406 12.6339C17.0451 12.6339 4.07257 29.4862 1.94351 32.4042Z" fill="#DEC8A1"/>
<path d="M32.406 53.9451C14.7143 53.9451 0.763723 33.8326 0.178322 32.9788C-0.0594407 32.6311 -0.0594407 32.1808 0.178322 31.8332C0.763723 30.9776 14.7143 10.8668 32.406 10.8668C50.0977 10.8668 64.0483 30.9776 64.6337 31.8332C64.8714 32.1808 64.8714 32.6311 64.6337 32.9788C64.0483 33.8344 50.0977 53.9451 32.406 53.9451ZM32.406 11.3856C14.9845 11.3856 1.18521 31.2784 0.607016 32.1268C0.489936 32.2961 0.489936 32.5159 0.607016 32.6852C1.18521 33.5317 14.9845 53.4264 32.4042 53.4264C49.8239 53.4264 63.6232 33.5336 64.2014 32.6852C64.3185 32.5159 64.3185 32.2961 64.2014 32.1268C63.6232 31.2802 49.8239 11.3856 32.4042 11.3856H32.406ZM32.406 52.4357C17.0145 52.4357 4.15545 35.877 1.73459 32.5591L1.62291 32.406L1.73459 32.2529C4.15545 28.935 17.0163 12.3763 32.406 12.3763C47.7957 12.3763 60.6548 28.935 63.0774 32.2529L63.1891 32.406L63.0774 32.5591C60.6548 35.877 47.7903 52.4357 32.406 52.4357ZM2.26415 32.4042C4.92277 36.0138 17.4882 51.9133 32.4042 51.9133C47.3202 51.9133 59.8856 36.012 62.5443 32.4042C59.8856 28.7945 47.3148 12.895 32.4042 12.895C17.4936 12.895 4.92277 28.7963 2.26415 32.4042Z" fill="#DEC8A1"/>
<path d="M32.4066 9.0134C31.9905 9.0134 31.6519 8.67476 31.6519 8.25868V1.01412C31.6519 0.598031 31.9905 0.259399 32.4066 0.259399C32.8227 0.259399 33.1613 0.598031 33.1613 1.01412V8.25868C33.1613 8.67476 32.8227 9.0134 32.4066 9.0134Z" fill="#DEC8A1"/>
<path d="M32.4067 9.27455C31.8465 9.27455 31.3926 8.81884 31.3926 8.25866V1.01409C31.3926 0.453911 31.8465 0 32.4067 0C32.9669 0 33.4208 0.453911 33.4208 1.01409V8.25866C33.4208 8.81884 32.9669 9.27455 32.4067 9.27455ZM32.4067 0.520557C32.1329 0.520557 31.9113 0.742108 31.9113 1.01409V8.25866C31.9113 8.53244 32.1329 8.754 32.4067 8.754C32.6805 8.754 32.902 8.53244 32.902 8.25866V1.01409C32.902 0.742108 32.6805 0.520557 32.4067 0.520557Z" fill="#DEC8A1"/>
<path d="M32.4066 64.549C31.9905 64.549 31.6519 64.2104 31.6519 63.7943V56.5498C31.6519 56.1337 31.9905 55.795 32.4066 55.795C32.8227 55.795 33.1613 56.1337 33.1613 56.5498V63.7943C33.1613 64.2104 32.8227 64.549 32.4066 64.549Z" fill="#DEC8A1"/>
<path d="M32.4067 64.8102C31.8465 64.8102 31.3926 64.3563 31.3926 63.7961V56.5515C31.3926 55.9914 31.8465 55.5356 32.4067 55.5356C32.9669 55.5356 33.4208 55.9914 33.4208 56.5515V63.7961C33.4208 64.3563 32.9669 64.8102 32.4067 64.8102ZM32.4067 56.0562C32.1329 56.0562 31.9113 56.2778 31.9113 56.5515V63.7961C31.9113 64.0681 32.1329 64.2896 32.4067 64.2896C32.6805 64.2896 32.902 64.0681 32.902 63.7961V56.5515C32.902 56.2778 32.6805 56.0562 32.4067 56.0562Z" fill="#DEC8A1"/>
<path d="M19.4534 12.7815C19.203 12.7815 18.9599 12.6572 18.8158 12.432L14.9305 6.31865C14.7071 5.96741 14.8098 5.50089 15.1629 5.27753C15.5159 5.05238 15.9806 5.15865 16.204 5.50989L20.0892 11.6233C20.3126 11.9745 20.2099 12.441 19.8569 12.6644C19.7326 12.7455 19.5921 12.7815 19.4534 12.7815Z" fill="#DEC8A1"/>
<path d="M19.4535 13.0426C19.1058 13.0426 18.7852 12.8661 18.5979 12.5725L14.7108 6.45733C14.5649 6.22677 14.5181 5.95478 14.5757 5.69C14.6352 5.42702 14.7937 5.20187 15.0224 5.05597C15.2494 4.91007 15.5232 4.86324 15.7844 4.92268C16.0491 4.98212 16.2743 5.13883 16.4202 5.36938L20.3073 11.4846C20.4531 11.7133 20.5 11.9835 20.4423 12.2483C20.3847 12.5131 20.2244 12.7382 19.9956 12.8841C19.8317 12.9868 19.6444 13.0426 19.4535 13.0426ZM15.5646 5.41802C15.4727 5.41802 15.3809 5.44323 15.3016 5.49547C15.1899 5.56572 15.1125 5.67379 15.0837 5.80348C15.0549 5.93317 15.0783 6.06646 15.1485 6.17994L19.0338 12.2933C19.1761 12.5131 19.4877 12.5887 19.7164 12.4446C19.8281 12.3744 19.9056 12.2645 19.9344 12.1348C19.9632 12.0069 19.9398 11.8736 19.8696 11.7638L15.9825 5.64677C15.9122 5.5351 15.8024 5.45945 15.6727 5.43063C15.6367 5.42162 15.6006 5.41802 15.5646 5.41802Z" fill="#DEC8A1"/>
<path d="M49.2459 59.6514C48.9955 59.6514 48.7523 59.5271 48.6082 59.302L44.723 53.1886C44.4996 52.8373 44.6023 52.3708 44.9553 52.1475C45.3084 51.9241 45.7731 52.0286 45.9965 52.3798L49.8817 58.4932C50.1051 58.8444 50.0024 59.311 49.6494 59.5343C49.5251 59.6154 49.3846 59.6514 49.2459 59.6514Z" fill="#DEC8A1"/>
<path d="M49.2455 59.9108C48.896 59.9108 48.5772 59.7343 48.3899 59.4425L44.5028 53.3255C44.3569 53.0967 44.3101 52.8266 44.3677 52.5618C44.4272 52.297 44.5857 52.0718 44.8144 51.9259C45.2863 51.6251 45.915 51.7674 46.214 52.2375L50.0992 58.3527C50.3982 58.8247 50.2596 59.4533 49.7876 59.7523C49.6273 59.855 49.44 59.9108 49.2455 59.9108ZM45.3584 52.288C45.2665 52.288 45.1765 52.3132 45.0936 52.3654C44.9819 52.4357 44.9045 52.5456 44.8757 52.6752C44.8468 52.8049 44.8703 52.9364 44.9405 53.0463L48.8276 59.1633C48.9681 59.3848 49.2905 59.4533 49.5102 59.3146C49.7408 59.1669 49.8092 58.8607 49.6633 58.6283L45.7781 52.5149C45.6826 52.3672 45.5241 52.2862 45.3602 52.2862L45.3584 52.288Z" fill="#DEC8A1"/>
<path d="M45.3569 12.7817C45.2182 12.7817 45.0795 12.7438 44.9534 12.6646C44.6003 12.4412 44.4977 11.9747 44.721 11.6235L48.6063 5.51008C48.8296 5.15884 49.2944 5.05077 49.6474 5.27772C50.0004 5.50107 50.1031 5.96759 49.8798 6.31884L45.9945 12.4322C45.8504 12.6574 45.6072 12.7817 45.3569 12.7817Z" fill="#DEC8A1"/>
<path d="M45.3569 13.0427C45.166 13.0427 44.9786 12.9869 44.8147 12.8842C44.586 12.7383 44.4275 12.5132 44.368 12.2484C44.3086 11.9836 44.3572 11.7116 44.5031 11.4829L48.3902 5.36948C48.5361 5.13892 48.763 4.98041 49.0278 4.92097C49.2908 4.86513 49.5628 4.91016 49.7897 5.05787C50.0167 5.20196 50.1752 5.42892 50.2346 5.6919C50.2941 5.95668 50.2454 6.22867 50.0995 6.45742L46.2143 12.5708C46.0251 12.8662 45.7045 13.0427 45.3569 13.0427ZM49.2458 5.41631C49.2097 5.41631 49.1755 5.42171 49.1395 5.42892C49.0098 5.45774 48.8999 5.53519 48.8279 5.64687L44.9408 11.7621C44.8706 11.8737 44.8471 12.007 44.876 12.1349C44.9048 12.2628 44.9822 12.3727 45.0939 12.4447C45.3263 12.5906 45.6343 12.515 45.7784 12.2934L49.6636 6.18184C49.7339 6.06836 49.7573 5.93687 49.7285 5.80718C49.6997 5.67929 49.6222 5.56942 49.5105 5.49737C49.4295 5.44513 49.3376 5.41811 49.2458 5.41811V5.41631Z" fill="#DEC8A1"/>
<path d="M15.5668 59.6514C15.4281 59.6514 15.2876 59.6135 15.1633 59.5343C14.8103 59.3109 14.7076 58.8444 14.931 58.4932L18.8162 52.3798C19.0396 52.0285 19.5043 51.9223 19.8574 52.1474C20.2104 52.3708 20.3131 52.8373 20.0897 53.1885L16.2045 59.3019C16.0604 59.5271 15.8172 59.6514 15.5668 59.6514Z" fill="#DEC8A1"/>
<path d="M15.567 59.9108C15.3724 59.9108 15.1851 59.855 15.023 59.7523C14.5529 59.4533 14.4124 58.8246 14.7114 58.3527L18.5967 52.2393C18.7426 52.0106 18.9677 51.8521 19.2307 51.7926C19.4937 51.7314 19.7675 51.7782 19.9962 51.9277C20.225 52.0718 20.3835 52.297 20.4429 52.5618C20.5024 52.8265 20.4537 53.0985 20.3078 53.3273L16.4208 59.4407C16.2334 59.7343 15.9128 59.9108 15.5652 59.9108H15.567ZM19.4558 52.288C19.4198 52.288 19.3838 52.2916 19.346 52.3006C19.2163 52.3294 19.1064 52.4069 19.0362 52.5185L15.1509 58.6301C15.005 58.8625 15.0734 59.1687 15.304 59.3146C15.5219 59.4569 15.8444 59.3848 15.9867 59.1633L19.8737 53.0499C19.944 52.9382 19.9674 52.8049 19.9386 52.677C19.9098 52.5492 19.8323 52.4393 19.7206 52.3672C19.6396 52.315 19.5477 52.2898 19.4558 52.2898V52.288Z" fill="#DEC8A1"/>
<path d="M32.4066 47.648C24.002 47.648 17.1646 40.8105 17.1646 32.406C17.1646 24.0014 24.002 17.1639 32.4066 17.1639C40.8112 17.1639 47.6486 24.0014 47.6486 32.406C47.6486 40.8105 40.8112 47.648 32.4066 47.648ZM32.4066 18.6716C24.8342 18.6716 18.674 24.8318 18.674 32.4042C18.674 39.9766 24.8342 46.1368 32.4066 46.1368C39.979 46.1368 46.1392 39.9766 46.1392 32.4042C46.1392 24.8318 39.979 18.6716 32.4066 18.6716Z" fill="#DEC8A1"/>
<path d="M32.4067 47.9073C23.858 47.9073 16.9053 40.9528 16.9053 32.4041C16.9053 23.8554 23.8598 16.9009 32.4067 16.9009C40.9535 16.9009 47.9081 23.8554 47.9081 32.4041C47.9081 40.9528 40.9535 47.9073 32.4067 47.9073ZM32.4067 17.4214C24.1444 17.4214 17.424 24.1436 17.424 32.4041C17.424 40.6646 24.1462 47.3868 32.4067 47.3868C40.6672 47.3868 47.3894 40.6646 47.3894 32.4041C47.3894 24.1436 40.6672 17.4214 32.4067 17.4214ZM32.4067 46.3979C24.6902 46.3979 18.4129 40.1188 18.4129 32.4041C18.4129 24.6894 24.6902 18.4103 32.4067 18.4103C40.1232 18.4103 46.4005 24.6894 46.4005 32.4041C46.4005 40.1188 40.1232 46.3979 32.4067 46.3979ZM32.4067 18.9309C24.9766 18.9309 18.9335 24.974 18.9335 32.4041C18.9335 39.8342 24.9784 45.8773 32.4067 45.8773C39.835 45.8773 45.8799 39.8342 45.8799 32.4041C45.8799 24.974 39.835 18.9309 32.4067 18.9309Z" fill="#DEC8A1"/>
<path d="M23.9549 33.1588C23.5388 33.1588 23.2002 32.8202 23.2002 32.4041C23.2002 27.3282 27.3304 23.198 32.4063 23.198C32.8224 23.198 33.161 23.5366 33.161 23.9527C33.161 24.3688 32.8224 24.7074 32.4063 24.7074C28.1626 24.7074 24.7096 28.1604 24.7096 32.4041C24.7096 32.8202 24.371 33.1588 23.9549 33.1588Z" fill="#DEC8A1"/>
<path d="M23.955 33.4183C23.3966 33.4183 22.9409 32.9644 22.9409 32.4042C22.9409 27.1842 27.1864 22.9369 32.4064 22.9369C32.9666 22.9369 33.4205 23.3926 33.4205 23.9528C33.4205 24.513 32.9666 24.9669 32.4064 24.9669C28.305 24.9669 24.9691 28.3028 24.9691 32.4042C24.9691 32.9644 24.5152 33.4183 23.955 33.4183ZM32.4064 23.4574C27.4728 23.4574 23.4597 27.4706 23.4597 32.4042C23.4597 32.6762 23.6812 32.8977 23.955 32.8977C24.2288 32.8977 24.4504 32.6762 24.4504 32.4042C24.4504 28.0182 28.0204 24.4463 32.4064 24.4463C32.6802 24.4463 32.9017 24.2248 32.9017 23.9528C32.9017 23.6808 32.6802 23.4574 32.4064 23.4574Z" fill="#DEC8A1"/>
</svg>
