<svg width="63" height="66" viewBox="0 0 63 66" fill="none" xmlns="http://www.w3.org/2000/svg">
<path d="M18.541 11.4212C21.1347 11.4212 23.2372 9.31862 23.2372 6.72495C23.2372 4.13127 21.1347 2.02869 18.541 2.02869C15.9473 2.02869 13.8447 4.13127 13.8447 6.72495C13.8447 9.31862 15.9473 11.4212 18.541 11.4212Z" stroke="#DEC8A1" stroke-width="2" stroke-linecap="round" stroke-linejoin="round"/>
<path d="M55.3437 4.18286H41.0718V13.1149H55.3437V4.18286Z" stroke="#DEC8A1" stroke-width="2" stroke-linecap="round" stroke-linejoin="round"/>
<path d="M55.3433 1V27.9012" stroke="#DEC8A1" stroke-width="2" stroke-linecap="round" stroke-linejoin="round"/>
<path d="M61.914 27.9011H48.2076V39.1274H35.9042V52.6804H21.3926V65H8.24902" stroke="#DEC8A1" stroke-width="2" stroke-linecap="round" stroke-linejoin="round"/>
<path d="M10.9309 16.4217C9.72995 16.7179 4.85596 18.067 2.49437 22.5963C0.875988 25.7011 0.159701 30.8282 2.49437 32.3362C2.92791 32.6162 4.0562 33.1521 6.32085 32.3362C5.60726 29.0967 6.29123 26.7997 6.71131 25.7253C6.8998 25.246 8.20043 21.9204 9.84574 22.0012C10.9606 22.0577 11.7145 23.6465 12.0592 24.3762C14.34 29.191 12.9882 36.7766 12.0592 40.77C11.2245 40.9747 5.27335 42.5123 3.97003 47.0308C3.57149 48.4122 3.2295 51.3797 4.75363 52.2603C5.59379 52.7477 6.67899 52.4084 7.2768 52.1606L16.2358 45.1162L17.1056 36.2461C17.3291 36.1707 19.4645 35.4948 21.3575 36.8466C22.8736 37.9291 23.1805 39.5637 23.2371 39.8976C23.948 42.2457 24.6589 44.5938 25.3671 46.942C27.5321 48.3018 28.5715 47.8602 28.8408 47.7202C30.6989 46.7535 30.0741 42.4557 29.8022 40.595C29.5894 39.1382 29.3121 37.2263 28.1165 35.1151C25.7441 30.9197 21.6726 29.3202 20.3208 28.8544V22.0712C21.7453 24.6967 24.4219 26.3581 27.279 26.3339C31.881 26.2935 34.1026 21.8988 34.4984 21.1152C34.8269 20.4663 36.0252 18.0912 35.107 17.0275C34.1268 15.8939 31.267 16.8579 29.8022 17.6361C28.2484 18.4628 27.2817 19.6019 26.7593 20.3316C25.9676 19.3703 23.7864 16.9871 20.0623 15.8966C15.6568 14.604 12.0027 15.972 10.9309 16.419V16.4217Z" stroke="#DEC8A1" stroke-width="2" stroke-linecap="round" stroke-linejoin="round"/>
</svg>
