<svg width="64" height="58" viewBox="0 0 64 58" fill="none" xmlns="http://www.w3.org/2000/svg">
<path d="M10.6079 38.8591C13.3793 38.8591 15.6259 36.6124 15.6259 33.841C15.6259 31.0696 13.3793 28.823 10.6079 28.823C7.83649 28.823 5.58984 31.0696 5.58984 33.841C5.58984 36.6124 7.83649 38.8591 10.6079 38.8591Z" stroke="#DEC8A1" stroke-width="2" stroke-linecap="round" stroke-linejoin="round"/>
<path d="M1 56.6486C1.4722 52.4527 1.86611 47.8408 2.52914 43.6693C2.98911 40.77 5.07608 37.9858 8.32031 38.3014" stroke="#DEC8A1" stroke-width="2" stroke-linecap="round" stroke-linejoin="round"/>
<path d="M14.5615 36.9214C14.5615 36.9214 24.4483 34.9445 27.2962 20.4972C28.221 18.2194 31.9228 17.9356 31.4946 22.063C29.8578 30.2788 29.1459 32.6667 19.6114 41.7046V56.2571" stroke="#DEC8A1" stroke-width="2" stroke-linecap="round" stroke-linejoin="round"/>
<path d="M53.3921 38.8591C56.1634 38.8591 58.4101 36.6124 58.4101 33.841C58.4101 31.0696 56.1634 28.823 53.3921 28.823C50.6207 28.823 48.374 31.0696 48.374 33.841C48.374 36.6124 50.6207 38.8591 53.3921 38.8591Z" stroke="#DEC8A1" stroke-width="2" stroke-linecap="round" stroke-linejoin="round"/>
<path d="M63 56.6486C62.5278 52.4527 62.1339 47.8408 61.4709 43.6693C61.0109 40.77 58.9239 37.9858 55.6797 38.3014" stroke="#DEC8A1" stroke-width="2" stroke-linecap="round" stroke-linejoin="round"/>
<path d="M49.4381 36.9214C49.4381 36.9214 39.5513 34.9445 36.7034 20.4972C35.7786 18.2194 32.0769 17.9356 32.505 22.063C34.1418 30.2788 34.8538 32.6667 44.3883 41.7046V56.2571" stroke="#DEC8A1" stroke-width="2" stroke-linecap="round" stroke-linejoin="round"/>
<path d="M18.1851 6.69336L24.1622 13.0986" stroke="#DEC8A1" stroke-width="2" stroke-linecap="round" stroke-linejoin="round"/>
<path d="M31.5264 1V9.89594" stroke="#DEC8A1" stroke-width="2" stroke-linecap="round" stroke-linejoin="round"/>
<path d="M39.6763 13.2405L45.5115 7.40527" stroke="#DEC8A1" stroke-width="2" stroke-linecap="round" stroke-linejoin="round"/>
</svg>
