<svg width="63" height="63" viewBox="0 0 63 63" fill="none" xmlns="http://www.w3.org/2000/svg">
<path d="M50.5525 14.9264C47.6607 14.9264 45.311 12.5696 45.311 9.6706C45.311 6.77158 47.6625 4.41656 50.5525 4.41656C53.4426 4.41656 55.7959 6.77337 55.7959 9.6706C55.7959 12.5678 53.4444 14.9264 50.5525 14.9264ZM50.5525 5.88397C48.4713 5.88397 46.7767 7.58402 46.7767 9.6706C46.7767 11.7572 48.4695 13.459 50.5525 13.459C52.6356 13.459 54.3284 11.759 54.3284 9.6706C54.3284 7.58223 52.6356 5.88397 50.5525 5.88397Z" fill="#DEC8A1"/>
<path d="M50.5523 15.1859C47.519 15.1859 45.0513 12.711 45.0513 9.67056C45.0513 6.63016 47.519 4.15704 50.5523 4.15704C53.5855 4.15704 56.0533 6.63016 56.0533 9.67056C56.0533 12.711 53.5855 15.1859 50.5523 15.1859ZM50.5523 4.67601C47.8036 4.67601 45.5684 6.91649 45.5684 9.67056C45.5684 12.4246 47.8053 14.6669 50.5523 14.6669C53.2992 14.6669 55.5361 12.4264 55.5361 9.67056C55.5361 6.9147 53.2992 4.67601 50.5523 4.67601ZM50.5523 13.7185C48.3279 13.7185 46.5187 11.9021 46.5187 9.67056C46.5187 7.43903 48.3279 5.62445 50.5523 5.62445C52.7766 5.62445 54.5858 7.44082 54.5858 9.67056C54.5858 11.9003 52.7766 13.7185 50.5523 13.7185ZM50.5523 6.14341C48.6124 6.14341 47.0341 7.72535 47.0341 9.67056C47.0341 11.6158 48.6124 13.1995 50.5523 13.1995C52.4921 13.1995 54.0705 11.6176 54.0705 9.67056C54.0705 7.72356 52.4921 6.14341 50.5523 6.14341Z" fill="#DEC8A1"/>
<path d="M60.8277 52.0572H41.2825C40.8781 52.0572 40.5488 51.7279 40.5488 51.3235C40.5488 50.9191 40.8781 50.5898 41.2825 50.5898H60.8277C61.0084 50.5898 61.1176 50.4896 61.1677 50.4287C61.2178 50.3697 61.2948 50.2408 61.2608 50.0637L59.3943 40.5327C59.3156 40.1354 59.575 39.7506 59.9723 39.6719C60.3714 39.595 60.7543 39.8526 60.8331 40.2499L62.6995 49.7809C62.8087 50.3428 62.662 50.9191 62.2987 51.3593C61.9354 51.8013 61.3986 52.0536 60.8277 52.0536V52.0572Z" fill="#DEC8A1"/>
<path d="M60.8256 52.3167H41.2805C40.7347 52.3167 40.2891 51.8711 40.2891 51.3253C40.2891 50.7795 40.7347 50.3339 41.2805 50.3339H60.8256C60.8811 50.3339 60.9294 50.3124 60.967 50.2659C61.001 50.2247 61.0135 50.171 61.0028 50.1138L59.1381 40.5845C59.0325 40.0477 59.3833 39.5269 59.9183 39.4196C60.4516 39.3176 60.9777 39.6665 61.0833 40.2016L62.9498 49.7326C63.0751 50.3714 62.9086 51.0264 62.4953 51.5275C62.0837 52.0285 61.4752 52.3167 60.8256 52.3167ZM41.2805 50.851C41.0192 50.851 40.8062 51.0622 40.8062 51.3253C40.8062 51.5883 41.0192 51.7995 41.2805 51.7995H60.8256C61.3195 51.7995 61.783 51.5812 62.0962 51.2018C62.4111 50.8188 62.5382 50.3213 62.4434 49.8346L60.5769 40.3054C60.5268 40.0495 60.2798 39.8759 60.0168 39.9296C59.7627 39.9797 59.5926 40.2302 59.6428 40.4861L61.5092 50.0153C61.5504 50.2247 61.4985 50.4287 61.3643 50.5933C61.282 50.6918 61.1066 50.851 60.8238 50.851H41.2787H41.2805Z" fill="#DEC8A1"/>
<path d="M59.0054 41.3129C58.4972 41.3129 57.9997 41.1644 57.5667 40.8763C56.9851 40.4915 56.5896 39.9028 56.4536 39.2192L54.4493 29.2999C54.3688 28.9026 54.6265 28.5161 55.022 28.4355C55.421 28.355 55.8076 28.6127 55.8863 29.0082L57.8906 38.9275C57.9514 39.2281 58.125 39.4858 58.3791 39.6541C58.6332 39.8223 58.9392 39.8795 59.2381 39.8223C59.902 39.6881 60.4764 39.3033 60.8522 38.7378C61.2262 38.1723 61.3605 37.4959 61.2262 36.8302L57.989 20.8068C57.6919 19.343 56.3927 18.2782 54.9003 18.2782H50.5535C50.1491 18.2782 49.8198 17.9489 49.8198 17.5445C49.8198 17.1401 50.1491 16.8108 50.5535 16.8108H54.9003C57.0889 16.8108 58.9929 18.3677 59.426 20.5151L62.6632 36.5385C62.8744 37.5889 62.665 38.6555 62.0745 39.5485C61.4821 40.4397 60.5784 41.0481 59.5298 41.2593C59.3562 41.295 59.1808 41.3111 59.0072 41.3111L59.0054 41.3129Z" fill="#DEC8A1"/>
<path d="M59.006 41.5725C58.4459 41.5725 57.8983 41.406 57.4258 41.0911C56.7888 40.6688 56.3539 40.0209 56.2018 39.2693L54.1975 29.35C54.0902 28.815 54.4373 28.2906 54.9724 28.1815C55.2337 28.1314 55.4985 28.1815 55.7186 28.3282C55.9387 28.4749 56.089 28.7004 56.1392 28.9581L58.1434 38.8774C58.1917 39.1101 58.326 39.3087 58.521 39.4394C58.7143 39.5646 58.9505 39.6147 59.1903 39.5682C59.7826 39.4483 60.298 39.1029 60.6362 38.5947C60.9727 38.0865 61.0926 37.478 60.9709 36.8803L57.7336 20.8587C57.4616 19.513 56.268 18.5377 54.8972 18.5377H50.5505C50.0029 18.5377 49.5591 18.0921 49.5591 17.5463C49.5591 17.0005 50.0047 16.5549 50.5505 16.5549H54.8972C57.2075 16.5549 59.2171 18.2013 59.677 20.4668L62.9143 36.4884C63.1398 37.6033 62.9179 38.7414 62.288 39.6917C61.6563 40.6419 60.6953 41.2897 59.5804 41.5152C59.3925 41.5528 59.1992 41.5725 59.006 41.5725ZM55.171 28.6789C55.1388 28.6789 55.1066 28.6825 55.0744 28.6897C54.8185 28.7416 54.6521 28.9921 54.7022 29.2498L56.7064 39.1691C56.8317 39.7847 57.1878 40.3144 57.7104 40.6598C58.2329 41.0052 58.8771 41.1269 59.4766 41.007C60.4555 40.8101 61.3019 40.2411 61.8567 39.4071C62.4096 38.5732 62.6065 37.5729 62.4079 36.5904L59.1706 20.5688C58.7608 18.5431 56.9623 17.0739 54.8972 17.0739H50.5505C50.2874 17.0739 50.0745 17.2851 50.0745 17.5481C50.0745 17.8112 50.2874 18.0223 50.5505 18.0223H54.8972C56.5132 18.0223 57.9179 19.1748 58.2401 20.7585L61.4773 36.7819C61.6258 37.5156 61.4791 38.2618 61.0657 38.8828C60.6523 39.5056 60.0206 39.9279 59.2887 40.0782C58.9111 40.1462 58.5407 40.0728 58.2365 39.8706C57.9269 39.6648 57.7139 39.3499 57.6388 38.9812L55.6345 29.0601C55.6095 28.9349 55.5379 28.8293 55.4323 28.7595C55.3536 28.7076 55.2641 28.6807 55.171 28.6807V28.6789Z" fill="#DEC8A1"/>
<path d="M47.8802 62.7425C45.9064 62.7425 44.4766 61.4469 44.4766 59.6628V51.3254C44.4766 50.9209 44.8058 50.5917 45.2103 50.5917C45.6147 50.5917 45.944 50.9209 45.944 51.3254V59.6628C45.944 60.7776 46.9175 61.2769 47.882 61.2769C48.8466 61.2769 49.8183 60.7776 49.8183 59.6628V51.3254C49.8183 50.9209 50.1476 50.5917 50.552 50.5917C50.9564 50.5917 51.2857 50.9209 51.2857 51.3254V59.6628C51.2857 61.4487 49.8541 62.7425 47.882 62.7425H47.8802Z" fill="#DEC8A1"/>
<path d="M47.8804 63.002C45.7581 63.002 44.2173 61.5972 44.2173 59.6628V51.3254C44.2173 50.7796 44.6629 50.334 45.2087 50.334C45.7545 50.334 46.2001 50.7796 46.2001 51.3254V59.6628C46.2001 60.6631 47.1038 61.0174 47.8804 61.0174C48.6571 61.0174 49.559 60.6631 49.559 59.6628V51.3254C49.559 50.7796 50.0046 50.334 50.5504 50.334C51.0962 50.334 51.5418 50.7796 51.5418 51.3254V59.6628C51.5418 61.5972 50.0028 63.002 47.8804 63.002ZM45.2087 50.8512C44.9474 50.8512 44.7345 51.0623 44.7345 51.3254V59.6628C44.7345 61.2984 46.0569 62.4848 47.8804 62.4848C49.704 62.4848 51.0246 61.3002 51.0246 59.6628V51.3254C51.0246 51.0623 50.8117 50.8512 50.5504 50.8512C50.2891 50.8512 50.0744 51.0623 50.0744 51.3254V59.6628C50.0744 60.9494 48.9363 61.5364 47.8804 61.5364C46.8246 61.5364 45.6847 60.9494 45.6847 59.6628V51.3254C45.6847 51.0623 45.4717 50.8512 45.2087 50.8512Z" fill="#DEC8A1"/>
<path d="M53.222 62.7425C51.25 62.7425 49.8184 61.4469 49.8184 59.6628V51.3254C49.8184 50.9209 50.1476 50.5917 50.5521 50.5917C50.9565 50.5917 51.2858 50.9209 51.2858 51.3254V59.6628C51.2858 60.7776 52.2593 61.2769 53.222 61.2769C54.1848 61.2769 55.1601 60.7776 55.1601 59.6628V51.3254C55.1601 50.9209 55.4894 50.5917 55.8938 50.5917C56.2982 50.5917 56.6275 50.9209 56.6275 51.3254V59.6628C56.6275 61.4487 55.1959 62.7425 53.2238 62.7425H53.222Z" fill="#DEC8A1"/>
<path d="M53.2219 63.002C51.0995 63.002 49.5605 61.5972 49.5605 59.6628V51.3254C49.5605 50.7796 50.0061 50.334 50.5519 50.334C51.0977 50.334 51.5433 50.7796 51.5433 51.3254V59.6628C51.5433 60.6631 52.447 61.0174 53.2219 61.0174C53.9968 61.0174 54.9023 60.6631 54.9023 59.6628V51.3254C54.9023 50.7796 55.3479 50.334 55.8937 50.334C56.4395 50.334 56.8851 50.7796 56.8851 51.3254V59.6628C56.8851 61.5972 55.3443 63.002 53.2237 63.002H53.2219ZM50.5519 50.8512C50.2907 50.8512 50.0777 51.0623 50.0777 51.3254V59.6628C50.0777 61.2984 51.4002 62.4848 53.2219 62.4848C55.0436 62.4848 56.3679 61.3002 56.3679 59.6628V51.3254C56.3679 51.0623 56.1549 50.8512 55.8937 50.8512C55.6324 50.8512 55.4194 51.0623 55.4194 51.3254V59.6628C55.4194 60.9494 54.2813 61.5364 53.2237 61.5364C52.1661 61.5364 51.028 60.9494 51.028 59.6628V51.3254C51.028 51.0623 50.815 50.8512 50.5537 50.8512H50.5519Z" fill="#DEC8A1"/>
<path d="M42.3968 21.3955C42.3485 21.3955 42.3002 21.3902 42.2501 21.3812C41.8528 21.3025 41.5969 20.9141 41.6774 20.5169C42.1087 18.3712 44.0127 16.8126 46.2031 16.8126H50.5499C50.9543 16.8126 51.2836 17.1418 51.2836 17.5463C51.2836 17.9507 50.9543 18.28 50.5499 18.28H46.2031C44.7089 18.28 43.4097 19.3429 43.1144 20.8086C43.0446 21.1557 42.7386 21.3973 42.3968 21.3973V21.3955Z" fill="#DEC8A1"/>
<path d="M42.3974 21.6551C42.3312 21.6551 42.265 21.6497 42.1988 21.6372C41.9411 21.5853 41.7174 21.4349 41.5706 21.2148C41.4239 20.9929 41.372 20.7281 41.4239 20.4668C41.8784 18.2013 43.8881 16.5567 46.2019 16.5567H50.5505C51.0963 16.5567 51.5419 17.0023 51.5419 17.5481C51.5419 18.0939 51.0963 18.5395 50.5505 18.5395H46.2019C44.8312 18.5395 43.6393 19.5148 43.3673 20.8605C43.2743 21.3204 42.8663 21.6551 42.3974 21.6551ZM46.2019 17.0739C44.1332 17.0739 42.3366 18.5431 41.9303 20.5688C41.9053 20.6941 41.9303 20.8229 42.0001 20.9285C42.0699 21.0323 42.1773 21.1057 42.3008 21.1289C42.5692 21.1844 42.8108 21.0072 42.8609 20.7585C43.1812 19.173 44.586 18.0205 46.2019 18.0205H50.5505C50.8117 18.0205 51.0247 17.8094 51.0247 17.5463C51.0247 17.2832 50.8117 17.0721 50.5505 17.0721H46.2019V17.0739Z" fill="#DEC8A1"/>
<path d="M42.0399 23.1654C41.9915 23.1654 41.9432 23.16 41.8931 23.1511C41.4958 23.0706 41.2399 22.684 41.3205 22.2868L41.6784 20.5169C41.7589 20.1214 42.1437 19.8619 42.5427 19.9443C42.94 20.0248 43.1959 20.4113 43.1154 20.8086L42.7575 22.5784C42.6877 22.9256 42.3817 23.1672 42.0399 23.1672V23.1654Z" fill="#DEC8A1"/>
<path d="M42.0394 23.4249C41.9732 23.4249 41.9069 23.4178 41.8407 23.4035C41.3057 23.2961 40.9585 22.7718 41.0659 22.2367L41.4238 20.4686C41.4775 20.2056 41.6278 19.9819 41.8497 19.8369C42.0698 19.6902 42.3293 19.6347 42.5923 19.6938C43.1256 19.8012 43.4746 20.3255 43.3672 20.8606L43.0093 22.6286C42.9162 23.0903 42.5082 23.4249 42.0376 23.4249H42.0394ZM42.3937 20.1877C42.3024 20.1877 42.213 20.2127 42.136 20.2646C42.0304 20.3344 41.9571 20.4436 41.932 20.5671L41.5741 22.3351C41.5222 22.5928 41.6886 22.8433 41.9463 22.8952C42.2147 22.9561 42.4563 22.7753 42.5064 22.523L42.8643 20.7568C42.9162 20.4991 42.7498 20.2485 42.4921 20.1966C42.4599 20.1895 42.4277 20.1859 42.3955 20.1859L42.3937 20.1877Z" fill="#DEC8A1"/>
<path d="M16.2459 62.7425H15.6589C13.6368 62.7425 11.9922 61.0979 11.9922 59.0758C11.9922 58.6713 12.3215 58.3421 12.7259 58.3421C13.1303 58.3421 13.4596 58.6713 13.4596 59.0758C13.4596 60.2891 14.4456 61.2751 15.6589 61.2751H16.2459C17.4592 61.2751 18.4452 60.2891 18.4452 59.0758V35.608C18.4452 35.2035 18.7745 34.8743 19.1789 34.8743C19.5833 34.8743 19.9126 35.2035 19.9126 35.608V59.0758C19.9126 61.0979 18.268 62.7425 16.2459 62.7425Z" fill="#DEC8A1"/>
<path d="M16.2458 63.0019H15.6588C13.4953 63.0019 11.7344 61.2393 11.7344 59.0757C11.7344 58.5299 12.18 58.0843 12.7258 58.0843C13.2716 58.0843 13.7172 58.5299 13.7172 59.0757C13.7172 60.1477 14.5887 61.0174 15.6588 61.0174H16.2458C17.3177 61.0174 18.1874 60.1459 18.1874 59.0757V35.6079C18.1874 35.0603 18.633 34.6147 19.1788 34.6147C19.7246 34.6147 20.1702 35.0603 20.1702 35.6079V59.0757C20.1702 61.2393 18.4093 63.0019 16.2458 63.0019ZM12.7258 58.6015C12.4645 58.6015 12.2515 58.8127 12.2515 59.0757C12.2515 60.9547 13.7816 62.4848 15.6606 62.4848H16.2476C18.1266 62.4848 19.6566 60.9565 19.6566 59.0757V35.6079C19.6566 35.3449 19.4436 35.1319 19.1824 35.1319C18.9211 35.1319 18.7064 35.3449 18.7064 35.6079V59.0757C18.7064 60.4304 17.604 61.5363 16.2476 61.5363H15.6606C14.3059 61.5363 13.2018 60.4322 13.2018 59.0757C13.2018 58.8127 12.9888 58.6015 12.7276 58.6015H12.7258Z" fill="#DEC8A1"/>
<path d="M9.79227 62.7425H9.20531C7.18315 62.7425 5.53857 61.0979 5.53857 59.0758V35.608C5.53857 35.2035 5.86785 34.8743 6.27228 34.8743C6.67671 34.8743 7.00598 35.2035 7.00598 35.608V59.0758C7.00598 60.2891 7.99201 61.2751 9.20531 61.2751H9.79227C11.0056 61.2751 11.9916 60.2891 11.9916 59.0758V39.1083C11.9916 38.7038 12.3209 38.3746 12.7253 38.3746C13.1297 38.3746 13.459 38.7038 13.459 39.1083V59.0758C13.459 61.0979 11.8144 62.7425 9.79227 62.7425Z" fill="#DEC8A1"/>
<path d="M9.79215 63.0019H9.20519C7.03986 63.0019 5.28076 61.2393 5.28076 59.0757V35.6079C5.28076 35.0603 5.72635 34.6147 6.27216 34.6147C6.81796 34.6147 7.26355 35.0603 7.26355 35.6079V59.0757C7.26355 60.1477 8.13505 61.0174 9.20519 61.0174H9.79215C10.8641 61.0174 11.7338 60.1459 11.7338 59.0757V39.11C11.7338 38.5624 12.1794 38.1168 12.7252 38.1168C13.271 38.1168 13.7166 38.5624 13.7166 39.11V59.0757C13.7166 61.2393 11.9557 63.0019 9.79215 63.0019ZM6.27216 35.1337C6.01089 35.1337 5.79793 35.3467 5.79793 35.6097V59.0775C5.79793 60.9565 7.32798 62.4866 9.20697 62.4866H9.79394C11.6729 62.4866 13.203 60.9583 13.203 59.0775V39.1118C13.203 38.8488 12.99 38.6358 12.7288 38.6358C12.4675 38.6358 12.2545 38.8488 12.2545 39.1118V59.0775C12.2545 60.4322 11.1522 61.5381 9.79573 61.5381H9.20876C7.8541 61.5381 6.74996 60.434 6.74996 59.0775V35.6097C6.74996 35.3467 6.53701 35.1337 6.27395 35.1337H6.27216Z" fill="#DEC8A1"/>
<path d="M12.725 11.113C9.7329 11.113 7.29736 8.67744 7.29736 5.68535C7.29736 2.69327 9.7329 0.259521 12.725 0.259521C15.7171 0.259521 18.1526 2.69506 18.1526 5.68714C18.1526 8.67923 15.7171 11.1148 12.725 11.1148V11.113ZM12.725 1.72514C10.5418 1.72514 8.76477 3.50214 8.76477 5.68535C8.76477 7.86857 10.5418 9.64557 12.725 9.64557C14.9082 9.64557 16.6852 7.86857 16.6852 5.68535C16.6852 3.50214 14.9082 1.72514 12.725 1.72514Z" fill="#DEC8A1"/>
<path d="M12.7254 11.3706C9.59011 11.3706 7.04004 8.82056 7.04004 5.68531C7.04004 2.55007 9.59011 0 12.7254 0C15.8606 0 18.4107 2.55007 18.4107 5.6871C18.4107 8.82414 15.8606 11.3724 12.7254 11.3724V11.3706ZM12.7254 0.517172C9.87464 0.517172 7.55721 2.83639 7.55721 5.68531C7.55721 8.53424 9.87643 10.8517 12.7254 10.8517C15.5743 10.8517 17.8935 8.53424 17.8935 5.68531C17.8935 2.83639 15.5761 0.517172 12.7254 0.517172ZM12.7254 9.90501C10.399 9.90501 8.50745 8.01169 8.50745 5.6871C8.50745 3.36251 10.399 1.46741 12.7254 1.46741C15.0517 1.46741 16.9433 3.36072 16.9433 5.6871C16.9433 8.01348 15.0517 9.90501 12.7254 9.90501ZM12.7254 1.98458C10.6835 1.98458 9.02283 3.64526 9.02283 5.6871C9.02283 7.72895 10.6835 9.38784 12.7254 9.38784C14.7672 9.38784 16.4279 7.72895 16.4279 5.6871C16.4279 3.64526 14.7672 1.98458 12.7254 1.98458Z" fill="#DEC8A1"/>
<path d="M19.1805 36.3416C18.776 36.3416 18.4468 36.0123 18.4468 35.6079V20.941C18.4468 20.5365 18.776 20.2073 19.1805 20.2073C19.5849 20.2073 19.9142 20.5365 19.9142 20.941V35.6079C19.9142 36.0123 19.5849 36.3416 19.1805 36.3416Z" fill="#DEC8A1"/>
<path d="M19.1804 36.6011C18.6328 36.6011 18.189 36.1555 18.189 35.6097V20.941C18.189 20.3952 18.6346 19.9496 19.1804 19.9496C19.7262 19.9496 20.1718 20.3952 20.1718 20.941V35.6097C20.1718 36.1555 19.7262 36.6011 19.1804 36.6011ZM19.1804 20.4668C18.9173 20.4668 18.7043 20.6779 18.7043 20.941V35.6097C18.7043 35.8728 18.9173 36.0839 19.1804 36.0839C19.4434 36.0839 19.6546 35.8728 19.6546 35.6097V20.941C19.6546 20.6779 19.4416 20.4668 19.1804 20.4668Z" fill="#DEC8A1"/>
<path d="M4.51102 38.1007C2.16496 38.1007 0.257324 36.1931 0.257324 33.847V20.9392C0.257324 16.6533 3.74511 13.1655 8.03101 13.1655H17.4188C21.7048 13.1655 25.1925 16.6533 25.1925 20.9392V22.2241C25.1925 22.6285 24.8633 22.9578 24.4588 22.9578C24.0544 22.9578 23.7251 22.6285 23.7251 22.2241V20.9392C23.7251 17.4622 20.8959 14.6329 17.4188 14.6329H8.03101C4.55397 14.6329 1.72473 17.4622 1.72473 20.9392V33.847C1.72473 35.3842 2.97561 36.6333 4.51102 36.6333C5.07651 36.6333 5.53821 36.1734 5.53821 35.6061V20.9392C5.53821 20.5348 5.86748 20.2055 6.27191 20.2055C6.67634 20.2055 7.00562 20.5348 7.00562 20.9392V35.6061C7.00562 36.9805 5.88716 38.099 4.51281 38.099L4.51102 38.1007Z" fill="#DEC8A1"/>
<path d="M4.51139 38.3602C2.02395 38.3602 0 36.3363 0 33.847V20.9392C0 16.5101 3.6041 12.9078 8.03138 12.9078H17.4192C21.8483 12.9078 25.4506 16.5119 25.4506 20.9392V22.2259C25.4506 22.7717 25.005 23.2173 24.4592 23.2173C23.9134 23.2173 23.4678 22.7717 23.4678 22.2259V20.9392C23.4678 17.6035 20.7549 14.8906 17.4192 14.8906H8.03138C4.69571 14.8906 1.98279 17.6035 1.98279 20.9392V33.847C1.98279 35.2411 3.11735 36.3739 4.51139 36.3739C4.9355 36.3739 5.27909 36.0303 5.27909 35.6079V20.9392C5.27909 20.3934 5.72468 19.9478 6.27049 19.9478C6.81629 19.9478 7.26188 20.3934 7.26188 20.9392V35.6079C7.26188 37.1237 6.02711 38.3602 4.5096 38.3602H4.51139ZM8.03138 13.425C3.88684 13.425 0.515383 16.7965 0.515383 20.9392V33.847C0.515383 36.0499 2.30848 37.8413 4.51139 37.8413C5.74437 37.8413 6.7465 36.8391 6.7465 35.6061V20.9374C6.7465 20.6744 6.53355 20.4632 6.27049 20.4632C6.00743 20.4632 5.79626 20.6744 5.79626 20.9374V35.6061C5.79626 36.3148 5.22004 36.891 4.51139 36.891C2.83281 36.891 1.46562 35.5238 1.46562 33.8453V20.9374C1.46562 17.3172 4.41117 14.3717 8.03138 14.3717H17.4192C21.0394 14.3717 23.985 17.3172 23.985 20.9374V22.2241C23.985 22.4872 24.1979 22.6983 24.461 22.6983C24.724 22.6983 24.9352 22.4872 24.9352 22.2241V20.9374C24.9352 16.7947 21.5638 13.4232 17.4192 13.4232H8.03138V13.425Z" fill="#DEC8A1"/>
<path d="M19.1801 36.3219H6.27228C5.86785 36.3219 5.53857 35.9926 5.53857 35.5882C5.53857 35.1838 5.86785 34.8545 6.27228 34.8545H19.1801C19.5845 34.8545 19.9138 35.1838 19.9138 35.5882C19.9138 35.9926 19.5845 36.3219 19.1801 36.3219Z" fill="#DEC8A1"/>
<path d="M19.18 36.5796H6.27216C5.72635 36.5796 5.28076 36.134 5.28076 35.5882C5.28076 35.0424 5.72635 34.5968 6.27216 34.5968H19.18C19.7258 34.5968 20.1714 35.0424 20.1714 35.5882C20.1714 36.134 19.7258 36.5796 19.18 36.5796ZM6.27216 35.114C6.01089 35.114 5.79793 35.3251 5.79793 35.5882C5.79793 35.8513 6.01089 36.0624 6.27216 36.0624H19.18C19.4413 36.0624 19.6542 35.8513 19.6542 35.5882C19.6542 35.3251 19.4413 35.114 19.18 35.114H6.27216Z" fill="#DEC8A1"/>
<path d="M35.4487 62.7425H34.9852C33.3049 62.7425 31.9395 61.3771 31.9395 59.6968C31.9395 59.2923 32.2687 58.9631 32.6732 58.9631C33.0776 58.9631 33.4069 59.2923 33.4069 59.6968C33.4069 60.5683 34.1155 61.2751 34.9852 61.2751H35.4487C36.3202 61.2751 37.0289 60.5665 37.0289 59.6968V41.1788C37.0289 40.7743 37.3581 40.4451 37.7626 40.4451C38.167 40.4451 38.4963 40.7743 38.4963 41.1788V59.6968C38.4963 61.3771 37.1291 62.7425 35.4487 62.7425Z" fill="#DEC8A1"/>
<path d="M35.4481 63.002H34.9846C33.1629 63.002 31.6812 61.5185 31.6812 59.6985C31.6812 59.151 32.1267 58.7054 32.6725 58.7054C33.2184 58.7054 33.6639 59.151 33.6639 59.6985C33.6639 60.4269 34.2563 61.0192 34.9846 61.0192H35.4481C36.1764 61.0192 36.7706 60.4269 36.7706 59.6985V41.1788C36.7706 40.633 37.2161 40.1874 37.762 40.1874C38.3078 40.1874 38.7533 40.633 38.7533 41.1788V59.6985C38.7533 61.5203 37.2716 63.002 35.4481 63.002ZM32.6725 59.2225C32.4095 59.2225 32.1965 59.4355 32.1965 59.6985C32.1965 61.2357 33.4474 62.4848 34.9846 62.4848H35.4481C36.9853 62.4848 38.2362 61.2357 38.2362 59.6985V41.1788C38.2362 40.9157 38.0232 40.7045 37.762 40.7045C37.5007 40.7045 37.2877 40.9157 37.2877 41.1788V59.6985C37.2877 60.7114 36.4628 61.5364 35.4499 61.5364H34.9864C33.9735 61.5364 33.1504 60.7114 33.1504 59.6985C33.1504 59.4355 32.9374 59.2225 32.6761 59.2225H32.6725Z" fill="#DEC8A1"/>
<path d="M30.3607 62.7425H29.8972C28.2168 62.7425 26.8496 61.3771 26.8496 59.6968V41.1788C26.8496 40.7743 27.1789 40.4451 27.5833 40.4451C27.9877 40.4451 28.317 40.7743 28.317 41.1788V59.6968C28.317 60.5683 29.0257 61.2751 29.8972 61.2751H30.3607C31.2322 61.2751 31.939 60.5665 31.939 59.6968V43.9525C31.939 43.5481 32.2683 43.2188 32.6727 43.2188C33.0772 43.2188 33.4064 43.5481 33.4064 43.9525V59.6968C33.4064 61.3771 32.041 62.7425 30.3607 62.7425Z" fill="#DEC8A1"/>
<path d="M30.3612 63.002H29.8995C28.0778 63.002 26.5942 61.5185 26.5942 59.6985V41.1788C26.5942 40.633 27.0398 40.1874 27.5856 40.1874C28.1314 40.1874 28.577 40.633 28.577 41.1788V59.6985C28.577 60.4269 29.1712 61.0192 29.8995 61.0192H30.3612C31.0895 61.0192 31.6819 60.4269 31.6819 59.6985V43.9543C31.6819 43.4085 32.1274 42.9629 32.6732 42.9629C33.2191 42.9629 33.6646 43.4085 33.6646 43.9543V59.6985C33.6646 61.5203 32.1829 63.002 30.3612 63.002ZM27.5856 40.7028C27.3226 40.7028 27.1096 40.9139 27.1096 41.177V59.6968C27.1096 61.234 28.3623 62.483 29.8995 62.483H30.3612C31.8984 62.483 33.1493 61.234 33.1493 59.6968V43.9525C33.1493 43.6895 32.9363 43.4783 32.675 43.4783C32.4138 43.4783 32.199 43.6895 32.199 43.9525V59.6968C32.199 60.7096 31.3758 61.5346 30.363 61.5346H29.9013C28.8866 61.5346 28.0634 60.7096 28.0634 59.6968V41.177C28.0634 40.9139 27.8505 40.7028 27.5892 40.7028H27.5856Z" fill="#DEC8A1"/>
<path d="M32.6722 22.0344C30.2277 22.0344 28.2378 20.0445 28.2378 17.6018C28.2378 15.1591 30.2277 13.1674 32.6722 13.1674C35.1167 13.1674 37.1067 15.1573 37.1067 17.6018C37.1067 20.0463 35.1167 22.0344 32.6722 22.0344ZM32.6722 14.633C31.0366 14.633 29.7052 15.9644 29.7052 17.6C29.7052 19.2356 31.0366 20.567 32.6722 20.567C34.3079 20.567 35.6393 19.2374 35.6393 17.6C35.6393 15.9626 34.3079 14.633 32.6722 14.633Z" fill="#DEC8A1"/>
<path d="M32.6726 22.2939C30.0849 22.2939 27.9805 20.1894 27.9805 17.6018C27.9805 15.0141 30.0849 12.9097 32.6726 12.9097C35.2602 12.9097 37.3647 15.0141 37.3647 17.6018C37.3647 20.1894 35.2602 22.2939 32.6726 22.2939ZM32.6726 13.4268C30.3695 13.4268 28.4959 15.3005 28.4959 17.6018C28.4959 19.9031 30.3695 21.7768 32.6726 21.7768C34.9757 21.7768 36.8493 19.9031 36.8493 17.6018C36.8493 15.3005 34.9757 13.4268 32.6726 13.4268ZM32.6726 20.8283C30.8938 20.8283 29.4461 19.3806 29.4461 17.6018C29.4461 15.823 30.892 14.3753 32.6726 14.3753C34.4532 14.3753 35.8991 15.823 35.8991 17.6018C35.8991 19.3806 34.4532 20.8283 32.6726 20.8283ZM32.6726 14.8925C31.1783 14.8925 29.9633 16.1058 29.9633 17.6018C29.9633 19.0978 31.1783 20.3111 32.6726 20.3111C34.1669 20.3111 35.3819 19.0978 35.3819 17.6018C35.3819 16.1058 34.1669 14.8925 32.6726 14.8925Z" fill="#DEC8A1"/>
<path d="M38.9917 43.3136C37.909 43.3136 37.0286 42.4332 37.0286 41.3505V29.6274C37.0286 29.2229 37.3578 28.8937 37.7623 28.8937C38.1667 28.8937 38.496 29.2229 38.496 29.6274V41.3505C38.496 41.6243 38.7179 41.8462 38.9917 41.8462C40.205 41.8462 41.191 40.8602 41.191 39.6469V29.6292C41.191 26.9717 39.0293 24.81 36.3736 24.81H28.9704C26.3147 24.81 24.153 26.9717 24.153 29.6292V39.6469C24.153 40.8602 25.139 41.8462 26.3523 41.8462C26.6261 41.8462 26.848 41.6243 26.848 41.3505V29.6274C26.848 29.2229 27.1773 28.8937 27.5817 28.8937C27.9861 28.8937 28.3154 29.2229 28.3154 29.6274V41.3505C28.3154 42.4332 27.4349 43.3136 26.3523 43.3136C24.3301 43.3136 22.6855 41.6673 22.6855 39.6469V29.6292C22.6855 26.1647 25.504 23.3444 28.9704 23.3444H36.3736C39.8381 23.3444 42.6584 26.1647 42.6584 29.6292V39.6469C42.6584 41.6691 41.0121 43.3136 38.9917 43.3136Z" fill="#DEC8A1"/>
<path d="M38.9912 43.5731C37.7672 43.5731 36.7704 42.5763 36.7704 41.3505V29.6274C36.7704 29.0815 37.216 28.636 37.7618 28.636C38.3076 28.636 38.7532 29.0815 38.7532 29.6274V41.3505C38.7532 41.4812 38.8606 41.5867 38.9912 41.5867C40.0632 41.5867 40.9329 40.717 40.9329 39.6469V29.6274C40.9329 27.1131 38.8874 25.0694 36.3732 25.0694H28.9717C26.4574 25.0694 24.412 27.1149 24.412 29.6274V39.6469C24.412 40.7188 25.2835 41.5867 26.3536 41.5867C26.4843 41.5867 26.5916 41.4812 26.5916 41.3505V29.6274C26.5916 29.0815 27.0372 28.636 27.583 28.636C28.1288 28.636 28.5744 29.0815 28.5744 29.6274V41.3505C28.5744 42.5763 27.5777 43.5731 26.3536 43.5731C24.1883 43.5731 22.4292 41.8104 22.4292 39.6469V29.6274C22.4292 26.0197 25.364 23.0831 28.9717 23.0831H36.3732C39.9808 23.0831 42.9157 26.0197 42.9157 29.6274V39.6469C42.9157 41.8104 41.1548 43.5731 38.9912 43.5731ZM37.7618 29.1531C37.5006 29.1531 37.2876 29.3643 37.2876 29.6274V41.3505C37.2876 42.29 38.0517 43.0559 38.993 43.0559C40.872 43.0559 42.4021 41.5277 42.4021 39.6469V29.6274C42.4021 26.3042 39.6981 23.602 36.3767 23.602H28.9753C25.6521 23.602 22.95 26.306 22.95 29.6274V39.6469C22.95 41.5259 24.48 43.0559 26.359 43.0559C27.2985 43.0559 28.0644 42.29 28.0644 41.3505V29.6274C28.0644 29.3643 27.8515 29.1531 27.5902 29.1531C27.3289 29.1531 27.1142 29.3643 27.1142 29.6274V41.3505C27.1142 41.7657 26.776 42.1057 26.3608 42.1057C25.0061 42.1057 23.902 41.0034 23.902 39.6469V29.6274C23.902 26.8303 26.1782 24.5505 28.9771 24.5505H36.3785C39.1773 24.5505 41.4554 26.8285 41.4554 29.6274V39.6469C41.4554 41.0016 40.3531 42.1057 38.9966 42.1057C38.5796 42.1057 38.2414 41.7657 38.2414 41.3505V29.6274C38.2414 29.3643 38.0285 29.1531 37.7672 29.1531H37.7618Z" fill="#DEC8A1"/>
<path d="M37.7623 41.9106H27.5853C27.1808 41.9106 26.8516 41.5814 26.8516 41.1769C26.8516 40.7725 27.1808 40.4432 27.5853 40.4432H37.7623C38.1667 40.4432 38.496 40.7725 38.496 41.1769C38.496 41.5814 38.1667 41.9106 37.7623 41.9106Z" fill="#DEC8A1"/>
<path d="M37.7627 42.1701H27.5856C27.038 42.1701 26.5942 41.7245 26.5942 41.1769C26.5942 40.6294 27.0398 40.1855 27.5856 40.1855H37.7627C38.3085 40.1855 38.754 40.6311 38.754 41.1769C38.754 41.7227 38.3085 42.1701 37.7627 42.1701ZM27.5856 40.7027C27.3226 40.7027 27.1096 40.9139 27.1096 41.1769C27.1096 41.44 27.3226 41.653 27.5856 41.653H37.7627C38.0239 41.653 38.2369 41.44 38.2369 41.1769C38.2369 40.9139 38.0239 40.7027 37.7627 40.7027H27.5856Z" fill="#DEC8A1"/>
</svg>
