<svg width="63" height="62" viewBox="0 0 63 62" fill="none" xmlns="http://www.w3.org/2000/svg">
<path d="M24.5261 27.4019C23.956 27.4019 23.4876 26.948 23.4694 26.3761C23.3841 23.5128 22.5162 20.7275 20.9602 18.3236L13.2182 6.36569C12.1452 4.708 12.6009 2.4584 14.235 1.34903C15.8546 0.246925 18.0442 0.613688 19.219 2.1806L25.1235 10.0515C26.1548 11.4259 27.6346 12.4372 29.2922 12.9002L31.5655 13.5339C32.1283 13.6901 32.4569 14.2729 32.299 14.8357C32.1428 15.3986 31.56 15.7272 30.9971 15.5693L28.7239 14.9356C26.6214 14.3491 24.7422 13.0655 23.4313 11.3188L17.5268 3.44793C17.0311 2.78703 16.1051 2.6327 15.4224 3.09569C14.7325 3.56413 14.54 4.51554 14.9921 5.21456L22.7341 17.1725C24.5007 19.9014 25.4866 23.0607 25.5829 26.3107C25.601 26.8935 25.1417 27.3819 24.557 27.3983C24.5461 27.3983 24.5352 27.3983 24.5243 27.3983L24.5261 27.4019Z" fill="#DEC8A1"/>
<path d="M38.0342 27.4019C38.0233 27.4019 38.0124 27.4019 38.0015 27.4019C37.4187 27.3855 36.9593 26.8971 36.9757 26.3143C37.0719 23.0643 38.056 19.905 39.8226 17.1761L47.5664 5.21817C48.0185 4.51914 47.826 3.56773 47.1361 3.0993C46.4534 2.63449 45.5274 2.78882 45.0317 3.45153L39.1254 11.3224C37.8163 13.0691 35.9371 14.3527 33.8346 14.9392L31.5614 15.5729C31.0003 15.729 30.4157 15.4022 30.2596 14.8393C30.1034 14.2765 30.432 13.6937 30.9931 13.5375L33.2663 12.9038C34.9222 12.4427 36.4019 11.4295 37.435 10.0551L43.3414 2.1842C44.5161 0.617291 46.7058 0.252344 48.3253 1.35263C49.9576 2.462 50.4152 4.7116 49.3421 6.36929L41.5983 18.3272C40.0423 20.7311 39.1744 23.5164 39.0891 26.3797C39.0727 26.9516 38.6025 27.4055 38.0324 27.4055L38.0342 27.4019Z" fill="#DEC8A1"/>
<path d="M31.28 10.9702C28.2551 10.9702 25.7949 8.50998 25.7949 5.4851C25.7949 2.46022 28.2551 0 31.28 0C34.3049 0 36.7651 2.46022 36.7651 5.4851C36.7651 8.50998 34.3049 10.9702 31.28 10.9702ZM31.28 2.11343C29.4208 2.11343 27.9083 3.62587 27.9083 5.4851C27.9083 7.34433 29.4208 8.85678 31.28 8.85678C33.1393 8.85678 34.6517 7.34433 34.6517 5.4851C34.6517 3.62587 33.1393 2.11343 31.28 2.11343Z" fill="#DEC8A1"/>
<path d="M21.2032 61.5272H1.05671C0.473887 61.5272 0 61.0533 0 60.4705V43.9099C0 43.3252 0.473887 42.8531 1.05671 42.8531H21.2032C21.7861 42.8531 22.26 43.327 22.26 43.9099V60.4705C22.26 61.0551 21.7861 61.5272 21.2032 61.5272ZM2.11343 59.4138H20.1465V44.9684H2.11343V59.4138Z" fill="#DEC8A1"/>
<path d="M41.3517 61.5272H21.2051C20.6223 61.5272 20.1484 61.0533 20.1484 60.4705V31.4327C20.1484 30.848 20.6223 30.376 21.2051 30.376H41.3517C41.9345 30.376 42.4084 30.8499 42.4084 31.4327V60.4705C42.4084 61.0551 41.9345 61.5272 41.3517 61.5272ZM22.2619 59.4138H40.295V32.4912H22.2619V59.4138Z" fill="#DEC8A1"/>
<path d="M61.4982 61.5272H41.3516C40.7688 61.5272 40.2949 61.0534 40.2949 60.4705V38.6917C40.2949 38.1071 40.7688 37.635 41.3516 37.635H61.4982C62.0828 37.635 62.5549 38.1089 62.5549 38.6917V60.4705C62.5549 61.0552 62.081 61.5272 61.4982 61.5272ZM42.4083 59.4138H60.4415V39.7484H42.4083V59.4138Z" fill="#DEC8A1"/>
<path d="M31.3661 56.8374C30.7833 56.8374 30.3094 56.3635 30.3094 55.7806V49.2152H29.3326C28.7498 49.2152 28.2759 48.7413 28.2759 48.1585C28.2759 47.5757 28.7498 47.1018 29.3326 47.1018H31.3661C31.949 47.1018 32.4228 47.5757 32.4228 48.1585V55.7825C32.4228 56.3671 31.949 56.8392 31.3661 56.8392V56.8374Z" fill="#DEC8A1"/>
<path d="M33.4046 57.2804H29.3121C28.7293 57.2804 28.2554 56.8065 28.2554 56.2237C28.2554 55.6409 28.7293 55.167 29.3121 55.167H33.4046C33.9874 55.167 34.4613 55.6409 34.4613 56.2237C34.4613 56.8065 33.9874 57.2804 33.4046 57.2804Z" fill="#DEC8A1"/>
<path d="M53.471 57.2804H49.3785C48.7938 57.2804 48.3218 56.8065 48.3218 56.2237V55.4956C48.3218 54.3899 48.93 53.3822 49.9105 52.8683L51.8514 51.8479C52.1982 51.6664 52.4143 51.3087 52.4143 50.9165V50.0958C52.4143 49.611 52.0203 49.2152 51.5337 49.2152H51.3358C50.851 49.2152 50.4552 49.6092 50.4552 50.0958C50.4552 50.6805 49.9813 51.1525 49.3985 51.1525C48.8156 51.1525 48.3417 50.6786 48.3417 50.0958C48.3417 48.4454 49.6853 47.1018 51.3358 47.1018H51.5337C53.1841 47.1018 54.5277 48.4454 54.5277 50.0958V50.9165C54.5277 52.0967 53.8777 53.1715 52.8337 53.7199L50.8927 54.7385C50.713 54.8329 50.5768 54.9854 50.5024 55.167H53.4728C54.0574 55.167 54.5295 55.6408 54.5295 56.2237C54.5295 56.8065 54.0556 57.2804 53.4728 57.2804H53.471Z" fill="#DEC8A1"/>
<path d="M10.7704 57.2804H10.1113C8.913 57.2804 7.93799 56.3054 7.93799 55.107C7.93799 54.5224 8.41187 54.0503 8.9947 54.0503C9.57753 54.0503 10.0514 54.5242 10.0514 55.107C10.0514 55.1397 10.0786 55.1669 10.1113 55.1669H10.7704C11.4658 55.1669 12.0323 54.6005 12.0323 53.9051C12.0323 53.2097 11.4658 52.6432 10.7704 52.6432H10.233C9.82264 52.6432 9.45043 52.4053 9.27613 52.0349C9.10182 51.6645 9.15811 51.2252 9.42138 50.9092L10.834 49.2134H8.99652C8.41369 49.2134 7.9398 48.7395 7.9398 48.1567C7.9398 47.5739 8.41369 47.1 8.99652 47.1H13.089C13.4993 47.1 13.8716 47.3378 14.0459 47.7082C14.2202 48.0786 14.1639 48.518 13.9006 48.8339L12.2175 50.8566C13.3559 51.3995 14.1457 52.5615 14.1457 53.9051C14.1457 55.7661 12.6315 57.2804 10.7704 57.2804Z" fill="#DEC8A1"/>
</svg>
