<svg width="59" height="59" viewBox="0 0 59 59" fill="none" xmlns="http://www.w3.org/2000/svg">
<path d="M6.58372 43.4348C6.35396 43.4348 6.12094 43.3941 5.89444 43.3061L1.4638 41.5984C0.474686 41.2171 -0.0190555 40.1025 0.36225 39.1134L6.37514 23.5189C6.55928 23.0399 6.9194 22.6618 7.3887 22.4532C7.858 22.2463 8.38107 22.2333 8.85852 22.4174L13.2892 24.1251C14.2783 24.5064 14.772 25.621 14.3907 26.6101L8.37781 42.2045C8.0845 42.9671 7.35448 43.4348 6.58209 43.4348H6.58372ZM6.31322 42.2225C6.70431 42.3724 7.1459 42.1768 7.29582 41.7858L13.3087 26.1913C13.4603 25.8003 13.2647 25.3587 12.8736 25.2087L8.44299 23.501C8.25397 23.4277 8.04702 23.4326 7.86126 23.5157C7.67549 23.5972 7.53373 23.7471 7.4604 23.9377L1.44587 39.5321C1.29433 39.9232 1.48987 40.3648 1.88258 40.5147L6.31159 42.2225H6.31322Z" fill="#DEC8A1"/>
<path d="M6.58391 43.6709C6.3183 43.6709 6.0592 43.622 5.81152 43.5259L1.38088 41.8165C0.271183 41.3896 -0.282851 40.1381 0.144081 39.0284L6.15698 23.434C6.36392 22.8963 6.76804 22.471 7.296 22.2379C7.82559 22.0065 8.41059 21.9902 8.9467 22.1988L13.3757 23.9066C14.4854 24.3335 15.0411 25.5849 14.6141 26.6946L8.60124 42.2891C8.28186 43.1152 7.47199 43.6709 6.58554 43.6709H6.58391ZM8.16942 22.5231C7.9364 22.5231 7.70501 22.5704 7.48503 22.6681C7.07276 22.8506 6.75664 23.183 6.59531 23.6018L0.58242 39.1979C0.24837 40.0664 0.68182 41.0441 1.54872 41.3798L5.97936 43.0892C6.82182 43.4167 7.837 42.9604 8.15964 42.1212L14.1725 26.5268C14.5066 25.6583 14.0731 24.6806 13.2062 24.3449L8.77723 22.6372C8.58006 22.5622 8.37474 22.5231 8.16942 22.5231ZM6.58391 42.509C6.46658 42.509 6.346 42.4879 6.22867 42.4422L1.79803 40.7329C1.55198 40.6384 1.35481 40.4526 1.24726 40.2098C1.13808 39.967 1.13156 39.6949 1.22771 39.4472L7.2406 23.8528C7.33511 23.6051 7.52251 23.4095 7.7653 23.302C8.00647 23.1912 8.2786 23.1863 8.52791 23.2841L12.9569 24.9918C13.4702 25.189 13.7261 25.7658 13.5289 26.2775L7.51599 41.8719C7.36281 42.2662 6.98477 42.5107 6.58391 42.5107V42.509ZM6.39651 42.0039C6.66864 42.1049 6.9701 41.9713 7.07602 41.7024L13.0889 26.108C13.1932 25.8391 13.058 25.5344 12.7875 25.4285L8.35844 23.7208C8.22645 23.6735 8.08469 23.6752 7.95596 23.7306C7.82722 23.7892 7.72782 23.8919 7.67894 24.0222L1.66604 39.615C1.61553 39.747 1.61879 39.8888 1.67582 40.0192C1.73285 40.1463 1.83551 40.244 1.96587 40.2945L6.39651 42.0039Z" fill="#DEC8A1"/>
<path d="M52.3829 44.4482C52.119 44.4482 51.8533 44.3928 51.604 44.282C51.1347 44.0734 50.7746 43.6954 50.5905 43.2163L44.5776 27.6219C44.1963 26.6328 44.69 25.5182 45.6791 25.1369L50.1098 23.4291C51.0989 23.0478 52.2135 23.5416 52.5948 24.5307L58.6077 40.1251C58.989 41.1142 58.4952 42.2288 57.5061 42.6101L53.0755 44.3178C52.8506 44.4042 52.6176 44.4482 52.3829 44.4482ZM50.7991 24.4623C50.7078 24.4623 50.6165 24.4785 50.5269 24.5128L46.0963 26.2205C45.7052 26.372 45.5097 26.812 45.6612 27.2031L51.6741 42.7975C51.7474 42.9865 51.8892 43.1365 52.075 43.2196C52.2607 43.301 52.4677 43.3075 52.6567 43.2342L57.0873 41.5265C57.4784 41.3749 57.674 40.935 57.524 40.5439L51.5111 24.9495C51.3955 24.648 51.107 24.4623 50.8007 24.4623H50.7991Z" fill="#DEC8A1"/>
<path d="M52.3828 44.6828C52.0813 44.6828 51.788 44.6192 51.5094 44.497C50.983 44.2624 50.5789 43.837 50.3704 43.2993L44.3575 27.7049C43.9305 26.5952 44.4846 25.3437 45.5943 24.9168L50.0249 23.2074C50.561 22.9956 51.1476 23.0168 51.674 23.2482C52.2019 23.4828 52.606 23.9065 52.813 24.4442L58.8259 40.0387C59.2528 41.1451 58.6988 42.3982 57.5891 42.8268L53.1584 44.5345C52.9108 44.6306 52.6484 44.6811 52.3828 44.6811V44.6828ZM50.7989 23.5333C50.5952 23.5333 50.3899 23.5708 50.1944 23.6474L45.7637 25.3568C44.8952 25.6924 44.4618 26.6702 44.7974 27.5387L50.8103 43.1331C50.9733 43.5519 51.2894 43.8843 51.7 44.0684C52.109 44.2477 52.5735 44.2575 52.9906 44.0994L57.4212 42.3917C58.2881 42.0544 58.7216 41.0767 58.3875 40.2098L52.3747 24.6153C52.2133 24.1966 51.8972 23.8641 51.4849 23.6816C51.2666 23.5839 51.0336 23.535 50.8005 23.535L50.7989 23.5333ZM52.3812 43.5209C52.2443 43.5209 52.1074 43.4916 51.9787 43.4329C51.7359 43.3254 51.5485 43.1298 51.454 42.8822L45.4411 27.2877C45.3466 27.0401 45.3531 26.7679 45.4606 26.5251C45.5682 26.284 45.7637 26.0966 46.0114 26.0021L50.4404 24.2927C50.9602 24.0988 51.5387 24.3709 51.7277 24.863L57.7406 40.4574C57.9378 40.9691 57.682 41.546 57.1703 41.7431L52.7397 43.4509C52.624 43.4965 52.5018 43.5193 52.3795 43.5193L52.3812 43.5209ZM50.7989 24.6968C50.7354 24.6968 50.6718 24.7082 50.6083 24.7327L46.1809 26.4404C46.0505 26.4909 45.9479 26.5887 45.8892 26.7174C45.8322 26.8461 45.8289 26.9879 45.8794 27.1199L51.8923 42.7143C51.9428 42.8447 52.0406 42.9473 52.1693 43.006C52.2964 43.0614 52.4382 43.063 52.5702 43.0158L57.0008 41.308C57.2697 41.2021 57.4066 40.8974 57.3007 40.6285L51.2878 25.0341C51.2112 24.8337 51.014 24.6984 50.7973 24.6984L50.7989 24.6968Z" fill="#DEC8A1"/>
<path d="M18.0688 27.8386H13.5225C13.2015 27.8386 12.9424 27.5779 12.9424 27.2585C12.9424 26.9391 13.2031 26.6784 13.5225 26.6784H18.0688C19.6055 26.6784 21.1111 26.3998 22.5418 25.8506C22.8417 25.7349 23.1773 25.8848 23.293 26.1847C23.4087 26.4845 23.2588 26.8202 22.959 26.9342C21.3947 27.5355 19.7488 27.8402 18.0688 27.8402V27.8386Z" fill="#DEC8A1"/>
<path d="M18.0685 28.0747H13.5205C13.0707 28.0747 12.7041 27.7065 12.7041 27.2567C12.7041 26.807 13.0707 26.4403 13.5205 26.4403H18.0685C19.5757 26.4403 21.0521 26.1682 22.4567 25.6288C22.8804 25.4692 23.3497 25.6777 23.511 26.0981C23.6723 26.5186 23.4605 26.9911 23.0417 27.1508C21.4513 27.7635 19.7778 28.0747 18.0685 28.0747ZM13.5205 26.9129C13.3298 26.9129 13.175 27.0677 13.175 27.2567C13.175 27.4458 13.3298 27.6022 13.5205 27.6022H18.0685C19.7191 27.6022 21.3373 27.304 22.8739 26.7125C23.0515 26.644 23.1395 26.4436 23.0727 26.266C23.0042 26.0884 22.8087 26.0004 22.6262 26.0672C21.1678 26.6277 19.6344 26.9129 18.0685 26.9129H13.5205Z" fill="#DEC8A1"/>
<path d="M12.4481 44.2492C12.3503 44.2492 12.2526 44.2247 12.1613 44.1726L7.84964 41.7251C7.57099 41.567 7.47322 41.2118 7.63128 40.9331C7.78934 40.6545 8.14458 40.5567 8.42322 40.7148L12.7349 43.1623C13.0136 43.3204 13.1113 43.6756 12.9533 43.9542C12.8457 44.1433 12.6502 44.2492 12.4481 44.2492Z" fill="#DEC8A1"/>
<path d="M12.4488 44.4839C12.3087 44.4839 12.1702 44.4465 12.048 44.378L7.73467 41.9305C7.34359 41.7073 7.20671 41.2086 7.42832 40.8175C7.53587 40.6269 7.71023 40.4916 7.92206 40.433C8.13227 40.3743 8.35225 40.402 8.54128 40.5096L12.8546 42.9571C13.0436 43.0646 13.1805 43.2406 13.2375 43.4508C13.2962 43.661 13.2685 43.881 13.1609 44.0717C13.0159 44.3259 12.7438 44.4856 12.4505 44.4856L12.4488 44.4839ZM8.13879 40.8729C8.10783 40.8729 8.07687 40.8778 8.04754 40.886C7.95954 40.9104 7.88458 40.9691 7.83896 41.0506C7.74445 41.2151 7.80311 41.427 7.96932 41.5215L12.281 43.9674C12.4407 44.0554 12.6607 43.9983 12.7519 43.837C12.7976 43.7572 12.809 43.6643 12.7845 43.5747C12.7601 43.4867 12.703 43.4101 12.6232 43.3661L8.30989 40.9186C8.25774 40.8876 8.19908 40.8729 8.14042 40.8729H8.13879Z" fill="#DEC8A1"/>
<path d="M14.73 47.2999C13.9397 47.2999 13.1967 46.992 12.6377 46.433C11.484 45.2793 11.484 43.4021 12.6377 42.2484L14.8979 39.9883C16.0516 38.8346 17.9288 38.8346 19.0824 39.9883C20.2361 41.142 20.2361 43.0192 19.0824 44.1729L16.8223 46.433C16.2634 46.992 15.5203 47.2999 14.73 47.2999ZM16.9902 40.2833C16.529 40.2833 16.0695 40.4576 15.7191 40.8096L13.459 43.0697C12.7583 43.7704 12.7583 44.9111 13.459 45.6118C13.7979 45.9507 14.2493 46.1381 14.73 46.1381C15.2107 46.1381 15.6621 45.9507 16.001 45.6118L18.2612 43.3516C18.9619 42.6509 18.9619 41.5103 18.2612 40.8096C17.9108 40.4592 17.4497 40.2833 16.9902 40.2833Z" fill="#DEC8A1"/>
<path d="M14.7298 47.5345C13.8776 47.5345 13.0742 47.2021 12.4713 46.5992C11.8684 45.9963 11.5376 45.1946 11.5376 44.3407C11.5376 43.4868 11.8684 42.6835 12.4713 42.0806L14.7314 39.8204C15.3344 39.2191 16.1361 38.8867 16.9899 38.8867C17.8438 38.8867 18.6455 39.2191 19.2484 39.8204C19.8514 40.4233 20.1822 41.2251 20.1822 42.0789C20.1822 42.9328 19.8514 43.7361 19.2484 44.3391L16.9883 46.5992C16.3854 47.2021 15.582 47.5345 14.7298 47.5345ZM16.9899 39.3576C16.2615 39.3576 15.5772 39.6412 15.0639 40.1561L12.8037 42.4162C12.2904 42.9295 12.0069 43.6139 12.0069 44.3423C12.0069 45.0707 12.2888 45.7535 12.8037 46.2668C13.3187 46.7817 14.003 47.0652 14.7298 47.0652C15.4566 47.0652 16.1426 46.7817 16.6559 46.2668L18.916 44.0066C19.4293 43.4933 19.7129 42.8089 19.7129 42.0806C19.7129 41.3522 19.4309 40.6694 18.916 40.1561C18.4027 39.6412 17.7183 39.3576 16.9899 39.3576ZM14.7298 46.3743C14.1856 46.3743 13.6755 46.1609 13.2926 45.7779C12.9096 45.395 12.6978 44.8849 12.6978 44.3423C12.6978 43.7997 12.9096 43.288 13.2926 42.9035L15.5527 40.6433C16.3186 39.8775 17.6629 39.8775 18.4272 40.6433C19.2207 41.4369 19.2207 42.7275 18.4272 43.5194L16.167 45.7796C15.7841 46.1625 15.2724 46.3743 14.7298 46.3743ZM16.9899 40.5195C16.5712 40.5195 16.1784 40.6808 15.8851 40.9758L13.625 43.2359C13.3301 43.5292 13.1687 43.9219 13.1687 44.3407C13.1687 44.7595 13.3317 45.1506 13.625 45.4439C14.2149 46.0338 15.2447 46.037 15.8346 45.4439L18.0947 43.1837C18.3897 42.8904 18.551 42.4977 18.551 42.0789C18.551 41.6601 18.3881 41.2691 18.0947 40.9758C17.7998 40.6808 17.4087 40.5195 16.9899 40.5195Z" fill="#DEC8A1"/>
<path d="M17.8371 50.9825C17.0794 50.9825 16.3217 50.6941 15.7448 50.1173C15.1859 49.5584 14.8779 48.8153 14.8779 48.025C14.8779 47.2347 15.1859 46.4916 15.7448 45.9327L19.4617 42.2158C20.0207 41.6569 20.7637 41.3489 21.554 41.3489C22.3443 41.3489 23.0874 41.6569 23.6463 42.2158C24.2052 42.7747 24.5132 43.5178 24.5132 44.3081C24.5132 45.0984 24.2052 45.8414 23.6463 46.4004L19.9294 50.1173C19.3526 50.6941 18.5948 50.9825 17.8371 50.9825ZM21.554 42.5107C21.0733 42.5107 20.622 42.6981 20.283 43.037L16.5661 46.754C16.2272 47.0929 16.0398 47.5443 16.0398 48.025C16.0398 48.5057 16.2272 48.9571 16.5661 49.296C17.2668 49.9967 18.4074 49.9967 19.1081 49.296L22.8251 45.5791C23.164 45.2401 23.3514 44.7888 23.3514 44.3081C23.3514 43.8274 23.164 43.376 22.8251 43.037C22.4861 42.6981 22.0347 42.5107 21.554 42.5107Z" fill="#DEC8A1"/>
<path d="M17.8369 51.2174C16.9847 51.2174 16.1813 50.885 15.5784 50.2837C14.9755 49.6808 14.6431 48.8774 14.6431 48.0235C14.6431 47.1697 14.9755 46.368 15.5784 45.765L19.2953 42.0481C19.8982 41.4452 20.7016 41.1128 21.5538 41.1128C22.4061 41.1128 23.2094 41.4452 23.8123 42.0481C24.4152 42.6511 24.7477 43.4544 24.7477 44.3083C24.7477 45.1621 24.4152 45.9638 23.8123 46.5668L20.0954 50.2837C19.4941 50.885 18.6908 51.2174 17.8369 51.2174ZM21.5522 41.5837C20.8254 41.5837 20.141 41.8673 19.6261 42.3822L15.9092 46.0991C15.3943 46.614 15.1107 47.2968 15.1107 48.0235C15.1107 48.7503 15.3943 49.4347 15.9092 49.9496C16.4241 50.4646 17.1085 50.7465 17.8353 50.7465C18.562 50.7465 19.2481 50.4646 19.7614 49.9496L23.4783 46.2327C23.9932 45.7178 24.2767 45.035 24.2767 44.3083C24.2767 43.5815 23.9932 42.8971 23.4783 42.3822C22.9633 41.8673 22.279 41.5837 21.5522 41.5837ZM17.8369 50.0555C17.3155 50.0555 16.7956 49.8567 16.3997 49.4608C16.0151 49.0762 15.8049 48.5662 15.8049 48.0235C15.8049 47.4809 16.0167 46.9725 16.3997 46.5879L20.1166 42.8694C20.8874 42.1019 22.2219 42.1052 22.991 42.8694C23.3756 43.2556 23.5858 43.7656 23.5858 44.3083C23.5858 44.8509 23.374 45.3593 22.991 45.7439L19.2741 49.4608C18.8782 49.8551 18.3567 50.0555 17.8369 50.0555ZM21.5522 42.7456C21.135 42.7456 20.7423 42.9085 20.4474 43.2018L16.7305 46.9187C16.4355 47.2137 16.2726 47.6064 16.2726 48.0219C16.2726 48.4374 16.4355 48.8318 16.7305 49.1251C17.3187 49.7166 18.3502 49.7166 18.9401 49.1251L22.657 45.4098C22.9519 45.1149 23.1149 44.7222 23.1149 44.3066C23.1149 43.8911 22.9519 43.4968 22.657 43.2002C22.3621 42.9085 21.9693 42.7456 21.5522 42.7456Z" fill="#DEC8A1"/>
<path d="M20.655 54.9555C19.8973 54.9555 19.1395 54.667 18.5627 54.0902C18.0038 53.5313 17.6958 52.7882 17.6958 51.9979C17.6958 51.2076 18.0038 50.4645 18.5627 49.9056L22.6397 45.8269C23.7934 44.6732 25.6706 44.6732 26.8243 45.8269C27.978 46.9806 27.978 48.8578 26.8243 50.0115L22.7473 54.0886C22.1704 54.6654 21.4127 54.9538 20.655 54.9538V54.9555ZM24.732 46.1235C24.2709 46.1235 23.8114 46.2979 23.461 46.6498L19.384 50.7269C19.045 51.0658 18.8576 51.5172 18.8576 51.9979C18.8576 52.4786 19.045 52.93 19.384 53.2689C20.0847 53.9696 21.2253 53.9696 21.926 53.2689L26.003 49.1919C26.7037 48.4912 26.7037 47.3505 26.003 46.6498C25.6527 46.2995 25.1915 46.1235 24.732 46.1235Z" fill="#DEC8A1"/>
<path d="M20.6548 55.1915C19.7993 55.1915 18.9976 54.8591 18.3963 54.2578C17.7934 53.6549 17.4609 52.8515 17.4609 51.9977C17.4609 51.1438 17.7934 50.3421 18.3963 49.7392L22.4749 45.6605C23.7199 44.4172 25.747 44.4172 26.9919 45.6605C28.2369 46.9071 28.2369 48.9342 26.9919 50.1808L22.9133 54.2578C22.312 54.8591 21.5103 55.1915 20.6548 55.1915ZM24.7334 45.1977C24.036 45.1977 23.3386 45.4633 22.8074 45.9946L18.7287 50.0732C18.2138 50.5882 17.9302 51.2709 17.9302 51.9977C17.9302 52.7244 18.2138 53.4088 18.7287 53.9238C19.242 54.4387 19.9248 54.7206 20.6548 54.7206C21.3848 54.7206 22.0676 54.4387 22.5809 53.9238L26.6595 49.8467C27.722 48.7859 27.722 47.0554 26.6595 45.9946C26.1283 45.4633 25.4309 45.1977 24.7334 45.1977ZM20.6548 54.0297C20.1105 54.0297 19.6005 53.8178 19.2175 53.4349C18.833 53.0504 18.6211 52.5387 18.6211 51.9961C18.6211 51.4534 18.833 50.9434 19.2175 50.5588L23.2946 46.4818C24.0605 45.7159 25.4048 45.7143 26.169 46.4818C26.552 46.8647 26.7638 47.3748 26.7638 47.9174C26.7638 48.46 26.552 48.9701 26.169 49.3546L22.092 53.4333C21.7091 53.8162 21.1974 54.0281 20.6548 54.0281V54.0297ZM24.7334 46.3596C24.3147 46.3596 23.9236 46.5209 23.6286 46.8158L19.5516 50.8929C19.2567 51.1862 19.0937 51.5805 19.0937 51.9961C19.0937 52.4116 19.2567 52.8075 19.5516 53.1009C20.1415 53.6924 21.173 53.6924 21.7612 53.1009L25.8383 49.0222C26.1332 48.7289 26.2945 48.3362 26.2945 47.919C26.2945 47.5019 26.1316 47.1091 25.8383 46.8158C25.5449 46.5209 25.1522 46.3596 24.7334 46.3596Z" fill="#DEC8A1"/>
<path d="M23.7608 58.6397C23.0031 58.6397 22.2453 58.3513 21.6685 57.7744C20.5148 56.6207 20.5148 54.7436 21.6685 53.5899L24.1568 51.1016C25.3104 49.9479 27.1876 49.9479 28.3413 51.1016C29.495 52.2553 29.495 54.1325 28.3413 55.2862L25.8531 57.7744C25.2762 58.3513 24.5185 58.6397 23.7608 58.6397ZM22.4898 56.9532C22.8287 57.2921 23.2801 57.4795 23.7608 57.4795C24.2415 57.4795 24.6929 57.2921 25.0318 56.9532L27.5201 54.4649C28.2208 53.7642 28.2208 52.6236 27.5201 51.9229C26.8194 51.2222 25.6787 51.2222 24.978 51.9229L22.4898 54.4111C21.7891 55.1118 21.7891 56.2525 22.4898 56.9532Z" fill="#DEC8A1"/>
<path d="M23.7606 58.8759C22.9083 58.8759 22.1066 58.5435 21.5021 57.9422C20.2571 56.6957 20.2571 54.6685 21.5021 53.422L23.9903 50.9337C24.5932 50.3324 25.395 50 26.2488 50C27.1027 50 27.9044 50.3324 28.5073 50.9337C29.1103 51.5366 29.441 52.34 29.441 53.1938C29.441 54.0477 29.1103 54.8494 28.5073 55.4523L26.0191 57.9422C25.4145 58.5435 24.6128 58.8759 23.7606 58.8759ZM26.2488 50.4709C25.5204 50.4709 24.836 50.7545 24.3228 51.2694L21.8345 53.7577C20.772 54.8185 20.772 56.549 21.8345 57.6098C22.3494 58.1247 23.0338 58.4066 23.7606 58.4066C24.4873 58.4066 25.1717 58.1247 25.6867 57.6098L28.1749 55.1199C28.6882 54.6066 28.9717 53.9239 28.9717 53.1955C28.9717 52.4671 28.6898 51.7827 28.1749 51.2694C27.6616 50.7545 26.9772 50.4709 26.2488 50.4709ZM23.7606 57.7157C23.2163 57.7157 22.7063 57.5023 22.3233 57.1193C21.5314 56.3274 21.5314 55.0384 22.3233 54.2449L24.8116 51.755C25.6035 50.9647 26.8925 50.9647 27.6861 51.755C28.4796 52.5486 28.4796 53.8391 27.6861 54.6311L25.1978 57.1193C24.8149 57.5023 24.3032 57.7141 23.7606 57.7141V57.7157ZM26.2488 51.6328C25.848 51.6328 25.4487 51.7843 25.144 52.089L22.6558 54.5789C22.048 55.1867 22.048 56.1791 22.6558 56.7869C23.244 57.3752 24.2739 57.3801 24.8654 56.7869L27.3536 54.2986C27.6486 54.0053 27.8099 53.6126 27.8099 53.1955C27.8099 52.7783 27.647 52.384 27.3536 52.0907C27.0489 51.7859 26.6481 51.6344 26.2488 51.6344V51.6328Z" fill="#DEC8A1"/>
<path d="M24.4499 37.1173C23.3533 37.1173 22.3071 36.7718 21.4256 36.1168C20.8422 35.6849 20.469 35.0217 20.4006 34.2999C20.3321 33.5764 20.5733 32.8561 21.0638 32.3216L26.7312 26.1376C27.678 25.1029 29.0256 24.5098 30.4286 24.5098H35.485C36.0064 24.5098 36.523 24.5912 37.02 24.7493C37.5153 24.909 37.983 25.1436 38.4067 25.4484C40.0541 26.6298 41.9965 27.2539 44.0236 27.2539H45.2816C45.6026 27.2539 45.8617 27.5146 45.8617 27.834C45.8617 28.1534 45.601 28.4141 45.2816 28.4141H44.0236C41.7521 28.4141 39.575 27.715 37.7288 26.3902C37.4029 26.1556 37.0428 25.9747 36.6631 25.8525C36.2818 25.7303 35.8858 25.6683 35.485 25.6683H30.4286C29.3499 25.6683 28.3151 26.1246 27.5867 26.9182L21.9193 33.1022C21.6472 33.3987 21.5168 33.7849 21.5559 34.1858C21.595 34.5867 21.7938 34.9403 22.1181 35.1814C22.7976 35.6866 23.6042 35.9522 24.4499 35.9522C25.5613 35.9522 26.6237 35.478 27.3635 34.6518L29.2065 32.5987C29.9202 31.8035 30.3129 30.7785 30.3129 29.7095C30.3129 29.3885 30.5736 29.1294 30.893 29.1294C31.2124 29.1294 31.4731 29.3902 31.4731 29.7095C31.4731 31.0653 30.9745 32.3656 30.0701 33.3743L28.2271 35.4275C27.2657 36.4981 25.8888 37.1124 24.4483 37.1124L24.4499 37.1173Z" fill="#DEC8A1"/>
<path d="M24.4518 37.3532C23.3013 37.3532 22.2079 36.9898 21.2873 36.3054C20.6518 35.8345 20.2428 35.111 20.1678 34.3223C20.0928 33.532 20.3568 32.7449 20.8929 32.1616L26.5587 25.9776C27.5495 24.894 28.9606 24.2715 30.4305 24.2715H35.4852C36.0295 24.2715 36.5705 24.3578 37.0919 24.5241C37.6133 24.6919 38.1022 24.9396 38.5438 25.2557C40.1505 26.4078 42.0456 27.0172 44.0238 27.0172H45.2818C45.7316 27.0172 46.0982 27.3838 46.0982 27.8336C46.0982 28.2833 45.7316 28.65 45.2818 28.65H44.0238C41.7034 28.65 39.4791 27.9346 37.5922 26.5838C37.2858 26.3638 36.9485 26.1927 36.5916 26.0786C36.2331 25.9645 35.86 25.9059 35.4852 25.9059H30.4305C29.4169 25.9059 28.4457 26.3328 27.7629 27.0808L22.0955 33.2648C21.8674 33.5124 21.7615 33.8335 21.7941 34.1659C21.8266 34.5016 21.9912 34.7949 22.2617 34.9953C22.9005 35.4695 23.6582 35.7188 24.4534 35.7188C25.4963 35.7188 26.4952 35.2756 27.191 34.4967L29.034 32.4435C29.7086 31.6939 30.0801 30.7227 30.0801 29.7124C30.0801 29.2627 30.4468 28.8944 30.8965 28.8944C31.3462 28.8944 31.7113 29.261 31.7113 29.7124C31.7113 31.1252 31.1914 32.4842 30.2496 33.5353L28.4082 35.5884C27.4012 36.7079 25.9607 37.3499 24.455 37.3499L24.4518 37.3532ZM30.4305 24.7457C29.0926 24.7457 27.8086 25.3111 26.9058 26.2986L21.2384 32.4826C20.7935 32.9682 20.5735 33.6232 20.6355 34.2783C20.699 34.935 21.038 35.5363 21.5675 35.9306C22.4067 36.5531 23.404 36.8823 24.4518 36.8823C25.8255 36.8823 27.1388 36.2973 28.0546 35.2756L29.896 33.2224C30.7612 32.2577 31.2387 31.0111 31.2387 29.7141C31.2387 29.5234 31.0839 29.3686 30.8932 29.3686C30.7026 29.3686 30.5478 29.5234 30.5478 29.7141C30.5478 30.8417 30.1339 31.922 29.3827 32.7612L27.5397 34.8144C26.7527 35.6895 25.6267 36.193 24.4502 36.193C23.5523 36.193 22.6984 35.9095 21.9782 35.3733C21.6001 35.0931 21.3687 34.6808 21.3231 34.2131C21.2775 33.7438 21.4274 33.2941 21.7468 32.947L27.4142 26.763C28.1866 25.9189 29.2849 25.435 30.4288 25.435H35.4836C35.9072 25.435 36.3293 25.5018 36.735 25.6321C37.1392 25.7625 37.5205 25.9531 37.8659 26.2025C39.6714 27.4979 41.8012 28.1807 44.0222 28.1807H45.2802C45.4708 28.1807 45.6256 28.0259 45.6256 27.8369C45.6256 27.6478 45.4708 27.493 45.2802 27.493H44.0222C41.9446 27.493 39.9549 26.8526 38.2684 25.6419C37.8659 25.3519 37.4211 25.1286 36.9452 24.9738C36.4711 24.8223 35.9789 24.7457 35.4836 24.7457H30.4288H30.4305Z" fill="#DEC8A1"/>
<path d="M32.5256 58.5191C31.688 58.5191 30.901 58.1932 30.3095 57.6L28.6962 55.9868C28.4697 55.7603 28.4697 55.3921 28.6962 55.1656C28.9227 54.9391 29.291 54.9391 29.5175 55.1656L31.1307 56.7788C31.5039 57.1519 31.9993 57.3572 32.5256 57.3572C33.0519 57.3572 33.5489 57.1519 33.9205 56.7788C34.2936 56.4056 34.4989 55.9102 34.4989 55.3839C34.4989 54.8576 34.2936 54.3606 33.9205 53.9891L30.7185 50.7871C30.492 50.5606 30.492 50.1923 30.7185 49.9658C30.945 49.7393 31.3132 49.7393 31.5397 49.9658L34.8509 53.2753C35.5614 53.9842 36.7151 53.9842 37.4255 53.2753C38.136 52.5649 38.136 51.4112 37.4255 50.7007L34.3311 47.6063C34.217 47.4922 34.1616 47.3439 34.1616 47.1956C34.1616 47.0473 34.2187 46.899 34.3311 46.785C34.5576 46.5585 34.9259 46.5585 35.1524 46.785L38.6721 50.3047C39.3826 51.0152 40.5363 51.0152 41.2467 50.3047C41.9572 49.5959 41.9572 48.4406 41.2467 47.7301L38.2338 44.7171C38.0073 44.4906 38.0073 44.1224 38.2338 43.8959C38.4603 43.6694 38.8285 43.6694 39.055 43.8959L42.2961 47.137C42.9952 47.836 44.1456 47.8474 44.8594 47.163C45.2358 46.8029 45.4346 46.3157 45.4215 45.7959C45.4085 45.2744 45.1836 44.8002 44.7893 44.458L32.7 33.9901C32.4572 33.7799 32.4311 33.4132 32.6413 33.1704C32.8515 32.9276 33.2181 32.9015 33.4609 33.1118L45.5503 43.5797C46.1858 44.1289 46.5606 44.9257 46.5834 45.7649C46.6046 46.6041 46.2705 47.4189 45.6643 48.0006C44.918 48.716 43.8817 48.9669 42.9316 48.7551C42.9398 48.8414 42.9431 48.9294 42.9431 49.0158C42.9431 49.8126 42.6334 50.5606 42.0696 51.1244C41.2728 51.9212 40.1322 52.1721 39.1202 51.8756C39.1202 51.9114 39.1219 51.9489 39.1219 51.9847C39.1219 52.7816 38.8122 53.5295 38.2484 54.0933C37.6846 54.6571 36.9367 54.9668 36.1398 54.9668C35.9671 54.9668 35.796 54.9521 35.6298 54.9244C35.651 55.0743 35.6624 55.2275 35.6624 55.3806C35.6624 56.2182 35.3365 57.0053 34.7434 57.5968C34.1518 58.1883 33.3648 58.5158 32.5272 58.5158L32.5256 58.5191Z" fill="#DEC8A1"/>
<path d="M32.5259 58.7553C31.6265 58.7553 30.7791 58.4049 30.1436 57.7678L28.532 56.1562C28.3772 56.0014 28.2925 55.7977 28.2925 55.5794C28.2925 55.361 28.3772 55.1573 28.532 55.0025C28.8498 54.6864 29.368 54.6864 29.6857 55.0025L31.2989 56.6141C31.9589 57.2724 33.0979 57.2724 33.7579 56.6141C34.087 56.2866 34.2663 55.8482 34.2663 55.3855C34.2663 54.9227 34.0854 54.486 33.7579 54.1568L30.5559 50.9548C30.2381 50.6371 30.2381 50.1172 30.5559 49.7995C30.8736 49.4834 31.3902 49.4801 31.7096 49.7995L35.0191 53.109C35.6171 53.7087 36.6633 53.7071 37.2613 53.109C37.5595 52.8108 37.7241 52.4132 37.7241 51.9896C37.7241 51.5659 37.5595 51.1667 37.2613 50.8685L34.1685 47.774C34.0153 47.6192 33.929 47.4139 33.929 47.1972C33.929 46.9804 34.0137 46.7751 34.1685 46.6203C34.4846 46.3042 35.0044 46.3042 35.3222 46.6203L38.8419 50.1401C39.4611 50.7593 40.4649 50.7593 41.0841 50.1401C41.7017 49.5225 41.7017 48.5154 41.0841 47.8979L38.0695 44.8849C37.7518 44.5671 37.7518 44.049 38.0695 43.7312C38.3775 43.4216 38.9153 43.4216 39.2232 43.7312L42.466 46.9739C43.0738 47.5834 44.0759 47.5964 44.6984 46.9967C45.0259 46.6822 45.2003 46.2586 45.1889 45.8056C45.1758 45.3509 44.9819 44.9354 44.6381 44.6388L32.5504 34.1709C32.2098 33.8775 32.174 33.361 32.4673 33.0204C32.7622 32.6782 33.2788 32.644 33.6194 32.9373L45.7087 43.4053C46.3931 43.9984 46.7988 44.8572 46.8216 45.7616C46.8445 46.6676 46.4843 47.5475 45.8309 48.1732C45.1253 48.8495 44.1525 49.1689 43.1813 49.0401C43.1764 49.8907 42.8424 50.6925 42.2395 51.2954C41.4817 52.0531 40.4014 52.3757 39.3552 52.1786C39.3096 52.9673 38.9821 53.7022 38.4183 54.266C37.7518 54.9325 36.8213 55.273 35.8974 55.1981C35.9007 55.26 35.9023 55.3219 35.9023 55.3855C35.9023 56.2866 35.552 57.1339 34.9148 57.7694C34.2777 58.4066 33.432 58.7569 32.5325 58.7569L32.5259 58.7553ZM29.1072 55.2339C29.0192 55.2339 28.9296 55.2681 28.8628 55.3349C28.7976 55.3985 28.7618 55.4865 28.7618 55.5777C28.7618 55.669 28.7976 55.757 28.8628 55.8205L30.4744 57.4321C31.0219 57.9796 31.7503 58.2811 32.5259 58.2811C33.3016 58.2811 34.0284 57.9796 34.5775 57.4321C35.125 56.8862 35.4265 56.1578 35.4265 55.3822C35.4265 55.2421 35.4167 55.0987 35.3955 54.9602L35.3483 54.6391L35.6693 54.6962C35.8192 54.7222 35.9773 54.7337 36.1386 54.7337C36.8735 54.7337 37.5628 54.4485 38.081 53.9303C38.6008 53.4121 38.8859 52.7228 38.8859 51.9896L38.8696 51.561L39.1841 51.6539C40.1521 51.9358 41.1917 51.6718 41.9022 50.9597C42.422 50.4415 42.7071 49.7522 42.7071 49.019C42.7071 48.9375 42.7039 48.856 42.6974 48.7762L42.6713 48.46L42.9825 48.5285C43.8967 48.7338 44.8369 48.4714 45.5017 47.8327C46.059 47.2982 46.3686 46.5486 46.3491 45.773C46.3295 45.0006 45.9824 44.2657 45.3991 43.7589L33.3097 33.2909C33.1647 33.1654 32.9464 33.1785 32.8225 33.3268C32.6987 33.4702 32.7133 33.6902 32.8584 33.814L44.9461 44.282C45.3909 44.6665 45.6435 45.2043 45.6598 45.7909C45.6745 46.3792 45.4496 46.925 45.0259 47.334C44.2193 48.1064 42.9222 48.0934 42.1352 47.3047L38.8924 44.062C38.7588 43.9284 38.5388 43.9267 38.4036 44.062C38.27 44.1972 38.27 44.4172 38.4036 44.5508L41.4182 47.5638C42.2183 48.3655 42.2183 49.6708 41.4182 50.4725C40.6165 51.2709 39.3129 51.2709 38.5111 50.4725L34.9914 46.9527C34.8578 46.8191 34.6378 46.8175 34.5025 46.9527C34.4374 47.0163 34.4015 47.1043 34.4015 47.1955C34.4015 47.2868 34.4374 47.3748 34.5025 47.4383L37.5954 50.5328C37.9832 50.9222 38.1966 51.4372 38.1966 51.9879C38.1966 52.5387 37.9832 53.0536 37.5954 53.4414C36.8213 54.2155 35.464 54.2171 34.6883 53.4414L31.3788 50.1319C31.2452 49.9983 31.0252 49.9967 30.8899 50.1319C30.8247 50.1955 30.7889 50.2835 30.7889 50.3763C30.7889 50.4692 30.8247 50.5556 30.8899 50.6191L34.0919 53.8211C34.5091 54.2383 34.7388 54.7923 34.7388 55.3822C34.7388 55.9721 34.5091 56.5277 34.0919 56.9449C33.2543 57.7776 31.8057 57.7776 30.9681 56.9449L29.3549 55.3333C29.2881 55.2665 29.1985 55.2323 29.1105 55.2323L29.1072 55.2339Z" fill="#DEC8A1"/>
<path d="M45.933 45.8529C45.757 45.8529 45.5827 45.7731 45.4686 45.6216C45.2763 45.3657 45.3285 45.0007 45.5843 44.8084L50.2952 41.274C50.551 41.0817 50.916 41.1339 51.1083 41.3897C51.3006 41.6455 51.2485 42.0106 50.9926 42.2028L46.2817 45.7372C46.1774 45.8155 46.0552 45.8529 45.933 45.8529Z" fill="#DEC8A1"/>
<path d="M45.9334 46.0875C45.6776 46.0875 45.4348 45.9652 45.2816 45.7616C45.1496 45.5856 45.0942 45.3688 45.1268 45.1537C45.1594 44.9387 45.2718 44.748 45.4462 44.6193L50.1555 41.0849C50.5123 40.8127 51.0273 40.8877 51.2961 41.2478C51.565 41.6096 51.4917 42.1212 51.1332 42.3917L46.4223 45.9261C46.2821 46.0321 46.1127 46.0891 45.9334 46.0891V46.0875ZM50.6427 41.3912C50.571 41.3912 50.4977 41.4124 50.4374 41.4596L45.7265 44.9941C45.6531 45.0495 45.6042 45.1293 45.5912 45.2189C45.5782 45.3102 45.601 45.4031 45.6564 45.478C45.7656 45.6247 45.9937 45.6556 46.1404 45.5465L50.8513 42.0121C51.0028 41.898 51.0338 41.6813 50.9197 41.5281C50.8513 41.4385 50.747 41.3896 50.6427 41.3896V41.3912Z" fill="#DEC8A1"/>
<path d="M29.5407 21.6255C23.6435 21.6255 18.8462 16.8282 18.8462 10.931C18.8462 5.03377 23.6435 0.234863 29.5407 0.234863C35.4379 0.234863 40.2351 5.03214 40.2351 10.9293C40.2351 16.8265 35.4379 21.6238 29.5407 21.6238V21.6255ZM29.5407 1.3967C24.2839 1.3967 20.0064 5.67417 20.0064 10.931C20.0064 16.1878 24.2839 20.4652 29.5407 20.4652C34.7975 20.4652 39.0749 16.1878 39.0749 10.931C39.0749 5.67417 34.7975 1.3967 29.5407 1.3967Z" fill="#DEC8A1"/>
<path d="M29.5406 21.8615C23.5131 21.8615 18.6099 16.9583 18.6099 10.9291C18.6099 4.89994 23.5147 0 29.5406 0C35.5666 0 40.4714 4.9032 40.4714 10.9308C40.4714 16.9583 35.5682 21.8631 29.5406 21.8631V21.8615ZM29.5406 0.470929C23.7738 0.470929 19.0808 5.16229 19.0808 10.9291C19.0808 16.696 23.7738 21.389 29.5406 21.389C35.3075 21.389 40.0004 16.696 40.0004 10.9291C40.0004 5.16229 35.3091 0.470929 29.5406 0.470929ZM29.5406 20.6997C24.1535 20.6997 19.7717 16.3163 19.7717 10.9308C19.7717 5.54523 24.1535 1.16021 29.5406 1.16021C34.9278 1.16021 39.3095 5.5436 39.3095 10.9291C39.3095 16.3147 34.9278 20.698 29.5406 20.698V20.6997ZM29.5406 1.63277C24.4125 1.63277 20.2426 5.80269 20.2426 10.9308C20.2426 16.0588 24.4142 20.2287 29.5406 20.2287C34.6671 20.2287 38.8386 16.0588 38.8386 10.9308C38.8386 5.80269 34.6671 1.63277 29.5406 1.63277Z" fill="#DEC8A1"/>
<path d="M28.9048 18.4609V16.5951C27.8343 16.5755 26.7246 16.2431 26.0776 15.7819L26.5209 14.5435C27.1857 14.9867 28.1471 15.3371 29.1819 15.3371C30.492 15.3371 31.3801 14.5794 31.3801 13.5267C31.3801 12.474 30.6598 11.8825 29.291 11.3285C27.4073 10.5903 26.2422 9.73972 26.2422 8.13302C26.2422 6.52633 27.3307 5.43618 29.0319 5.15754V3.29175H30.1791V5.08421C31.2872 5.12169 32.0449 5.41663 32.581 5.73113L32.1199 6.95C31.732 6.72839 30.9743 6.32264 29.7929 6.32264C28.3704 6.32264 27.8343 7.17324 27.8343 7.91141C27.8343 8.87282 28.517 9.3519 30.1253 10.0184C32.0286 10.794 32.9884 11.7554 32.9884 13.3996C32.9884 14.8596 31.9732 16.2268 30.0699 16.5413V18.4625H28.9048V18.4609Z" fill="#DEC8A1"/>
<path d="M30.3048 18.6968H28.6704V16.8229C27.6438 16.7626 26.5927 16.4383 25.9409 15.9739L25.7959 15.8696L26.4021 14.1831L26.653 14.3493C27.3716 14.83 28.2939 15.1038 29.1837 15.1038C30.339 15.1038 31.1472 14.4569 31.1472 13.528C31.1472 12.6791 30.585 12.1055 29.2065 11.5466C27.5476 10.8964 26.011 10.0311 26.011 8.13273C26.011 6.5407 27.0995 5.31368 28.8007 4.9617V3.05518H30.4172V4.86067C31.2857 4.91771 32.0353 5.13606 32.7018 5.52877L32.8729 5.62817L32.2439 7.2919L32.0043 7.1534C31.6915 6.97415 30.9582 6.55699 29.7947 6.55699C28.5221 6.55699 28.0707 7.28539 28.0707 7.91112C28.0707 8.68839 28.5514 9.1137 30.2168 9.79972C32.3253 10.6601 33.2248 11.7372 33.2248 13.3977C33.2248 15.0582 32.0597 16.3666 30.3064 16.7349V18.6968H30.3048ZM29.1397 18.2259H29.8338V16.3406L30.031 16.3064C31.685 16.0342 32.7539 14.8919 32.7539 13.3977C32.7539 11.9034 31.9669 11.0219 30.0375 10.2348C28.421 9.5667 27.5998 9.02407 27.5998 7.91112C27.5998 7.00348 28.2776 6.08607 29.7931 6.08607C30.8441 6.08607 31.5741 6.39404 31.9962 6.61403L32.2895 5.83838C31.6768 5.51737 30.9826 5.34627 30.1728 5.3202L29.9446 5.31205V3.5261H29.2684V5.35767L29.0712 5.39026C27.4971 5.6461 26.4787 6.72157 26.4787 8.13273C26.4787 9.45752 27.2918 10.2918 29.3776 11.1098C30.4856 11.558 31.6149 12.1951 31.6149 13.528C31.6149 14.7322 30.6144 15.5747 29.182 15.5747C28.3037 15.5747 27.3944 15.3303 26.6432 14.8985L26.3597 15.6888C26.9936 16.0782 27.9892 16.3438 28.9083 16.3601L29.138 16.365V18.2259H29.1397Z" fill="#DEC8A1"/>
</svg>
