<svg width="53" height="53" viewBox="0 0 53 53" fill="none" xmlns="http://www.w3.org/2000/svg">
<path d="M26.5 0C11.8882 0 0 11.8882 0 26.5C0 41.1118 11.8882 53 26.5 53C41.1118 53 53 41.1118 53 26.5C53 11.8882 41.1118 0 26.5 0ZM26.5 51.3363C12.8056 51.3363 1.66368 40.1944 1.66368 26.5C1.66368 12.8056 12.8056 1.66368 26.5 1.66368C40.1944 1.66368 51.3363 12.8056 51.3363 26.5C51.3363 40.1944 40.1944 51.3363 26.5 51.3363Z" fill="#DEC8A1"/>
<path d="M46.5329 14.8662C45.5418 13.1645 44.3392 11.603 42.9631 10.2103C42.9394 10.177 42.9156 10.1437 42.8847 10.1152C42.8538 10.0867 42.8205 10.0605 42.7896 10.0368C41.3993 8.66067 39.8354 7.45807 38.1337 6.46699C38.1171 6.45511 38.1028 6.44322 38.0862 6.43134C38.0719 6.42421 38.0577 6.41946 38.0434 6.41233C34.6424 4.45156 30.6995 3.32739 26.4999 3.32739C22.3003 3.32739 18.3573 4.45156 14.9563 6.41233C14.9421 6.41946 14.9278 6.42421 14.9135 6.43134C14.8969 6.44085 14.8826 6.45511 14.866 6.46699C13.1643 7.45807 11.6004 8.66067 10.2101 10.0368C10.1768 10.0605 10.1435 10.0843 10.115 10.1152C10.0841 10.1461 10.0604 10.1794 10.0366 10.2103C8.66049 11.6006 7.45789 13.1645 6.46681 14.8662C6.45493 14.8828 6.44304 14.8971 6.43354 14.9137C6.42641 14.928 6.42165 14.9422 6.41452 14.9565C4.45376 18.3575 3.32959 22.3004 3.32959 26.5C3.32959 30.6996 4.45376 34.6426 6.41452 38.0436C6.42165 38.0578 6.42641 38.0721 6.43354 38.0864C6.45017 38.1125 6.46681 38.1386 6.48582 38.1648C7.47452 39.8546 8.66999 41.409 10.039 42.7898C10.0627 42.8231 10.0865 42.8564 10.1174 42.8849C10.1483 42.9158 10.1816 42.9395 10.2125 42.9633C11.6028 44.3394 13.1667 45.542 14.8684 46.5331C14.885 46.545 14.8993 46.5569 14.9159 46.5687C14.9349 46.5806 14.9563 46.5901 14.9777 46.5996C18.374 48.5556 22.3098 49.6751 26.5022 49.6751C30.6947 49.6751 34.6305 48.5556 38.0268 46.5996C38.0482 46.5901 38.0672 46.5806 38.0886 46.5687C38.1052 46.5592 38.1195 46.545 38.1361 46.5331C39.8378 45.542 41.4017 44.3394 42.792 42.9633C42.8253 42.9395 42.8586 42.9158 42.8871 42.8849C42.918 42.854 42.9417 42.8207 42.9655 42.7898C44.3345 41.4066 45.5299 39.8522 46.5186 38.1648C46.5377 38.141 46.5543 38.1149 46.5709 38.0887C46.5781 38.0745 46.5828 38.0602 46.59 38.046C48.5507 34.6449 49.6749 30.702 49.6749 26.5024C49.6749 22.3028 48.5507 18.3599 46.59 14.9589C46.5828 14.9446 46.5781 14.9304 46.5709 14.9161C46.5614 14.8995 46.5472 14.8852 46.5353 14.8686L46.5329 14.8662ZM45.5252 36.5249L34.804 30.336C34.9062 30.115 35.0012 29.8916 35.0844 29.6634L47.0439 32.8672C46.6494 34.1411 46.136 35.3627 45.5228 36.5249H45.5252ZM42.2786 41.1024L33.5277 32.3514C33.6822 32.166 33.8295 31.9712 33.9698 31.7739L44.691 37.9628C43.9827 39.0822 43.1747 40.1327 42.2763 41.1L42.2786 41.1024ZM37.965 44.6935L31.7761 33.9723C31.9734 33.8321 32.1682 33.6847 32.3536 33.5303L41.1046 42.2812C40.1373 43.1772 39.0868 43.9877 37.9674 44.6935H37.965ZM32.8694 47.0488L29.6656 35.0894C29.8938 35.0038 30.1172 34.9087 30.3382 34.8089L36.5271 45.5301C35.3673 46.1433 34.1433 46.6567 32.8694 47.0512V47.0488ZM16.4798 45.5278L22.6686 34.8065C22.8897 34.9087 23.1131 35.0038 23.3412 35.087L20.1375 47.0465C18.8636 46.6519 17.642 46.1386 16.4798 45.5254V45.5278ZM11.9023 42.2812L20.6532 33.5303C20.8386 33.6847 21.0335 33.8321 21.2308 33.9723L15.0419 44.6935C13.9225 43.9853 12.872 43.1772 11.9047 42.2812H11.9023ZM8.31111 37.9675L19.0323 31.7787C19.1725 31.9759 19.3199 32.1708 19.4744 32.3562L10.7234 41.1071C9.82744 40.1398 9.01699 39.0893 8.31111 37.9699V37.9675ZM5.95582 32.8719L17.9153 29.6682C18.0008 29.8963 18.0959 30.1197 18.1957 30.3408L7.47452 36.5296C6.86134 35.3698 6.34798 34.1458 5.95345 32.8719H5.95582ZM7.4769 16.4823L18.1981 22.6712C18.0959 22.8922 18.0008 23.1156 17.9177 23.3438L5.9582 20.14C6.35273 18.8661 6.86609 17.6445 7.47928 16.4823H7.4769ZM10.7234 11.9048L19.4744 20.6558C19.3199 20.8412 19.1725 21.036 19.0323 21.2333L8.31111 15.0444C9.01937 13.925 9.82744 12.8745 10.7234 11.9072V11.9048ZM15.0371 8.31367L21.226 19.0349C21.0287 19.1751 20.8338 19.3225 20.6485 19.4769L11.8975 10.726C12.8648 9.82999 13.9153 9.01955 15.0347 8.31129L15.0371 8.31367ZM20.1327 5.95838L23.3365 17.9178C23.1083 18.0034 22.8849 18.0985 22.6639 18.1983L16.475 7.47708C17.6348 6.86389 18.8588 6.35053 20.1327 5.956V5.95838ZM36.5223 7.47946L30.3334 18.2007C30.1124 18.0985 29.889 18.0034 29.6608 17.9202L32.8646 5.96076C34.1385 6.35529 35.3601 6.86865 36.5223 7.48183V7.47946ZM41.0998 10.726L32.3489 19.4769C32.1635 19.3225 31.9686 19.1751 31.7713 19.0349L37.9602 8.31367C39.0796 9.02192 40.1301 9.82999 41.0974 10.7284L41.0998 10.726ZM44.691 15.0397L33.9698 21.2286C33.8295 21.0313 33.6822 20.8364 33.5277 20.651L42.2786 11.9001C43.1747 12.8674 43.9851 13.9179 44.6934 15.0373L44.691 15.0397ZM26.4999 33.989C22.3716 33.989 19.0133 30.6307 19.0133 26.5024C19.0133 22.3741 22.3716 19.0159 26.4999 19.0159C30.6282 19.0159 33.9864 22.3741 33.9864 26.5024C33.9864 30.6307 30.6282 33.989 26.4999 33.989ZM28.0542 17.4877C27.8165 17.4473 27.5765 17.414 27.3317 17.3926V5.00771C28.6769 5.05999 29.9888 5.23349 31.2604 5.52107L28.0542 17.4829V17.4877ZM25.668 17.3926C25.4232 17.414 25.1832 17.4473 24.9455 17.4877L21.7394 5.52582C23.0109 5.23824 24.3228 5.06237 25.668 5.01246V17.3926ZM17.4851 24.9481C17.4447 25.1857 17.4114 25.4258 17.39 25.6706H5.00753C5.05981 24.3254 5.23331 23.0134 5.52089 21.7419L17.4827 24.9481H17.4851ZM5.0099 27.3343H17.39C17.4114 27.5791 17.4447 27.8191 17.4851 28.0568L5.52327 31.2629C5.23569 29.9914 5.05981 28.6795 5.0099 27.3343ZM24.9479 35.5172C25.1856 35.5576 25.4256 35.5908 25.6704 35.6122V47.9924C24.3252 47.9401 23.0133 47.7666 21.7417 47.479L24.9479 35.5172ZM27.3341 35.6122C27.5789 35.5908 27.8189 35.5576 28.0566 35.5172L31.2627 47.479C29.9912 47.7666 28.6793 47.9425 27.3341 47.9924V35.6122ZM35.517 28.0568C35.5574 27.8191 35.5907 27.5791 35.6121 27.3343H47.9922C47.9399 28.6795 47.7664 29.9914 47.4788 31.2629L35.517 28.0568ZM47.9922 25.6706H35.6121C35.5907 25.4258 35.5574 25.1857 35.517 24.9481L47.4788 21.7419C47.7664 23.0134 47.9423 24.3254 47.9922 25.6706ZM35.0868 23.3414C35.0013 23.1133 34.9062 22.8899 34.8064 22.6688L45.5276 16.4799C46.1408 17.6398 46.6541 18.8638 47.0486 20.1377L35.0892 23.3414H35.0868Z" fill="#DEC8A1"/>
</svg>
