<svg width="47" height="62" viewBox="0 0 47 62" fill="none" xmlns="http://www.w3.org/2000/svg">
<path d="M0 30.0256V55.0196C0 58.4839 2.76645 61.2905 6.18125 61.2905H40.054C43.4688 61.2905 46.2367 58.4839 46.2367 55.0196V30.0256C46.2367 26.5614 43.4688 23.7548 40.054 23.7548H37.5628V14.653C37.5628 10.7382 36.0604 7.05808 33.3322 4.2904C30.6041 1.52273 26.9765 0 23.119 0C19.2602 0 15.6326 1.52417 12.9044 4.29184C10.1763 7.05952 8.6739 10.7397 8.6739 14.6544V23.7563H6.18125C2.76645 23.7548 0 26.5614 0 30.0256ZM19.8631 40.3522C19.8631 38.5273 21.3216 37.0492 23.119 37.0492C24.9179 37.0492 26.3749 38.5273 26.3749 40.3522C26.3749 41.7095 25.5663 42.8767 24.4115 43.3848L24.9974 46.7137C25.1038 47.3139 24.6498 47.8637 24.0497 47.8637H22.1884C21.5883 47.8637 21.1329 47.3139 21.2393 46.7137L21.8266 43.3848C20.6718 42.8781 19.8617 41.7109 19.8617 40.3522H19.8631ZM12.5115 14.653C12.5115 8.71898 17.2698 3.89173 23.119 3.89173C28.9683 3.89173 33.7252 8.71898 33.7252 14.653V23.7548H12.5115V14.653Z" fill="white"/>
</svg>
