<svg width="37" height="26" viewBox="0 0 37 26" fill="none" xmlns="http://www.w3.org/2000/svg">
<g clip-path="url(#clip0_286_2595)">
<path d="M33.8566 0C34.6456 1.17061 35.2615 2.20105 37 2.17638C36.4037 2.79533 36.016 3.04088 35.8727 3.38399C35.6904 3.81904 35.7603 4.3494 35.6158 4.80688C35.5218 5.10514 35.2294 5.58168 35.0447 5.57383C34.1594 5.53346 33.2798 5.35406 32.2305 5.20045C32.2752 4.2541 32.5642 2.96912 30.9885 2.28403C32.2638 1.85794 33.6238 1.7133 33.8578 0.00112127L33.8566 0ZM32.9404 3.00388C33.039 3.35484 33.1743 3.83474 33.297 4.27092H34.4404C34.6858 3.72149 34.8979 3.24832 35.0436 2.92315C34.6433 2.4937 34.2867 2.11135 33.9702 1.77161C33.6732 2.12705 33.3555 2.50716 32.9404 3.00388Z" fill="#DEC8A1"/>
<path d="M23.6388 3.34582C22.9461 4.15426 23.117 5.35626 23.1434 6.31607H21.5425C21.6376 5.22283 21.4358 4.15762 20.8831 3.25724C21.6824 3.41983 21.945 2.36023 22.2546 0.987793C22.5115 2.48805 22.945 3.12605 23.6388 3.3447V3.34582ZM21.8165 3.99504C21.8876 4.41551 21.9622 4.85954 22.0333 5.27777C22.2351 5.2374 22.4347 5.19704 22.6113 5.16116C22.6732 4.7048 22.7305 4.29105 22.7879 3.87058C22.6147 3.58914 22.4347 3.29537 22.2798 3.0442C22.1216 3.36713 21.9817 3.65529 21.8165 3.99504Z" fill="#DEC8A1"/>
<path d="M11.4243 9.89746C11.8888 11.0131 12.2236 11.8989 13.3486 11.9987C13.4449 12.0077 13.6021 12.593 13.5642 12.6132C12.4255 13.2187 12.6904 14.3074 12.6869 14.9925C11.6697 15.1013 10.8096 15.2179 9.94495 15.2583C9.81307 15.265 9.50114 14.8456 9.54701 14.7447C9.91742 13.9441 9.43463 13.4059 9.05848 12.7971C8.9438 12.6121 9.05389 12.0626 9.07109 12.0626C10.3303 12.0301 10.7592 10.9862 11.4232 9.89858L11.4243 9.89746ZM11.5023 14.257C11.8222 13.4519 11.9805 13.055 12.1376 12.6603C11.8612 12.4427 11.5768 12.2196 11.3291 12.0245C10.9461 12.3048 10.5814 12.5717 10.0734 12.9428C10.5298 13.3622 10.9621 13.7602 11.5011 14.2558L11.5023 14.257Z" fill="#DEC8A1"/>
<path d="M25.0207 20.9969C24.242 20.9509 23.2432 20.8926 22.0918 20.8253C22.2237 19.8734 22.2764 18.7689 20.8188 18.1803C22.2168 17.9818 23.0012 17.2709 23.484 15.9265C23.8108 16.4602 23.9301 16.7753 24.1514 16.9884C24.4668 17.2933 24.8452 17.5423 25.2191 17.78C25.4588 17.9325 25.7409 18.0233 26.0035 18.1421C25.8716 18.3787 25.695 18.6019 25.6159 18.8541C25.4037 19.5336 25.2328 20.2243 25.0218 20.998L25.0207 20.9969ZM23.7294 17.9807C23.4335 18.2935 23.1422 18.6007 22.7477 19.0179C22.8842 19.4159 23.1147 20.1414 24.125 19.75C24.2535 19.3352 24.3762 18.9382 24.4748 18.6176C24.1457 18.3372 23.8498 18.085 23.7294 17.9818V17.9807Z" fill="#DEC8A1"/>
<path d="M0 22.8212C1.2844 23.0241 1.76261 22.1103 2.10436 20.6807C2.50688 21.303 2.71674 21.5384 2.82339 21.812C3.03899 22.3648 3.26147 22.8043 4.01262 22.7853C4.18693 22.7808 4.37385 23.3033 4.55505 23.5836C3.42546 24.105 3.81881 25.1635 3.70642 26C2.74885 25.9506 1.83486 25.9035 0.924312 25.8564C0.675459 25.0379 0.368119 24.031 0 22.8212ZM2.34518 22.8705C1.98853 23.1811 1.6445 23.4816 1.33601 23.7496C1.49312 24.1454 1.65138 24.5412 1.80619 24.9303H2.74656C2.93119 24.4291 3.09404 23.9884 3.24427 23.5825C2.91284 23.3201 2.60092 23.0735 2.34518 22.8705Z" fill="#DEC8A1"/>
<path d="M3.75691 5.91016C4.67549 6.51116 5.5287 7.06843 6.42893 7.65709C5.90943 8.24688 5.00347 8.82434 5.55278 9.91869C5.27526 10.0118 5.00232 10.1586 4.71792 10.1867C4.23512 10.2338 3.742 10.236 3.2592 10.1956C2.95989 10.171 2.6709 10.0319 2.37732 9.94448C2.95874 8.89161 2.11585 8.24913 1.63306 7.68625C2.46563 6.98994 3.19613 6.37885 3.75691 5.91016ZM4.97365 9.06541C4.57801 8.27267 4.29017 7.69634 4.00347 7.12113C3.85783 7.12785 3.71218 7.13346 3.56654 7.14019C3.41631 7.77371 3.26608 8.40834 3.11012 9.06541H4.97365Z" fill="#DEC8A1"/>
<path d="M25.6857 15.9232C27.805 12.7007 29.7396 9.3582 31.93 6.18164C32.1341 6.30834 32.3371 6.43393 32.5412 6.56063C30.5412 9.73606 28.5447 12.9126 26.5229 16.0757C26.4483 16.1912 26.1307 16.1587 25.9265 16.1946C25.8463 16.1038 25.7648 16.0141 25.6846 15.9232H25.6857Z" fill="#DEC8A1"/>
<path d="M9.31655 16.126C9.12618 16.4018 8.97366 16.7124 8.74086 16.9479C7.41746 18.2878 6.08719 19.6232 4.72366 20.9239C4.51265 21.1246 4.11701 21.1403 3.80737 21.2412C3.91861 20.9665 3.95875 20.6279 4.15141 20.4294C5.43352 19.1007 6.74086 17.7956 8.05737 16.4994C8.32458 16.237 8.66632 16.0475 8.97366 15.8232C9.08834 15.9242 9.20302 16.0239 9.31769 16.1249L9.31655 16.126Z" fill="#DEC8A1"/>
<path d="M13.562 10.8887C13.4278 10.781 13.242 10.7048 13.2294 10.6072C13.2088 10.4458 13.2466 10.2226 13.3533 10.1105C14.7764 8.61026 16.2065 7.11785 17.664 5.64899C17.7879 5.52453 18.1113 5.58956 18.3418 5.56714C18.3177 5.76336 18.3693 6.02686 18.2592 6.14347C16.8384 7.64485 15.3957 9.12605 13.9542 10.6084C13.8556 10.7104 13.7202 10.7777 13.5631 10.8887H13.562Z" fill="#DEC8A1"/>
<path d="M30.8532 3.53866H24.0068C24.9117 2.7448 29.9059 2.7392 30.8532 3.53866Z" fill="#DEC8A1"/>
<path d="M8.25463 10.7688C7.70991 10.8585 7.16633 10.9493 6.6216 11.039C6.61587 10.8731 6.58949 10.5625 6.60669 10.5602C7.14798 10.4862 7.6927 10.4425 8.23743 10.3943C8.24316 10.5187 8.2489 10.6432 8.25463 10.7677V10.7688Z" fill="#DEC8A1"/>
</g>
<defs>
<clipPath id="clip0_286_2595">
<rect width="37" height="26" fill="white"/>
</clipPath>
</defs>
</svg>
