<svg width="51" height="48" viewBox="0 0 51 48" fill="none" xmlns="http://www.w3.org/2000/svg">
<path d="M15.5327 47.7547C6.96818 47.7547 0 40.7865 0 32.2219C0 23.6574 6.96818 16.6892 15.5327 16.6892C24.0973 16.6892 31.0654 23.6574 31.0654 32.2219C31.0654 40.7865 24.0973 47.7547 15.5327 47.7547ZM15.5327 18.6719C8.06104 18.6719 1.981 24.7502 1.981 32.2236C1.981 39.6969 8.05938 45.7753 15.5327 45.7753C23.0061 45.7753 29.0844 39.6969 29.0844 32.2236C29.0844 24.7502 23.0061 18.6719 15.5327 18.6719Z" fill="#DEC8A1"/>
<path d="M35.4009 47.7547C26.8363 47.7547 19.8682 40.7865 19.8682 32.2219C19.8682 23.6574 26.8363 16.6892 35.4009 16.6892C43.9654 16.6892 50.9336 23.6574 50.9336 32.2219C50.9336 40.7865 43.9654 47.7547 35.4009 47.7547ZM35.4009 18.6719C27.9292 18.6719 21.8492 24.7502 21.8492 32.2236C21.8492 39.6969 27.9275 45.7753 35.4009 45.7753C42.8742 45.7753 48.9526 39.6969 48.9526 32.2236C48.9526 24.7502 42.8742 18.6719 35.4009 18.6719Z" fill="#DEC8A1"/>
<path d="M25.4661 14.7939C25.301 14.7939 25.1343 14.7493 24.9857 14.6634C24.7084 14.5 18.1727 10.604 17.5124 5.93216C17.0188 2.43569 19.1566 0.634626 21.1376 0.155883C22.8066 -0.246921 24.4673 0.155883 25.4661 1.09026C26.4648 0.154232 28.1256 -0.246921 29.7946 0.155883C31.7756 0.634626 33.9151 2.43569 33.4198 5.93216C32.7595 10.604 26.2238 14.5 25.9465 14.6634C25.7979 14.7509 25.6328 14.7939 25.4661 14.7939ZM22.422 1.89586C22.1463 1.89586 21.864 1.92888 21.5833 1.99492C20.7942 2.18641 18.9998 2.92599 19.3877 5.66638C19.7922 8.52893 23.5495 11.4938 25.4661 12.7336C27.3844 11.4938 31.14 8.52893 31.5445 5.66638C31.9324 2.92599 30.138 2.18641 29.3489 1.99492C28.0893 1.68951 26.7455 2.11212 26.4715 2.89957C26.3229 3.32879 25.9184 3.61769 25.4661 3.61769C25.0138 3.61769 24.6093 3.32879 24.4607 2.89957C24.2478 2.28711 23.3877 1.89586 22.422 1.89586Z" fill="#DEC8A1"/>
</svg>
