<svg width="34" height="36" viewBox="0 0 34 36" fill="none" xmlns="http://www.w3.org/2000/svg">
<g clip-path="url(#clip0_286_2300)">
<path d="M31.4601 13.7862V35.9643C30.8505 35.9643 30.365 35.9643 29.8794 35.9643C21.3634 35.9643 12.8474 35.9271 4.33137 35.9987C2.92804 36.0111 2.64658 35.5708 2.65992 34.2116C2.72795 27.3247 2.6906 20.4378 2.6906 13.2565C1.80085 14.038 1.10986 14.6446 0.418864 15.2527C0.278798 15.2101 0.140066 15.166 0 15.1234C0.108051 14.7079 0.0813716 14.1246 0.342828 13.899C5.02236 9.86675 9.73258 5.87302 14.4481 1.88616C15.2925 1.17354 16.1836 0.00829515 17.0614 4.07928e-05C17.8804 -0.00821356 18.7168 1.23819 19.5345 1.94532C24.2101 5.98858 28.8869 10.0277 33.5398 14.0985C33.8066 14.3324 33.8519 14.8331 34 15.2101C33.6225 15.1248 33.205 15.1179 32.8781 14.9363C32.4619 14.7052 32.1204 14.3337 31.4615 13.7848L31.4601 13.7862ZM3.71375 34.7468H30.5811C30.5811 27.6453 30.5931 20.669 30.5517 13.6926C30.549 13.2758 30.2102 12.7668 29.8847 12.4614C28.6695 11.3181 27.3996 10.2368 26.1416 9.14174C23.0869 6.48246 20.0294 3.82869 16.956 1.15703C16.7492 1.31248 16.6038 1.41016 16.4731 1.52297C12.4085 5.01869 8.33192 8.50203 4.30069 12.039C3.93385 12.3609 3.66973 13.0282 3.66706 13.5372C3.62837 20.2411 3.64572 26.945 3.65239 33.6503C3.65239 34.0066 3.69107 34.3629 3.71375 34.7468Z" fill="#DEC8A1"/>
<path d="M18.4247 16.1716C19.3224 17.839 20.1788 19.4321 21.0819 21.1105C22.0344 19.4073 22.9148 17.8307 23.7845 16.2762C23.6831 16.1496 23.6418 16.0464 23.5738 16.0217C23.0882 15.8456 22.596 15.6846 22.1064 15.5181C22.596 15.3187 23.0709 15.0325 23.5778 14.9431C24.2314 14.8289 24.9157 14.8138 25.576 14.8784C25.8842 14.9087 26.1656 15.2265 26.4378 15.6076C25.0011 15.5759 24.5395 16.4949 24.1407 17.5515C23.9326 18.1018 23.6698 18.6713 23.2936 19.1047C21.4634 21.2054 21.6782 23.2717 23.2403 25.3959C23.6124 25.9021 23.9086 26.4854 24.1527 27.0715C24.5742 28.0854 25.0518 28.937 26.3404 28.7788C26.5085 28.7581 26.7126 29.0553 27.1808 29.4322C25.1785 29.9069 23.5311 29.7404 21.8863 29.4212C21.865 29.2548 21.8449 29.0883 21.8236 28.9232C22.4012 28.7967 22.9775 28.6701 23.6671 28.5188C22.7814 26.8473 21.9036 25.1909 20.9178 23.3323C19.92 25.239 19.029 26.9408 18.0632 28.7843C18.6501 28.7059 19.077 28.6495 19.5025 28.5917C19.6693 29.7445 18.342 30.0279 15.0684 29.4405C15.586 29.0759 15.8701 28.8902 16.1409 28.6825C16.6305 28.3083 17.1761 27.9822 17.5776 27.5227C17.9244 27.1265 18.1099 26.5776 18.3593 26.0906C19.041 24.7589 20.2642 23.4162 20.2455 22.0941C20.2268 20.7679 19.0129 19.4293 18.2379 18.1527C17.6536 17.1897 17.4682 15.686 15.7981 15.9391C15.6954 15.9543 15.4032 15.5622 15.4419 15.4824C15.5393 15.2788 15.7661 15.0174 15.9528 15.005C16.9306 14.9458 17.9138 14.9197 18.8902 14.9679C19.229 14.9844 19.5572 15.2499 19.8907 15.4012C19.5745 15.6296 19.2691 15.8745 18.9382 16.0781C18.8128 16.1551 18.6314 16.1372 18.4233 16.1702L18.4247 16.1716Z" fill="#DEC8A1"/>
<path d="M11.3854 28.5725C12.0817 28.7004 12.6433 28.8036 13.2062 28.9054C13.2129 29.0595 13.2196 29.2136 13.2276 29.3663C12.7727 29.4612 12.3191 29.6139 11.8603 29.6401C10.9732 29.691 10.0794 29.7075 9.19366 29.6566C8.9202 29.6401 8.66141 29.3594 8.39462 29.1985C8.64941 29.0072 8.88152 28.7321 9.16699 28.6454C9.4858 28.5491 9.85264 28.6234 10.2462 28.6234V15.9984C9.76994 15.9984 9.29638 16.0548 8.84283 15.975C8.60405 15.9337 8.40396 15.6558 8.18652 15.4852C8.43331 15.2857 8.67342 14.9294 8.92954 14.9157C10.0834 14.8538 11.244 14.8496 12.3965 14.9157C12.6953 14.9336 12.9754 15.2816 13.2636 15.4783C12.9541 15.6586 12.6606 15.8993 12.3285 16.0025C12.0457 16.0905 11.7175 16.0204 11.384 16.0204V28.5697L11.3854 28.5725Z" fill="#DEC8A1"/>
</g>
<defs>
<clipPath id="clip0_286_2300">
<rect width="34" height="36" fill="white"/>
</clipPath>
</defs>
</svg>
