<svg width="42" height="42" viewBox="0 0 42 42" fill="none" xmlns="http://www.w3.org/2000/svg">
<g clip-path="url(#clip0_286_2316)">
<path d="M34.8496 19.2978C37.096 17.5236 39.2848 15.7941 41.4735 14.0645C41.6107 14.1126 41.7495 14.1606 41.8866 14.2087C41.6614 14.7457 41.5785 15.4595 41.1858 15.7906C39.151 17.4962 37.035 19.1039 34.8869 20.794C35.9279 29.3903 29.3937 36.4732 20.7046 35.6256C15.6415 35.1332 12.134 32.0533 10.2499 27.2712C9.66419 25.7871 8.95491 25.1522 7.28919 24.8914C5.29169 24.5774 3.38899 23.5462 1.49813 22.7071C1.10033 22.5304 0.925968 21.8355 0.543396 21.2041C3.5972 22.3468 6.22273 23.33 9.10049 24.4075C9.16312 16.2127 12.1882 10.5488 20.146 9.27223C27.2828 8.12777 31.139 10.9932 34.8496 19.2978ZM15.6042 24.6838C20.5573 24.6769 27.8144 22.8221 32.0243 20.607C33.2025 19.9876 33.5005 19.3716 33.0163 18.0607C31.1678 13.0488 26.5498 9.90022 21.4748 10.336C15.7363 10.8285 11.66 14.4334 10.6409 19.9206C9.93165 23.7366 10.7036 24.6683 14.5885 24.6821C14.9271 24.6821 15.2673 24.6821 15.6059 24.6821L15.6042 24.6838ZM11.0506 25.751C12.8602 31.7787 18.7985 35.4969 24.4389 34.198C30.5381 32.7945 34.3418 27.424 33.5208 21.2659C26.4449 24.6529 19.1252 26.7496 11.0523 25.751H11.0506Z" fill="#DEC8A1"/>
<path d="M6.28536 0C7.03188 3.56549 8.55201 6.35199 13.0498 6.32282C12.8856 6.47724 12.7197 6.63167 12.5555 6.78609C11.2757 7.57366 9.75051 8.13645 8.78393 9.21399C7.78856 10.3224 7.33828 11.9319 6.3683 13.5259C5.69965 10.0136 4.17952 7.35403 0 7.0469C1.84007 6.02427 3.52271 5.55241 4.4656 4.43713C5.44404 3.28238 5.70811 1.50478 6.28366 0H6.28536ZM9.12079 6.93194C8.11527 5.75145 7.18762 4.6619 6.48849 3.84002C5.60824 4.85236 4.68228 5.9196 3.84265 6.8839C4.7483 7.92026 5.70642 9.01838 6.64084 10.0873C7.43985 9.07158 8.29809 7.98031 9.12079 6.93022V6.93194Z" fill="#DEC8A1"/>
<path d="M33.8796 38.2405C35.8264 37.4169 37.4785 36.5676 37.6647 34.0762C38.8869 35.8521 39.3457 38.0569 42.0017 37.815C40.3986 39.3283 39.0461 40.6049 37.5716 41.9981C37.1924 40.1742 36.0261 38.8565 33.8813 38.2405H33.8796Z" fill="#DEC8A1"/>
<path d="M3.47869 39.1502C3.27555 38.7024 3.15536 38.1224 2.81342 37.7552C2.2057 37.1015 1.45918 36.5799 0.776981 35.9965C0.539989 35.794 0.238671 35.6053 0.126947 35.3411C0.072777 35.2107 0.369017 34.7491 0.531525 34.7337C2.23279 34.5792 2.85743 33.337 3.39574 31.9677C3.46684 31.7876 3.67166 31.6606 3.95098 31.3638C4.19474 31.815 4.39787 32.117 4.53161 32.4482C4.96665 33.5291 5.40678 34.5518 6.78303 34.7268C6.94892 34.7474 7.0251 35.4938 7.14359 35.9038C5.2612 36.0754 4.65179 37.5579 4.00345 39.0112C3.97637 39.073 3.80201 39.0695 3.47869 39.1502Z" fill="#DEC8A1"/>
<path d="M33.9304 1.06885C34.7294 1.77062 35.6114 2.54617 36.4933 3.32001C36.3901 3.14157 36.2851 2.9614 36.1818 2.78296C35.349 3.41267 34.5178 4.04066 33.685 4.67037C33.9118 4.92603 34.1403 5.18168 34.3672 5.43734C33.5225 4.63948 32.6777 3.83991 31.8364 3.04548C32.6083 2.31797 33.4412 1.53212 33.9321 1.06885H33.9304Z" fill="#DEC8A1"/>
</g>
<defs>
<clipPath id="clip0_286_2316">
<rect width="42" height="42" fill="white"/>
</clipPath>
</defs>
</svg>
