<svg width="46" height="36" viewBox="0 0 46 36" fill="none" xmlns="http://www.w3.org/2000/svg">
<g clip-path="url(#clip0_286_2326)">
<path d="M0 1.42942C1.3498 0.459711 2.49746 1.3072 4.99491 4.97861C6.1171 3.32543 7.46372 2.10324 9.59667 2.04856C11.7551 1.99228 13.1224 2.98611 13.8594 5.01399C15.9175 2.20134 17.643 1.48249 20.2407 2.29943C22.5758 3.03436 23.6757 4.52511 23.6805 7.08046C23.6948 14.2271 23.6741 21.3737 23.6916 28.5203C23.6996 31.8556 26.3132 34.6586 29.3742 34.6763C31.9242 34.6924 34.2672 32.7079 34.5012 30.1252C34.6572 28.3932 34.5314 26.6339 34.5314 24.3986C33.7021 25.6787 33.1832 26.5825 32.5497 27.3962C32.3635 27.6342 31.8525 27.6165 31.4912 27.7146C31.496 27.3721 31.375 26.9539 31.5262 26.6966C32.6213 24.828 33.7722 22.9899 35.1459 20.7513C36.5339 22.8242 37.8853 24.799 39.1618 26.8205C39.286 27.0183 38.9501 27.5136 38.6955 28.2565C37.664 26.7722 36.8665 25.6224 35.8223 24.1204C35.8223 26.1451 35.8765 27.7741 35.8112 29.3983C35.6743 32.769 33.4124 35.5173 30.5075 35.9322C27.2842 36.3938 24.0291 34.4511 22.9976 31.2799C22.6602 30.2442 22.6586 29.0703 22.6458 27.9574C22.5678 20.9732 22.5806 13.9891 22.4532 7.00648C22.4118 4.73095 20.8663 3.41549 18.6378 3.36563C16.481 3.31739 14.8892 4.79528 14.7492 7.33615C14.5645 10.7117 14.5709 14.1 14.547 17.482C14.5168 21.6149 14.5406 25.7478 14.5406 29.7714C13.2402 30.5385 13.1415 29.8663 13.1447 28.9722C13.1558 24.6736 13.151 20.375 13.1495 16.0764C13.1495 13.2284 13.194 10.3788 13.1319 7.53235C13.0651 4.50903 11.2043 2.80278 8.74985 3.40101C7.04986 3.81592 5.52815 5.98692 5.49632 8.27853C5.40718 14.8317 5.37693 21.3865 5.326 27.9414C5.32281 28.263 5.41991 28.6103 5.33077 28.903C5.19229 29.3581 4.93443 29.7762 4.7275 30.2104C4.49033 29.8068 4.07807 29.416 4.04782 28.9963C3.96346 27.8207 4.04145 26.6339 4.04464 25.4519C4.05896 20.1322 3.98415 14.8108 4.11468 9.49429C4.19267 6.28281 3.34108 3.69209 0.483892 2.00514C0.315167 1.90544 0.216478 1.68834 0.00159175 1.4246L0 1.42942Z" fill="#DEC8A1"/>
<path d="M46 5.09783C43.1237 5.6446 41.5431 7.31868 41.3982 10.2423C41.2502 10.2021 41.1022 10.1635 40.9541 10.1233C40.526 9.03297 40.3095 7.76896 39.6123 6.89895C38.9422 6.06272 37.7754 5.63334 36.6851 4.93541C37.6624 4.42562 38.8753 4.10078 39.6218 3.31922C40.3652 2.54087 40.639 1.30582 41.2454 0C41.8025 1.1643 42.105 2.32217 42.8085 3.11498C43.4771 3.87081 44.5658 4.24712 45.4699 4.79067C45.6466 4.89359 45.8249 4.99491 46.0016 5.09783H46ZM42.713 4.95309C42.2737 4.37255 41.8105 3.76307 41.6179 3.50898C41.0194 4.1458 40.4129 4.79228 39.8049 5.44036C39.6903 5.31332 39.5773 5.18467 39.4627 5.05762C39.9927 5.68641 40.5228 6.31359 40.9987 6.87805C41.5351 6.27499 42.0811 5.6639 42.713 4.95309Z" fill="#DEC8A1"/>
</g>
<defs>
<clipPath id="clip0_286_2326">
<rect width="46" height="36" fill="white"/>
</clipPath>
</defs>
</svg>
