<svg width="37" height="38" viewBox="0 0 37 38" fill="none" xmlns="http://www.w3.org/2000/svg">
<g clip-path="url(#clip0_286_2333)">
<path d="M36.9929 19.1163C37.2519 29.5014 27.7163 38.0766 18.4656 38C8.67383 37.9192 -0.0384663 29.0597 -0.000302331 19.1024C0.0405877 8.4638 8.10818 0.00557532 18.1467 2.44985e-06C29.7908 -0.00557042 37.2655 9.49757 36.9929 19.1163ZM4.77429 29.6714L4.72658 29.6226C6.09095 31.9632 8.18315 33.4052 10.5357 34.6939C11.4516 32.6793 12.3062 30.7985 13.2031 28.8271C10.4103 27.2165 8.60977 24.7909 7.60796 21.7119C5.52257 22.2288 3.5544 22.7164 1.14734 23.3141C2.44219 25.5837 3.60892 27.6275 4.77565 29.6714H4.77429ZM9.90735 11.6208C11.9777 8.98207 14.5429 7.60558 17.761 7.43282V1.0491C12.6047 1.35978 8.36716 3.30889 5.04552 7.4774C6.65386 8.84833 8.2145 10.1775 9.90735 11.6208ZM9.26946 12.3829C7.60251 10.9493 6.05142 9.6146 4.37765 8.1754C1.67755 12.2993 0.412687 16.6503 1.22095 21.5113C1.25775 21.7328 1.91744 22.0505 2.22275 21.9892C3.94422 21.6408 5.64661 21.1894 7.44577 20.752C7.26585 17.79 7.48393 14.952 9.27082 12.3829H9.26946ZM27.3851 11.7964C28.0979 13.1673 28.7467 14.417 29.5482 15.9593C29.6831 15.4104 29.833 15.1317 29.7894 14.8893C29.7417 14.626 29.5155 14.3961 29.3669 14.1509C29.7049 14.0199 30.0389 13.7929 30.381 13.7775C31.2724 13.7371 32.1883 13.687 33.0525 13.8569C33.3809 13.921 33.7544 14.5466 33.8321 14.9687C33.9616 15.6667 33.8675 16.4093 33.8675 17.1951C34.2846 17.0544 34.5613 16.9624 34.838 16.8691C34.9061 17.0098 34.9756 17.1491 35.0438 17.2898C34.6335 17.4905 34.2124 17.8583 33.8185 17.8304C33.5731 17.8123 33.2296 17.2174 33.1765 16.8454C33.0729 16.1376 33.1465 15.4034 33.1465 14.6803C32.9925 14.6539 32.8385 14.6274 32.6858 14.6009C32.4841 15.4814 32.2837 16.3606 32.082 17.2411C31.9702 17.2452 31.8571 17.248 31.7453 17.2522L31.2806 14.5382C31.1456 14.5382 31.0107 14.5382 30.8757 14.5396C30.261 16.5654 29.0466 18.4532 29.769 20.8704C31.7194 21.2716 33.7326 21.684 35.7635 22.102C36.4681 16.6044 35.5576 11.71 31.9075 7.46207C30.3946 8.91381 28.9089 10.3377 27.3851 11.7992V11.7964ZM31.3228 6.64426C27.8771 3.11245 23.7595 1.35003 18.8527 1.08671V7.46068C22.0244 7.48855 24.5569 8.8734 26.724 11.0733C28.282 9.57419 29.7594 8.14893 31.3228 6.64426ZM29.4337 21.8289C27.6032 25.9821 27.5296 26.0741 23.7064 28.9803C24.6046 30.8751 25.5055 32.7768 26.4732 34.8193C31.1333 32.1192 34.2492 28.4049 35.5685 23.0773C33.4763 22.6509 31.4932 22.2469 29.4337 21.8289ZM11.3085 35.2094C16.0763 37.4734 20.7882 37.5305 25.5996 35.2735C24.6291 33.2394 23.705 31.3028 22.7373 29.2715C19.8736 30.5254 17.044 30.3721 14.1531 29.2492C13.2044 31.2387 12.2817 33.1725 11.3099 35.2094H11.3085ZM18.8268 8.39274C18.8268 10.7974 18.85 13.0182 18.8173 15.2376C18.8023 16.2797 19.113 17.0014 20.2798 17.2076C22.1185 15.448 23.994 13.6521 25.9294 11.7992C23.983 9.55887 21.636 8.61287 18.8268 8.39274ZM17.7978 8.34119C14.8659 8.71179 12.5079 9.82776 10.747 12.2478C12.4098 13.6285 14.0713 14.9172 15.621 16.3327C16.3761 17.0223 17.0018 17.2202 17.7978 16.557V8.34259V8.34119ZM28.331 21.5851C25.8694 21.0083 23.5074 20.4343 21.1357 19.9105C20.4365 19.7558 19.8014 20.667 20.1339 21.3692C21.1698 23.5537 22.2548 25.7132 23.3424 27.9256C25.8122 26.4906 27.4587 24.4621 28.3297 21.5851H28.331ZM13.6501 27.8713C14.6465 25.723 15.6347 23.6067 16.601 21.4792C16.6787 21.3079 16.6692 21.0292 16.5847 20.8606C16.2507 20.1975 15.9618 19.6402 14.9491 19.9523C12.9169 20.5778 10.8246 21.0041 8.71745 21.5224C9.49981 24.5708 11.3412 26.3889 13.6515 27.8713H13.6501ZM20.5101 18.3431C20.5347 18.488 20.5592 18.6329 20.5851 18.7778C23.2484 19.3699 25.9103 19.962 28.7086 20.5848C28.9962 17.5476 28.1593 15.069 26.6014 12.6212C24.4901 14.6051 22.5001 16.4734 20.5115 18.3431H20.5101ZM22.3897 28.2865C21.3375 26.1131 20.3643 24.0316 19.3202 21.9878C18.9345 21.234 17.7078 21.2507 17.3602 22.01C16.4252 24.0553 15.5597 26.134 14.6247 28.2962C17.2512 29.2799 19.7169 29.4052 22.3883 28.2879L22.3897 28.2865ZM10.0982 13.0586C8.50618 15.4731 7.91328 18.4894 8.69291 20.5388C11.1068 19.5803 13.8396 19.6332 16.3721 18.162C14.1313 16.3383 12.1522 14.7291 10.0982 13.0586ZM18.4861 21.1811C19.064 20.2017 19.6296 19.6541 19.6814 19.0592C19.7591 18.1912 19.0967 17.4278 18.2421 17.6576C17.671 17.8123 16.9104 18.6343 16.9009 19.1707C16.89 19.7043 17.7105 20.256 18.4861 21.1797V21.1811Z" fill="#DEC8A1"/>
<path d="M10.0794 5.72192C10.6273 5.01556 11.0294 4.49728 11.4328 3.979C11.794 4.50843 12.162 5.04899 12.4633 5.49204C12.3597 6.00196 12.267 6.4645 12.147 7.05801C11.839 6.72225 11.5855 6.44778 11.2911 6.12735C11.0989 6.2806 10.9013 6.43664 10.6818 6.61079C10.4283 6.23741 10.1802 5.87378 10.078 5.72331L10.0794 5.72192Z" fill="#DEC8A1"/>
<path d="M6.00948 16.8314C5.4561 17.1226 4.8741 17.4277 4.18715 17.7872C3.86684 17.5197 3.36935 17.1045 2.92773 16.7353C3.42387 16.0833 3.88729 15.4744 4.35207 14.8628C4.88364 15.4953 5.42066 16.132 6.00812 16.83L6.00948 16.8314Z" fill="#DEC8A1"/>
<path d="M26.3086 5.78727C25.7689 6.27489 25.2291 6.76391 24.6526 7.28358C24.2096 6.74998 23.8279 6.29022 23.449 5.83464C23.7748 5.26202 24.1292 4.63926 24.6199 3.77686C24.8066 4.36619 24.9388 4.78415 25.0778 5.2258C25.3913 5.27874 25.7293 5.33726 26.0674 5.39438C26.1478 5.52534 26.2282 5.65631 26.3086 5.78727Z" fill="#DEC8A1"/>
<path d="M4.77461 29.6713C4.66693 29.2743 4.50201 28.8842 4.45976 28.4801C4.3071 27.0326 4.59742 26.7358 6.00676 26.7916C6.4143 26.8083 6.87363 26.6843 7.21574 26.8389C7.66962 27.0437 8.09624 27.4046 8.41927 27.7975C8.73413 28.1806 8.90587 28.6891 9.18664 29.2325C8.45608 30.1074 8.34431 30.0322 7.16531 27.3948C6.98812 28.3018 6.86 28.9566 6.73188 29.6114C6.61057 29.6309 6.48927 29.6504 6.36796 29.6699C6.20167 28.9594 6.03402 28.2503 5.86774 27.5397C5.76688 27.5216 5.66601 27.5049 5.56651 27.4868C5.46565 27.856 5.39614 28.2377 5.25575 28.5902C5.114 28.9483 4.90273 29.2785 4.72418 29.6212L4.77325 29.6713H4.77461Z" fill="#DEC8A1"/>
<path d="M30.5612 28.0746C30.7125 27.5215 30.8638 26.9698 31.0151 26.4167C31.1391 26.4208 31.2632 26.4264 31.3872 26.4306V30.2564C30.4781 29.1627 29.6098 28.1192 28.6639 26.9837C28.499 27.5981 28.3054 28.3156 28.1133 29.0317C27.768 28.6676 28.3454 27.4291 29.8456 25.316C29.4122 25.1572 28.9856 25.0025 28.559 24.8465C28.589 24.6807 28.6203 24.5149 28.6503 24.3491C29.2827 24.4466 29.9152 24.5442 30.5476 24.6431C30.4331 25.2115 30.3145 25.78 30.2068 26.3498C30.1046 26.8931 30.0146 27.4379 29.9192 27.9826C30.1332 28.0133 30.3486 28.0425 30.5626 28.0732L30.5612 28.0746Z" fill="#DEC8A1"/>
<path d="M18.4809 35.4646C17.3442 35.4757 16.4405 34.5353 16.4473 33.3469C16.4541 32.1097 17.2937 31.2612 18.4973 31.2766C19.6136 31.2919 20.5377 32.1571 20.5758 33.2257C20.6208 34.4656 19.6981 35.452 18.4823 35.4646H18.4809ZM18.3282 35.1901C18.9975 34.3235 19.6272 33.854 19.6694 33.3344C19.6994 32.9624 18.9566 32.224 18.5327 32.2031C18.1306 32.1822 17.4273 32.8342 17.3482 33.2814C17.2706 33.7147 17.8198 34.2636 18.3296 35.1901H18.3282Z" fill="#DEC8A1"/>
</g>
<defs>
<clipPath id="clip0_286_2333">
<rect width="37" height="38" fill="white"/>
</clipPath>
</defs>
</svg>
