<svg width="61" height="44" viewBox="0 0 61 44" fill="none" xmlns="http://www.w3.org/2000/svg">
<path d="M46.4035 43.0664H1.42745C0.640013 43.0664 0 42.4264 0 41.639V14.3144C0 13.527 0.640013 12.887 1.42745 12.887H46.4035C47.191 12.887 47.831 13.527 47.831 14.3144V41.639C47.831 42.4264 47.191 43.0664 46.4035 43.0664ZM1.42745 14.2086C1.36848 14.2086 1.32165 14.2572 1.32165 14.3144V41.639C1.32165 41.698 1.36848 41.7448 1.42745 41.7448H46.4035C46.4625 41.7448 46.5093 41.698 46.5093 41.639V14.3144C46.5093 14.2554 46.4625 14.2086 46.4035 14.2086H1.42745Z" fill="#DEC8A1"/>
<path d="M50.6584 38.772H47.1704C46.8062 38.772 46.5096 38.4754 46.5096 38.1112C46.5096 37.747 46.8062 37.4504 47.1704 37.4504H50.6584C50.7174 37.4504 50.7642 37.4035 50.7642 37.3446V10.0183C50.7642 9.9593 50.7174 9.91247 50.6584 9.91247H5.68234C5.62337 9.91247 5.57654 9.9593 5.57654 10.0183V13.5479C5.57654 13.9121 5.27994 14.2087 4.91571 14.2087C4.55147 14.2087 4.25488 13.9121 4.25488 13.5479V10.0183C4.25488 9.23083 4.8949 8.59082 5.68234 8.59082H50.6584C51.4459 8.59082 52.0859 9.23083 52.0859 10.0183V37.3428C52.0859 38.1303 51.4459 38.7703 50.6584 38.7703V38.772Z" fill="#DEC8A1"/>
<path d="M54.9109 34.4756H51.4229C51.0586 34.4756 50.7621 34.179 50.7621 33.8148C50.7621 33.4506 51.0586 33.154 51.4229 33.154H54.9109C54.9698 33.154 55.0167 33.1071 55.0167 33.0482V5.7236C55.0167 5.66463 54.9698 5.6178 54.9109 5.6178H9.93478C9.87581 5.6178 9.82898 5.66463 9.82898 5.7236V9.25321C9.82898 9.61744 9.53239 9.91403 9.16815 9.91403C8.80392 9.91403 8.50732 9.61744 8.50732 9.25321V5.7236C8.50732 4.93616 9.14734 4.29614 9.93478 4.29614H54.9109C55.6983 4.29614 56.3383 4.93616 56.3383 5.7236V33.0482C56.3383 33.8356 55.6983 34.4756 54.9109 34.4756Z" fill="#DEC8A1"/>
<path d="M59.1657 30.1795H55.6778C55.3135 30.1795 55.0169 29.8829 55.0169 29.5186C55.0169 29.1544 55.3135 28.8578 55.6778 28.8578H59.1657C59.2247 28.8578 59.2716 28.811 59.2716 28.752V1.42745C59.2716 1.36848 59.2247 1.32165 59.1657 1.32165H14.1897C14.1307 1.32165 14.0839 1.36848 14.0839 1.42745V4.95707C14.0839 5.3213 13.7873 5.61789 13.423 5.61789C13.0588 5.61789 12.7622 5.3213 12.7622 4.95707V1.42745C12.7622 0.640013 13.4022 0 14.1897 0H59.1657C59.9532 0 60.5932 0.640013 60.5932 1.42745V28.752C60.5932 29.5395 59.9532 30.1795 59.1657 30.1795Z" fill="#DEC8A1"/>
<path d="M43.3254 23.3162C42.9611 23.3162 42.6645 23.0196 42.6645 22.6553V18.536H37.0085C36.6442 18.536 36.3477 18.2394 36.3477 17.8752C36.3477 17.5109 36.6442 17.2144 37.0085 17.2144H42.6888C43.4051 17.2144 43.9862 17.7919 43.9862 18.5031V22.6553C43.9862 23.0196 43.6896 23.3162 43.3254 23.3162Z" fill="#DEC8A1"/>
<path d="M9.72523 38.7391H5.14454C4.42821 38.7391 3.84717 38.1615 3.84717 37.4504V33.8393C3.84717 33.4751 4.14376 33.1785 4.50799 33.1785C4.87223 33.1785 5.16882 33.4751 5.16882 33.8393V37.4175H9.72696C10.0912 37.4175 10.3878 37.7141 10.3878 38.0783C10.3878 38.4425 10.0912 38.7391 9.72696 38.7391H9.72523Z" fill="#DEC8A1"/>
<path d="M4.50604 23.3162C4.14181 23.3162 3.84521 23.0196 3.84521 22.6553V18.5031C3.84521 17.7919 4.42799 17.2144 5.14259 17.2144H9.72327C10.0875 17.2144 10.3841 17.5109 10.3841 17.8752C10.3841 18.2394 10.0875 18.536 9.72327 18.536H5.16513V22.6553C5.16513 23.0196 4.86854 23.3162 4.50431 23.3162H4.50604Z" fill="#DEC8A1"/>
<path d="M42.6888 38.7391H37.0085C36.6442 38.7391 36.3477 38.4425 36.3477 38.0783C36.3477 37.7141 36.6442 37.4175 37.0085 37.4175H42.6645V33.8393C42.6645 33.4751 42.9611 33.1785 43.3254 33.1785C43.6896 33.1785 43.9862 33.4751 43.9862 33.8393V37.4504C43.9862 38.1615 43.4034 38.7391 42.6888 38.7391Z" fill="#DEC8A1"/>
<path d="M23.1848 35.0811V33.1906C22.0817 33.1715 20.9421 32.835 20.2778 32.3667L20.734 31.1127C21.4174 31.5619 22.406 31.9175 23.471 31.9175C24.8204 31.9175 25.7327 31.1491 25.7327 30.0824C25.7327 29.0158 24.9921 28.4156 23.5854 27.8554C21.6463 27.1061 20.4495 26.2458 20.4495 24.6172C20.4495 22.9885 21.57 21.8837 23.3201 21.6027V19.7122H24.4978V21.5281C25.6373 21.5663 26.4178 21.8646 26.9694 22.1838L26.4941 23.4187C26.0952 23.1932 25.3164 22.7821 24.0988 22.7821C22.635 22.7821 22.0834 23.6424 22.0834 24.3917C22.0834 25.3647 22.7859 25.8521 24.4405 26.5251C26.3987 27.3108 27.3856 28.2856 27.3856 29.9506C27.3856 31.4301 26.3397 32.8142 24.3833 33.1334V35.0794H23.1865L23.1848 35.0811Z" fill="#DEC8A1"/>
</svg>
