<svg width="58" height="47" viewBox="0 0 58 47" fill="none" xmlns="http://www.w3.org/2000/svg">
<path d="M18.5078 46.699C18.2764 46.699 18.0548 46.5987 17.9043 46.4231L15.2452 43.3542C15.0766 43.1591 15.0111 42.8943 15.0724 42.6435L15.5476 40.6645C15.6508 40.2352 16.0814 39.9704 16.512 40.0749C16.9413 40.1781 17.2047 40.6101 17.103 41.0394L16.7239 42.6198L18.5106 44.681L20.2958 42.6212L18.5078 35.3518L17.8946 37.8256C17.7886 38.2548 17.3552 38.5154 16.9274 38.4095C16.4981 38.3036 16.2375 37.8702 16.3434 37.4423L17.7343 31.8244C17.8221 31.4677 18.1426 31.2168 18.5106 31.2168C18.8785 31.2168 19.1976 31.4677 19.2854 31.8258L21.9446 42.6435C22.0059 42.8957 21.9418 43.1619 21.7717 43.3584L19.1126 46.4273C18.9607 46.6015 18.7405 46.7032 18.5092 46.7032L18.5078 46.699Z" fill="#DEC8A1"/>
<path d="M36.2144 47.0001C35.8088 47.0001 35.4618 46.6935 35.42 46.281L34.3803 35.9887C34.1197 33.4146 32.156 31.3255 29.6028 30.9088L23.4108 29.897L18.8967 32.4126C18.6556 32.5478 18.3601 32.5478 18.119 32.4126L13.6035 29.897L7.41148 30.9088C4.85828 31.3255 2.89321 33.4146 2.63399 35.9887L1.59432 46.281C1.54972 46.72 1.1581 47.0391 0.719094 46.9959C0.280089 46.9513 -0.0404541 46.5597 0.00414325 46.1207L1.04382 35.8285C1.37551 32.5366 3.88829 29.865 7.15505 29.3298L13.6217 28.2734C13.7987 28.2455 13.9826 28.2762 14.1401 28.364L18.5092 30.7973L22.8784 28.364C23.0359 28.2762 23.2184 28.2455 23.3968 28.2734L29.8634 29.3298C33.1288 29.8636 35.6416 32.5352 35.9747 35.8285L37.0143 46.1207C37.0589 46.5597 36.7384 46.9527 36.2994 46.9959C36.2715 46.9987 36.245 47.0001 36.2186 47.0001H36.2144Z" fill="#DEC8A1"/>
<path d="M13.75 29.861C13.6218 29.861 13.4908 29.8303 13.3695 29.7648C12.9807 29.5544 12.8371 29.0694 13.0476 28.6819L13.7319 27.4179C13.9423 27.029 14.4273 26.8855 14.8148 27.0959C15.2036 27.3064 15.3471 27.7914 15.1367 28.1788L14.4524 29.4429C14.3075 29.7104 14.0329 29.8624 13.7486 29.8624L13.75 29.861Z" fill="#DEC8A1"/>
<path d="M23.266 29.8608C22.9817 29.8608 22.7071 29.7089 22.5622 29.4414L21.8779 28.1773C21.6674 27.7899 21.8124 27.3035 22.1998 27.0944C22.5886 26.884 23.0736 27.0289 23.2827 27.4164L23.967 28.6804C24.1774 29.0679 24.0325 29.5542 23.645 29.7633C23.5238 29.8288 23.3942 29.8595 23.2646 29.8595L23.266 29.8608Z" fill="#DEC8A1"/>
<path d="M18.5074 26.9452C14.6526 26.9452 12.2833 23.4234 11.3733 20.2807C10.5942 19.6257 10.2848 18.0871 10.1664 17.138C10.165 17.1213 10.1622 17.1059 10.1622 17.0892C10.0953 16.0272 10.3879 15.2537 11.0346 14.7827C10.9984 13.251 11.1154 9.0589 13.4024 7.94815C13.4192 7.93143 13.4303 7.90077 13.4456 7.8701C13.7885 7.15237 14.3181 6.72451 16.1285 6.51685C18.3946 6.25624 21.547 6.69803 23.1874 8.04153L23.2487 8.0917C24.2939 8.94462 26.0165 10.3522 25.9775 14.7785C26.6283 15.2482 26.9238 16.0231 26.8555 17.0892C26.7426 18.0592 26.4513 19.5797 25.7029 20.2459C24.8347 23.5405 22.5212 26.9452 18.5116 26.9452H18.5074ZM12.3697 19.0348C12.5983 19.1309 12.7711 19.3274 12.8338 19.5699C13.5321 22.236 15.4372 25.3481 18.5074 25.3481C22.5379 25.3481 23.8995 20.9274 24.2215 19.5727C24.2786 19.3302 24.4459 19.1295 24.6716 19.0278C24.8779 18.8006 25.1594 17.8125 25.2612 16.9484C25.3099 16.1638 25.0646 16.0649 24.8667 15.9854C24.5532 15.86 24.3539 15.552 24.365 15.2147C24.5128 11.1926 23.1414 10.0735 22.2341 9.33206L22.1714 9.28049C21.0829 8.38855 18.4517 7.86314 16.3068 8.10703C15.033 8.25336 14.9369 8.45405 14.8853 8.56136C14.7822 8.77738 14.6094 9.13973 14.0993 9.38781C12.7697 10.0331 12.5481 13.5772 12.6499 15.1924C12.6722 15.5367 12.4701 15.8572 12.1495 15.9854C11.953 16.0635 11.7091 16.161 11.7565 16.9666C11.8722 17.8529 12.1593 18.816 12.3725 19.0362L12.3697 19.0348Z" fill="#DEC8A1"/>
<path d="M24.9214 12.9305C24.5591 12.9305 24.2316 12.6824 24.1452 12.3159C24.0727 12.0135 23.918 11.8086 23.6421 11.6511C22.7195 11.1243 20.6777 11.2762 18.1831 12.0553C15.8389 12.7869 14.0857 12.7423 12.9708 11.9215C11.8935 11.1285 11.8628 9.96058 11.8628 9.82958C11.8628 9.38778 12.221 9.03101 12.6614 9.03101C13.099 9.03101 13.4544 9.38221 13.4599 9.81843C13.4613 9.85745 13.4934 10.3355 13.9366 10.6477C14.3254 10.9222 15.3302 11.2706 17.7064 10.5292C19.8276 9.86721 22.7153 9.28465 24.4323 10.263C25.0887 10.6379 25.5263 11.2191 25.6991 11.9479C25.8008 12.3772 25.5347 12.8078 25.1054 12.9096C25.0441 12.9249 24.9814 12.9305 24.9201 12.9305H24.9214Z" fill="#DEC8A1"/>
<path d="M56.8839 34.5239H40.2895C39.8477 34.5239 39.4895 34.1657 39.4895 33.7253C39.4895 33.2849 39.8477 32.9268 40.2895 32.9268H56.0839V1.59854H14.6823C14.2405 1.59854 13.8823 1.24036 13.8823 0.799964C13.8823 0.359566 14.2405 0 14.6823 0H56.8853C57.3271 0 57.6839 0.358172 57.6839 0.799964V33.7253C57.6839 34.1671 57.3257 34.5239 56.8853 34.5239H56.8839Z" fill="#DEC8A1"/>
<path d="M53.7929 47H49.6189C49.1771 47 48.8203 46.6418 48.8203 46.2014C48.8203 45.761 49.1785 45.4028 49.6189 45.4028H53.7929C54.2347 45.4028 54.5929 45.761 54.5929 46.2014C54.5929 46.6418 54.2347 47 53.7929 47Z" fill="#DEC8A1"/>
<path d="M51.7048 46.9985C51.263 46.9985 50.9062 46.6403 50.9062 46.1999V33.7238C50.9062 33.282 51.2644 32.9238 51.7048 32.9238C52.1452 32.9238 52.5034 33.282 52.5034 33.7238V46.1999C52.5034 46.6417 52.1452 46.9985 51.7048 46.9985Z" fill="#DEC8A1"/>
<path d="M14.6823 4.93497C14.2405 4.93497 13.8823 4.5768 13.8823 4.1364V0.799964C13.8823 0.358172 14.2405 0 14.6823 0C15.1241 0 15.4809 0.358172 15.4809 0.799964V4.1364C15.4809 4.57819 15.1227 4.93497 14.6823 4.93497Z" fill="#DEC8A1"/>
<path d="M49.4482 11.8502C49.3548 11.8502 49.2601 11.8335 49.1667 11.7986C48.7542 11.6425 48.5451 11.1826 48.6998 10.7687L49.6559 8.23084L47.1905 7.27479C46.7793 7.11452 46.5745 6.65182 46.7347 6.24069C46.895 5.82956 47.3563 5.62608 47.7689 5.78496L50.9715 7.02811C51.3798 7.18699 51.5847 7.6455 51.43 8.05524L50.1952 11.3345C50.074 11.6551 49.7702 11.853 49.4468 11.853L49.4482 11.8502Z" fill="#DEC8A1"/>
<path d="M50.5288 28.5966C50.3239 28.5966 50.1205 28.5185 49.9644 28.3625L47.0725 25.4706C46.7603 25.1584 46.7603 24.6525 47.0725 24.3403C47.3847 24.0282 47.8906 24.0282 48.2028 24.3403L51.0946 27.2322C51.4068 27.5444 51.4068 28.0503 51.0946 28.3625C50.9385 28.5185 50.7337 28.5966 50.5302 28.5966H50.5288Z" fill="#DEC8A1"/>
<path d="M47.636 28.5966C47.4311 28.5966 47.2276 28.5185 47.0715 28.3625C46.7594 28.0503 46.7594 27.5444 47.0715 27.2322L49.9634 24.3403C50.2756 24.0282 50.7815 24.0282 51.0937 24.3403C51.4058 24.6525 51.4058 25.1584 51.0937 25.4706L48.2018 28.3625C48.0457 28.5185 47.8408 28.5966 47.6374 28.5966H47.636Z" fill="#DEC8A1"/>
<path d="M34.7452 12.4356C33.307 12.4356 32.1377 11.2663 32.1377 9.82801C32.1377 8.38974 33.307 7.22046 34.7452 7.22046C36.1835 7.22046 37.3528 8.38974 37.3528 9.82801C37.3528 11.2663 36.1835 12.4356 34.7452 12.4356ZM34.7452 8.81899C34.1892 8.81899 33.7362 9.27194 33.7362 9.82801C33.7362 10.3841 34.1892 10.837 34.7452 10.837C35.3013 10.837 35.7543 10.3841 35.7543 9.82801C35.7543 9.27194 35.3013 8.81899 34.7452 8.81899Z" fill="#DEC8A1"/>
<path d="M29.5129 26.9701C29.4808 26.9701 29.4487 26.9673 29.4167 26.9645C28.9791 26.9116 28.6669 26.5144 28.7185 26.0754C28.7282 25.996 28.961 24.0922 29.6578 22.1592C30.9274 18.6304 32.7211 17.8904 34.0005 17.8904C35.9042 17.8904 37.2616 19.2631 38.3529 20.3669C39.0372 21.0582 39.7438 21.7648 40.2357 21.7508C40.5604 21.7355 40.9186 21.3773 41.1625 21.0791C42.0238 20.0255 42.5171 18.2444 43.0398 16.3587C44.0474 12.7199 45.1902 8.59463 49.505 7.73195C49.937 7.64555 50.3593 7.92567 50.4457 8.3591C50.5321 8.79114 50.252 9.21342 49.8186 9.29983C46.4668 9.97018 45.508 13.4348 44.5798 16.7852C44.0112 18.8381 43.4746 20.7767 42.4001 22.0909C41.7367 22.902 41.0538 23.3131 40.311 23.348C39.1069 23.3898 38.1884 22.4756 37.217 21.4916C36.2443 20.5077 35.238 19.4903 34.0005 19.4903C31.6535 19.4903 30.5177 24.5103 30.3045 26.2677C30.2557 26.6733 29.91 26.9715 29.5115 26.9715L29.5129 26.9701Z" fill="#DEC8A1"/>
</svg>
