<svg width="24" height="24" viewBox="0 0 24 24" fill="none" xmlns="http://www.w3.org/2000/svg">
<g clip-path="url(#clip0_286_2192)">
<path d="M24 3.29604C24.0022 3.73806 23.8263 4.16139 23.5129 4.47257L22.388 5.59741L18.4008 1.61042L19.5257 0.485577C20.1756 -0.163161 21.229 -0.163161 21.8789 0.485577L23.5118 2.11952C23.8252 2.43069 24.0011 2.85402 24 3.29604ZM15.8893 4.12181L17.4672 2.54394L21.4544 6.53093L19.8765 8.10879L15.8893 4.12181ZM18.9429 9.04232L5.64978 22.3359C5.50903 21.928 5.32869 21.5344 5.11207 21.1605C4.55017 20.1995 3.50994 19.0109 1.64171 18.3698L11.868 8.14398L11.8735 8.13848L14.9601 5.05313L18.9429 9.04232ZM4.58096 23.4047L4.471 23.5147L0 23.9996L0.483827 19.5288L0.577293 19.4364C3.67818 20.1621 4.41602 22.5658 4.58096 23.4058V23.4047Z" fill="white"/>
</g>
<defs>
<clipPath id="clip0_286_2192">
<rect width="24" height="24" fill="white"/>
</clipPath>
</defs>
</svg>
