<svg width="25" height="26" viewBox="0 0 25 26" fill="none" xmlns="http://www.w3.org/2000/svg">
<path d="M24.9504 16.4174C24.8597 16.0737 24.6429 15.7622 24.3235 15.5607C24.3084 15.5506 24.2933 15.5404 24.2765 15.5302H24.2748L20.7857 13.5037L20.7891 13.4495C20.7975 13.2802 20.8025 13.1295 20.8025 12.9992C20.8025 12.8688 20.7975 12.7164 20.7891 12.5488L20.7857 12.4963L24.2395 10.4884C24.2513 10.4816 24.2647 10.4748 24.2765 10.4681C24.621 10.2666 24.8546 9.94322 24.9504 9.5826C25.0395 9.24569 25.0092 8.87491 24.8412 8.54307C24.8311 8.52106 24.821 8.49736 24.8076 8.47705H24.8059L22.5706 4.57967C22.5622 4.56274 22.5538 4.54581 22.5454 4.52888H22.5437C22.3437 4.18181 22.0227 3.94647 21.6647 3.84997C21.3084 3.75347 20.9151 3.7941 20.5689 3.99557L17.0782 6.02553C16.9387 5.93241 16.7975 5.84437 16.6513 5.75972C16.5067 5.67507 16.3605 5.59549 16.2126 5.521V1.4594C16.2126 1.05815 16.0496 0.692453 15.7874 0.428339C15.5252 0.164225 15.1622 0 14.7639 0H10.2378C9.86135 0 9.51681 0.147294 9.25798 0.387706C9.24286 0.399557 9.22773 0.413101 9.21429 0.428339C8.9521 0.692453 8.78908 1.05815 8.78908 1.4594V5.51761C8.64118 5.59211 8.49496 5.67168 8.35042 5.75633C8.20588 5.84098 8.06303 5.92902 7.92353 6.02214L4.43277 3.99219C4.08656 3.79071 3.69328 3.75008 3.33697 3.84658C2.9958 3.93801 2.68655 4.15641 2.48655 4.47809C2.47647 4.49333 2.46639 4.50856 2.4563 4.5238L0.224369 8.42626C0.214285 8.44149 0.202521 8.45842 0.194117 8.47366C-0.00588281 8.82243 -0.0462189 9.22029 0.0495794 9.58091C0.145378 9.93983 0.377311 10.2649 0.72521 10.4664L4.21429 12.4946L4.21092 12.5488C4.20252 12.7181 4.19748 12.8688 4.19748 12.9992C4.19748 13.1295 4.20252 13.2802 4.21092 13.4495L4.21429 13.5037L0.723529 15.5336C0.378991 15.7351 0.145378 16.0585 0.0495794 16.4191C-0.0462189 16.7797 -0.00588281 17.1776 0.194117 17.5263L2.45798 21.4745C2.65798 21.8216 2.97899 22.0569 3.33697 22.1534C3.67143 22.2431 4.0395 22.2127 4.36891 22.0417C4.39076 22.0315 4.41429 22.0214 4.43445 22.0078L7.92353 19.9779C8.06303 20.071 8.2042 20.159 8.34874 20.2437C8.49328 20.3283 8.6395 20.4079 8.7874 20.4824V24.5406C8.7874 24.9418 8.95042 25.3075 9.21261 25.5717C9.47479 25.8358 9.83782 26 10.2361 26H14.7622C15.1387 26 15.4832 25.8527 15.742 25.6123C15.7571 25.6004 15.7723 25.5869 15.7857 25.5717C16.0479 25.3075 16.2109 24.9418 16.2109 24.5406V20.4824C16.3588 20.4079 16.505 20.3283 16.6496 20.2437C16.7941 20.159 16.937 20.071 17.0765 19.9779L20.5672 22.0078C20.9134 22.2093 21.3067 22.2499 21.663 22.1534C22.0042 22.062 22.3134 21.8436 22.5134 21.5219C22.5235 21.5067 22.5336 21.4914 22.5437 21.4745H22.542L24.7756 17.5737C24.7857 17.5585 24.7975 17.5416 24.8059 17.5263C25.0059 17.1776 25.0462 16.7797 24.9504 16.4191V16.4174ZM15.9487 16.4716C15.0664 17.3604 13.8479 17.9107 12.5017 17.9107C11.1555 17.9107 9.93698 17.3604 9.05462 16.4716C8.17227 15.5827 7.62605 14.3553 7.62605 12.9992C7.62605 11.643 8.17227 10.4156 9.05462 9.52673C9.93698 8.63789 11.1555 8.08765 12.5017 8.08765C13.8479 8.08765 15.0664 8.63789 15.9487 9.52673C16.8311 10.4156 17.3773 11.643 17.3773 12.9992C17.3773 14.3553 16.8311 15.5827 15.9487 16.4716Z" fill="#758395"/>
</svg>
