<svg width="166" height="206" viewBox="0 0 166 206" fill="none" xmlns="http://www.w3.org/2000/svg">
<g filter="url(#filter0_d_286_3248)">
<mask id="mask0_286_3248" style="mask-type:alpha" maskUnits="userSpaceOnUse" x="7" y="3" width="152" height="193">
<path d="M118.148 193.346L117.941 179.339L102.755 151.324L103.194 107.994C103.194 107.994 112.635 107.455 113.105 117.45C113.521 126.352 114.406 137.687 114.406 137.687L123.993 105.253C123.993 105.253 118.241 77.2004 130.646 76.5997L136.244 108.341L133.311 126.098" stroke="#FAAF40" stroke-width="2" stroke-linecap="round" stroke-linejoin="round"/>
<path d="M142.343 133.105L146.255 110.158L137.646 73.8353C137.646 73.8353 131.709 74.5437 131.362 80.7425" stroke="#FAAF40" stroke-width="2" stroke-linecap="round" stroke-linejoin="round"/>
<path d="M150.498 134.491L152.277 108.495L146.802 83.5993C146.802 83.5993 140.333 85.1702 141.819 91.4306" stroke="#FAAF40" stroke-width="2" stroke-linecap="round" stroke-linejoin="round"/>
<path d="M151.737 116.365C151.737 116.365 152.007 109.427 156.966 110.851L157.597 136.432C157.744 142.353 156.974 148.26 155.318 153.95L148.38 177.737L150.829 194.87" stroke="#FAAF40" stroke-width="2" stroke-linecap="round" stroke-linejoin="round"/>
<path d="M103.394 107.247C107.129 108.98 107.337 113.8 106.99 117.358C106.975 117.635 106.536 117.612 106.551 117.335C106.498 114.37 106.166 110.605 103.402 108.903C103.256 108.826 103.048 108.733 102.986 108.726C101.823 108.541 102.301 106.808 103.402 107.24L103.394 107.247Z" fill="#FAAF40"/>
<path d="M131.201 77.131C128.968 79.4334 128.367 83.0526 129.283 86.0943C129.368 86.3946 128.898 86.5409 128.798 86.2483C127.813 83.7919 127.689 80.9581 128.706 78.4709C129.083 77.7316 129.992 75.1135 131.17 75.9528C131.54 76.2455 131.547 76.823 131.193 77.131H131.201Z" fill="#FAAF40"/>
<path d="M138.123 74.8825C136.59 76.438 135.921 78.9021 136.105 81.089C136.144 81.8822 136.329 82.6599 136.513 83.4377C136.583 83.6995 136.167 83.8227 136.082 83.5609C134.789 80.4037 134.804 76.592 137.014 73.8045C137.738 72.9651 138.939 74.1356 138.115 74.8825H138.123Z" fill="#FAAF40"/>
<path d="M147.402 84.585C145.546 86.4408 145 89.4286 145.462 91.9774C145.531 92.3701 145.639 92.7629 145.724 93.1556C145.762 93.325 145.5 93.402 145.446 93.2326C144.13 90.0908 144.122 86.3022 146.309 83.4993C147.033 82.6522 148.242 83.8304 147.41 84.5773L147.402 84.585Z" fill="#FAAF40"/>
<path d="M157.32 111.544C155.919 112.414 155.434 114.339 155.149 115.918C155.056 116.526 155.002 117.15 154.964 117.774C154.964 117.843 154.902 117.905 154.833 117.897C154.771 117.897 154.718 117.843 154.71 117.781C154.463 115.518 154.425 113.03 155.742 111.051C156.011 110.689 156.181 110.458 156.62 110.173C157.528 109.727 158.214 111.074 157.32 111.544Z" fill="#FAAF40"/>
<path d="M47.467 193.346L47.675 179.339L62.8602 151.324L62.4212 107.994C62.4212 107.994 52.9805 107.455 52.5108 117.45C52.095 126.352 51.2094 137.687 51.2094 137.687L41.6224 105.253C41.6224 105.253 47.3746 77.2004 34.9693 76.5997L29.3711 108.341L32.3049 126.098" stroke="#FAAF40" stroke-width="2" stroke-linecap="round" stroke-linejoin="round"/>
<path d="M23.2722 133.105L19.3604 110.158L27.9694 73.8353C27.9694 73.8353 33.9064 74.5437 34.2529 80.7425" stroke="#FAAF40" stroke-width="2" stroke-linecap="round" stroke-linejoin="round"/>
<path d="M15.1172 134.491L13.3384 108.495L18.8134 83.5993C18.8134 83.5993 25.2817 85.1702 23.7955 91.4306" stroke="#FAAF40" stroke-width="2" stroke-linecap="round" stroke-linejoin="round"/>
<path d="M13.8775 116.365C13.8775 116.365 13.608 109.427 8.64897 110.851L8.01754 136.432C7.87123 142.353 8.64127 148.26 10.2969 153.95L17.2349 177.737L14.7862 194.87" stroke="#FAAF40" stroke-width="2" stroke-linecap="round" stroke-linejoin="round"/>
<path d="M62.6367 108.733C59.4872 110.112 59.133 114.301 59.0637 117.335C59.0791 117.612 58.6402 117.643 58.6248 117.358C58.4631 115.571 58.4092 113.685 58.8327 111.929C59.2562 110.027 60.3343 107.971 62.2825 107.224C63.3605 106.878 63.761 108.556 62.6367 108.726V108.733Z" fill="#FAAF40"/>
<path d="M35.5309 76.0684C37.8256 78.9407 38.1798 82.9141 36.8245 86.2484C36.7783 86.3793 36.632 86.4486 36.4934 86.4024C36.3702 86.3562 36.3009 86.2253 36.3317 86.1021C36.5396 85.2935 36.709 84.4773 36.7398 83.6534C36.8861 81.3201 36.0314 78.8021 34.422 77.1388C33.6212 76.3919 34.8147 75.2368 35.5309 76.0684Z" fill="#FAAF40"/>
<path d="M28.5929 73.8045C30.8029 76.592 30.8183 80.4037 29.5247 83.5609C29.4862 83.6764 29.3552 83.738 29.2397 83.6995C29.1242 83.661 29.0626 83.5301 29.1011 83.4146C29.5016 81.913 29.671 80.319 29.4014 78.7866C29.1473 77.3621 28.462 75.822 27.4532 74.844C26.6986 74.0817 27.8845 72.9805 28.5852 73.7968L28.5929 73.8045Z" fill="#FAAF40"/>
<path d="M19.3141 83.4992C21.501 86.2944 21.4933 90.0907 20.1766 93.2325C20.1458 93.3095 20.0688 93.348 19.9918 93.3172C19.9148 93.2864 19.8763 93.2094 19.8994 93.1324C20.2921 91.6154 20.4461 90.0137 20.1612 88.4737C19.8917 87.0491 19.1986 85.509 18.1822 84.5388C17.4121 83.7764 18.6134 82.6599 19.3141 83.4915V83.4992Z" fill="#FAAF40"/>
<path d="M8.99558 110.166C10.759 111.467 11.0362 113.862 11.0439 115.872C11.0285 116.511 10.9746 117.15 10.9053 117.774C10.8976 117.843 10.836 117.897 10.759 117.889C10.6974 117.889 10.6435 117.828 10.6435 117.766C10.5357 115.98 10.2816 114.07 9.3036 112.553C9.04949 112.168 8.66447 111.706 8.28715 111.536C7.3939 111.067 8.07154 109.719 8.98788 110.166H8.99558Z" fill="#FAAF40"/>
<path d="M81.9717 21.1876V7.60406" stroke="#FAAF40" stroke-width="2" stroke-linecap="round" stroke-linejoin="round"/>
<path d="M81.9717 79.8646V62.6157" stroke="#FAAF40" stroke-width="2" stroke-linecap="round" stroke-linejoin="round"/>
<path d="M81.9717 86.4023V82.5059" stroke="#FAAF40" stroke-width="2" stroke-linecap="round" stroke-linejoin="round"/>
<path d="M94.7935 6.68769L95.7714 4.00024" stroke="#FAAF40" stroke-width="2" stroke-linecap="round" stroke-linejoin="round"/>
<path d="M89.0562 22.4351L94.0768 8.63593" stroke="#FAAF40" stroke-width="2" stroke-linecap="round" stroke-linejoin="round"/>
<path d="M69.1279 77.2003L74.8878 61.3683" stroke="#FAAF40" stroke-width="2" stroke-linecap="round" stroke-linejoin="round"/>
<path d="M95.2861 26.0387L105.335 14.0646" stroke="#FAAF40" stroke-width="2" stroke-linecap="round" stroke-linejoin="round"/>
<path d="M58.7632 69.5692L68.6582 57.7722" stroke="#FAAF40" stroke-width="2" stroke-linecap="round" stroke-linejoin="round"/>
<path d="M53.6416 75.668L56.5832 72.1643" stroke="#FAAF40" stroke-width="2" stroke-linecap="round" stroke-linejoin="round"/>
<path d="M104.988 28.6184L120.012 19.9401" stroke="#FAAF40" stroke-width="2" stroke-linecap="round" stroke-linejoin="round"/>
<path d="M99.9141 31.5446L102.062 30.3048" stroke="#FAAF40" stroke-width="2" stroke-linecap="round" stroke-linejoin="round"/>
<path d="M48.2598 61.3683L64.0302 52.2587" stroke="#FAAF40" stroke-width="2" stroke-linecap="round" stroke-linejoin="round"/>
<path d="M102.371 38.3056L118.457 35.4718" stroke="#FAAF40" stroke-width="2" stroke-linecap="round" stroke-linejoin="round"/>
<path d="M44.1245 48.5779L61.5736 45.4977" stroke="#FAAF40" stroke-width="2" stroke-linecap="round" stroke-linejoin="round"/>
<path d="M38.7808 49.5174L41.6299 49.0168" stroke="#FAAF40" stroke-width="2" stroke-linecap="round" stroke-linejoin="round"/>
<path d="M122.538 49.0554L126.95 49.8331" stroke="#FAAF40" stroke-width="2" stroke-linecap="round" stroke-linejoin="round"/>
<path d="M102.371 45.4977L117.825 48.2237" stroke="#FAAF40" stroke-width="2" stroke-linecap="round" stroke-linejoin="round"/>
<path d="M46.5576 35.6566L61.5734 38.3056" stroke="#FAAF40" stroke-width="2" stroke-linecap="round" stroke-linejoin="round"/>
<path d="M99.9141 52.2587L112.035 59.2583" stroke="#FAAF40" stroke-width="2" stroke-linecap="round" stroke-linejoin="round"/>
<path d="M57.4312 27.7329L64.0304 31.5446" stroke="#FAAF40" stroke-width="2" stroke-linecap="round" stroke-linejoin="round"/>
<path d="M43.2466 19.5397L46.7888 21.588L54.0657 25.7925" stroke="#FAAF40" stroke-width="2" stroke-linecap="round" stroke-linejoin="round"/>
<path d="M109.332 74.5129L111.303 76.8538" stroke="#FAAF40" stroke-width="2" stroke-linecap="round" stroke-linejoin="round"/>
<path d="M95.2861 57.7722L107.006 71.7331" stroke="#FAAF40" stroke-width="2" stroke-linecap="round" stroke-linejoin="round"/>
<path d="M59.0474 14.5806L68.6575 26.0388" stroke="#FAAF40" stroke-width="2" stroke-linecap="round" stroke-linejoin="round"/>
<path d="M89.0562 61.3683L94.585 76.5612" stroke="#FAAF40" stroke-width="2" stroke-linecap="round" stroke-linejoin="round"/>
<path d="M73.8325 19.5397L74.8875 22.4351" stroke="#FAAF40" stroke-width="2" stroke-linecap="round" stroke-linejoin="round"/>
<path d="M68.1807 4.00024L72.9857 17.2064" stroke="#FAAF40" stroke-width="2" stroke-linecap="round" stroke-linejoin="round"/>
<path d="M81.6792 59.0889C90.9418 59.0889 98.4507 51.5801 98.4507 42.3174C98.4507 33.0548 90.9418 25.546 81.6792 25.546C72.4166 25.546 64.9077 33.0548 64.9077 42.3174C64.9077 51.5801 72.4166 59.0889 81.6792 59.0889Z" stroke="#FAAF40" stroke-width="2" stroke-linecap="round" stroke-linejoin="round"/>
</mask>
<g mask="url(#mask0_286_3248)">
<rect x="-10.1318" y="-2.99976" width="186" height="198" fill="url(#paint0_linear_286_3248)"/>
</g>
</g>
<defs>
<filter id="filter0_d_286_3248" x="0" y="0" width="165.615" height="206" filterUnits="userSpaceOnUse" color-interpolation-filters="sRGB">
<feFlood flood-opacity="0" result="BackgroundImageFix"/>
<feColorMatrix in="SourceAlpha" type="matrix" values="0 0 0 0 0 0 0 0 0 0 0 0 0 0 0 0 0 0 127 0" result="hardAlpha"/>
<feOffset dy="4"/>
<feGaussianBlur stdDeviation="3.5"/>
<feComposite in2="hardAlpha" operator="out"/>
<feColorMatrix type="matrix" values="0 0 0 0 0 0 0 0 0 0 0 0 0 0 0 0 0 0 0.5 0"/>
<feBlend mode="normal" in2="BackgroundImageFix" result="effect1_dropShadow_286_3248"/>
<feBlend mode="normal" in="SourceGraphic" in2="effect1_dropShadow_286_3248" result="shape"/>
</filter>
<linearGradient id="paint0_linear_286_3248" x1="82.8682" y1="-2.99976" x2="82.8682" y2="195" gradientUnits="userSpaceOnUse">
<stop stop-color="#DEC8A1"/>
<stop offset="1" stop-color="#917F4E"/>
</linearGradient>
</defs>
</svg>
