<svg width="263" height="263" viewBox="0 0 263 263" fill="none" xmlns="http://www.w3.org/2000/svg">
<g filter="url(#filter0_d_286_3313)">
<mask id="mask0_286_3313" style="mask-type:alpha" maskUnits="userSpaceOnUse" x="62" y="1" width="140" height="261">
<path d="M150.091 149.918C160.261 139.748 160.261 123.201 150.091 113.03C139.92 102.86 123.373 102.86 113.202 113.03C103.032 123.201 103.032 139.748 113.202 149.918C123.373 160.089 139.92 160.089 150.091 149.918ZM113.987 113.815C123.725 104.077 139.568 104.077 149.306 113.815C159.043 123.553 159.043 139.396 149.306 149.133C139.568 158.871 123.725 158.871 113.987 149.133C104.249 139.396 104.249 123.553 113.987 113.815Z" fill="url(#paint0_linear_286_3313)"/>
<path d="M135.446 148.581C138.698 147.862 141.668 146.231 144.035 143.864C150.867 137.032 150.867 125.916 144.035 119.085C140.51 115.56 135.629 113.7 130.647 113.982C130.382 113.998 130.165 114.197 130.129 114.46C130.093 114.722 130.247 114.974 130.499 115.061C132.865 115.875 134.966 117.191 136.747 118.973C143.146 125.372 143.146 135.783 136.747 142.182C133.894 145.035 130.104 146.733 126.078 146.961C125.813 146.976 125.596 147.176 125.56 147.438C125.524 147.701 125.678 147.953 125.93 148.039C128.99 149.092 132.28 149.279 135.447 148.58L135.446 148.581ZM137.532 142.967C144.364 136.135 144.364 125.019 137.532 118.188C136.321 116.977 134.971 115.968 133.499 115.171C137.161 115.588 140.611 117.23 143.25 119.87C149.649 126.268 149.649 136.68 143.25 143.079C141.034 145.296 138.252 146.824 135.207 147.497C133.155 147.95 131.047 148.006 128.993 147.671C132.209 146.949 135.171 145.328 137.532 142.967Z" fill="url(#paint1_linear_286_3313)"/>
<path d="M102.427 102.255C102.644 102.039 102.644 101.687 102.427 101.47L83.378 82.4209C83.1616 82.2045 82.8095 82.2045 82.5931 82.4209C82.3767 82.6373 82.3767 82.9894 82.5931 83.2058L101.643 102.255C101.859 102.472 102.211 102.472 102.427 102.255Z" fill="url(#paint2_linear_286_3313)"/>
<path d="M95.102 111.018C95.324 111.145 95.5976 111.103 95.7714 110.929C95.805 110.895 95.8341 110.857 95.8599 110.814C96.0135 110.548 95.9227 110.208 95.657 110.054L72.3266 96.5841C72.0609 96.4305 71.7223 96.5224 71.5687 96.7882C71.4151 97.0539 71.5059 97.3936 71.7716 97.5472L95.102 111.018Z" fill="url(#paint3_linear_286_3313)"/>
<path d="M91.0525 121.171C91.251 121.224 91.4528 121.164 91.5885 121.028C91.6546 120.962 91.7062 120.877 91.732 120.779C91.8105 120.483 91.6355 120.178 91.3395 120.1L65.3171 113.127C65.0211 113.048 64.7162 113.223 64.6377 113.519C64.5592 113.815 64.7341 114.12 65.0301 114.199L91.0525 121.171Z" fill="url(#paint4_linear_286_3313)"/>
<path d="M89.7684 132.03C89.9209 132.03 90.0611 131.969 90.162 131.868C90.2629 131.767 90.3246 131.629 90.3246 131.474C90.3246 131.167 90.0768 130.919 89.7696 130.919L62.8289 130.919C62.5217 130.919 62.2739 131.167 62.2739 131.474C62.2739 131.781 62.5217 132.029 62.8289 132.029L89.7695 132.029L89.7684 132.03Z" fill="url(#paint5_linear_286_3313)"/>
<path d="M65.3181 149.823L91.3394 142.851C91.4369 142.826 91.521 142.775 91.5883 142.708C91.724 142.572 91.7856 142.369 91.7318 142.172C91.6533 141.876 91.3484 141.701 91.0524 141.779L65.0311 148.751C64.7351 148.83 64.5602 149.135 64.6387 149.431C64.7171 149.727 65.0221 149.902 65.3181 149.823Z" fill="url(#paint6_linear_286_3313)"/>
<path d="M72.3266 166.364L95.6569 152.894C95.6995 152.869 95.7388 152.839 95.7724 152.805C95.9462 152.632 95.9888 152.358 95.861 152.136C95.7074 151.87 95.3676 151.78 95.1019 151.933L71.7716 165.404C71.5069 165.556 71.415 165.897 71.5675 166.161C71.7211 166.427 72.0608 166.518 72.3266 166.364Z" fill="url(#paint7_linear_286_3313)"/>
<path d="M83.378 180.528L102.427 161.478C102.644 161.262 102.644 160.91 102.427 160.693C102.211 160.477 101.859 160.477 101.643 160.693L82.5931 179.743C82.3767 179.959 82.3767 180.311 82.5931 180.528C82.8095 180.744 83.1616 180.744 83.378 180.528Z" fill="url(#paint8_linear_286_3313)"/>
<path d="M110.985 167.26C110.72 167.107 110.381 167.199 110.227 167.464L96.757 190.795C96.6034 191.06 96.6942 191.4 96.9599 191.554C97.1819 191.682 97.4555 191.639 97.6293 191.465C97.6629 191.432 97.6921 191.393 97.7179 191.35L111.188 168.019C111.342 167.754 111.251 167.414 110.985 167.26Z" fill="url(#paint9_linear_286_3313)"/>
<path d="M114.228 198.338C114.294 198.272 114.346 198.187 114.372 198.089L121.343 172.068C121.422 171.772 121.247 171.467 120.951 171.389C120.655 171.31 120.35 171.485 120.271 171.781L113.3 197.802C113.221 198.098 113.396 198.403 113.692 198.482C113.891 198.534 114.092 198.474 114.228 198.338Z" fill="url(#paint10_linear_286_3313)"/>
<path d="M131.646 172.798C131.339 172.798 131.091 173.046 131.091 173.353L131.091 200.294C131.091 200.601 131.339 200.849 131.646 200.849C131.798 200.849 131.939 200.787 132.039 200.686C132.14 200.585 132.202 200.447 132.202 200.292L132.202 173.352C132.202 173.045 131.954 172.797 131.647 172.797L131.646 172.798Z" fill="url(#paint11_linear_286_3313)"/>
<path d="M142.342 171.389C142.045 171.467 141.871 171.772 141.949 172.068L148.922 198.09C149 198.386 149.305 198.561 149.601 198.483C149.699 198.457 149.783 198.407 149.85 198.339C149.986 198.204 150.048 198.001 149.994 197.803L143.021 171.781C142.942 171.485 142.638 171.31 142.342 171.389Z" fill="url(#paint12_linear_286_3313)"/>
<path d="M152.308 167.261C152.042 167.415 151.951 167.755 152.103 168.019L165.574 191.35C165.727 191.615 166.067 191.706 166.333 191.553C166.375 191.528 166.415 191.498 166.448 191.464C166.622 191.29 166.665 191.017 166.537 190.795L153.067 167.464C152.913 167.199 152.573 167.108 152.308 167.261Z" fill="url(#paint13_linear_286_3313)"/>
<path d="M160.866 160.694C160.65 160.911 160.65 161.263 160.866 161.479L179.916 180.529C180.132 180.745 180.484 180.745 180.7 180.529C180.917 180.312 180.917 179.96 180.7 179.744L161.651 160.694C161.435 160.478 161.082 160.478 160.866 160.694Z" fill="url(#paint14_linear_286_3313)"/>
<path d="M168.19 151.933C167.924 151.78 167.586 151.872 167.432 152.137C167.278 152.403 167.369 152.743 167.635 152.896L190.965 166.367C191.187 166.495 191.461 166.452 191.635 166.278C191.668 166.244 191.697 166.206 191.723 166.163C191.877 165.897 191.786 165.557 191.52 165.404L168.19 151.933Z" fill="url(#paint15_linear_286_3313)"/>
<path d="M172.24 141.777C171.944 141.699 171.639 141.874 171.561 142.17C171.482 142.466 171.657 142.771 171.953 142.849L197.975 149.822C198.174 149.875 198.376 149.814 198.511 149.678C198.577 149.612 198.629 149.527 198.655 149.429C198.733 149.133 198.558 148.829 198.262 148.75L172.24 141.777Z" fill="url(#paint16_linear_286_3313)"/>
<path d="M173.524 130.92C173.216 130.92 172.969 131.168 172.969 131.475C172.969 131.783 173.216 132.03 173.524 132.03L200.464 132.03C200.617 132.03 200.757 131.969 200.858 131.868C200.959 131.767 201.021 131.629 201.021 131.474C201.021 131.167 200.773 130.919 200.465 130.919L173.525 130.919L173.524 130.92Z" fill="url(#paint17_linear_286_3313)"/>
<path d="M197.974 113.128L171.953 120.099C171.657 120.178 171.482 120.483 171.561 120.779C171.639 121.075 171.944 121.25 172.24 121.171L198.261 114.2C198.359 114.174 198.443 114.123 198.51 114.056C198.646 113.92 198.708 113.717 198.654 113.52C198.575 113.224 198.27 113.049 197.974 113.128Z" fill="url(#paint18_linear_286_3313)"/>
<path d="M190.966 96.5853L167.636 110.056C167.37 110.209 167.279 110.549 167.432 110.814C167.584 111.078 167.925 111.17 168.191 111.017L191.521 97.5462C191.564 97.5215 191.603 97.4912 191.637 97.4576C191.81 97.2838 191.853 97.0102 191.725 96.7882C191.572 96.5225 191.232 96.4317 190.966 96.5853Z" fill="url(#paint19_linear_286_3313)"/>
<path d="M179.915 82.421L160.866 101.47C160.649 101.687 160.649 102.039 160.866 102.255C161.082 102.472 161.434 102.472 161.65 102.255L180.7 83.2058C180.916 82.9894 180.916 82.6373 180.7 82.421C180.484 82.2046 180.131 82.2046 179.915 82.421Z" fill="url(#paint20_linear_286_3313)"/>
<path d="M152.977 95.6008C153.011 95.5672 153.04 95.5291 153.066 95.4853L166.536 72.155C166.689 71.8893 166.599 71.5495 166.333 71.3959C166.067 71.2423 165.729 71.3343 165.575 71.6L152.105 94.9303C151.951 95.1961 152.042 95.5358 152.308 95.6894C152.53 95.8172 152.803 95.7746 152.977 95.6008Z" fill="url(#paint21_linear_286_3313)"/>
<path d="M143.021 91.1675L149.993 65.1463C150.071 64.8503 149.896 64.5453 149.6 64.4668C149.304 64.3883 148.999 64.5632 148.921 64.8592L141.949 90.8805C141.871 91.1765 142.045 91.4815 142.341 91.56C142.54 91.6127 142.742 91.5521 142.877 91.4165C142.944 91.3503 142.995 91.2651 143.021 91.1675Z" fill="url(#paint22_linear_286_3313)"/>
<path d="M131.646 90.1528C131.799 90.1528 131.939 90.0911 132.04 89.9902C132.141 89.8893 132.202 89.7514 132.202 89.5967L132.202 62.656C132.202 62.3488 131.955 62.101 131.647 62.101C131.34 62.101 131.092 62.3488 131.092 62.656L131.092 89.5967C131.092 89.9039 131.34 90.1517 131.647 90.1517L131.646 90.1528Z" fill="url(#paint23_linear_286_3313)"/>
<path d="M120.952 91.561C121.05 91.5353 121.134 91.4848 121.201 91.4175C121.337 91.2819 121.398 91.0789 121.344 90.8816L114.372 64.8592C114.293 64.5632 113.988 64.3883 113.692 64.4668C113.396 64.5452 113.221 64.8502 113.3 65.1462L120.273 91.1686C120.351 91.4646 120.656 91.6395 120.952 91.561Z" fill="url(#paint24_linear_286_3313)"/>
<path d="M110.985 95.6882C111.028 95.6636 111.067 95.6333 111.101 95.5996C111.274 95.4259 111.317 95.1523 111.189 94.9303L97.7189 71.5999C97.5653 71.3342 97.2256 71.2434 96.9599 71.397C96.6953 71.5495 96.6033 71.8903 96.7558 72.1549L110.226 95.4853C110.38 95.751 110.719 95.8418 110.985 95.6882Z" fill="url(#paint25_linear_286_3313)"/>
<path d="M109.39 109.218C110.286 108.321 110.286 106.863 109.39 105.966C108.493 105.069 107.035 105.069 106.138 105.966C105.241 106.863 105.241 108.321 106.138 109.218C107.035 110.115 108.493 110.115 109.39 109.218ZM106.923 106.751C107.387 106.287 108.14 106.287 108.605 106.751C109.069 107.215 109.069 107.969 108.605 108.433C108.14 108.897 107.387 108.897 106.923 108.433C106.459 107.969 106.459 107.215 106.923 106.751Z" fill="url(#paint26_linear_286_3313)"/>
<path d="M100.175 115.183C100.333 115.776 100.714 116.272 101.245 116.579C101.777 116.886 102.397 116.968 102.99 116.808C103.385 116.702 103.737 116.498 104.019 116.216C104.161 116.074 104.284 115.913 104.387 115.736C104.694 115.204 104.776 114.584 104.616 113.991C104.458 113.398 104.076 112.902 103.545 112.595C103.014 112.288 102.394 112.206 101.8 112.366C101.207 112.524 100.712 112.906 100.405 113.437C100.097 113.969 100.015 114.589 100.176 115.182L100.175 115.183ZM101.247 114.896C101.165 114.59 101.206 114.268 101.365 113.994C101.419 113.902 101.482 113.819 101.555 113.747C101.701 113.601 101.882 113.495 102.087 113.441C102.394 113.359 102.715 113.4 102.989 113.559C103.264 113.717 103.461 113.975 103.543 114.281C103.626 114.589 103.583 114.909 103.424 115.183C103.265 115.459 103.008 115.655 102.702 115.737C102.396 115.819 102.074 115.777 101.8 115.618C101.526 115.46 101.328 115.202 101.247 114.896Z" fill="url(#paint27_linear_286_3313)"/>
<path d="M100.173 124.725C100.35 124.621 100.512 124.498 100.653 124.357C100.934 124.075 101.139 123.723 101.245 123.328C101.403 122.734 101.322 122.116 101.016 121.583C100.709 121.051 100.214 120.67 99.6204 120.512C99.0273 120.354 98.4084 120.435 97.8758 120.741C97.3443 121.048 96.9631 121.544 96.805 122.137C96.6469 122.73 96.7277 123.349 97.0338 123.881C97.341 124.413 97.8365 124.794 98.4297 124.952C99.0228 125.11 99.6417 125.03 100.174 124.723L100.173 124.725ZM97.9935 123.328C97.8343 123.052 97.7928 122.732 97.8747 122.426C97.9296 122.221 98.035 122.039 98.1808 121.894C98.2536 121.821 98.3377 121.757 98.4285 121.704C98.7032 121.546 99.0239 121.503 99.33 121.585C99.6372 121.668 99.894 121.864 100.052 122.139C100.211 122.415 100.253 122.734 100.171 123.041C100.088 123.348 99.8917 123.604 99.617 123.763C99.3412 123.922 99.0217 123.963 98.7145 123.88C98.4084 123.798 98.1505 123.601 97.9924 123.326L97.9935 123.328Z" fill="url(#paint28_linear_286_3313)"/>
<path d="M99.496 133.1C99.912 132.684 100.171 132.109 100.17 131.475C100.17 130.861 99.9311 130.284 99.4971 129.85C99.0632 129.416 98.4858 129.177 97.8714 129.177C96.6044 129.177 95.5729 130.208 95.5718 131.477C95.5718 132.091 95.8106 132.668 96.2445 133.102C96.6784 133.536 97.2558 133.775 97.8703 133.775C98.5049 133.775 99.0789 133.517 99.4949 133.101L99.496 133.1ZM96.6818 131.474C96.6818 131.147 96.8152 130.85 97.0305 130.634C97.2457 130.419 97.5429 130.286 97.8703 130.286C98.1887 130.286 98.4869 130.409 98.7112 130.633C98.9354 130.858 99.0599 131.157 99.0587 131.474C99.0587 132.129 98.525 132.663 97.8691 132.664C97.5507 132.664 97.2525 132.541 97.0282 132.316C96.804 132.092 96.6795 131.793 96.6806 131.475L96.6818 131.474Z" fill="url(#paint29_linear_286_3313)"/>
<path d="M98.4285 137.995C97.2041 138.323 96.4742 139.586 96.8027 140.812C97.1301 142.036 98.3937 142.766 99.6192 142.438C100.022 142.329 100.372 142.12 100.647 141.844C101.21 141.282 101.466 140.443 101.245 139.621C100.918 138.397 99.654 137.667 98.4285 137.995ZM100.173 139.908C100.342 140.542 99.9657 141.194 99.3322 141.366C98.6987 141.535 98.0461 141.158 97.8746 140.525C97.7613 140.1 97.8925 139.666 98.184 139.374C98.3264 139.232 98.507 139.123 98.7155 139.067C99.349 138.898 100.002 139.275 100.173 139.908Z" fill="url(#paint30_linear_286_3313)"/>
<path d="M103.547 150.353C103.724 150.25 103.885 150.127 104.027 149.986C104.308 149.704 104.512 149.352 104.619 148.956C104.777 148.363 104.696 147.744 104.39 147.212C104.083 146.68 103.587 146.299 102.994 146.141C102.401 145.983 101.782 146.064 101.249 146.37C100.152 147.003 99.7739 148.412 100.407 149.51C100.715 150.042 101.21 150.423 101.803 150.581C102.396 150.739 103.015 150.658 103.548 150.352L103.547 150.353ZM101.367 148.956C101.092 148.48 101.184 147.892 101.557 147.52C101.628 147.448 101.71 147.384 101.803 147.332C102.079 147.172 102.399 147.131 102.705 147.213C103.012 147.296 103.269 147.492 103.427 147.767C103.755 148.335 103.56 149.064 102.991 149.391C102.715 149.551 102.395 149.592 102.089 149.51C101.782 149.427 101.525 149.231 101.367 148.956Z" fill="url(#paint31_linear_286_3313)"/>
<path d="M109.39 156.982C110.286 156.085 110.286 154.628 109.39 153.731C108.493 152.834 107.035 152.834 106.138 153.731C105.241 154.628 105.241 156.085 106.138 156.982C107.035 157.879 108.493 157.879 109.39 156.982ZM106.923 154.515C107.387 154.051 108.14 154.051 108.605 154.515C109.069 154.98 109.069 155.733 108.605 156.197C108.14 156.661 107.387 156.661 106.923 156.197C106.459 155.733 106.459 154.98 106.923 154.515Z" fill="url(#paint32_linear_286_3313)"/>
<path d="M116.385 162.349C116.524 162.21 116.648 162.051 116.75 161.873C117.057 161.341 117.139 160.721 116.978 160.128C116.82 159.535 116.439 159.039 115.908 158.732C115.376 158.425 114.756 158.343 114.163 158.503C113.57 158.662 113.074 159.043 112.767 159.574C112.46 160.106 112.378 160.726 112.538 161.319C112.697 161.912 113.078 162.408 113.609 162.715C114.529 163.246 115.668 163.067 116.385 162.349ZM113.61 161.032C113.528 160.726 113.57 160.404 113.729 160.13C113.783 160.038 113.846 159.955 113.918 159.884C114.289 159.513 114.877 159.42 115.354 159.694C115.629 159.852 115.826 160.11 115.908 160.416C115.99 160.722 115.948 161.044 115.789 161.318C115.46 161.886 114.732 162.081 114.164 161.754C113.889 161.596 113.692 161.338 113.61 161.032Z" fill="url(#paint33_linear_286_3313)"/>
<path d="M124.533 165.721C124.809 165.445 125.019 165.096 125.126 164.693C125.454 163.468 124.726 162.205 123.501 161.876C122.276 161.549 121.013 162.276 120.684 163.502C120.357 164.726 121.084 165.99 122.31 166.318C123.132 166.539 123.971 166.283 124.533 165.721ZM121.757 163.79C121.926 163.157 122.58 162.779 123.215 162.949C123.848 163.118 124.226 163.772 124.056 164.407C123.886 165.04 123.233 165.418 122.598 165.248C121.964 165.078 121.587 164.425 121.757 163.79Z" fill="url(#paint34_linear_286_3313)"/>
<path d="M129.347 165.25C129.347 165.864 129.586 166.442 130.02 166.876C130.454 167.31 131.031 167.548 131.646 167.548C132.28 167.548 132.854 167.29 133.27 166.874C133.686 166.458 133.945 165.883 133.944 165.25C133.944 164.635 133.705 164.058 133.271 163.624C132.838 163.19 132.26 162.951 131.646 162.951C130.379 162.951 129.347 163.983 129.346 165.251L129.347 165.25ZM131.647 164.06C131.965 164.06 132.263 164.184 132.488 164.408C132.712 164.632 132.836 164.931 132.835 165.249C132.835 165.903 132.302 166.437 131.646 166.438C131.327 166.438 131.029 166.315 130.805 166.091C130.58 165.866 130.456 165.567 130.457 165.25C130.457 164.922 130.591 164.625 130.806 164.41C131.021 164.195 131.318 164.061 131.646 164.061L131.647 164.06Z" fill="url(#paint35_linear_286_3313)"/>
<path d="M142.012 165.726C142.154 165.585 142.277 165.424 142.38 165.247C142.687 164.715 142.769 164.095 142.609 163.502C142.451 162.909 142.07 162.413 141.538 162.106C141.007 161.799 140.387 161.717 139.793 161.877C139.2 162.035 138.705 162.417 138.398 162.948C138.09 163.479 138.008 164.1 138.169 164.693C138.327 165.286 138.708 165.781 139.24 166.089C139.771 166.396 140.391 166.478 140.984 166.317C141.379 166.212 141.731 166.008 142.013 165.725L142.012 165.726ZM139.24 164.405C139.157 164.097 139.199 163.777 139.357 163.502C139.411 163.41 139.474 163.327 139.547 163.254C139.693 163.108 139.874 163.003 140.079 162.948C140.385 162.866 140.707 162.908 140.981 163.067C141.256 163.225 141.453 163.483 141.535 163.789C141.617 164.095 141.575 164.417 141.416 164.69C141.257 164.966 141 165.162 140.694 165.244C140.388 165.326 140.066 165.285 139.792 165.125C139.518 164.967 139.32 164.709 139.238 164.403L139.24 164.405Z" fill="url(#paint36_linear_286_3313)"/>
<path d="M147.384 158.733C146.852 159.041 146.471 159.536 146.313 160.129C146.155 160.722 146.235 161.341 146.542 161.874C146.849 162.405 147.344 162.787 147.937 162.945C148.531 163.103 149.15 163.022 149.682 162.716C149.859 162.613 150.021 162.489 150.162 162.348C150.443 162.067 150.647 161.715 150.754 161.319C150.912 160.726 150.831 160.107 150.525 159.574C150.218 159.043 149.722 158.662 149.129 158.503C148.536 158.345 147.917 158.426 147.385 158.732L147.384 158.733ZM149.563 160.13C149.722 160.406 149.764 160.726 149.682 161.032C149.6 161.338 149.403 161.596 149.128 161.754C148.852 161.913 148.533 161.955 148.227 161.873C147.921 161.791 147.663 161.594 147.505 161.319C147.345 161.043 147.304 160.723 147.386 160.417C147.441 160.212 147.546 160.031 147.692 159.885C147.765 159.812 147.849 159.748 147.94 159.695C148.214 159.537 148.535 159.495 148.841 159.576C149.147 159.658 149.405 159.856 149.563 160.13Z" fill="url(#paint37_linear_286_3313)"/>
<path d="M153.903 153.731C153.006 154.628 153.006 156.085 153.903 156.982C154.8 157.879 156.257 157.879 157.154 156.982C158.051 156.085 158.051 154.628 157.154 153.731C156.257 152.834 154.8 152.834 153.903 153.731ZM156.369 156.197C155.905 156.661 155.152 156.661 154.687 156.197C154.223 155.733 154.223 154.98 154.687 154.515C155.152 154.051 155.905 154.051 156.369 154.515C156.833 154.98 156.833 155.733 156.369 156.197Z" fill="url(#paint38_linear_286_3313)"/>
<path d="M163.116 147.768C162.958 147.175 162.577 146.679 162.045 146.372C161.514 146.065 160.894 145.983 160.301 146.143C159.708 146.301 159.212 146.683 158.905 147.214C158.598 147.745 158.516 148.366 158.676 148.959C158.834 149.552 159.215 150.047 159.747 150.355C160.278 150.662 160.898 150.744 161.492 150.583C161.886 150.478 162.238 150.274 162.521 149.991C162.662 149.85 162.785 149.689 162.889 149.511C163.196 148.98 163.278 148.36 163.117 147.767L163.116 147.768ZM162.044 148.055C162.126 148.361 162.085 148.683 161.925 148.956C161.766 149.232 161.509 149.428 161.203 149.51C160.897 149.592 160.575 149.551 160.302 149.391C160.027 149.233 159.83 148.975 159.748 148.669C159.665 148.362 159.708 148.041 159.867 147.768C159.921 147.676 159.983 147.593 160.056 147.52C160.202 147.374 160.384 147.269 160.589 147.214C160.895 147.132 161.217 147.174 161.49 147.333C161.765 147.491 161.962 147.749 162.044 148.055Z" fill="url(#paint39_linear_286_3313)"/>
<path d="M163.12 138.225C162.588 138.532 162.207 139.028 162.049 139.621C161.891 140.214 161.972 140.833 162.278 141.366C162.585 141.897 163.081 142.278 163.674 142.436C164.267 142.595 164.886 142.514 165.418 142.208C165.596 142.105 165.757 141.981 165.898 141.84C166.18 141.559 166.384 141.206 166.49 140.811C166.648 140.218 166.568 139.599 166.262 139.066C165.954 138.535 165.459 138.153 164.866 137.995C164.273 137.837 163.654 137.918 163.121 138.224L163.12 138.225ZM165.3 139.622C165.459 139.898 165.5 140.218 165.418 140.524C165.335 140.831 165.139 141.088 164.865 141.246C164.589 141.405 164.269 141.446 163.963 141.365C163.656 141.282 163.399 141.085 163.241 140.811C163.082 140.535 163.04 140.215 163.122 139.909C163.204 139.603 163.4 139.346 163.676 139.187C163.952 139.028 164.271 138.986 164.579 139.069C164.885 139.151 165.143 139.349 165.301 139.623L165.3 139.622Z" fill="url(#paint40_linear_286_3313)"/>
<path d="M167.045 133.1C167.461 132.684 167.72 132.109 167.719 131.475C167.719 130.861 167.48 130.284 167.046 129.85C166.613 129.416 166.035 129.177 165.421 129.177C164.154 129.177 163.122 130.208 163.121 131.477C163.121 132.091 163.36 132.668 163.794 133.102C164.228 133.536 164.805 133.775 165.42 133.775C166.054 133.775 166.628 133.517 167.044 133.101L167.045 133.1ZM164.231 131.474C164.231 130.819 164.765 130.286 165.421 130.285C165.739 130.285 166.037 130.408 166.262 130.632C166.486 130.856 166.61 131.156 166.609 131.473C166.609 132.128 166.075 132.662 165.42 132.663C165.101 132.663 164.803 132.539 164.579 132.315C164.354 132.091 164.23 131.792 164.231 131.474Z" fill="url(#paint41_linear_286_3313)"/>
<path d="M164.865 124.954C165.267 124.846 165.617 124.637 165.893 124.361C166.456 123.798 166.711 122.96 166.491 122.138C166.163 120.913 164.9 120.184 163.674 120.512C162.449 120.841 161.72 122.103 162.048 123.329C162.376 124.553 163.639 125.283 164.865 124.954ZM163.12 123.041C162.951 122.408 163.328 121.755 163.961 121.584C164.595 121.415 165.247 121.791 165.419 122.425C165.588 123.058 165.211 123.711 164.578 123.882C163.944 124.052 163.292 123.675 163.12 123.041Z" fill="url(#paint42_linear_286_3313)"/>
<path d="M162.521 116.213C163.239 115.496 163.418 114.357 162.887 113.437C162.58 112.906 162.084 112.525 161.491 112.366C160.898 112.208 160.279 112.289 159.746 112.595C159.215 112.902 158.834 113.398 158.676 113.991C158.518 114.584 158.598 115.203 158.904 115.736C159.212 116.267 159.707 116.648 160.3 116.806C160.893 116.965 161.512 116.884 162.045 116.578C162.223 116.476 162.382 116.352 162.521 116.213ZM160.588 115.736C160.281 115.653 160.024 115.456 159.866 115.182C159.592 114.705 159.684 114.118 160.056 113.746C160.128 113.674 160.209 113.61 160.303 113.557C160.577 113.399 160.898 113.356 161.204 113.438C161.511 113.521 161.768 113.717 161.926 113.992C162.255 114.561 162.059 115.289 161.49 115.617C161.214 115.776 160.895 115.818 160.588 115.736Z" fill="url(#paint43_linear_286_3313)"/>
<path d="M157.154 105.966C156.257 105.069 154.8 105.069 153.903 105.966C153.006 106.863 153.006 108.321 153.903 109.218C154.8 110.115 156.257 110.115 157.154 109.218C158.051 108.321 158.051 106.863 157.154 105.966ZM156.369 108.433C155.905 108.897 155.152 108.897 154.687 108.433C154.223 107.969 154.223 107.215 154.687 106.751C155.152 106.287 155.905 106.287 156.369 106.751C156.833 107.215 156.833 107.969 156.369 108.433Z" fill="url(#paint44_linear_286_3313)"/>
<path d="M147.384 104.217C147.915 104.525 148.535 104.607 149.128 104.446C149.523 104.341 149.875 104.137 150.157 103.854C150.299 103.713 150.422 103.551 150.525 103.374C150.832 102.843 150.914 102.223 150.754 101.63C150.596 101.037 150.215 100.541 149.683 100.234C148.585 99.6003 147.176 99.9781 146.543 101.076C146.235 101.607 146.154 102.227 146.314 102.82C146.472 103.414 146.853 103.909 147.385 104.216L147.384 104.217ZM147.385 102.535C147.303 102.228 147.344 101.907 147.504 101.633C147.557 101.541 147.62 101.458 147.692 101.386C148.063 101.015 148.652 100.922 149.128 101.197C149.403 101.355 149.6 101.613 149.682 101.919C149.764 102.225 149.722 102.547 149.563 102.82C149.235 103.389 148.506 103.584 147.939 103.257C147.664 103.098 147.467 102.841 147.385 102.535Z" fill="url(#paint45_linear_286_3313)"/>
<path d="M138.167 98.257C137.84 99.4814 138.567 100.745 139.793 101.074C140.615 101.294 141.454 101.038 142.016 100.476C142.292 100.2 142.502 99.8514 142.609 99.4478C142.937 98.2234 142.209 96.9598 140.983 96.6313C139.759 96.3039 138.497 97.0327 138.167 98.257ZM141.536 99.1596C141.367 99.7931 140.712 100.17 140.079 100.001C139.445 99.8312 139.067 99.1776 139.238 98.543C139.294 98.3344 139.403 98.1539 139.545 98.0115C139.835 97.7211 140.269 97.5877 140.695 97.702C141.329 97.8713 141.707 98.525 141.536 99.1596Z" fill="url(#paint46_linear_286_3313)"/>
<path d="M131.647 95.4012C130.38 95.4012 129.348 96.4328 129.347 97.7009C129.347 98.3153 129.586 98.8927 130.02 99.3266C130.454 99.7606 131.031 99.9994 131.646 99.9994C132.28 99.9994 132.854 99.7415 133.27 99.3255C133.686 98.9095 133.945 98.3344 133.944 97.7009C133.944 97.0864 133.705 96.509 133.271 96.0751C132.838 95.6412 132.26 95.4024 131.646 95.4024L131.647 95.4012ZM132.836 97.7009C132.836 98.3557 132.303 98.8894 131.647 98.8905C131.328 98.8905 131.03 98.7672 130.806 98.5429C130.582 98.3187 130.457 98.0193 130.458 97.702C130.458 97.3746 130.592 97.0775 130.807 96.8622C131.022 96.6469 131.319 96.5135 131.647 96.5135C131.965 96.5135 132.263 96.6368 132.488 96.8611C132.712 97.0853 132.836 97.3847 132.835 97.702L132.836 97.7009Z" fill="url(#paint47_linear_286_3313)"/>
<path d="M120.914 97.701C120.606 98.2324 120.525 98.8525 120.685 99.4456C120.843 100.039 121.224 100.534 121.756 100.842C122.287 101.149 122.907 101.231 123.5 101.07C123.895 100.965 124.247 100.761 124.53 100.478C124.671 100.337 124.794 100.175 124.897 99.9983C125.205 99.4669 125.286 98.8469 125.126 98.2537C124.968 97.6606 124.587 97.165 124.055 96.8578C123.524 96.5506 122.904 96.4687 122.311 96.6291C121.718 96.7872 121.222 97.1684 120.915 97.6998L120.914 97.701ZM124.054 98.543C124.137 98.8502 124.095 99.1709 123.936 99.4456C123.777 99.7214 123.52 99.9176 123.214 99.9995C122.908 100.081 122.586 100.04 122.313 99.8806C122.038 99.7225 121.841 99.4646 121.759 99.1586C121.677 98.8525 121.719 98.5307 121.878 98.2571C121.932 98.1652 121.994 98.0822 122.067 98.0093C122.213 97.8635 122.395 97.7582 122.6 97.7032C122.906 97.6214 123.228 97.6628 123.501 97.8221C123.776 97.9802 123.973 98.238 124.055 98.5441L124.054 98.543Z" fill="url(#paint48_linear_286_3313)"/>
<path d="M115.909 104.217C116.086 104.114 116.248 103.991 116.389 103.85C116.67 103.568 116.874 103.216 116.981 102.82C117.139 102.227 117.058 101.608 116.752 101.076C116.445 100.544 115.949 100.163 115.356 100.005C114.763 99.8469 114.144 99.9276 113.612 100.234C113.08 100.541 112.699 101.036 112.541 101.63C112.383 102.223 112.463 102.842 112.77 103.374C113.077 103.906 113.572 104.287 114.166 104.445C114.759 104.603 115.378 104.522 115.91 104.216L115.909 104.217ZM113.729 102.82C113.57 102.545 113.529 102.225 113.611 101.919C113.665 101.714 113.771 101.532 113.917 101.386C113.989 101.313 114.074 101.25 114.164 101.197C114.44 101.038 114.76 100.996 115.066 101.078C115.372 101.16 115.63 101.357 115.788 101.632C115.947 101.908 115.989 102.227 115.907 102.533C115.824 102.841 115.628 103.097 115.353 103.255C115.077 103.415 114.758 103.456 114.451 103.374C114.145 103.292 113.887 103.095 113.729 102.82Z" fill="url(#paint49_linear_286_3313)"/>
<path d="M126.187 211.575C126.187 214.591 128.641 217.046 131.657 217.046C133.166 217.046 134.533 216.432 135.524 215.441C136.516 214.45 137.129 213.083 137.129 211.574C137.129 208.558 134.675 206.104 131.658 206.104C128.642 206.104 126.188 208.558 126.188 211.574L126.187 211.575ZM136.018 211.575C136.018 213.979 134.061 215.936 131.657 215.936C129.253 215.936 127.297 213.979 127.297 211.575C127.297 210.373 127.786 209.284 128.576 208.493C129.367 207.703 130.455 207.215 131.658 207.214C134.062 207.214 136.019 209.17 136.019 211.574L136.018 211.575Z" fill="url(#paint50_linear_286_3313)"/>
<path d="M128.797 224.413C128.034 225.177 127.613 226.191 127.613 227.272C127.613 228.353 128.034 229.368 128.797 230.131C129.561 230.895 130.575 231.315 131.656 231.315C132.737 231.315 133.752 230.895 134.515 230.131C135.279 229.368 135.699 228.353 135.699 227.272C135.699 226.191 135.279 225.177 134.515 224.413C133.752 223.65 132.737 223.229 131.656 223.229C130.575 223.229 129.561 223.65 128.797 224.413ZM134.589 227.272C134.589 228.055 134.284 228.793 133.73 229.347C133.177 229.9 132.44 230.207 131.656 230.205C130.874 230.205 130.136 229.9 129.582 229.347C129.028 228.793 128.722 228.056 128.723 227.272C128.724 226.489 129.028 225.752 129.582 225.198C130.136 224.644 130.872 224.338 131.656 224.339C132.439 224.339 133.177 224.644 133.73 225.198C134.284 225.752 134.59 226.489 134.589 227.272Z" fill="url(#paint51_linear_286_3313)"/>
<path d="M134.519 239.003L132.052 241.469L132.052 237.98C132.052 237.673 131.805 237.425 131.497 237.425C131.19 237.425 130.942 237.673 130.942 237.98L130.942 241.469L128.476 239.003C128.259 238.786 127.907 238.786 127.691 239.003C127.474 239.219 127.474 239.571 127.691 239.788L130.158 242.254L126.668 242.254C126.361 242.254 126.113 242.502 126.113 242.809C126.113 243.116 126.361 243.364 126.668 243.364L130.158 243.364L127.691 245.831C127.474 246.047 127.474 246.399 127.691 246.616C127.907 246.832 128.259 246.832 128.476 246.616L130.942 244.149L130.942 247.638C130.942 247.946 131.19 248.193 131.497 248.193C131.65 248.193 131.79 248.132 131.891 248.031C131.992 247.93 132.053 247.792 132.053 247.637L132.053 244.148L134.52 246.615C134.737 246.831 135.089 246.831 135.305 246.615C135.521 246.398 135.521 246.046 135.305 245.83L132.838 243.363L136.328 243.363C136.48 243.363 136.62 243.301 136.721 243.201C136.822 243.1 136.884 242.962 136.884 242.807C136.884 242.5 136.636 242.252 136.329 242.252L132.839 242.252L135.306 239.785C135.523 239.569 135.523 239.217 135.306 239C135.09 238.784 134.738 238.784 134.521 239L134.519 239.003Z" fill="url(#paint52_linear_286_3313)"/>
<path d="M133.514 254.595L132.053 256.056L132.053 253.991C132.053 253.684 131.805 253.436 131.498 253.436C131.19 253.436 130.943 253.684 130.943 253.991L130.943 256.056L129.482 254.595C129.265 254.379 128.913 254.379 128.697 254.595C128.48 254.812 128.48 255.164 128.697 255.38L130.158 256.841L128.092 256.841C127.785 256.841 127.537 257.089 127.537 257.396C127.537 257.703 127.785 257.951 128.092 257.951L130.158 257.951L128.697 259.412C128.48 259.629 128.48 259.981 128.697 260.197C128.913 260.413 129.265 260.413 129.482 260.197L130.943 258.736L130.943 260.801C130.943 261.109 131.19 261.356 131.498 261.356C131.65 261.356 131.79 261.295 131.891 261.194C131.992 261.093 132.054 260.955 132.053 260.801L132.053 258.736L133.514 260.197C133.73 260.413 134.082 260.413 134.298 260.197C134.515 259.981 134.515 259.629 134.298 259.412L132.837 257.951L134.903 257.951C135.055 257.951 135.195 257.89 135.295 257.79C135.395 257.69 135.458 257.551 135.458 257.396C135.458 257.089 135.21 256.841 134.903 256.841L132.837 256.841L134.298 255.38C134.515 255.164 134.515 254.812 134.298 254.595C134.082 254.379 133.73 254.379 133.514 254.595Z" fill="url(#paint53_linear_286_3313)"/>
<path d="M135.524 55.2928C136.558 54.2591 137.127 52.8856 137.125 51.4246C137.125 48.4086 134.671 45.9542 131.655 45.9542C130.193 45.9542 128.819 46.5227 127.787 47.5553C126.754 48.588 126.185 49.9626 126.185 51.4246C126.185 54.4407 128.639 56.8951 131.655 56.8951C133.117 56.8951 134.491 56.3266 135.524 55.2928ZM127.295 51.4246C127.295 50.2608 127.749 49.1654 128.573 48.3413C129.397 47.5172 130.491 47.0642 131.655 47.0642C134.059 47.0642 136.015 49.0207 136.015 51.4246C136.015 52.5885 135.561 53.6839 134.738 54.5069C133.915 55.3299 132.82 55.7839 131.655 55.7851C129.251 55.7851 127.295 53.8285 127.295 51.4246Z" fill="url(#paint54_linear_286_3313)"/>
<path d="M127.613 35.7277C127.613 37.9566 129.427 39.7708 131.656 39.7708C132.771 39.7708 133.782 39.3178 134.514 38.5856C135.246 37.8535 135.699 36.8422 135.699 35.7277C135.699 33.4987 133.885 31.6845 131.656 31.6845C129.427 31.6845 127.613 33.4987 127.613 35.7277ZM134.589 35.7277C134.589 37.3445 133.273 38.6608 131.656 38.6608C130.039 38.6608 128.723 37.3445 128.723 35.7277C128.723 34.9181 129.052 34.186 129.583 33.6545C130.115 33.1231 130.848 32.7934 131.656 32.7945C133.273 32.7945 134.589 34.1109 134.589 35.7277Z" fill="url(#paint55_linear_286_3313)"/>
<path d="M134.519 16.3842L132.052 18.8509L132.052 15.3617C132.052 15.0545 131.805 14.8067 131.497 14.8067C131.19 14.8067 130.942 15.0545 130.942 15.3617L130.942 18.8509L128.476 16.3842C128.259 16.1678 127.907 16.1678 127.691 16.3842C127.474 16.6006 127.474 16.9527 127.691 17.1691L130.158 19.6358L126.668 19.6358C126.361 19.6358 126.113 19.8836 126.113 20.1908C126.113 20.498 126.361 20.7458 126.668 20.7458L130.158 20.7458L127.691 23.2125C127.474 23.4289 127.474 23.7809 127.691 23.9973C127.907 24.2137 128.259 24.2137 128.476 23.9973L130.942 21.5307L130.942 25.0199C130.942 25.3271 131.19 25.5749 131.497 25.5749C131.65 25.5749 131.79 25.5132 131.89 25.4134C131.99 25.3136 132.052 25.1746 132.052 25.0199L132.052 21.5306L134.519 23.9973C134.735 24.2137 135.088 24.2137 135.304 23.9973C135.52 23.7809 135.52 23.4289 135.304 23.2125L132.837 20.7458L136.326 20.7458C136.479 20.7458 136.619 20.6841 136.72 20.5832C136.821 20.4823 136.883 20.3444 136.883 20.1897C136.883 19.8824 136.635 19.6347 136.328 19.6347L132.838 19.6347L135.305 17.168C135.521 16.9516 135.521 16.5995 135.305 16.3831C135.089 16.1667 134.737 16.1667 134.52 16.3831L134.519 16.3842Z" fill="url(#paint56_linear_286_3313)"/>
<path d="M133.514 2.80306L132.053 4.26402L132.053 2.19873C132.053 1.89152 131.805 1.64373 131.498 1.64373C131.191 1.64373 130.943 1.89151 130.943 2.19873L130.943 4.26403L129.482 2.80308C129.266 2.58668 128.914 2.58668 128.697 2.80308C128.481 3.01947 128.481 3.37153 128.697 3.58793L130.158 5.04888L128.093 5.04888C127.786 5.04888 127.538 5.29666 127.538 5.60387C127.538 5.91109 127.786 6.15888 128.093 6.15888L130.158 6.15888L128.697 7.61984C128.481 7.83623 128.481 8.18829 128.697 8.40469C128.914 8.62109 129.266 8.62109 129.482 8.40469L130.943 6.94374L130.943 9.00902C130.943 9.31623 131.191 9.56402 131.498 9.56402C131.651 9.56402 131.791 9.50236 131.892 9.40145C131.993 9.30054 132.054 9.16263 132.054 9.0079L132.054 6.94262L133.515 8.40357C133.732 8.61997 134.084 8.61997 134.3 8.40357C134.516 8.18717 134.516 7.83511 134.3 7.61872L132.839 6.15777L134.904 6.15776C135.057 6.15776 135.197 6.09609 135.298 5.99518C135.399 5.89427 135.46 5.75636 135.46 5.60164C135.46 5.29442 135.213 5.04663 134.905 5.04663L132.84 5.04663L134.301 3.58569C134.518 3.36929 134.518 3.01723 134.301 2.80083C134.085 2.58444 133.733 2.58444 133.516 2.80083L133.514 2.80306Z" fill="url(#paint57_linear_286_3313)"/>
</mask>
<g mask="url(#mask0_286_3313)">
<rect x="25.0005" y="9.00012" width="202" height="215" fill="url(#paint58_linear_286_3313)"/>
</g>
</g>
<defs>
<filter id="filter0_d_286_3313" x="55.2739" y="6.00012" width="152.747" height="229" filterUnits="userSpaceOnUse" color-interpolation-filters="sRGB">
<feFlood flood-opacity="0" result="BackgroundImageFix"/>
<feColorMatrix in="SourceAlpha" type="matrix" values="0 0 0 0 0 0 0 0 0 0 0 0 0 0 0 0 0 0 127 0" result="hardAlpha"/>
<feOffset dy="4"/>
<feGaussianBlur stdDeviation="3.5"/>
<feComposite in2="hardAlpha" operator="out"/>
<feColorMatrix type="matrix" values="0 0 0 0 0 0 0 0 0 0 0 0 0 0 0 0 0 0 0.5 0"/>
<feBlend mode="normal" in2="BackgroundImageFix" result="effect1_dropShadow_286_3313"/>
<feBlend mode="normal" in="SourceGraphic" in2="effect1_dropShadow_286_3313" result="shape"/>
</filter>
<linearGradient id="paint0_linear_286_3313" x1="127.974" y1="-25.5403" x2="134.802" y2="266.359" gradientUnits="userSpaceOnUse">
<stop stop-color="#DFB47A"/>
<stop offset="1" stop-color="#CF9E56"/>
</linearGradient>
<linearGradient id="paint1_linear_286_3313" x1="133.496" y1="-25.6692" x2="140.324" y2="266.232" gradientUnits="userSpaceOnUse">
<stop stop-color="#DFB47A"/>
<stop offset="1" stop-color="#CF9E56"/>
</linearGradient>
<linearGradient id="paint2_linear_286_3313" x1="89.7734" y1="-24.6466" x2="96.6016" y2="267.252" gradientUnits="userSpaceOnUse">
<stop stop-color="#DFB47A"/>
<stop offset="1" stop-color="#CF9E56"/>
</linearGradient>
<linearGradient id="paint3_linear_286_3313" x1="80.7145" y1="-24.4348" x2="87.5416" y2="267.465" gradientUnits="userSpaceOnUse">
<stop stop-color="#DFB47A"/>
<stop offset="1" stop-color="#CF9E56"/>
</linearGradient>
<linearGradient id="paint4_linear_286_3313" x1="74.8767" y1="-24.2991" x2="81.7049" y2="267.602" gradientUnits="userSpaceOnUse">
<stop stop-color="#DFB47A"/>
<stop offset="1" stop-color="#CF9E56"/>
</linearGradient>
<linearGradient id="paint5_linear_286_3313" x1="72.6564" y1="-24.2453" x2="79.4846" y2="267.653" gradientUnits="userSpaceOnUse">
<stop stop-color="#DFB47A"/>
<stop offset="1" stop-color="#CF9E56"/>
</linearGradient>
<linearGradient id="paint6_linear_286_3313" x1="74.2072" y1="-24.2823" x2="81.0343" y2="267.617" gradientUnits="userSpaceOnUse">
<stop stop-color="#DFB47A"/>
<stop offset="1" stop-color="#CF9E56"/>
</linearGradient>
<linearGradient id="paint7_linear_286_3313" x1="79.4206" y1="-24.4033" x2="86.2477" y2="267.496" gradientUnits="userSpaceOnUse">
<stop stop-color="#DFB47A"/>
<stop offset="1" stop-color="#CF9E56"/>
</linearGradient>
<linearGradient id="paint8_linear_286_3313" x1="87.9436" y1="-24.6042" x2="94.7718" y2="267.297" gradientUnits="userSpaceOnUse">
<stop stop-color="#DFB47A"/>
<stop offset="1" stop-color="#CF9E56"/>
</linearGradient>
<linearGradient id="paint9_linear_286_3313" x1="99.1945" y1="-24.8676" x2="106.023" y2="267.033" gradientUnits="userSpaceOnUse">
<stop stop-color="#DFB47A"/>
<stop offset="1" stop-color="#CF9E56"/>
</linearGradient>
<linearGradient id="paint10_linear_286_3313" x1="112.406" y1="-25.1759" x2="119.235" y2="266.724" gradientUnits="userSpaceOnUse">
<stop stop-color="#DFB47A"/>
<stop offset="1" stop-color="#CF9E56"/>
</linearGradient>
<linearGradient id="paint11_linear_286_3313" x1="126.679" y1="-25.5101" x2="133.507" y2="266.388" gradientUnits="userSpaceOnUse">
<stop stop-color="#DFB47A"/>
<stop offset="1" stop-color="#CF9E56"/>
</linearGradient>
<linearGradient id="paint12_linear_286_3313" x1="141.041" y1="-25.8453" x2="147.868" y2="266.054" gradientUnits="userSpaceOnUse">
<stop stop-color="#DFB47A"/>
<stop offset="1" stop-color="#CF9E56"/>
</linearGradient>
<linearGradient id="paint13_linear_286_3313" x1="154.511" y1="-26.1615" x2="161.339" y2="265.739" gradientUnits="userSpaceOnUse">
<stop stop-color="#DFB47A"/>
<stop offset="1" stop-color="#CF9E56"/>
</linearGradient>
<linearGradient id="paint14_linear_286_3313" x1="166.173" y1="-26.4339" x2="173.002" y2="265.466" gradientUnits="userSpaceOnUse">
<stop stop-color="#DFB47A"/>
<stop offset="1" stop-color="#CF9E56"/>
</linearGradient>
<linearGradient id="paint15_linear_286_3313" x1="175.232" y1="-26.6446" x2="182.061" y2="265.254" gradientUnits="userSpaceOnUse">
<stop stop-color="#DFB47A"/>
<stop offset="1" stop-color="#CF9E56"/>
</linearGradient>
<linearGradient id="paint16_linear_286_3313" x1="181.071" y1="-26.7826" x2="187.898" y2="265.117" gradientUnits="userSpaceOnUse">
<stop stop-color="#DFB47A"/>
<stop offset="1" stop-color="#CF9E56"/>
</linearGradient>
<linearGradient id="paint17_linear_286_3313" x1="183.291" y1="-26.832" x2="190.119" y2="265.064" gradientUnits="userSpaceOnUse">
<stop stop-color="#DFB47A"/>
<stop offset="1" stop-color="#CF9E56"/>
</linearGradient>
<linearGradient id="paint18_linear_286_3313" x1="181.741" y1="-26.7984" x2="188.569" y2="265.102" gradientUnits="userSpaceOnUse">
<stop stop-color="#DFB47A"/>
<stop offset="1" stop-color="#CF9E56"/>
</linearGradient>
<linearGradient id="paint19_linear_286_3313" x1="176.526" y1="-26.6761" x2="183.354" y2="265.225" gradientUnits="userSpaceOnUse">
<stop stop-color="#DFB47A"/>
<stop offset="1" stop-color="#CF9E56"/>
</linearGradient>
<linearGradient id="paint20_linear_286_3313" x1="168.003" y1="-26.4765" x2="174.832" y2="265.424" gradientUnits="userSpaceOnUse">
<stop stop-color="#DFB47A"/>
<stop offset="1" stop-color="#CF9E56"/>
</linearGradient>
<linearGradient id="paint21_linear_286_3313" x1="156.752" y1="-26.2141" x2="163.58" y2="265.687" gradientUnits="userSpaceOnUse">
<stop stop-color="#DFB47A"/>
<stop offset="1" stop-color="#CF9E56"/>
</linearGradient>
<linearGradient id="paint22_linear_286_3313" x1="143.54" y1="-25.9047" x2="150.368" y2="265.996" gradientUnits="userSpaceOnUse">
<stop stop-color="#DFB47A"/>
<stop offset="1" stop-color="#CF9E56"/>
</linearGradient>
<linearGradient id="paint23_linear_286_3313" x1="129.267" y1="-25.5706" x2="136.095" y2="266.328" gradientUnits="userSpaceOnUse">
<stop stop-color="#DFB47A"/>
<stop offset="1" stop-color="#CF9E56"/>
</linearGradient>
<linearGradient id="paint24_linear_286_3313" x1="114.906" y1="-25.2342" x2="121.735" y2="266.666" gradientUnits="userSpaceOnUse">
<stop stop-color="#DFB47A"/>
<stop offset="1" stop-color="#CF9E56"/>
</linearGradient>
<linearGradient id="paint25_linear_286_3313" x1="101.436" y1="-24.9203" x2="108.263" y2="266.982" gradientUnits="userSpaceOnUse">
<stop stop-color="#DFB47A"/>
<stop offset="1" stop-color="#CF9E56"/>
</linearGradient>
<linearGradient id="paint26_linear_286_3313" x1="104.662" y1="-24.9944" x2="111.491" y2="266.904" gradientUnits="userSpaceOnUse">
<stop stop-color="#DFB47A"/>
<stop offset="1" stop-color="#CF9E56"/>
</linearGradient>
<linearGradient id="paint27_linear_286_3313" x1="99.1342" y1="-24.8665" x2="105.963" y2="267.034" gradientUnits="userSpaceOnUse">
<stop stop-color="#DFB47A"/>
<stop offset="1" stop-color="#CF9E56"/>
</linearGradient>
<linearGradient id="paint28_linear_286_3313" x1="95.5728" y1="-24.7823" x2="102.4" y2="267.117" gradientUnits="userSpaceOnUse">
<stop stop-color="#DFB47A"/>
<stop offset="1" stop-color="#CF9E56"/>
</linearGradient>
<linearGradient id="paint29_linear_286_3313" x1="94.2174" y1="-24.7498" x2="101.046" y2="267.149" gradientUnits="userSpaceOnUse">
<stop stop-color="#DFB47A"/>
<stop offset="1" stop-color="#CF9E56"/>
</linearGradient>
<linearGradient id="paint30_linear_286_3313" x1="95.1635" y1="-24.7722" x2="101.991" y2="267.127" gradientUnits="userSpaceOnUse">
<stop stop-color="#DFB47A"/>
<stop offset="1" stop-color="#CF9E56"/>
</linearGradient>
<linearGradient id="paint31_linear_286_3313" x1="98.3477" y1="-24.8475" x2="105.175" y2="267.052" gradientUnits="userSpaceOnUse">
<stop stop-color="#DFB47A"/>
<stop offset="1" stop-color="#CF9E56"/>
</linearGradient>
<linearGradient id="paint32_linear_286_3313" x1="103.546" y1="-24.9695" x2="110.374" y2="266.931" gradientUnits="userSpaceOnUse">
<stop stop-color="#DFB47A"/>
<stop offset="1" stop-color="#CF9E56"/>
</linearGradient>
<linearGradient id="paint33_linear_286_3313" x1="110.411" y1="-25.13" x2="117.24" y2="266.771" gradientUnits="userSpaceOnUse">
<stop stop-color="#DFB47A"/>
<stop offset="1" stop-color="#CF9E56"/>
</linearGradient>
<linearGradient id="paint34_linear_286_3313" x1="118.475" y1="-25.3183" x2="125.302" y2="266.581" gradientUnits="userSpaceOnUse">
<stop stop-color="#DFB47A"/>
<stop offset="1" stop-color="#CF9E56"/>
</linearGradient>
<linearGradient id="paint35_linear_286_3313" x1="127.183" y1="-25.5213" x2="134.013" y2="266.378" gradientUnits="userSpaceOnUse">
<stop stop-color="#DFB47A"/>
<stop offset="1" stop-color="#CF9E56"/>
</linearGradient>
<linearGradient id="paint36_linear_286_3313" x1="135.948" y1="-25.7276" x2="142.776" y2="266.173" gradientUnits="userSpaceOnUse">
<stop stop-color="#DFB47A"/>
<stop offset="1" stop-color="#CF9E56"/>
</linearGradient>
<linearGradient id="paint37_linear_286_3313" x1="144.168" y1="-25.9183" x2="150.995" y2="265.981" gradientUnits="userSpaceOnUse">
<stop stop-color="#DFB47A"/>
<stop offset="1" stop-color="#CF9E56"/>
</linearGradient>
<linearGradient id="paint38_linear_286_3313" x1="151.285" y1="-26.0852" x2="158.112" y2="265.814" gradientUnits="userSpaceOnUse">
<stop stop-color="#DFB47A"/>
<stop offset="1" stop-color="#CF9E56"/>
</linearGradient>
<linearGradient id="paint39_linear_286_3313" x1="156.811" y1="-26.2152" x2="163.64" y2="265.686" gradientUnits="userSpaceOnUse">
<stop stop-color="#DFB47A"/>
<stop offset="1" stop-color="#CF9E56"/>
</linearGradient>
<linearGradient id="paint40_linear_286_3313" x1="160.375" y1="-26.2983" x2="167.202" y2="265.601" gradientUnits="userSpaceOnUse">
<stop stop-color="#DFB47A"/>
<stop offset="1" stop-color="#CF9E56"/>
</linearGradient>
<linearGradient id="paint41_linear_286_3313" x1="161.73" y1="-26.3295" x2="168.556" y2="265.57" gradientUnits="userSpaceOnUse">
<stop stop-color="#DFB47A"/>
<stop offset="1" stop-color="#CF9E56"/>
</linearGradient>
<linearGradient id="paint42_linear_286_3313" x1="160.784" y1="-26.3073" x2="167.612" y2="265.593" gradientUnits="userSpaceOnUse">
<stop stop-color="#DFB47A"/>
<stop offset="1" stop-color="#CF9E56"/>
</linearGradient>
<linearGradient id="paint43_linear_286_3313" x1="157.601" y1="-26.2333" x2="164.43" y2="265.668" gradientUnits="userSpaceOnUse">
<stop stop-color="#DFB47A"/>
<stop offset="1" stop-color="#CF9E56"/>
</linearGradient>
<linearGradient id="paint44_linear_286_3313" x1="152.401" y1="-26.1122" x2="159.23" y2="265.789" gradientUnits="userSpaceOnUse">
<stop stop-color="#DFB47A"/>
<stop offset="1" stop-color="#CF9E56"/>
</linearGradient>
<linearGradient id="paint45_linear_286_3313" x1="145.535" y1="-25.9506" x2="152.364" y2="265.949" gradientUnits="userSpaceOnUse">
<stop stop-color="#DFB47A"/>
<stop offset="1" stop-color="#CF9E56"/>
</linearGradient>
<linearGradient id="paint46_linear_286_3313" x1="137.473" y1="-25.7622" x2="144.301" y2="266.138" gradientUnits="userSpaceOnUse">
<stop stop-color="#DFB47A"/>
<stop offset="1" stop-color="#CF9E56"/>
</linearGradient>
<linearGradient id="paint47_linear_286_3313" x1="128.763" y1="-25.5582" x2="135.59" y2="266.341" gradientUnits="userSpaceOnUse">
<stop stop-color="#DFB47A"/>
<stop offset="1" stop-color="#CF9E56"/>
</linearGradient>
<linearGradient id="paint48_linear_286_3313" x1="120" y1="-25.3541" x2="126.828" y2="266.547" gradientUnits="userSpaceOnUse">
<stop stop-color="#DFB47A"/>
<stop offset="1" stop-color="#CF9E56"/>
</linearGradient>
<linearGradient id="paint49_linear_286_3313" x1="111.78" y1="-25.1614" x2="118.608" y2="266.739" gradientUnits="userSpaceOnUse">
<stop stop-color="#DFB47A"/>
<stop offset="1" stop-color="#CF9E56"/>
</linearGradient>
<linearGradient id="paint50_linear_286_3313" x1="126.112" y1="-25.4966" x2="132.939" y2="266.403" gradientUnits="userSpaceOnUse">
<stop stop-color="#DFB47A"/>
<stop offset="1" stop-color="#CF9E56"/>
</linearGradient>
<linearGradient id="paint51_linear_286_3313" x1="125.744" y1="-25.4876" x2="132.572" y2="266.411" gradientUnits="userSpaceOnUse">
<stop stop-color="#DFB47A"/>
<stop offset="1" stop-color="#CF9E56"/>
</linearGradient>
<linearGradient id="paint52_linear_286_3313" x1="125.222" y1="-25.4753" x2="132.049" y2="266.424" gradientUnits="userSpaceOnUse">
<stop stop-color="#DFB47A"/>
<stop offset="1" stop-color="#CF9E56"/>
</linearGradient>
<linearGradient id="paint53_linear_286_3313" x1="124.88" y1="-25.4677" x2="131.709" y2="266.432" gradientUnits="userSpaceOnUse">
<stop stop-color="#DFB47A"/>
<stop offset="1" stop-color="#CF9E56"/>
</linearGradient>
<linearGradient id="paint54_linear_286_3313" x1="129.855" y1="-25.5853" x2="136.684" y2="266.316" gradientUnits="userSpaceOnUse">
<stop stop-color="#DFB47A"/>
<stop offset="1" stop-color="#CF9E56"/>
</linearGradient>
<linearGradient id="paint55_linear_286_3313" x1="130.222" y1="-25.593" x2="137.05" y2="266.308" gradientUnits="userSpaceOnUse">
<stop stop-color="#DFB47A"/>
<stop offset="1" stop-color="#CF9E56"/>
</linearGradient>
<linearGradient id="paint56_linear_286_3313" x1="130.427" y1="-25.5987" x2="137.255" y2="266.302" gradientUnits="userSpaceOnUse">
<stop stop-color="#DFB47A"/>
<stop offset="1" stop-color="#CF9E56"/>
</linearGradient>
<linearGradient id="paint57_linear_286_3313" x1="130.768" y1="-25.6053" x2="137.596" y2="266.295" gradientUnits="userSpaceOnUse">
<stop stop-color="#DFB47A"/>
<stop offset="1" stop-color="#CF9E56"/>
</linearGradient>
<linearGradient id="paint58_linear_286_3313" x1="126" y1="9.00012" x2="126" y2="224" gradientUnits="userSpaceOnUse">
<stop stop-color="#DEC8A1"/>
<stop offset="1" stop-color="#917F4E"/>
</linearGradient>
</defs>
</svg>
