<svg width="33" height="34" viewBox="0 0 33 34" fill="none" xmlns="http://www.w3.org/2000/svg">
<g clip-path="url(#clip0_286_2612)">
<path d="M6.76764 16.5427C6.76392 11.1598 11.1412 6.78955 16.5366 6.78955C22.0426 6.78955 26.4571 11.2744 26.4447 16.855C26.4323 22.2367 21.9768 26.6926 16.6695 26.6309C11.1163 26.5666 6.77137 22.1397 6.76764 16.5427ZM16.6757 7.77066C11.8577 7.69635 7.81942 11.5351 7.7238 16.2782C7.62074 21.3979 11.618 25.6724 16.5379 25.7039C21.3721 25.7341 25.383 21.8676 25.4501 17.112C25.5258 11.811 21.8042 7.84874 16.6757 7.7694V7.77066Z" fill="#DEC8A1"/>
<path d="M7.82066 2.0466C8.48998 1.27582 8.89231 1.9068 9.17419 2.44584C9.88324 3.80101 10.5178 5.19647 11.2281 6.67002C10.7152 7.15239 10.3377 7.39169 9.92919 6.44836C9.28843 4.96851 8.54089 3.53652 7.82066 2.0466Z" fill="#DEC8A1"/>
<path d="M21.9706 6.93577C23.051 3.6864 23.9897 2.11588 25.0167 1.79346C25.1533 3.57935 23.2534 6.90051 21.9706 6.93577Z" fill="#DEC8A1"/>
<path d="M21.9495 26.8438C22.3307 27.0717 22.8461 27.2077 23.0671 27.544C23.7476 28.5805 24.3362 29.6825 24.9074 30.7871C24.9956 30.9584 24.8068 31.2783 24.746 31.5289C24.5224 31.3979 24.2095 31.3236 24.0891 31.1271C23.2844 29.8236 22.522 28.4949 21.7446 27.1737C21.8129 27.0642 21.8812 26.9533 21.9495 26.8438Z" fill="#DEC8A1"/>
<path d="M8.28136 31.5403C8.86126 30.0982 9.42503 28.6486 10.0409 27.2217C10.1204 27.0378 10.4656 26.971 10.6867 26.8489C10.7848 27.0554 11.0157 27.3161 10.9586 27.461C10.4619 28.7305 9.94284 29.9925 9.35797 31.2217C9.23131 31.4887 8.81283 31.6134 8.52847 31.8035C8.44651 31.7154 8.36331 31.6272 8.28136 31.5391V31.5403Z" fill="#DEC8A1"/>
<path d="M7.42826 22.845C5.83631 23.9168 4.56722 24.7883 3.27082 25.6145C3.15161 25.6901 2.7679 25.5377 2.66732 25.384C2.57294 25.2392 2.61019 24.8248 2.72816 24.7455C3.89542 23.9684 5.08131 23.2178 6.29204 22.5125C6.44353 22.4243 6.76639 22.6397 7.42826 22.8437V22.845Z" fill="#DEC8A1"/>
<path d="M26.3218 22.4258C27.9969 23.3968 29.5429 24.2923 31.2094 25.257C29.8596 25.9724 26.4112 23.9862 26.3218 22.4258Z" fill="#DEC8A1"/>
<path d="M2.31218 8.13236C3.62224 8.09584 4.63801 8.93841 5.65999 9.63614C6.10081 9.93841 6.34296 10.5404 6.67451 11.0052C6.55654 11.1047 6.43733 11.2042 6.31936 11.3036C4.91244 10.388 3.50552 9.47115 2.09735 8.55554C2.16813 8.41448 2.24015 8.27216 2.31094 8.1311L2.31218 8.13236Z" fill="#DEC8A1"/>
<path d="M16.9377 34.0001C15.8984 32.985 16.0449 28.6701 16.9377 28.2432V34.0001Z" fill="#DEC8A1"/>
<path d="M27.0855 11.4861C26.852 11.277 26.6608 11.1876 26.6434 11.0705C26.6161 10.8941 26.6483 10.5956 26.7614 10.5264C27.9584 9.79715 29.1729 9.09816 30.3948 8.41554C30.478 8.36894 30.7214 8.48985 30.7971 8.59942C30.8679 8.70143 30.8766 8.98481 30.8095 9.03015C29.5839 9.85887 28.3434 10.6637 27.0855 11.4861Z" fill="#DEC8A1"/>
<path d="M0 16.5769H5.11112C4.25554 17.6827 0.988448 17.6751 0 16.5769Z" fill="#DEC8A1"/>
<path d="M16.369 4.88791C16.3044 3.53652 16.2225 2.18514 16.1927 0.833753C16.1865 0.557934 16.3802 0.278338 16.4808 0C16.6558 0.260705 16.9526 0.508816 16.9837 0.785894C17.1103 1.9005 17.206 3.02519 17.1973 4.1461C17.1948 4.46977 16.8073 4.78967 16.5962 5.11083L16.3678 4.88791H16.369Z" fill="#DEC8A1"/>
<path d="M28.1583 16.4382H32.8684C32.9118 16.5743 32.9565 16.709 33 16.845C32.4859 17.0138 31.9817 17.2455 31.4552 17.3375C29.7304 17.641 28.7904 17.4042 28.1583 16.4382Z" fill="#DEC8A1"/>
<path d="M10.786 13.7908C11.8353 13.1283 12.9951 12.8941 14.2182 13.2543C15.7518 13.7052 16.0151 15.0717 16.2237 16.4168C16.3367 17.1435 16.3715 17.8815 16.4423 18.6145C16.5689 18.6208 16.6968 18.6271 16.8235 18.6334C16.9638 17.5414 17.1252 16.452 17.2395 15.3588C17.4121 13.7203 19.8112 12.4533 21.1933 13.3047C21.3634 13.4092 21.4416 13.6674 21.6304 13.9583C20.7425 14.112 19.949 14.1334 19.2549 14.413C18.8153 14.5906 18.3397 15.0956 18.2081 15.5515C17.9324 16.5074 17.8628 17.5251 17.7312 18.52C17.6219 19.3462 17.0867 19.4823 16.3926 19.476C15.5867 19.4684 15.4712 18.976 15.4414 18.3122C15.4116 17.6447 15.3296 16.9734 15.198 16.3198C14.7708 14.2064 14.0817 13.7757 11.9495 14.18C11.5832 14.2493 11.1933 14.1901 10.8146 14.1901C10.8046 14.0578 10.7947 13.9256 10.7848 13.7933L10.786 13.7908Z" fill="#DEC8A1"/>
<path d="M13.8085 20.5945C14.1624 20.6222 14.5548 20.5592 14.8652 20.6927C15.7841 21.0857 16.6484 21.1902 17.5909 20.7129C17.8455 20.5844 18.3012 20.864 18.665 20.9559C18.4527 21.2003 18.2813 21.5819 18.0193 21.665C16.5205 22.1373 15.0602 22.1297 13.7613 21.1373C13.7774 20.9559 13.7936 20.7758 13.8097 20.5945H13.8085Z" fill="#DEC8A1"/>
<path d="M22.6685 16.3099C21.5919 17.0214 20.4507 17.4622 19.1617 16.8577C18.9395 16.7532 18.8401 16.3766 18.6849 16.1247C18.9332 16.0769 19.1816 16.0025 19.4324 15.9862C20.1055 15.9421 20.781 15.9169 21.4553 15.8955C21.8564 15.8829 22.2575 15.893 22.6585 15.893C22.6623 16.0315 22.6648 16.1713 22.6685 16.3099Z" fill="#DEC8A1"/>
<path d="M11.3063 15.9923C12.2314 15.9029 13.1553 15.7833 14.0816 15.7581C14.2021 15.7543 14.335 16.2316 14.4616 16.486C13.8482 16.6472 13.2273 16.9533 12.6226 16.9256C12.1159 16.9029 11.6254 16.4898 11.1287 16.2505C11.1883 16.1649 11.2479 16.0792 11.3063 15.9923Z" fill="#DEC8A1"/>
</g>
<defs>
<clipPath id="clip0_286_2612">
<rect width="33" height="34" fill="white"/>
</clipPath>
</defs>
</svg>
