<svg width="54" height="54" viewBox="0 0 54 54" fill="none" xmlns="http://www.w3.org/2000/svg">
<path d="M21.1717 23.6545C20.6796 23.6545 20.2752 23.2626 20.2595 22.7689C20.1859 20.2972 19.4367 17.8929 18.0935 15.8177L11.4103 5.49511C10.484 4.06412 10.8774 2.12216 12.288 1.16451C13.6861 0.213126 15.5763 0.529732 16.5904 1.88236L21.6874 8.67684C22.5777 9.86333 23.855 10.7363 25.286 11.136L27.2484 11.683C27.7343 11.8178 28.0179 12.3209 27.8816 12.8068C27.7468 13.2927 27.2437 13.5764 26.7578 13.44L24.7955 12.893C22.9805 12.3868 21.3583 11.2786 20.2266 9.77085L15.1296 2.97637C14.7017 2.40585 13.9023 2.27263 13.313 2.6723C12.7174 3.07668 12.5513 3.89798 12.9416 4.50141L19.6248 14.824C21.1498 17.1797 22.0009 19.9069 22.0839 22.7125C22.0996 23.2156 21.7031 23.6372 21.1984 23.6513C21.189 23.6513 21.1796 23.6513 21.1702 23.6513L21.1717 23.6545Z" fill="#DEC8A1"/>
<path d="M32.8323 23.6546C32.8229 23.6546 32.8135 23.6546 32.8041 23.6546C32.301 23.6405 31.9045 23.2188 31.9186 22.7157C32.0016 19.9102 32.8512 17.183 34.3762 14.8272L41.061 4.50463C41.4512 3.9012 41.2851 3.07991 40.6895 2.67553C40.1002 2.27429 39.3008 2.40751 38.8729 2.9796L33.7743 9.77408C32.6443 11.2819 31.0221 12.39 29.2071 12.8962L27.2447 13.4433C26.7604 13.578 26.2557 13.2959 26.1209 12.81C25.9861 12.3242 26.2698 11.821 26.7541 11.6862L28.7165 11.1392C30.1459 10.7411 31.4233 9.86655 32.3151 8.68006L37.4137 1.88558C38.4278 0.532955 40.318 0.217917 41.7161 1.16773C43.1252 2.12539 43.5201 4.06734 42.5938 5.49833L35.9091 15.8209C34.5658 17.8961 33.8166 20.3004 33.743 22.7721C33.7289 23.2659 33.3229 23.6577 32.8308 23.6577L32.8323 23.6546Z" fill="#DEC8A1"/>
<path d="M27.0026 9.46995C24.3913 9.46995 22.2676 7.34619 22.2676 4.73498C22.2676 2.12376 24.3913 0 27.0026 0C29.6138 0 31.7375 2.12376 31.7375 4.73498C31.7375 7.34619 29.6138 9.46995 27.0026 9.46995ZM27.0026 1.8244C25.3976 1.8244 24.092 3.13001 24.092 4.73498C24.092 6.33995 25.3976 7.64555 27.0026 7.64555C28.6075 7.64555 29.9131 6.33995 29.9131 4.73498C29.9131 3.13001 28.6075 1.8244 27.0026 1.8244Z" fill="#DEC8A1"/>
<path d="M18.3036 53.1129H0.9122C0.409079 53.1129 0 52.7038 0 52.2007V37.9049C0 37.4002 0.409079 36.9927 0.9122 36.9927H18.3036C18.8067 36.9927 19.2158 37.4018 19.2158 37.9049V52.2007C19.2158 52.7054 18.8067 53.1129 18.3036 53.1129ZM1.8244 51.2885H17.3914V38.8186H1.8244V51.2885Z" fill="#DEC8A1"/>
<path d="M35.6966 53.1128H18.3053C17.8021 53.1128 17.3931 52.7037 17.3931 52.2006V27.1339C17.3931 26.6292 17.8021 26.2217 18.3053 26.2217H35.6966C36.1997 26.2217 36.6088 26.6308 36.6088 27.1339V52.2006C36.6088 52.7053 36.1997 53.1128 35.6966 53.1128ZM19.2175 51.2884H34.7844V28.0476H19.2175V51.2884Z" fill="#DEC8A1"/>
<path d="M53.0877 53.1128H35.6964C35.1933 53.1128 34.7842 52.7038 34.7842 52.2006V33.4002C34.7842 32.8956 35.1933 32.488 35.6964 32.488H53.0877C53.5924 32.488 53.9999 32.8971 53.9999 33.4002V52.2006C53.9999 52.7053 53.5909 53.1128 53.0877 53.1128ZM36.6086 51.2885H52.1755V34.3124H36.6086V51.2885Z" fill="#DEC8A1"/>
<path d="M27.0768 49.0646C26.5737 49.0646 26.1646 48.6555 26.1646 48.1524V42.4848H25.3214C24.8183 42.4848 24.4092 42.0757 24.4092 41.5726C24.4092 41.0695 24.8183 40.6604 25.3214 40.6604H27.0768C27.5799 40.6604 27.989 41.0695 27.989 41.5726V48.1539C27.989 48.6586 27.5799 49.0661 27.0768 49.0661V49.0646Z" fill="#DEC8A1"/>
<path d="M28.8361 49.447H25.3033C24.8002 49.447 24.3911 49.0379 24.3911 48.5348C24.3911 48.0316 24.8002 47.6226 25.3033 47.6226H28.8361C29.3393 47.6226 29.7483 48.0316 29.7483 48.5348C29.7483 49.0379 29.3393 49.447 28.8361 49.447Z" fill="#DEC8A1"/>
<path d="M46.1584 49.447H42.6256C42.1209 49.447 41.7134 49.0379 41.7134 48.5348V47.9063C41.7134 46.9518 42.2384 46.0819 43.0848 45.6383L44.7603 44.7575C45.0597 44.6007 45.2462 44.292 45.2462 43.9534V43.245C45.2462 42.8265 44.9061 42.4848 44.486 42.4848H44.3152C43.8967 42.4848 43.555 42.8249 43.555 43.245C43.555 43.7497 43.1459 44.1572 42.6428 44.1572C42.1397 44.1572 41.7306 43.7481 41.7306 43.245C41.7306 41.8202 42.8905 40.6604 44.3152 40.6604H44.486C45.9107 40.6604 47.0706 41.8202 47.0706 43.245V43.9534C47.0706 44.9722 46.5095 45.9001 45.6083 46.3734L43.9327 47.2527C43.7776 47.3342 43.66 47.4658 43.5958 47.6226H46.16C46.6646 47.6226 47.0722 48.0317 47.0722 48.5348C47.0722 49.0379 46.6631 49.447 46.16 49.447H46.1584Z" fill="#DEC8A1"/>
<path d="M9.29712 49.4468H8.72817C7.69372 49.4468 6.85205 48.6052 6.85205 47.5707C6.85205 47.066 7.26113 46.6585 7.76425 46.6585C8.26737 46.6585 8.67645 47.0676 8.67645 47.5707C8.67645 47.5989 8.69996 47.6224 8.72817 47.6224H9.29712C9.89742 47.6224 10.3864 47.1334 10.3864 46.5331C10.3864 45.9328 9.89742 45.4438 9.29712 45.4438H8.83319C8.47896 45.4438 8.15766 45.2385 8.00719 44.9188C7.85672 44.599 7.90531 44.2197 8.13258 43.947L9.35198 42.4831H7.76582C7.2627 42.4831 6.85362 42.074 6.85362 41.5709C6.85362 41.0678 7.2627 40.6587 7.76582 40.6587H11.2986C11.6529 40.6587 11.9742 40.864 12.1246 41.1838C12.2751 41.5035 12.2265 41.8828 11.9992 42.1555L10.5463 43.9015C11.529 44.3702 12.2108 45.3733 12.2108 46.5331C12.2108 48.1397 10.9037 49.4468 9.29712 49.4468Z" fill="#DEC8A1"/>
</svg>
