<svg width="51" height="50" viewBox="0 0 51 50" fill="none" xmlns="http://www.w3.org/2000/svg">
<path d="M12.1764 1H38.8572V18.5305C38.8572 25.8924 32.8798 31.8719 25.5158 31.8719C18.1538 31.8719 12.1743 25.8945 12.1743 18.5305V1H12.1764Z" stroke="#DEC8A1" stroke-width="2" stroke-linecap="round" stroke-linejoin="round"/>
<path d="M25.5176 31.8718V41.3241" stroke="#DEC8A1" stroke-width="2" stroke-linecap="round" stroke-linejoin="round"/>
<path d="M25.5174 41.3242L13.7749 48.7278H37.2599L25.5174 41.3242Z" stroke="#DEC8A1" stroke-width="2" stroke-linecap="round" stroke-linejoin="round"/>
<path d="M14.2228 25.6321H11.1747C5.55542 25.6321 1 21.0767 1 15.4574V5.56372H12.1762" stroke="#DEC8A1" stroke-width="2" stroke-linecap="round" stroke-linejoin="round"/>
<path d="M38.824 5.56372H50.0001V15.4574C50.0001 21.0767 45.4447 25.6321 39.8254 25.6321H36.7773" stroke="#DEC8A1" stroke-width="2" stroke-linecap="round" stroke-linejoin="round"/>
<path d="M25.4487 19.7984L20.6892 22.301C20.608 22.3426 20.5144 22.2739 20.5289 22.1844L21.4388 16.8836C21.445 16.8482 21.4325 16.8107 21.4075 16.7857L17.5579 13.0319C17.4934 12.9674 17.5288 12.857 17.6183 12.8445L22.9399 12.0721C22.9753 12.0659 23.0065 12.045 23.0232 12.0117L25.4029 7.1898C25.4424 7.10861 25.559 7.10861 25.6007 7.1898L27.9804 12.0117C27.9971 12.045 28.0283 12.0659 28.0637 12.0721L33.3853 12.8445C33.4748 12.857 33.5123 12.9694 33.4457 13.0319L29.596 16.7857C29.5711 16.8107 29.5586 16.8482 29.5648 16.8836L30.4746 22.1844C30.4892 22.2739 30.3955 22.3426 30.3143 22.301L25.5549 19.7984C25.5236 19.7817 25.4841 19.7817 25.4529 19.7984H25.4487Z" stroke="#DEC8A1" stroke-width="2" stroke-linecap="round" stroke-linejoin="round"/>
</svg>
