<svg width="57" height="62" viewBox="0 0 57 62" fill="none" xmlns="http://www.w3.org/2000/svg">
<path d="M26.5022 30.8921C26.7062 30.6831 26.9251 30.4468 27.1515 30.1881H27.154C27.3007 30.0214 27.4475 29.8473 27.5993 29.6657M27.5993 29.6657C29.6192 27.2054 32.0322 23.066 31.2237 17.939M27.5993 29.6657C29.6192 27.2029 32.0322 23.066 31.2237 17.939M31.2237 17.939C30.9526 16.2175 30.3182 14.3841 29.1839 12.4662C28.2734 10.9263 27.0395 9.32925 25.4126 7.6899C25.4126 7.6899 23.4399 9.43124 21.823 12.3343C20.9896 13.8269 20.2508 15.6255 19.9224 17.6529M23.4051 29.6408C19.9921 25.2451 19.3577 21.1181 19.9224 17.6554C18.604 16.7548 17.0044 16.0185 15.0666 15.5409C13.263 15.0906 11.1659 14.8667 8.72557 14.9339C8.72557 14.9339 8.3375 23.6307 14.6262 28.484C16.5318 29.9567 19.0517 31.0762 22.3827 31.4916M24.9325 31.4294C24.7086 31.1931 24.4947 30.9543 24.2907 30.7204C24.2882 30.7154 24.2857 30.713 24.2832 30.7105C23.9698 30.3547 23.6763 29.999 23.4051 29.6458C19.9921 25.2501 19.3577 21.1231 19.9224 17.6603M19.9224 17.6603C20.2508 15.6329 20.9896 13.8344 21.823 12.3418C23.4399 9.43871 25.4126 7.69736 25.4126 7.69736C27.0395 9.33671 28.2734 10.9338 29.1839 12.4736C30.3182 14.3916 30.9526 16.225 31.2237 17.9464C32.0322 23.0734 29.6192 27.2104 27.5993 29.6731C27.4475 29.8547 27.3007 30.0289 27.154 30.193H27.1515C26.9251 30.4567 26.7062 30.6906 26.5022 30.8995C26.3306 31.0786 26.1689 31.2378 26.0196 31.3796C25.9549 31.4418 25.8927 31.5015 25.833 31.5563C25.7907 31.5961 25.7485 31.6334 25.7111 31.6682C25.6067 31.7652 25.5171 31.8423 25.44 31.9095C25.44 31.907 25.4325 31.902 25.43 31.8996C25.4251 31.8946 25.4176 31.8871 25.4126 31.8821M19.9224 17.6603C18.604 16.7598 17.0044 16.026 15.0666 15.5458C13.263 15.0956 11.1659 14.8717 8.72557 14.9389C8.72557 14.9389 8.3375 23.6381 14.6262 28.489C16.5318 29.9617 19.0517 31.0836 22.3827 31.4966C23.1563 31.5961 23.9748 31.6533 24.8405 31.6682C24.9449 31.6707 25.0519 31.6707 25.1589 31.6732M55.3414 38.3425L49.1073 23.6929C47.8511 18.0434 47.5501 17.0782 47.5501 17.0782C47.5501 17.0782 46.3411 13.2274 43.5226 9.60787C39.7737 4.79429 32.5919 0.73945 24.3803 1.01309C23.5121 1.04294 12.4297 1.60763 5.58369 11.2174C1.47909 16.9762 1.04624 22.9665 1.00146 25.372C2.88958 38.156 10.2853 50.4822 10.4545 50.8852C12.1162 55.7162 12.0142 60.4054 12.0142 60.4054H38.5424V55.0346C38.5424 55.0346 38.7687 53.4599 40.1966 53.3803C41.6245 53.3007 45.7043 53.3803 45.7043 53.3803C45.7043 53.3803 48.7417 53.6166 48.7417 49.522V40.7555H54.3015C54.3015 40.7555 56.5901 41.1237 55.3414 38.3425Z" stroke="#DEC8A1" stroke-width="2" stroke-miterlimit="10"/>
<path d="M15.0664 15.5359C15.4818 11.996 16.8152 9.42383 16.8152 9.42383C18.8128 10.3069 20.4646 11.2896 21.8228 12.3319C20.9895 13.8245 20.2506 15.623 19.9223 17.6504" stroke="#DEC8A1" stroke-width="2" stroke-miterlimit="10"/>
<path d="M25.4126 31.8721L25.3878 31.897L25.3778 31.907C24.139 33.1508 22.9275 34.0239 21.7583 34.6085C15.0442 37.9718 9.80273 31.8348 9.80273 31.8348C11.4918 30.1134 13.1113 29.0611 14.6263 28.479C16.5318 29.9517 19.0518 31.0711 22.3827 31.4866" stroke="#DEC8A1" stroke-width="2" stroke-miterlimit="10"/>
<path d="M25.4126 31.8723C25.4126 31.8723 25.425 31.8848 25.43 31.8897C25.4325 31.8922 25.4375 31.8972 25.44 31.8997C26.7833 33.253 28.0992 34.1659 29.3605 34.7505C35.9328 37.7954 41.025 31.835 41.025 31.835C39.5026 30.2852 38.0373 29.2752 36.6542 28.6658" stroke="#DEC8A1" stroke-width="2" stroke-miterlimit="10"/>
<path d="M21.7578 34.6086C21.7951 36.6659 22.7379 39.0217 25.447 41.482C26.2082 40.8999 29.2332 38.3699 29.36 34.7479" stroke="#DEC8A1" stroke-width="2" stroke-miterlimit="10"/>
<path d="M27.5992 29.6631C29.6192 27.2029 32.0322 23.0634 31.2237 17.9364C32.7337 16.8667 34.3482 16.1777 35.8681 15.7373C39.4478 14.705 42.5201 15.0508 42.5201 15.0508C42.2539 22.2351 39.7289 26.3421 36.6542 28.6656C34.0497 30.6358 31.0521 31.3249 28.6988 31.5214C27.6415 31.606 26.7136 31.596 26.0121 31.5562C25.9499 31.5537 25.8902 31.5488 25.833 31.5463" stroke="#DEC8A1" stroke-width="2" stroke-miterlimit="10"/>
<path d="M35.868 15.7399C35.6615 13.9115 35.1566 11.8866 34.2759 9.64771C34.2759 9.64771 31.7833 10.4512 29.1837 12.4662C30.3181 14.3842 30.9525 16.2175 31.2236 17.939C32.0321 23.066 29.6191 27.2029 27.5991 29.6657" stroke="#DEC8A1" stroke-width="2" stroke-miterlimit="10"/>
</svg>
