<svg width="56" height="58" viewBox="0 0 56 58" fill="none" xmlns="http://www.w3.org/2000/svg">
<path d="M38.2836 49.1594C37.7995 49.1594 37.3783 48.8054 37.307 48.3143L36.8501 45.1676C36.4679 42.5307 34.163 40.5425 31.4912 40.5425H24.2877C21.6159 40.5425 19.311 42.5307 18.9288 45.1676L18.4719 48.3143C18.3938 48.8529 17.8927 49.2255 17.3526 49.1492C16.8124 49.0713 16.437 48.5717 16.5152 48.0315L16.9721 44.8848C17.4952 41.2843 20.6409 38.5695 24.2894 38.5695H31.4929C35.1413 38.5695 38.287 41.2843 38.8102 44.8848L39.2671 48.0315C39.3452 48.57 38.9715 49.0713 38.4297 49.1492C38.3821 49.156 38.3329 49.1594 38.287 49.1594H38.2836Z" fill="#DEC8A1"/>
<path d="M27.8891 40.5425C24.8861 40.5425 22.4419 38.1072 22.4419 35.1112C22.4419 32.1153 24.8861 29.6799 27.8891 29.6799C30.8921 29.6799 33.3363 32.117 33.3363 35.1112C33.3363 38.1055 30.8921 40.5425 27.8891 40.5425ZM27.8891 31.653C25.9765 31.653 24.419 33.2043 24.419 35.1112C24.419 37.0182 25.9749 38.5695 27.8891 38.5695C29.8034 38.5695 31.3592 37.0182 31.3592 35.1112C31.3592 33.2043 29.8034 31.653 27.8891 31.653Z" fill="#DEC8A1"/>
<path d="M17.8754 57.9983H9.07868C7.71815 57.9983 6.51899 57.0838 6.16229 55.7729L5.14657 52.0301C5.00389 51.5051 5.31642 50.9632 5.84297 50.8209C6.36952 50.6803 6.91305 50.9903 7.05572 51.5153L8.07145 55.2581C8.19374 55.7103 8.60819 56.027 9.07868 56.027H17.8754C18.723 56.027 19.4109 55.3394 19.4109 54.496C19.4109 53.6526 18.7213 52.965 17.8754 52.965H12.1377C11.6774 52.965 11.2766 52.6483 11.1747 52.1995L9.5271 45.0424C9.12624 43.2997 7.59246 42.082 5.80051 42.082H5.01748C3.34102 42.082 1.9771 43.442 1.9771 45.1135V57.0143C1.9771 57.5596 1.53378 58 0.988549 58C0.443318 58 0 57.558 0 57.0143V45.1135C0 42.3547 2.25056 40.109 5.01918 40.109H5.8022C8.52326 40.109 10.8486 41.955 11.4566 44.6004L12.9276 50.9936H17.8771C19.8151 50.9936 21.3914 52.5653 21.3914 54.496C21.3914 56.4266 19.8151 58 17.8771 58L17.8754 57.9983Z" fill="#DEC8A1"/>
<path d="M5.58999 42.0803C2.53941 42.0803 0.0561523 39.606 0.0561523 36.5643C0.0561523 33.5226 2.53772 31.0466 5.58999 31.0466C8.64226 31.0466 11.1238 33.5226 11.1238 36.5643C11.1238 39.606 8.64226 42.082 5.58999 42.082V42.0803ZM5.58999 33.018C3.62987 33.018 2.03495 34.6082 2.03495 36.5626C2.03495 38.517 3.62987 40.1073 5.58999 40.1073C7.5501 40.1073 9.14503 38.517 9.14503 36.5626C9.14503 34.6082 7.5501 33.018 5.58999 33.018Z" fill="#DEC8A1"/>
<path d="M54.7881 57.9981C54.2429 57.9981 53.7996 57.5561 53.7996 57.0125V45.1117C53.7996 43.4401 52.4356 42.0802 50.7592 42.0802H49.9761C48.1825 42.0802 46.6504 43.2979 46.2496 45.0406L44.602 52.1976C44.4984 52.6447 44.0992 52.9631 43.6389 52.9631H37.9029C37.0554 52.9631 36.3675 53.649 36.3675 54.4941C36.3675 55.3392 37.0571 56.0251 37.9029 56.0251H46.6997C47.1702 56.0251 47.5829 55.7101 47.7069 55.2562L48.7226 51.5134C48.8653 50.9867 49.4071 50.6785 49.9354 50.8191C50.4619 50.9613 50.7745 51.5033 50.6318 52.0283L49.6161 55.7711C49.2594 57.0802 48.0619 57.9964 46.6997 57.9964H37.9029C35.9649 57.9964 34.3887 56.4248 34.3887 54.4924C34.3887 52.5601 35.9649 50.9901 37.9029 50.9901H42.8525L44.3234 44.5968C44.9315 41.9532 47.2568 40.1055 49.9778 40.1055H50.7609C53.5278 40.1055 55.7801 42.3495 55.7801 45.11V57.0108C55.7801 57.5561 55.3367 57.9964 54.7915 57.9964L54.7881 57.9981Z" fill="#DEC8A1"/>
<path d="M50.1852 42.0803C47.1346 42.0803 44.6514 39.6043 44.6514 36.5626C44.6514 33.5209 47.1329 31.0449 50.1852 31.0449C53.2375 31.0449 55.719 33.5209 55.719 36.5626C55.719 39.6043 53.2375 42.0803 50.1852 42.0803ZM50.1852 33.0179C48.2251 33.0179 46.6302 34.6082 46.6302 36.5626C46.6302 38.517 48.2251 40.1073 50.1852 40.1073C52.1453 40.1073 53.7402 38.517 53.7402 36.5626C53.7402 34.6082 52.1453 33.0179 50.1852 33.0179Z" fill="#DEC8A1"/>
<path d="M38.3664 57.9983H17.8753C17.33 57.9983 16.8867 57.5563 16.8867 57.0126C16.8867 56.469 17.33 56.027 17.8753 56.027H38.3664C38.9117 56.027 39.355 56.469 39.355 57.0126C39.355 57.5563 38.9117 57.9983 38.3664 57.9983Z" fill="#DEC8A1"/>
<path d="M10.4221 24.9075C10.1792 24.9075 9.93465 24.8533 9.70365 24.7449C9.11426 24.4671 8.74738 23.8896 8.74738 23.2393V22.0064C7.14226 21.9335 5.85986 20.6092 5.85986 18.9918V9.05556C5.85986 7.39246 7.217 6.0376 8.88666 6.0376H25.0975C26.7655 6.0376 28.1243 7.39077 28.1243 9.05556V18.9918C28.1243 20.6549 26.7672 22.0097 25.0975 22.0097H14.5683L11.4786 24.5298C11.1729 24.7804 10.8009 24.9091 10.4238 24.9091L10.4221 24.9075ZM8.88496 8.00892C8.30746 8.00892 7.83696 8.47804 7.83696 9.05386V18.9901C7.83696 19.5659 8.30746 20.0367 8.88496 20.0367H9.73593C10.2812 20.0367 10.7245 20.4787 10.7245 21.0224V22.594L13.5865 20.2586C13.7632 20.1146 13.984 20.035 14.2133 20.035H25.0958C25.6733 20.035 26.1438 19.5659 26.1438 18.9884V9.05217C26.1438 8.47635 25.6733 8.00723 25.0958 8.00723H8.88496V8.00892Z" fill="#DEC8A1"/>
<path d="M40.6865 10.07C40.1413 10.07 39.698 9.628 39.698 9.08436V3.01796C39.698 2.44214 39.2275 1.97302 38.65 1.97302H22.4392C21.8617 1.97302 21.3912 2.44214 21.3912 3.01796V3.67676C21.3912 4.22209 20.9478 4.66242 20.4026 4.66242C19.8574 4.66242 19.4141 4.2204 19.4141 3.67676V3.01796C19.4141 1.35486 20.7712 0 22.4409 0H38.6517C40.3197 0 41.6785 1.35317 41.6785 3.01796V9.08605C41.6785 9.63138 41.2352 10.0717 40.6899 10.0717L40.6865 10.07Z" fill="#DEC8A1"/>
<path d="M43.7239 30.7858C43.3468 30.7858 42.9765 30.6571 42.6691 30.4064L39.5795 27.8864H29.0502C27.3823 27.8864 26.0234 26.5332 26.0234 24.8684C26.0234 24.3231 26.4668 23.8828 27.012 23.8828C27.5572 23.8828 28.0005 24.3248 28.0005 24.8684C28.0005 25.4443 28.471 25.9134 29.0485 25.9134H39.9311C40.1587 25.9134 40.3812 25.9913 40.5578 26.1369L43.4199 28.4724V26.9007C43.4199 26.3554 43.8632 25.9151 44.4084 25.9151H45.2594C45.8369 25.9151 46.3074 25.446 46.3074 24.8701V14.9322C46.3074 14.3564 45.8369 13.8873 45.2594 13.8873H31.4622C30.9169 13.8873 30.4736 13.4453 30.4736 12.9016C30.4736 12.358 30.9169 11.916 31.4622 11.916H45.2594C46.9273 11.916 48.2862 13.2691 48.2862 14.9339V24.8718C48.2862 26.4892 47.0038 27.8136 45.3987 27.8864V29.1193C45.3987 29.7697 45.0318 30.3472 44.4424 30.6249C44.2114 30.7333 43.9651 30.7875 43.7239 30.7875V30.7858Z" fill="#DEC8A1"/>
</svg>
