<svg width="70" height="62" viewBox="0 0 70 62" fill="none" xmlns="http://www.w3.org/2000/svg">
<path d="M14.3655 34.8625H2.74601C1.78172 34.8625 1 35.6443 1 36.6086V59.1239C1 60.0882 1.78172 60.87 2.74601 60.87H14.3655C15.3298 60.87 16.1115 60.0882 16.1115 59.1239V36.6086C16.1115 35.6443 15.3298 34.8625 14.3655 34.8625Z" stroke="#DEC8A1" stroke-width="2" stroke-miterlimit="10"/>
<path d="M10.6011 55.7278C11.7295 54.5994 11.7295 52.7699 10.6011 51.6416C9.47271 50.5132 7.64322 50.5132 6.51482 51.6416C5.38642 52.7699 5.38642 54.5994 6.51482 55.7278C7.64322 56.8562 9.47271 56.8562 10.6011 55.7278Z" stroke="#DEC8A1" stroke-width="2" stroke-miterlimit="10"/>
<path d="M16.1118 39.5968C20.6707 39.135 22.7551 39.4239 25.4963 39.6684C34.7746 40.4957 38.847 43.1234 39.8546 43.8075C41.4425 44.8818 44.8951 47.2205 44.4629 49.6654C44.1122 51.6485 41.4055 52.5622 41.1363 52.6487C37.4146 53.8538 34.0732 50.6755 33.9201 50.5248" stroke="#DEC8A1" stroke-width="2" stroke-linecap="round" stroke-linejoin="round"/>
<path d="M16.1118 54.8269C16.991 54.8096 18.3221 54.8417 19.9002 55.1307C23.5083 55.795 25.9631 57.3632 26.62 57.741C32.7446 61.2676 42.1587 59.3043 55.4353 56.5359C65.4792 54.4417 67.5018 52.8339 68.0871 50.9126C68.7218 48.8307 68.1612 46.0178 66.4942 45.0201C64.0864 43.5828 60.945 46.8328 54.5018 48.8184C50.2566 50.1273 46.567 50.273 44.2851 50.226" stroke="#DEC8A1" stroke-width="2" stroke-linecap="round" stroke-linejoin="round"/>
<path d="M62.9905 21.0568C64.4155 12.2776 58.4538 4.00535 49.6746 2.58028C40.8953 1.15521 32.6231 7.11695 31.198 15.8962C29.7729 24.6754 35.7347 32.9477 44.5139 34.3727C53.2932 35.7978 61.5654 29.8361 62.9905 21.0568Z" stroke="#DEC8A1" stroke-width="2" stroke-linecap="round" stroke-linejoin="round"/>
<path d="M48.1719 10.1368C49.3404 10.2967 50.1784 10.7704 50.7705 11.5167V11.5177C51.2254 12.0932 51.5394 12.8725 51.6602 13.9083H51.3652C51.2389 12.9905 50.9258 12.1687 50.3779 11.4894C49.6195 10.5491 48.5767 10.0832 47.3525 10.0831C46.2494 10.0831 45.1627 10.3794 44.3926 11.1349C43.6354 11.8777 43.3097 12.8714 43.3096 13.9816C43.3096 15.0662 43.6717 16.0257 44.4609 16.7443C45.1687 17.3885 46.2364 17.8993 47.5449 18.3243C48.7575 18.7183 49.6413 19.1329 50.2383 19.549C50.836 19.9656 51.2362 20.4209 51.4854 20.9064C51.736 21.3948 51.8789 21.9982 51.8789 22.7462C51.8789 23.932 51.5312 24.7898 50.9072 25.423C50.2704 26.0692 49.331 26.5059 47.9814 26.6466L47.2207 26.7257L46.6768 26.6759C46.8127 26.6846 46.9511 26.6906 47.0908 26.6906C48.3583 26.6905 49.4411 26.3882 50.292 25.673C50.9028 25.1595 51.2888 24.5115 51.4658 23.7716H51.582V22.7716C51.582 21.7478 51.2112 20.8463 50.4824 20.131L50.4814 20.13L50.3457 20.004C49.649 19.3836 48.628 18.8921 47.3965 18.4816L47.3848 18.4777L47.3721 18.4738L46.7695 18.2755C45.4239 17.801 44.5131 17.241 43.9541 16.6427C43.3426 15.9881 43.0128 15.1449 43.0127 14.0294C43.0127 12.9005 43.343 12.0155 43.9385 11.3605C44.5383 10.7006 45.3871 10.2695 46.5771 10.1271L47.3887 10.0294L48.1719 10.1368ZM42.6875 23.1017C42.8292 24.0134 43.1813 24.8204 43.8037 25.4581C44.4803 26.1513 45.3532 26.5251 46.3447 26.6456H46.3389C44.9956 26.5229 44.04 26.059 43.3652 25.3214C42.8643 24.7737 42.5226 24.0504 42.3848 23.1017H42.6875Z" fill="#DEC8A1" stroke="#DEC8A1" stroke-width="2"/>
</svg>
