<svg width="63" height="64" viewBox="0 0 63 64" fill="none" xmlns="http://www.w3.org/2000/svg">
<path d="M34.918 30.3033V30.2988" stroke="#DEC8A1" stroke-width="2" stroke-linecap="round" stroke-linejoin="round"/>
<path d="M25.1637 26.0336C24.0844 23.3227 23.5603 20.7976 23.4286 18.4766C22.809 7.43656 31.0838 1 31.0838 1C31.0838 1 39.5833 7.60954 38.708 18.9181C38.566 20.7408 38.1839 22.6798 37.4791 24.7401C37.4791 24.7401 37.4791 24.7419 37.4791 24.7453" stroke="#DEC8A1" stroke-width="2" stroke-linecap="round" stroke-linejoin="round"/>
<path d="M38.7075 18.9181C44.4754 12.7655 52.1822 12.2517 52.1822 12.2517C52.1822 12.2517 55.0532 21.0481 49.8456 29.4081C48.4437 31.6595 46.4582 33.8773 43.675 35.886" stroke="#DEC8A1" stroke-width="2" stroke-linecap="round" stroke-linejoin="round"/>
<path d="M32.9606 31.2361C32.9477 31.311 32.9348 31.3833 32.9219 31.4607" stroke="#DEC8A1" stroke-width="2" stroke-linecap="round" stroke-linejoin="round"/>
<path d="M49.846 29.4081C56.2025 27.7557 61.5599 29.5656 61.5599 29.5656C61.5599 29.5656 60.4161 44.3338 44.7959 48.1033" stroke="#DEC8A1" stroke-width="2" stroke-linecap="round" stroke-linejoin="round"/>
<path d="M18.8328 35.8447C16.0754 33.8489 14.1055 31.644 12.7164 29.4081C7.50884 21.0481 10.3799 12.2517 10.3799 12.2517C10.3799 12.2517 17.7123 12.7397 23.4285 18.474" stroke="#DEC8A1" stroke-width="2" stroke-linecap="round" stroke-linejoin="round"/>
<path d="M29.6404 31.4607C29.6275 31.3781 29.612 31.3006 29.5991 31.2206" stroke="#DEC8A1" stroke-width="2" stroke-linecap="round" stroke-linejoin="round"/>
<path d="M17.6865 48.0878C2.14118 44.2873 1 29.5682 1 29.5682C1 29.5682 6.35734 27.7557 12.7164 29.4107" stroke="#DEC8A1" stroke-width="2" stroke-linecap="round" stroke-linejoin="round"/>
<path d="M37.5044 25.2642C37.5044 27.34 36.482 29.1782 34.9174 30.2988C34.3339 30.7196 33.6704 31.0423 32.9604 31.236C32.4337 31.3831 31.8786 31.4606 31.308 31.4606C30.7374 31.4606 30.141 31.378 29.6014 31.2205C28.5222 30.9133 27.5617 30.3194 26.813 29.5242C25.9248 28.5844 25.3284 27.3761 25.1658 26.0335C25.1322 25.7831 25.1167 25.5249 25.1167 25.2667C25.1167 21.8458 27.8896 19.0729 31.3106 19.0729C34.7315 19.0729 37.2204 21.5669 37.4812 24.7426C37.4812 24.7426 37.4812 24.7443 37.4812 24.7478C37.4967 24.9208 37.507 25.0912 37.507 25.2667L37.5044 25.2642Z" stroke="#DEC8A1" stroke-width="2" stroke-linecap="round" stroke-linejoin="round"/>
<path d="M44.7986 40.1667V53.2257H17.6865V40.1667C17.6865 38.5969 18.1048 37.1201 18.8329 35.8447C19.3312 34.972 19.9766 34.1975 20.7383 33.5468C22.2564 32.2456 24.2341 31.4607 26.3925 31.4607H36.09C38.2691 31.4607 40.2597 32.2611 41.7855 33.5804C42.5394 34.2336 43.1797 35.0159 43.6729 35.886C44.388 37.1511 44.796 38.6124 44.796 40.1667H44.7986Z" stroke="#DEC8A1" stroke-width="2" stroke-linecap="round" stroke-linejoin="round"/>
<path d="M22.832 40.603V53.2257" stroke="#DEC8A1" stroke-width="2" stroke-linecap="round" stroke-linejoin="round"/>
<path d="M39.6733 40.603V53.2257" stroke="#DEC8A1" stroke-width="2" stroke-linecap="round" stroke-linejoin="round"/>
<path d="M45.4881 53.2257H16.9044C14.5587 53.2257 12.6572 55.1272 12.6572 57.4729V57.966C12.6572 60.3116 14.5587 62.2131 16.9044 62.2131H45.4881C47.8337 62.2131 49.7352 60.3116 49.7352 57.966V57.4729C49.7352 55.1272 47.8337 53.2257 45.4881 53.2257Z" stroke="#DEC8A1" stroke-width="2" stroke-miterlimit="10"/>
<path d="M25.0913 62.2131C25.5948 60.0573 26.4674 58.5547 27.8126 57.9479C29.4004 57.2327 30.6939 58.1958 32.2895 57.4832C33.5211 56.9332 34.4738 55.5907 35.0392 53.2257" stroke="#DEC8A1" stroke-width="2" stroke-miterlimit="10"/>
</svg>
