<svg width="65" height="56" viewBox="0 0 65 56" fill="none" xmlns="http://www.w3.org/2000/svg">
<path d="M60.2694 9.9209H4.72843C2.95257 9.9209 1.5 11.3735 1.5 13.1493V50.8099C1.5 52.5858 2.95257 54.0383 4.72843 54.0383H60.2716C62.0474 54.0383 63.5 52.5858 63.5 50.8099V13.1493C63.5 11.3735 62.0474 9.9209 60.2716 9.9209H60.2694ZM37.0814 36.4879C37.0814 37.2474 36.468 37.863 35.7085 37.863H29.3956C28.6361 37.863 28.0227 37.2474 28.0227 36.4879V28.1024C28.0227 27.3429 28.6361 26.7295 29.3956 26.7295H35.7085C36.468 26.7295 37.0814 27.3429 37.0814 28.1024V36.4879Z" stroke="#DEC8A1" stroke-width="3" stroke-miterlimit="10"/>
<path d="M63.4978 13.1493V22.2035C63.4978 27.7525 58.9563 32.2963 53.4051 32.2963H37.0814V28.1024C37.0814 27.3429 36.468 26.7295 35.7085 26.7295H29.3956C28.6361 26.7295 28.0227 27.3429 28.0227 28.1024V32.2963H11.5905C6.0415 32.2963 1.5 27.7525 1.5 22.2035V13.1493C1.5 11.3735 2.95257 9.9209 4.72843 9.9209H60.2716C62.0474 9.9209 63.5 11.3735 63.5 13.1493H63.4978Z" stroke="#DEC8A1" stroke-width="3" stroke-miterlimit="10"/>
<path d="M37.0835 28.1024V36.4879C37.0835 37.2474 36.4702 37.863 35.7107 37.863H29.3978C28.6383 37.863 28.0249 37.2474 28.0249 36.4879V28.1024C28.0249 27.3429 28.6383 26.7296 29.3978 26.7296H35.7107C36.4702 26.7296 37.0835 27.3429 37.0835 28.1024Z" stroke="#DEC8A1" stroke-width="3" stroke-miterlimit="10"/>
<path d="M24.172 1.5H40.9364C42.4532 1.5 43.6843 2.73114 43.6843 4.24793V9.92093H21.4219V4.24793C21.4219 2.73114 22.653 1.5 24.1698 1.5H24.172Z" stroke="#DEC8A1" stroke-width="3" stroke-miterlimit="10"/>
</svg>
