<svg width="62" height="70" viewBox="0 0 62 70" fill="none" xmlns="http://www.w3.org/2000/svg">
<path d="M20.4622 68.9826C20.2813 68.9826 20.1062 68.9229 19.9618 68.8093C19.7674 68.6553 19.6558 68.4224 19.6558 68.1761V58.0477C19.6558 57.7821 19.4383 57.5646 19.1726 57.5646H10.1145C8.95769 57.5646 8.01838 56.6234 8.01838 55.4685V46.2968C8.01838 46.0851 7.87787 45.8945 7.67385 45.8329L0.852336 43.7926C0.623284 43.7253 0.438503 43.5597 0.344188 43.3442C0.247948 43.1267 0.255647 42.8783 0.357661 42.6666L7.15222 28.8061C7.81051 27.4684 8.20509 26.0325 8.3302 24.5369C8.96924 16.9358 12.8727 9.97381 19.0398 5.43127C25.2974 0.823286 33.0178 -0.764678 40.7805 0.952248C45.9274 2.08981 50.7067 4.81918 54.2445 8.63607C58.8044 13.5597 61.2238 19.8346 61.2373 26.7812C61.245 31.2814 60.3096 35.5853 58.533 39.227C55.6342 45.1708 54.1001 51.8672 54.1001 58.5925V60.4364C54.1001 60.8098 53.8422 61.1351 53.4784 61.2217L20.649 68.9633C20.5874 68.9768 20.5258 68.9845 20.4642 68.9845L20.4622 68.9826ZM2.22472 42.5184L8.13387 44.2873C9.01543 44.551 9.62945 45.3767 9.62945 46.2949V55.4666C9.62945 55.7322 9.84695 55.9497 10.1126 55.9497H19.1707C20.3275 55.9497 21.2668 56.8909 21.2668 58.0458V67.1559L52.4833 59.7955V58.5905C52.4833 51.6208 54.0713 44.68 57.0797 38.5187C58.7485 35.0964 59.6282 31.037 59.6205 26.7812C59.607 20.2465 57.3396 14.3508 53.0569 9.72936C49.7424 6.15115 45.2576 3.59308 40.4283 2.52481C33.1198 0.907978 25.8671 2.40163 19.9926 6.72666C14.1989 10.992 10.5341 17.5306 9.93549 24.6678C9.79306 26.3635 9.34265 27.9938 8.59775 29.5125L2.22472 42.5184Z" fill="#DEC8A1"/>
<path d="M20.4619 69.2598C20.2194 69.2598 19.9807 69.177 19.7901 69.0249C19.5284 68.819 19.3782 68.511 19.3782 68.1761V58.0478C19.3782 57.9342 19.2858 57.8418 19.1723 57.8418H10.1141C8.80527 57.8418 7.74086 56.7755 7.74086 55.4666V46.2949C7.74086 46.2064 7.67926 46.1236 7.59457 46.0986L0.774987 44.0564C0.468943 43.964 0.218718 43.7445 0.0916808 43.4539C-0.0372811 43.1613 -0.0295819 42.8283 0.110929 42.5415L6.90549 28.681C7.54645 27.3741 7.93334 25.9728 8.05652 24.5119C8.70133 16.8319 12.6453 9.79675 18.8778 5.20609C25.195 0.555759 32.9924 -1.0553 40.8379 0.680871C46.0387 1.82998 50.87 4.58823 54.4443 8.44939C59.0562 13.425 61.4987 19.7634 61.5103 26.7812C61.518 31.3238 60.5729 35.67 58.7771 39.3483C55.8956 45.2574 54.3731 51.9096 54.3731 58.5925V60.4364C54.3731 60.9427 54.0305 61.3758 53.5377 61.4912L20.7083 69.2328C20.6294 69.2501 20.5485 69.2598 20.458 69.2598H20.4619ZM34.7016 0.555759C29.1216 0.555759 23.7687 2.29386 19.2031 5.65264C13.1014 10.1451 9.23835 17.0379 8.60702 24.5581C8.47998 26.0883 8.07385 27.5569 7.40209 28.9255L0.607529 42.786C0.538236 42.9246 0.534386 43.0882 0.597905 43.2287C0.661423 43.3711 0.782686 43.4789 0.932821 43.5251L7.75433 45.5673C8.07385 45.6655 8.29712 45.9638 8.29712 46.2949V55.4666C8.29712 56.4694 9.11324 57.2855 10.1161 57.2855H19.1742C19.5938 57.2855 19.9364 57.6282 19.9364 58.0478V68.1761C19.9364 68.3378 20.0096 68.4898 20.1385 68.5918C20.2675 68.6939 20.46 68.7247 20.587 68.6919L53.4165 60.9504C53.6571 60.8946 53.8245 60.6828 53.8245 60.4364V58.5925C53.8245 51.8268 55.3663 45.09 58.2843 39.1058C60.0436 35.5025 60.9694 31.241 60.9617 26.7812C60.9482 19.9058 58.5557 13.6964 54.042 8.82472C50.5427 5.05018 45.8135 2.34775 40.7224 1.22367C38.7052 0.777112 36.6899 0.557684 34.7035 0.557684L34.7016 0.555759ZM20.9912 67.5082V58.0478C20.9912 57.0449 20.1751 56.2288 19.1723 56.2288H10.1141C9.69453 56.2288 9.35192 55.8862 9.35192 55.4666V46.2949C9.35192 45.4961 8.81875 44.782 8.0546 44.553L1.8317 42.6897L8.35294 29.3893C9.08245 27.9015 9.52323 26.3058 9.66181 24.6447C10.2681 17.4286 13.9753 10.8169 19.8306 6.50341C25.7705 2.12833 33.1079 0.615428 40.4914 2.25536C45.3727 3.33518 49.9095 5.92212 53.2625 9.54268C57.5914 14.2161 59.8877 20.1772 59.8992 26.7832C59.9069 31.0793 59.0177 35.1792 57.3296 38.64C54.3423 44.7628 52.762 51.6613 52.762 58.5906V60.0168L20.9893 67.5063L20.9912 67.5082ZM2.61703 42.3471L8.21243 44.0217C9.20948 44.3181 9.90626 45.2517 9.90626 46.2949V55.4666C9.90626 55.5802 9.99865 55.6726 10.1122 55.6726H19.1704C20.4792 55.6726 21.5436 56.7389 21.5436 58.0478V66.8075L52.2058 59.578V58.5925C52.2058 51.5785 53.8053 44.5953 56.8292 38.3994C58.4806 35.0136 59.3507 30.9965 59.343 26.7832C59.3295 20.3197 57.0871 14.4875 52.8544 9.91801C49.5765 6.38022 45.1417 3.85103 40.3702 2.79623C33.1444 1.19672 25.9668 2.67304 20.1578 6.95189C14.4296 11.1672 10.8051 17.6326 10.2123 24.6909C10.066 26.4194 9.60792 28.0843 8.84762 29.6357L2.61703 42.3471ZM53.3029 60.7136L53.2894 60.1574H53.3029V60.7136Z" fill="#DEC8A1"/>
<path d="M52.689 27.6975H48.8182C48.3736 27.6975 48.0117 27.3356 48.0117 26.891C48.0117 26.4463 48.3736 26.0845 48.8182 26.0845H52.689C53.1336 26.0845 53.4955 26.4463 53.4955 26.891C53.4955 27.3356 53.1336 27.6975 52.689 27.6975Z" fill="#DEC8A1"/>
<path d="M52.6874 27.9765H48.8166C48.218 27.9765 47.7329 27.4915 47.7329 26.8929C47.7329 26.2943 48.218 25.8092 48.8166 25.8092H52.6874C53.286 25.8092 53.771 26.2943 53.771 26.8929C53.771 27.4915 53.286 27.9765 52.6874 27.9765ZM48.8166 26.3655C48.524 26.3655 48.2873 26.6022 48.2873 26.8929C48.2873 27.1835 48.524 27.4203 48.8166 27.4203H52.6874C52.9799 27.4203 53.2167 27.1835 53.2167 26.8929C53.2167 26.6022 52.9799 26.3655 52.6874 26.3655H48.8166Z" fill="#DEC8A1"/>
<path d="M20.4346 27.6975H16.5638C16.1192 27.6975 15.7573 27.3356 15.7573 26.891C15.7573 26.4463 16.1192 26.0845 16.5638 26.0845H20.4346C20.8792 26.0845 21.2411 26.4463 21.2411 26.891C21.2411 27.3356 20.8792 27.6975 20.4346 27.6975Z" fill="#DEC8A1"/>
<path d="M20.4349 27.9765H16.5641C15.9655 27.9765 15.4805 27.4915 15.4805 26.8929C15.4805 26.2943 15.9655 25.8092 16.5641 25.8092H20.4349C21.0316 25.8092 21.5186 26.2943 21.5186 26.8929C21.5186 27.4915 21.0335 27.9765 20.4349 27.9765ZM16.5641 26.3655C16.2716 26.3655 16.0348 26.6022 16.0348 26.8929C16.0348 27.1835 16.2716 27.4203 16.5641 27.4203H20.4349C20.7256 27.4203 20.9642 27.1835 20.9642 26.8929C20.9642 26.6022 20.7275 26.3655 20.4349 26.3655H16.5641Z" fill="#DEC8A1"/>
<path d="M34.6268 13.5059C34.1822 13.5059 33.8203 13.144 33.8203 12.6994V8.82859C33.8203 8.38396 34.1822 8.02209 34.6268 8.02209C35.0714 8.02209 35.4333 8.38396 35.4333 8.82859V12.6994C35.4333 13.144 35.0714 13.5059 34.6268 13.5059Z" fill="#DEC8A1"/>
<path d="M34.6266 13.7849C34.028 13.7849 33.543 13.2999 33.543 12.7013V8.83049C33.543 8.23188 34.028 7.74683 34.6266 7.74683C35.2252 7.74683 35.7103 8.23188 35.7103 8.83049V12.7013C35.7103 13.2999 35.2252 13.7849 34.6266 13.7849ZM34.6266 8.30309C34.3341 8.30309 34.0973 8.53985 34.0973 8.83049V12.7013C34.0973 12.9919 34.3341 13.2287 34.6266 13.2287C34.9192 13.2287 35.156 12.9919 35.156 12.7013V8.83049C35.156 8.53985 34.9192 8.30309 34.6266 8.30309Z" fill="#DEC8A1"/>
<path d="M34.6268 45.7598C34.1822 45.7598 33.8203 45.3979 33.8203 44.9533V41.0825C33.8203 40.6379 34.1822 40.276 34.6268 40.276C35.0714 40.276 35.4333 40.6379 35.4333 41.0825V44.9533C35.4333 45.3979 35.0714 45.7598 34.6268 45.7598Z" fill="#DEC8A1"/>
<path d="M34.6266 46.0389C34.028 46.0389 33.543 45.5539 33.543 44.9552V41.0845C33.543 40.4858 34.028 40.0008 34.6266 40.0008C35.2252 40.0008 35.7103 40.4858 35.7103 41.0845V44.9552C35.7103 45.5539 35.2252 46.0389 34.6266 46.0389ZM34.6266 40.5571C34.3341 40.5571 34.0973 40.7938 34.0973 41.0845V44.9552C34.0973 45.2459 34.3341 45.4826 34.6266 45.4826C34.9192 45.4826 35.156 45.2459 35.156 44.9552V41.0845C35.156 40.7938 34.9192 40.5571 34.6266 40.5571Z" fill="#DEC8A1"/>
<path d="M46.918 20.6026C46.6389 20.6026 46.3675 20.4582 46.2193 20.2003C45.996 19.8154 46.1288 19.3207 46.5138 19.0993L49.8649 17.1649C50.2537 16.9397 50.7445 17.0744 50.9659 17.4594C51.1891 17.8444 51.0563 18.339 50.6714 18.5604L47.3203 20.4948C47.1932 20.568 47.0547 20.6026 46.918 20.6026Z" fill="#DEC8A1"/>
<path d="M46.9161 20.8798C46.5292 20.8798 46.1693 20.6719 45.9768 20.337C45.8325 20.0868 45.794 19.7942 45.869 19.517C45.9441 19.2379 46.1231 19.0031 46.3753 18.8568L49.7244 16.9205C49.9747 16.7742 50.2653 16.7338 50.5482 16.8107C50.8273 16.8858 51.0622 17.0648 51.2065 17.317C51.3509 17.5672 51.3894 17.8598 51.3162 18.1408C51.2412 18.4199 51.0622 18.6547 50.81 18.7991L47.4589 20.7335C47.2972 20.8297 47.1086 20.8798 46.9181 20.8798H46.9161ZM50.2672 17.3304C50.1748 17.3304 50.0844 17.3535 50.0016 17.4036L46.6505 19.3399C46.5273 19.4112 46.4407 19.5247 46.4022 19.6614C46.3656 19.7961 46.3849 19.9405 46.4561 20.0598C46.5966 20.3023 46.9392 20.3967 47.176 20.2523L50.529 18.3179C50.6522 18.2466 50.7388 18.1331 50.7754 17.9964C50.8119 17.8617 50.7927 17.7173 50.7215 17.5961C50.6503 17.4729 50.5367 17.3843 50.4 17.3478C50.3558 17.3343 50.3096 17.3304 50.2653 17.3304H50.2672Z" fill="#DEC8A1"/>
<path d="M18.9854 36.7287C18.7063 36.7287 18.4349 36.5843 18.2867 36.3264C18.0634 35.9415 18.1962 35.4468 18.5812 35.2254L21.9322 33.291C22.3211 33.0639 22.8138 33.2005 23.0332 33.5855C23.2565 33.9705 23.1237 34.4651 22.7387 34.6865L19.3877 36.6209C19.2606 36.6941 19.122 36.7287 18.9854 36.7287Z" fill="#DEC8A1"/>
<path d="M18.9854 37.0078C18.5966 37.0078 18.2367 36.798 18.0442 36.463C17.8999 36.2147 17.8614 35.9222 17.9364 35.645C18.0115 35.3659 18.1905 35.1311 18.4426 34.9848L21.7918 33.0504C22.042 32.9041 22.3365 32.8675 22.6137 32.9387C22.8947 33.0138 23.1276 33.1947 23.272 33.4488C23.4163 33.699 23.4548 33.9897 23.3798 34.2688C23.3047 34.5479 23.1257 34.7827 22.8735 34.927L19.5244 36.8634C19.355 36.9596 19.1702 37.0097 18.9835 37.0097L18.9854 37.0078ZM22.3365 33.4565C22.2441 33.4565 22.1537 33.4815 22.0709 33.5296L18.7198 35.4641C18.5966 35.5353 18.51 35.6488 18.4715 35.7855C18.4349 35.9202 18.4542 36.0646 18.5254 36.1839C18.6659 36.4322 18.9893 36.5285 19.2491 36.3764L22.5983 34.442C22.7215 34.3708 22.8081 34.2572 22.8447 34.1225C22.8812 33.9858 22.862 33.8434 22.7908 33.7221C22.7196 33.597 22.606 33.5085 22.4693 33.4719C22.4251 33.4603 22.3808 33.4546 22.3346 33.4546L22.3365 33.4565Z" fill="#DEC8A1"/>
<path d="M27.5316 15.4076C27.2525 15.4076 26.9811 15.2632 26.8329 15.0053L24.8985 11.6542C24.6752 11.2692 24.808 10.7746 25.193 10.5532C25.5818 10.3299 26.0745 10.4627 26.294 10.8477L28.2284 14.1988C28.4517 14.5838 28.3189 15.0784 27.9339 15.2998C27.8069 15.3729 27.6683 15.4076 27.5316 15.4076Z" fill="#DEC8A1"/>
<path d="M27.5317 15.6866C27.1448 15.6866 26.7829 15.4768 26.5905 15.1419L24.656 11.7927C24.5117 11.5425 24.4732 11.25 24.5482 10.9709C24.6233 10.6918 24.8023 10.4569 25.0545 10.3106C25.3066 10.1624 25.5992 10.1239 25.8802 10.2029C26.1593 10.2779 26.3922 10.4589 26.5346 10.711L28.4691 14.0602C28.7674 14.5779 28.5884 15.2439 28.0726 15.5423C27.9109 15.6385 27.7222 15.6886 27.5317 15.6886V15.6866ZM25.5953 10.7187C25.5049 10.7187 25.4125 10.7437 25.3297 10.7919C25.2084 10.8631 25.1199 10.9766 25.0833 11.1133C25.0468 11.25 25.066 11.3924 25.1372 11.5137L27.0736 14.8647C27.2141 15.113 27.5432 15.2016 27.7954 15.0591C28.0475 14.9129 28.1342 14.5895 27.9898 14.3373L26.0534 10.9863C25.9822 10.8611 25.8706 10.7745 25.7339 10.738C25.6897 10.7245 25.6415 10.7187 25.5953 10.7187Z" fill="#DEC8A1"/>
<path d="M43.6581 43.3403C43.379 43.3403 43.1076 43.1959 42.9594 42.938L41.025 39.5869C40.8017 39.202 40.9345 38.7073 41.3194 38.4859C41.7083 38.2627 42.201 38.3955 42.4204 38.7804L44.3549 42.1315C44.5781 42.5165 44.4453 43.0112 44.0604 43.2325C43.9333 43.3057 43.7947 43.3403 43.6581 43.3403Z" fill="#DEC8A1"/>
<path d="M43.6576 43.6194C43.2688 43.6194 42.9089 43.4096 42.7164 43.0747L40.7819 39.7255C40.6357 39.4753 40.5991 39.1828 40.6742 38.9017C40.7492 38.6207 40.9282 38.3878 41.1804 38.2434C41.4325 38.0952 41.7232 38.0567 42.0061 38.1357C42.2852 38.2107 42.5181 38.3897 42.6606 38.6419L44.595 41.993C44.8933 42.5088 44.7163 43.1748 44.1985 43.4751C44.0291 43.5713 43.8443 43.6214 43.6576 43.6214V43.6194ZM41.7232 38.6515C41.6308 38.6515 41.5403 38.6765 41.4576 38.7247C41.3363 38.7959 41.2478 38.9094 41.2112 39.0461C41.1746 39.1808 41.1939 39.3252 41.2651 39.4465L43.2014 42.7975C43.34 43.0401 43.6692 43.1402 43.9252 42.99C44.1754 42.8457 44.2639 42.5204 44.1157 42.2701L42.1813 38.9171C42.1101 38.7939 41.9984 38.7073 41.8637 38.6708C41.8175 38.6573 41.7713 38.6515 41.7251 38.6515H41.7232Z" fill="#DEC8A1"/>
<path d="M41.7217 15.4076C41.5851 15.4076 41.4465 15.3729 41.3194 15.2998C40.9345 15.0765 40.8017 14.5838 41.025 14.1988L42.9594 10.8477C43.1807 10.4627 43.6696 10.328 44.0604 10.5532C44.4453 10.7765 44.5781 11.2692 44.3549 11.6542L42.4204 15.0053C42.2722 15.2651 42.0008 15.4076 41.7217 15.4076Z" fill="#DEC8A1"/>
<path d="M41.7218 15.6866C41.5312 15.6866 41.3426 15.6366 41.179 15.5404C40.9288 15.396 40.7498 15.1631 40.6747 14.8821C40.5996 14.603 40.6381 14.3085 40.7825 14.0583L42.7188 10.7072C42.8613 10.457 43.0923 10.2779 43.3714 10.201C43.6485 10.1278 43.9449 10.1625 44.199 10.3087C44.4492 10.4531 44.6283 10.686 44.7033 10.967C44.7784 11.248 44.7399 11.5406 44.5955 11.7908L42.6611 15.1419C42.4705 15.4768 42.1087 15.6847 41.7218 15.6847V15.6866ZM43.6562 10.7187C43.61 10.7187 43.5638 10.7264 43.5176 10.738C43.3829 10.7745 43.2693 10.8612 43.2 10.9844L41.2637 14.3374C41.1925 14.4605 41.1752 14.603 41.2098 14.7377C41.2464 14.8744 41.3349 14.9879 41.4562 15.0592C41.6968 15.1977 42.0375 15.1073 42.178 14.8667L44.1143 11.5137C44.1855 11.3905 44.2029 11.248 44.1682 11.1133C44.1317 10.9767 44.045 10.8631 43.9219 10.7919C43.8391 10.7457 43.7467 10.7187 43.6562 10.7187Z" fill="#DEC8A1"/>
<path d="M25.5933 43.3404C25.4566 43.3404 25.3181 43.3057 25.191 43.2326C24.8061 43.0093 24.6733 42.5166 24.8965 42.1316L26.831 38.7805C27.0523 38.3955 27.5412 38.2608 27.932 38.486C28.3169 38.7093 28.4497 39.202 28.2264 39.587L26.292 42.9381C26.1438 43.1979 25.8724 43.3404 25.5933 43.3404Z" fill="#DEC8A1"/>
<path d="M25.5934 43.6195C25.4067 43.6195 25.2219 43.5694 25.0545 43.4751C24.5348 43.171 24.3577 42.5088 24.656 41.9911L26.5924 38.6381C26.7368 38.3878 26.9677 38.2088 27.2468 38.1338C27.524 38.0587 27.8204 38.0953 28.0707 38.2415C28.5884 38.5399 28.7655 39.2039 28.4672 39.7236L26.5308 43.0747C26.3403 43.4096 25.9784 43.6175 25.5915 43.6175L25.5934 43.6195ZM27.5279 38.6515C27.4817 38.6515 27.4355 38.6592 27.3912 38.6689C27.2565 38.7073 27.1429 38.794 27.0736 38.9152L25.1372 42.2702C24.991 42.5204 25.0776 42.8457 25.3317 42.992C25.5838 43.1383 25.9149 43.0382 26.0515 42.7995L27.9879 39.4465C28.1342 39.1943 28.0476 38.871 27.7954 38.7247C27.7126 38.6785 27.6202 38.6515 27.5298 38.6515H27.5279Z" fill="#DEC8A1"/>
<path d="M22.3345 20.6026C22.1979 20.6026 22.0593 20.568 21.9322 20.4948L18.5812 18.5604C18.1962 18.339 18.0634 17.8444 18.2867 17.4594C18.508 17.0744 18.9969 16.9378 19.3877 17.1649L22.7387 19.0993C23.1237 19.3207 23.2565 19.8154 23.0332 20.2003C22.885 20.4602 22.6136 20.6026 22.3345 20.6026Z" fill="#DEC8A1"/>
<path d="M22.3351 20.8798C22.1446 20.8798 21.9579 20.8297 21.7943 20.7335L18.4432 18.7991C18.1929 18.6547 18.0139 18.4218 17.9389 18.1408C17.8638 17.8598 17.9023 17.5672 18.0467 17.317C18.191 17.0667 18.422 16.8877 18.7011 16.8107C18.9821 16.7357 19.2747 16.7723 19.5268 16.9205L22.8779 18.8568C23.1281 19.0012 23.3071 19.2341 23.3822 19.5151C23.4554 19.7942 23.4169 20.0868 23.2725 20.337C23.0819 20.6719 22.7201 20.8798 22.3332 20.8798H22.3351ZM18.984 17.3304C18.9378 17.3304 18.8916 17.3362 18.8474 17.3478C18.7126 17.3843 18.5991 17.4729 18.5298 17.5941C18.4586 17.7193 18.4393 17.8617 18.4759 17.9964C18.5125 18.1331 18.601 18.2466 18.7223 18.3179L22.0733 20.2523C22.3178 20.3947 22.6546 20.3023 22.7951 20.0617C22.8664 19.9386 22.8837 19.7961 22.849 19.6595C22.8125 19.5247 22.7259 19.4092 22.6027 19.3399L19.2516 17.4036C19.1688 17.3555 19.0764 17.3304 18.986 17.3304H18.984Z" fill="#DEC8A1"/>
<path d="M50.2657 36.7287C50.129 36.7287 49.9904 36.6941 49.8634 36.6209L46.5123 34.6865C46.1274 34.4651 45.9945 33.9705 46.2178 33.5855C46.4392 33.2005 46.93 33.0639 47.3188 33.291L50.6699 35.2254C51.0549 35.4468 51.1877 35.9415 50.9644 36.3264C50.8162 36.5863 50.5448 36.7287 50.2657 36.7287Z" fill="#DEC8A1"/>
<path d="M50.2653 37.0077C50.0786 37.0077 49.8938 36.9577 49.7263 36.8634L46.3733 34.9251C46.1231 34.7807 45.9441 34.5459 45.869 34.2649C45.794 33.9858 45.8325 33.6932 45.9768 33.4449C46.1212 33.1947 46.3541 33.0138 46.6351 32.9368C46.9123 32.8636 47.2068 32.9021 47.4589 33.0484L50.81 34.9828C51.0602 35.1272 51.2392 35.3601 51.3143 35.6411C51.3875 35.9202 51.349 36.2128 51.2046 36.463C51.014 36.7979 50.6541 37.0058 50.2653 37.0058V37.0077ZM46.9123 33.4565C46.868 33.4565 46.8237 33.4642 46.7795 33.4738C46.6428 33.5104 46.5292 33.5989 46.46 33.7221C46.3887 33.8453 46.3695 33.9877 46.4061 34.1225C46.4426 34.2591 46.5312 34.3727 46.6524 34.4439L50.0035 36.3802C50.2537 36.5265 50.5867 36.4264 50.7234 36.1878C50.7946 36.0646 50.8139 35.9221 50.7773 35.7855C50.7407 35.6507 50.6541 35.5353 50.5309 35.466L47.1779 33.5315C47.0951 33.4834 47.0027 33.4584 46.9104 33.4584L46.9123 33.4565Z" fill="#DEC8A1"/>
<path d="M40.4952 35.439C40.3662 35.439 40.2373 35.4082 40.1199 35.3466L34.6265 32.4575L29.1331 35.3466C28.8617 35.489 28.5325 35.4659 28.2842 35.285C28.0359 35.1041 27.9108 34.798 27.9628 34.4958L29.0118 28.3788L24.5674 24.048C24.348 23.8344 24.2691 23.5129 24.3634 23.2223C24.4597 22.9297 24.7118 22.718 25.014 22.6737L31.1561 21.7806L33.9028 16.216C34.1741 15.6655 35.0769 15.6655 35.3483 16.216L38.095 21.7806L44.237 22.6737C44.5412 22.718 44.7933 22.9316 44.8876 23.2223C44.9819 23.5148 44.903 23.8344 44.6836 24.048L40.2392 28.3788L41.2882 34.4958C41.3402 34.798 41.2151 35.1041 40.9668 35.285C40.8263 35.387 40.6607 35.439 40.4933 35.439H40.4952ZM34.6265 30.7406C34.7554 30.7406 34.8844 30.7713 35.0018 30.8329L39.425 33.1581L38.58 28.2325C38.5358 27.9708 38.6224 27.7032 38.811 27.5184L42.3911 24.0326L37.4463 23.3147C37.1845 23.2762 36.9555 23.1106 36.84 22.8739L34.6284 18.3929L32.4168 22.8739C32.2994 23.1106 32.0723 23.2762 31.8086 23.3147L26.8637 24.0326L30.4439 27.5184C30.6344 27.7032 30.7191 27.9708 30.6749 28.2325L29.8299 33.1581L34.2531 30.8329C34.3705 30.7713 34.4994 30.7406 34.6284 30.7406H34.6265Z" fill="#DEC8A1"/>
<path d="M28.756 35.7162C28.5327 35.7162 28.3095 35.6469 28.1208 35.5083C27.784 35.2639 27.6204 34.8577 27.6897 34.4497L28.7156 28.4751L24.3751 24.2444C24.0807 23.9595 23.9729 23.5245 24.0999 23.1338C24.2308 22.7372 24.5657 22.4543 24.9757 22.3966L30.9715 21.5265L33.6546 16.0909C33.8279 15.7406 34.1994 15.5231 34.6247 15.5231C35.0501 15.5231 35.4235 15.7406 35.5968 16.0909L38.2799 21.5265L44.2776 22.3966C44.6876 22.4543 45.0225 22.7372 45.1534 23.1338C45.2785 23.5245 45.1707 23.9595 44.8782 24.2444L40.5377 28.4751L41.5617 34.4497C41.633 34.8577 41.4674 35.2639 41.1306 35.5083C40.8091 35.7451 40.3568 35.7855 39.9892 35.5911L34.6247 32.7712L29.2603 35.5911C29.1005 35.6739 28.9273 35.7162 28.7541 35.7162H28.756ZM34.6247 16.0774C34.4573 16.0774 34.2456 16.1448 34.1512 16.3353L31.341 22.0308L25.0546 22.9451C24.8544 22.974 24.6908 23.1107 24.6273 23.307C24.5657 23.4975 24.6177 23.7073 24.7601 23.8479L29.3103 28.2807L28.2363 34.544C28.2017 34.7423 28.2825 34.9405 28.448 35.0598C28.6116 35.1792 28.8253 35.1946 29.0043 35.1003L34.6267 32.1438L40.249 35.1003C40.4261 35.1907 40.6494 35.1734 40.8053 35.0598C40.9708 34.9405 41.0517 34.7423 41.017 34.544L39.9449 28.2807L44.4951 23.8479C44.6376 23.7093 44.6895 23.4956 44.6279 23.3051C44.5644 23.1126 44.4008 22.974 44.2026 22.9451L37.9142 22.0308L35.104 16.3353C35.0097 16.1448 34.796 16.0774 34.6286 16.0774H34.6247ZM39.7928 33.6644L34.873 31.0774C34.7229 30.9985 34.5304 30.9985 34.3784 31.0774L29.4586 33.6644L30.3998 28.1844C30.4287 28.0131 30.3728 27.838 30.2477 27.7167L26.2653 23.8363L31.7664 23.0375C31.9396 23.0125 32.0878 22.9028 32.1648 22.7469L34.6247 17.7635L37.0846 22.7469C37.1616 22.9028 37.3118 23.0125 37.485 23.0375L42.9842 23.8363L39.0017 27.7167C38.8786 27.838 38.8227 28.0131 38.8516 28.1844L39.7909 33.6644H39.7928ZM27.4587 24.2232L30.6346 27.3202C30.8906 27.5666 31.0061 27.9246 30.9464 28.2788L30.1958 32.6481L34.1204 30.5847C34.4303 30.423 34.8211 30.423 35.129 30.5847L39.0537 32.6481L38.303 28.2788C38.2434 27.9246 38.3608 27.5666 38.6149 27.3202L41.7908 24.2232L37.4022 23.588C37.0481 23.5341 36.742 23.3108 36.5861 22.9932L34.6247 19.0166L32.6614 22.9932C32.5055 23.3108 32.1995 23.5341 31.8472 23.588L27.4568 24.2232H27.4587Z" fill="#DEC8A1"/>
</svg>
