<svg width="59" height="59" viewBox="0 0 59 59" fill="none" xmlns="http://www.w3.org/2000/svg">
<path d="M5.32316 30.1893H0.926694C0.547631 30.1893 0.239746 29.8814 0.239746 29.5024C0.239746 29.1233 0.547631 28.8154 0.926694 28.8154H5.32316C5.70223 28.8154 6.01011 29.1233 6.01011 29.5024C6.01011 29.8814 5.70223 30.1893 5.32316 30.1893Z" fill="#DEC8A1"/>
<path d="M5.32178 30.4277H0.926966C0.41548 30.4277 0 30.0122 0 29.5024C0 28.9926 0.41548 28.5754 0.926966 28.5754H5.32343C5.83327 28.5754 6.24875 28.9909 6.24875 29.5024C6.24875 30.0139 5.83327 30.4277 5.32343 30.4277H5.32178ZM0.925311 29.0538C0.678672 29.0538 0.476726 29.2541 0.476726 29.5007C0.476726 29.7474 0.677016 29.946 0.925311 29.946H5.32178C5.56842 29.946 5.76871 29.7457 5.76871 29.5007C5.76871 29.2558 5.56842 29.0538 5.32178 29.0538H0.926966H0.925311Z" fill="#DEC8A1"/>
<path d="M58.0761 30.1893H53.6796C53.3006 30.1893 52.9927 29.8814 52.9927 29.5024C52.9927 29.1233 53.3006 28.8154 53.6796 28.8154H58.0761C58.4552 28.8154 58.763 29.1233 58.763 29.5024C58.763 29.8814 58.4552 30.1893 58.0761 30.1893Z" fill="#DEC8A1"/>
<path d="M58.0762 30.4277H53.6797C53.1699 30.4277 52.7544 30.0122 52.7544 29.5024C52.7544 28.9926 53.1699 28.5754 53.6797 28.5754H58.0762C58.586 28.5754 59.0015 28.9909 59.0015 29.5024C59.0015 30.0139 58.586 30.4277 58.0762 30.4277ZM53.6797 29.0538C53.4331 29.0538 53.2328 29.2541 53.2328 29.5007C53.2328 29.7474 53.4331 29.946 53.6797 29.946H58.0762C58.3228 29.946 58.5231 29.7457 58.5231 29.5007C58.5231 29.2558 58.3228 29.0538 58.0762 29.0538H53.6797Z" fill="#DEC8A1"/>
<path d="M29.5009 58.763C29.1218 58.763 28.814 58.4552 28.814 58.0761V53.6796C28.814 53.3006 29.1218 52.9927 29.5009 52.9927C29.88 52.9927 30.1879 53.3006 30.1879 53.6796V58.0761C30.1879 58.4552 29.88 58.763 29.5009 58.763Z" fill="#DEC8A1"/>
<path d="M29.5005 59.0031C28.9907 59.0031 28.5752 58.5877 28.5752 58.0762V53.6814C28.5752 53.1699 28.9907 52.7544 29.5005 52.7544C30.0103 52.7544 30.4275 53.1699 30.4275 53.6814V58.0762C30.4275 58.5877 30.012 59.0031 29.5005 59.0031ZM29.5005 53.2328C29.2539 53.2328 29.0536 53.4331 29.0536 53.6797V58.0745C29.0536 58.3212 29.2539 58.5214 29.5005 58.5214C29.7471 58.5214 29.9491 58.3212 29.9491 58.0745V53.6797C29.9491 53.4331 29.7488 53.2328 29.5005 53.2328Z" fill="#DEC8A1"/>
<path d="M29.5009 6.01036C29.1218 6.01036 28.814 5.70247 28.814 5.32341V0.926938C28.814 0.547875 29.1218 0.23999 29.5009 0.23999C29.88 0.23999 30.1879 0.547875 30.1879 0.926938V5.32341C30.1879 5.70247 29.88 6.01036 29.5009 6.01036Z" fill="#DEC8A1"/>
<path d="M29.5005 6.2504C28.9907 6.2504 28.5752 5.83492 28.5752 5.32509V0.926966C28.5752 0.41548 28.9907 0 29.5005 0C30.0103 0 30.4275 0.41548 30.4275 0.926966V5.32343C30.4275 5.83327 30.012 6.24875 29.5005 6.24875V6.2504ZM29.5005 0.480036C29.2539 0.480036 29.0536 0.680327 29.0536 0.926966V5.32343C29.0536 5.57007 29.2539 5.76871 29.5005 5.76871C29.7471 5.76871 29.9491 5.56842 29.9491 5.32343V0.926966C29.9491 0.680327 29.7488 0.480036 29.5005 0.480036Z" fill="#DEC8A1"/>
<path d="M9.29591 50.3938C9.12045 50.3938 8.94333 50.3276 8.80925 50.1935C8.54275 49.9254 8.54275 49.49 8.80925 49.2219L11.9179 46.1132C12.1861 45.8451 12.6214 45.8451 12.8896 46.1132C13.1561 46.3814 13.1561 46.8167 12.8896 47.0849L9.78091 50.1935C9.64683 50.3276 9.47137 50.3938 9.29425 50.3938H9.29591Z" fill="#DEC8A1"/>
<path d="M9.29648 50.634C9.04653 50.634 8.81479 50.538 8.64098 50.3608C8.28178 50 8.28178 49.414 8.64098 49.0532L11.7496 45.9429C12.0989 45.5936 12.7114 45.5936 13.0606 45.9429C13.4215 46.3054 13.4215 46.893 13.0606 47.2539L9.95198 50.3625C9.77983 50.5363 9.54643 50.634 9.29648 50.634ZM12.4051 46.1498C12.2909 46.1498 12.175 46.1928 12.0873 46.2822L8.98032 49.3908C8.80651 49.5647 8.80651 49.8494 8.98032 50.0232C9.1475 50.192 9.44546 50.192 9.61264 50.0232L12.7213 46.9145C12.8951 46.7407 12.8951 46.456 12.7213 46.2805C12.6336 46.1928 12.5193 46.1498 12.4051 46.1498Z" fill="#DEC8A1"/>
<path d="M46.5982 13.0916C46.4227 13.0916 46.2456 13.0254 46.1115 12.8913C45.845 12.6231 45.845 12.1878 46.1115 11.9196L49.2201 8.81098C49.4883 8.54282 49.9236 8.54282 50.1918 8.81098C50.4583 9.07914 50.4583 9.51448 50.1918 9.78264L47.0832 12.8913C46.9491 13.0254 46.7736 13.0916 46.5965 13.0916H46.5982Z" fill="#DEC8A1"/>
<path d="M46.5983 13.3317C46.3517 13.3317 46.1183 13.2357 45.9445 13.0603C45.5836 12.6994 45.5836 12.1101 45.9445 11.7493L49.0531 8.64061C49.4024 8.29135 50.0148 8.29135 50.3641 8.64061C50.725 9.00147 50.725 9.59075 50.3641 9.95161L47.2555 13.0603C47.0817 13.2341 46.8483 13.3317 46.6 13.3317H46.5983ZM49.707 8.84752C49.5927 8.84752 49.4769 8.89222 49.3891 8.97995L46.2822 12.0869C46.1083 12.2607 46.1083 12.5455 46.2822 12.7209C46.451 12.8898 46.7456 12.8898 46.9145 12.7209L50.0231 9.61393C50.1969 9.44012 50.1969 9.15541 50.0231 8.97995C49.937 8.89222 49.8212 8.84918 49.707 8.84918V8.84752Z" fill="#DEC8A1"/>
<path d="M49.7068 50.3938C49.5313 50.3938 49.3542 50.3276 49.2201 50.1935L46.1115 47.0849C45.845 46.8167 45.845 46.3814 46.1115 46.1132C46.3797 45.8451 46.815 45.8451 47.0832 46.1132L50.1918 49.2219C50.4583 49.49 50.4583 49.9254 50.1918 50.1935C50.0577 50.3276 49.8823 50.3938 49.7051 50.3938H49.7068Z" fill="#DEC8A1"/>
<path d="M49.7072 50.6339C49.4572 50.6339 49.2238 50.5379 49.0517 50.3607L45.9447 47.2538C45.5855 46.8929 45.5855 46.3053 45.9447 45.9428C46.3055 45.5819 46.8948 45.5819 47.2557 45.9428L50.3643 49.0514C50.7252 49.4123 50.7252 49.9999 50.3643 50.3607C50.1905 50.5362 49.9588 50.6339 49.7088 50.6339H49.7072ZM46.5985 46.1513C46.4827 46.1513 46.3684 46.1944 46.2807 46.2821C46.1069 46.4559 46.1069 46.7423 46.2807 46.9161L49.3877 50.0231C49.5565 50.1952 49.8545 50.1936 50.0217 50.0231C50.1955 49.8493 50.1955 49.5629 50.0217 49.3891L46.9147 46.2804C46.827 46.1927 46.7128 46.1497 46.5985 46.1497V46.1513Z" fill="#DEC8A1"/>
<path d="M12.4046 13.0916C12.2291 13.0916 12.052 13.0254 11.9179 12.8913L8.80925 9.78264C8.54275 9.51448 8.54275 9.07914 8.80925 8.81098C9.07741 8.54282 9.51275 8.54282 9.78091 8.81098L12.8896 11.9196C13.1561 12.1878 13.1561 12.6231 12.8896 12.8913C12.7555 13.0254 12.58 13.0916 12.4029 13.0916H12.4046Z" fill="#DEC8A1"/>
<path d="M12.4049 13.3317C12.1566 13.3317 11.9249 13.2357 11.7494 13.0602L8.64076 9.95321C8.2799 9.59235 8.2799 9.00307 8.64076 8.64221C8.99168 8.29129 9.60249 8.29294 9.95175 8.64221L13.0604 11.7509C13.4213 12.1117 13.4213 12.701 13.0604 13.0619C12.8849 13.2373 12.6515 13.335 12.4049 13.335V13.3317ZM9.29626 8.84912C9.18204 8.84912 9.06782 8.89216 8.98009 8.97989C8.80629 9.1537 8.80629 9.43841 8.98009 9.61387L12.0871 12.7209C12.2576 12.893 12.5522 12.893 12.7211 12.7209C12.8949 12.5471 12.8949 12.2623 12.7211 12.0869L9.61407 8.97989C9.52634 8.89216 9.41213 8.84912 9.29626 8.84912Z" fill="#DEC8A1"/>
<path d="M3.1019 41.1244C2.83208 41.1244 2.57717 40.9638 2.46792 40.7006C2.32225 40.3497 2.48778 39.9475 2.8387 39.8035L6.89915 38.12C7.24676 37.9743 7.65231 38.1399 7.79632 38.4908C7.94198 38.8417 7.77645 39.244 7.42553 39.388L3.36509 41.0714C3.27901 41.1062 3.18963 41.1244 3.1019 41.1244Z" fill="#DEC8A1"/>
<path d="M3.10198 41.3643C2.72623 41.3643 2.3902 41.1392 2.24619 40.7916C2.15184 40.5632 2.15018 40.3099 2.24619 40.0831C2.34054 39.8547 2.51931 39.6759 2.74775 39.5816L6.80819 37.8981C7.03662 37.8054 7.28822 37.8054 7.51831 37.8981C7.74674 37.9925 7.92551 38.1729 8.01987 38.4013C8.11422 38.6281 8.11422 38.8797 8.01987 39.1082C7.92551 39.3349 7.74674 39.5137 7.51666 39.6081L3.45621 41.2915C3.34365 41.3378 3.22447 41.3627 3.10198 41.3627V41.3643ZM7.16242 38.307C7.10449 38.307 7.04655 38.3186 6.99193 38.3418L2.93148 40.0252C2.82058 40.0699 2.7345 40.156 2.68981 40.2669C2.64346 40.3778 2.64346 40.4986 2.68981 40.6095C2.78251 40.8313 3.05067 40.9472 3.27247 40.8512L7.33457 39.1677C7.44548 39.1231 7.53321 39.037 7.5779 38.9261C7.62259 38.8168 7.62259 38.696 7.5779 38.5851C7.53321 38.4742 7.44548 38.3864 7.33623 38.3418C7.2816 38.3186 7.22201 38.307 7.16408 38.307H7.16242Z" fill="#DEC8A1"/>
<path d="M51.8387 20.9364C51.5689 20.9364 51.314 20.7758 51.2047 20.5126C51.0591 20.1617 51.2246 19.7595 51.5755 19.6155L55.6376 17.932C55.9836 17.7864 56.3891 17.9519 56.5348 18.3028C56.6805 18.6537 56.5149 19.056 56.164 19.2L52.1036 20.8834C52.0175 20.9182 51.9281 20.9364 51.8404 20.9364H51.8387Z" fill="#DEC8A1"/>
<path d="M51.8388 21.1763C51.463 21.1763 51.127 20.9512 50.983 20.6036C50.8887 20.3768 50.887 20.1236 50.983 19.8951C51.0774 19.6667 51.2561 19.4879 51.4846 19.3936L55.545 17.7101C55.7718 17.6175 56.0234 17.6175 56.2518 17.7101C56.4819 17.8045 56.6607 17.9833 56.755 18.2134C56.8494 18.4401 56.8494 18.6917 56.755 18.9202C56.6607 19.1469 56.4819 19.3257 56.2518 19.4201L52.1914 21.1035C52.0788 21.1499 51.9596 21.1747 51.8371 21.1747L51.8388 21.1763ZM55.8976 18.119C55.8413 18.119 55.7834 18.1306 55.7287 18.1538L51.6666 19.8372C51.5557 19.8819 51.4697 19.968 51.4233 20.0789C51.3786 20.1898 51.3786 20.3106 51.4233 20.4215C51.516 20.645 51.7825 20.7592 52.0076 20.6632L56.0697 18.9798C56.1806 18.9351 56.2684 18.849 56.3131 18.7381C56.3578 18.6288 56.3578 18.508 56.3131 18.3971C56.2684 18.2862 56.1806 18.1985 56.0697 18.1538C56.0151 18.1306 55.9572 18.119 55.8976 18.119Z" fill="#DEC8A1"/>
<path d="M40.4372 56.5879C40.1674 56.5879 39.9125 56.4273 39.8032 56.1641L38.1198 52.1037C37.9741 51.7527 38.1396 51.3505 38.4906 51.2065C38.8382 51.0625 39.2437 51.228 39.3877 51.5773L41.0712 55.6394C41.2168 55.9903 41.0513 56.3909 40.7004 56.5366C40.6143 56.5713 40.5249 56.5895 40.4372 56.5895V56.5879Z" fill="#DEC8A1"/>
<path d="M40.4371 56.8279C40.0614 56.8279 39.7254 56.6012 39.5813 56.2535L37.8979 52.1948C37.8036 51.9663 37.8036 51.7131 37.8979 51.4846C37.9923 51.2579 38.171 51.0791 38.3995 50.9847C38.8712 50.7894 39.4125 51.0145 39.6095 51.4846L41.2929 55.5467C41.3873 55.7752 41.3873 56.0284 41.2929 56.2569C41.1986 56.4836 41.0198 56.6624 40.7914 56.7568C40.6755 56.8031 40.5563 56.8263 40.4371 56.8263V56.8279ZM38.7537 51.3936C38.6974 51.3936 38.6395 51.4052 38.5832 51.4284C38.4723 51.4731 38.3862 51.5591 38.3415 51.67C38.2968 51.7809 38.2968 51.9018 38.3415 52.0127L40.025 56.0731C40.1177 56.2966 40.3792 56.4125 40.6109 56.3148C40.7185 56.2718 40.8046 56.1857 40.851 56.0748C40.8957 55.9639 40.8957 55.843 40.851 55.7321L39.1675 51.67C39.0963 51.4979 38.9292 51.3936 38.7537 51.3936Z" fill="#DEC8A1"/>
<path d="M20.2492 7.85126C19.9794 7.85126 19.7245 7.69069 19.6152 7.4275L17.9318 3.36706C17.7861 3.01614 17.9516 2.6139 18.3026 2.46989C18.6485 2.32422 19.0557 2.49141 19.1997 2.84067L20.8832 6.90112C21.0288 7.25204 20.8633 7.65428 20.5124 7.79829C20.4263 7.83305 20.3369 7.85126 20.2492 7.85126Z" fill="#DEC8A1"/>
<path d="M20.2476 8.09121C19.8719 8.09121 19.5359 7.86609 19.3918 7.51848L17.7101 3.45803C17.6157 3.2296 17.6141 2.97634 17.7101 2.74957C17.8044 2.52113 17.9832 2.34236 18.2116 2.24801C18.4351 2.15366 18.6867 2.15366 18.9168 2.24801C19.1469 2.34236 19.3273 2.52113 19.4233 2.74957L21.1051 6.81166C21.1994 7.04009 21.1994 7.29335 21.1051 7.52179C21.0107 7.74856 20.8336 7.92733 20.6035 8.02169C20.486 8.06803 20.3685 8.09121 20.2493 8.09121H20.2476ZM18.5642 2.65687C18.5063 2.65687 18.45 2.66846 18.3954 2.68997C18.2828 2.73632 18.1967 2.8224 18.1504 2.9333C18.1057 3.04421 18.1057 3.16504 18.1504 3.27595L19.8321 7.33639C19.9248 7.55986 20.1814 7.67407 20.4198 7.57807C20.5274 7.53503 20.6118 7.44895 20.6581 7.33805C20.7045 7.22714 20.7028 7.10631 20.6581 6.9954L18.9764 2.9333C18.93 2.8224 18.8439 2.73632 18.7314 2.68997C18.6768 2.66846 18.6188 2.65687 18.5609 2.65687H18.5642Z" fill="#DEC8A1"/>
<path d="M18.5655 56.5881C18.4778 56.5881 18.3884 56.5715 18.3023 56.5351C17.9514 56.3894 17.7842 55.9888 17.9315 55.6379L19.6149 51.5758C19.7606 51.2266 20.1628 51.061 20.5121 51.205C20.863 51.3507 21.0302 51.7513 20.8829 52.1022L19.1995 56.1627C19.0902 56.4258 18.8353 56.5864 18.5655 56.5864V56.5881Z" fill="#DEC8A1"/>
<path d="M18.5659 56.828C18.4451 56.828 18.3275 56.8048 18.2133 56.7601C17.9816 56.6641 17.8028 56.4853 17.7085 56.2569C17.6141 56.0285 17.6141 55.7752 17.7085 55.5484L19.3902 51.4864C19.5856 51.0162 20.1268 50.7911 20.6003 50.9864C20.8287 51.0808 21.0075 51.2596 21.1018 51.4864C21.1962 51.7148 21.1962 51.968 21.1018 52.1965L19.42 56.2569C19.276 56.6045 18.94 56.8296 18.5642 56.8296L18.5659 56.828ZM20.2493 51.3937C20.0739 51.3937 19.905 51.4979 19.8355 51.6701L18.1537 55.7322C18.1074 55.8431 18.1074 55.9639 18.1537 56.0748C18.2001 56.1857 18.2862 56.2718 18.3954 56.3165C18.6156 56.4075 18.8887 56.2966 18.9814 56.0732L20.6632 52.0127C20.7095 51.9018 20.7095 51.781 20.6632 51.6701C20.6185 51.5592 20.5307 51.4731 20.4215 51.4284C20.3652 51.4052 20.3073 51.3937 20.251 51.3937H20.2493Z" fill="#DEC8A1"/>
<path d="M38.754 7.85098C38.6662 7.85098 38.5768 7.83442 38.4908 7.79801C38.1398 7.65234 37.9727 7.25176 38.12 6.90083L39.8034 2.84039C39.9491 2.49112 40.3513 2.32228 40.7006 2.46961C41.0515 2.61527 41.2187 3.01585 41.0714 3.36678L39.3879 7.42722C39.2787 7.69041 39.0238 7.85098 38.754 7.85098Z" fill="#DEC8A1"/>
<path d="M38.7537 8.09108C38.6345 8.09108 38.5153 8.0679 38.4028 8.02321C38.171 7.9272 37.9923 7.74843 37.8979 7.52C37.8036 7.29157 37.8036 7.03996 37.8979 6.81153L39.5813 2.74943C39.6757 2.521 39.8561 2.34223 40.0862 2.24788C40.313 2.15353 40.5646 2.15518 40.793 2.24788C41.0198 2.34223 41.1986 2.521 41.2929 2.74778C41.3873 2.97455 41.3873 3.22781 41.2929 3.4579L39.6095 7.51834C39.4655 7.86596 39.1295 8.09108 38.7537 8.09108ZM40.4371 2.65674C40.3809 2.65674 40.3229 2.66832 40.2683 2.68984C40.1574 2.73619 40.0697 2.82227 40.025 2.93317L38.3415 6.99527C38.2952 7.10617 38.2952 7.22701 38.3415 7.33792C38.3879 7.44882 38.474 7.5349 38.5832 7.57959C38.8083 7.66898 39.0765 7.55973 39.1675 7.33792L40.851 3.27582C40.8973 3.16491 40.8973 3.04242 40.851 2.93317C40.8046 2.82227 40.7185 2.73619 40.6093 2.6915C40.5547 2.66832 40.4951 2.65674 40.4371 2.65674Z" fill="#DEC8A1"/>
<path d="M55.901 41.1244C55.8133 41.1244 55.7239 41.1078 55.6378 41.0714L51.5757 39.388C51.2248 39.2423 51.0576 38.8417 51.2049 38.4908C51.3506 38.1399 51.7528 37.9743 52.1021 38.12L56.1626 39.8035C56.5135 39.9491 56.6807 40.3497 56.5333 40.7006C56.4241 40.9638 56.1692 41.1244 55.8994 41.1244H55.901Z" fill="#DEC8A1"/>
<path d="M55.9009 41.3644C55.7784 41.3644 55.6592 41.3396 55.545 41.2932L51.4846 39.6098C51.2562 39.5154 51.0774 39.3366 50.983 39.1082C50.8887 38.8814 50.8903 38.6282 50.9847 38.4014C51.0774 38.1746 51.2562 37.9942 51.4846 37.8998C51.713 37.8071 51.9646 37.8071 52.1947 37.8998L56.2551 39.5833C56.4836 39.6776 56.6624 39.8564 56.7567 40.0832C56.8511 40.31 56.8511 40.5632 56.7567 40.7933C56.611 41.1409 56.2767 41.366 55.9009 41.366V41.3644ZM51.8405 38.307C51.7825 38.307 51.7246 38.3186 51.6683 38.3418C51.5591 38.3865 51.4713 38.4742 51.4266 38.5835C51.3803 38.696 51.3803 38.8152 51.4266 38.9261C51.473 39.037 51.5591 39.1231 51.6683 39.1678L55.7304 40.8512C55.9555 40.9439 56.222 40.833 56.3147 40.6096C56.3611 40.4987 56.3611 40.3762 56.3147 40.2669C56.2684 40.156 56.1823 40.0699 56.0731 40.0252L52.011 38.3418C51.9563 38.3186 51.8984 38.307 51.8405 38.307Z" fill="#DEC8A1"/>
<path d="M7.16255 20.9361C7.07481 20.9361 6.98543 20.9196 6.89935 20.8832L2.83891 19.1997C2.48799 19.0541 2.3208 18.6535 2.46812 18.3026C2.61379 17.9516 3.01603 17.7861 3.36529 17.9318L7.42574 19.6152C7.77666 19.7609 7.94384 20.1615 7.79652 20.5124C7.68727 20.7756 7.4307 20.9361 7.16255 20.9361Z" fill="#DEC8A1"/>
<path d="M7.16263 21.1761C7.0418 21.1761 6.92262 21.1513 6.80674 21.105L2.7463 19.4215C2.51787 19.3272 2.3391 19.1484 2.24475 18.92C2.15039 18.6932 2.15205 18.4399 2.2464 18.2132C2.3391 17.9864 2.51787 17.806 2.7463 17.7116C2.97473 17.6189 3.22634 17.6189 3.45642 17.7116L7.51687 19.395C7.7453 19.4894 7.92407 19.6682 8.01842 19.8949C8.11277 20.1234 8.11277 20.3766 8.01842 20.6051C7.87276 20.9527 7.53839 21.1778 7.16263 21.1778V21.1761ZM3.10219 18.1188C3.04425 18.1188 2.98632 18.1304 2.93004 18.1536C2.82079 18.1983 2.73306 18.286 2.68837 18.3952C2.64202 18.5078 2.64202 18.627 2.68837 18.7379C2.73471 18.8488 2.82079 18.9349 2.93004 18.9796L6.99214 20.663C7.21726 20.7574 7.48376 20.6431 7.57646 20.4213C7.62281 20.3104 7.62281 20.1896 7.57646 20.0787C7.53011 19.9678 7.44403 19.8817 7.33478 19.837L3.27269 18.1536C3.21806 18.1304 3.16013 18.1188 3.10219 18.1188Z" fill="#DEC8A1"/>
<path d="M29.5007 46.3614C29.3881 46.3614 29.2739 46.3333 29.1729 46.277C28.4843 45.9013 12.3286 36.9693 12.3286 26.4283C12.3286 21.2506 16.6109 17.0378 21.8747 17.0378C24.8741 17.0378 27.7096 18.4548 29.5007 20.7937C31.2934 18.4548 34.1289 17.0378 37.1266 17.0378C42.3905 17.0378 46.6727 21.2506 46.6727 26.4283C46.6727 36.9693 30.517 45.9013 29.8284 46.277C29.7258 46.3333 29.6132 46.3614 29.5007 46.3614ZM21.8747 18.4134C17.3673 18.4134 13.7025 22.0104 13.7025 26.43C13.7025 35.3736 27.2031 43.559 29.5007 44.8849C31.7982 43.559 45.2988 35.3736 45.2988 26.43C45.2988 22.0104 41.6323 18.4134 37.1266 18.4134C34.2547 18.4134 31.5582 19.9296 30.0899 22.3696C29.9658 22.5748 29.7423 22.7023 29.5023 22.7023C29.2606 22.7023 29.0372 22.5765 28.9147 22.3696C27.4464 19.9296 24.75 18.4134 21.878 18.4134H21.8747Z" fill="#DEC8A1"/>
<path d="M29.5007 46.5999C29.3435 46.5999 29.1912 46.5601 29.0571 46.4873C28.3652 46.1082 12.0903 37.1018 12.0903 26.4284C12.0903 21.1199 16.4802 16.7996 21.8764 16.7996C24.8229 16.7996 27.6518 18.1453 29.5024 20.4098C31.3563 18.1453 34.1836 16.7996 37.1284 16.7996C42.5246 16.7996 46.9145 21.1199 46.9145 26.4284C46.9145 37.0918 30.6396 46.1082 29.946 46.4873C29.8136 46.5601 29.6597 46.5999 29.5024 46.5999H29.5007ZM21.8748 17.2796C16.7434 17.2796 12.5671 21.3831 12.5671 26.4284C12.5671 36.8204 28.6036 45.6944 29.2856 46.0669C29.413 46.138 29.5868 46.138 29.7126 46.0669C30.3963 45.6944 46.4328 36.8104 46.4328 26.4284C46.4328 21.3831 42.2581 17.2796 37.125 17.2796C34.2266 17.2796 31.4457 18.6485 29.6894 20.9411L29.4991 21.1911L29.3087 20.9411C27.5541 18.6485 24.7749 17.2796 21.8731 17.2796H21.8748ZM29.5007 45.1598L29.3816 45.0919C26.7232 43.5574 13.4642 35.4448 13.4642 26.4301C13.4642 21.878 17.2383 18.1735 21.8764 18.1735C24.8328 18.1735 27.6087 19.7344 29.1184 22.2455C29.2806 22.5136 29.7259 22.5136 29.8848 22.2455C31.3961 19.7327 34.172 18.1735 37.1284 18.1735C41.7665 18.1735 45.5406 21.8764 45.5406 26.4301C45.5406 35.4481 32.2816 43.5591 29.6232 45.0919L29.5024 45.1598H29.5007ZM21.8748 18.6535C17.4998 18.6535 13.941 22.1412 13.941 26.4301C13.941 35.0575 26.6272 42.935 29.5007 44.6085C31.5815 43.3952 45.0605 35.18 45.0605 26.4301C45.0605 22.1429 41.5016 18.6535 37.1267 18.6535C34.3392 18.6535 31.7205 20.1251 30.2953 22.4921C30.1298 22.7702 29.8252 22.9424 29.5024 22.9424C29.1796 22.9424 28.875 22.7686 28.7095 22.4921C27.2843 20.1251 24.6673 18.6535 21.8781 18.6535H21.8748Z" fill="#DEC8A1"/>
</svg>
