<svg width="36" height="32" viewBox="0 0 36 32" fill="none" xmlns="http://www.w3.org/2000/svg">
<g clip-path="url(#clip0_286_2582)">
<path d="M4.7687 13.7446C5.34194 16.905 7.87326 18.4346 9.54033 20.8954C9.12795 20.7869 8.62783 20.7899 8.31489 20.5508C4.98805 18.0093 3.04021 14.6436 2.37192 10.4976C2.25054 9.7453 1.82646 9.0399 1.33365 8.39608C0.307087 14.3297 1.4755 19.4128 6.70192 22.9339C7.42871 23.4238 8.16719 23.9136 8.81647 24.4973C10.2949 25.826 10.9983 28.9952 10.2189 30.7433C10.1004 31.0102 9.7319 31.1657 9.13672 31.6525C9.27418 30.4793 9.35023 29.7783 9.43797 29.0802C9.69388 27.0417 8.68486 25.6793 7.16694 24.4797C5.60955 23.2478 4.06385 21.969 2.70241 20.5303C0.697533 18.414 -0.0453377 15.7567 0.0014573 12.8632C0.0219301 11.6386 -0.00585442 10.4126 0.0628758 9.19242C0.0994344 8.5442 -0.343656 7.57042 0.807209 7.4443C1.8718 7.32844 2.75359 7.72001 3.0446 8.86244C3.38094 10.1809 3.64708 11.5169 3.98927 13.0465C5.67682 12.3719 6.5045 13.5495 7.59249 14.4954C9.00365 15.7229 10.5786 16.8624 12.2661 17.6456C14.9232 18.8804 16.2817 20.7268 16.1998 23.6775C16.137 25.9272 16.194 28.1812 16.1457 30.4324C16.1384 30.7961 15.8635 31.1539 15.7129 31.5147C15.4906 31.1451 15.0885 30.7785 15.0797 30.4045C15.0431 28.891 15.1484 27.3761 15.163 25.8612C15.1733 24.7437 15.1996 23.6159 15.0826 22.5086C14.8984 20.7532 13.8879 19.5565 12.2778 18.8848C9.90884 17.8964 7.75481 16.6263 6.11698 14.5717C5.80697 14.1831 5.22349 14.0159 4.76578 13.7475L4.7687 13.7446Z" fill="#DEC8A1"/>
<path d="M32.1029 13.0257C32.2798 11.6076 32.4246 10.3537 32.5942 9.10273C32.739 8.03655 33.3546 7.31354 34.4324 7.447C34.934 7.5086 35.7134 8.10695 35.7719 8.54251C36.4534 13.5904 35.7193 18.2921 31.9961 22.1168C31.284 22.8472 30.5426 23.6098 29.6725 24.1128C27.302 25.484 26.4202 27.4844 26.7288 30.1403C26.7887 30.6565 26.6644 31.1933 26.6059 31.9999C24.9169 29.9159 25.8353 25.7348 27.9659 24.0659C29.2645 23.0481 30.642 22.0523 31.6832 20.797C34.8258 17.0059 35.7076 13.4364 34.2013 8.25213C33.963 8.86662 33.5184 9.4811 33.5213 10.0941C33.536 14.108 31.3834 17.1057 29.01 19.9962C28.7453 20.3189 28.1531 20.3731 27.7115 20.5506C27.9045 20.1165 28.039 19.6413 28.3037 19.2556C29.4385 17.5955 30.6113 15.9618 31.7695 14.3192C31.572 14.1227 31.3761 13.9247 31.1787 13.7282C30.3919 14.3178 29.4165 14.7695 28.8579 15.5277C27.6705 17.1394 26.1584 18.1014 24.31 18.7673C21.8504 19.653 20.3325 21.2897 20.5109 24.1597C20.6381 26.21 20.6001 28.2734 20.5884 30.331C20.5854 30.8252 20.3997 31.3194 20.2988 31.8136C20.1175 31.799 19.9362 31.7858 19.7548 31.7711C19.6949 30.8868 19.6174 30.0025 19.5808 29.1181C19.5106 27.4067 19.4375 25.6937 19.417 23.9808C19.3834 21.1871 20.6513 19.1222 23.2469 18.1645C25.3834 17.3755 27.1265 16.2477 28.4748 14.3926C29.282 13.2809 30.4563 12.6752 32.1029 13.0272V13.0257Z" fill="#DEC8A1"/>
<path d="M15.0665 15.7742C15.8576 13.3808 15.552 11.7398 13.5267 10.5827C15.6003 10.4067 16.8272 9.691 17.2293 7.87836C17.2542 7.76836 18.2223 7.7053 18.2471 7.78303C18.7736 9.43876 19.9771 10.1574 21.5944 10.3671C21.6836 10.3788 21.7743 10.4448 21.8445 10.5093C21.9118 10.5724 21.9527 10.6648 22.0551 10.8202C21.922 11.0241 21.8255 11.3555 21.612 11.4729C20.2476 12.2208 19.765 13.243 20.3485 14.7623C20.4158 14.9368 19.8762 15.3431 19.6188 15.6422C18.3319 14.4397 16.9018 14.7946 15.068 15.7757L15.0665 15.7742ZM15.9074 11.3394C16.1896 12.1519 16.4865 13.0039 16.7394 13.7328H18.8525C19.1596 12.7693 19.436 11.8982 19.67 11.1663C19.0397 10.6252 18.3758 10.0547 17.8771 9.62794C17.1796 10.2351 16.4718 10.8481 15.9074 11.3394Z" fill="#DEC8A1"/>
<path d="M22.9647 6.71374C22.7 6.27084 22.4046 5.9746 22.4646 5.84554C22.9135 4.88642 23.4107 3.94783 23.9532 3.03858C24.0483 2.87872 24.4314 2.89192 24.6815 2.82593C24.7253 3.07817 24.8891 3.39348 24.7955 3.56947C24.2574 4.57258 23.6564 5.54343 22.9647 6.71227V6.71374Z" fill="#DEC8A1"/>
<path d="M11.4004 2.0166C12.2691 3.46848 12.9374 4.58745 13.6598 5.79295C12.2939 5.80175 10.95 3.77206 11.4004 2.0166Z" fill="#DEC8A1"/>
<path d="M18.1609 0V4.8176C17.1548 3.04015 17.1563 0.912191 18.1609 0Z" fill="#DEC8A1"/>
<path d="M11.6125 10.4931C10.6707 10.1147 9.72022 9.75393 8.79601 9.33596C8.6878 9.28757 8.62492 8.87253 8.7112 8.73028C8.80625 8.57483 9.15575 8.40911 9.29175 8.4707C10.1735 8.87547 11.0276 9.34183 11.8918 9.78913C11.7982 10.0238 11.7046 10.257 11.611 10.4916L11.6125 10.4931Z" fill="#DEC8A1"/>
<path d="M24.4431 10.5079C24.6956 9.80397 25.6164 9.28432 27.2055 8.94897C27.2698 9.95502 27.0242 10.0987 24.4431 10.5079Z" fill="#DEC8A1"/>
</g>
<defs>
<clipPath id="clip0_286_2582">
<rect width="36" height="32" fill="white"/>
</clipPath>
</defs>
</svg>
