<svg width="34" height="28" viewBox="0 0 34 28" fill="none" xmlns="http://www.w3.org/2000/svg">
<g clip-path="url(#clip0_286_2576)">
<path d="M16.2207 3.17891C19.4123 0.469918 22.885 -0.426432 26.7401 0.416311C29.891 1.10447 32.7138 5.46778 32.4006 8.69289C32.3032 9.70144 32.7077 10.7786 32.9839 11.7958C33.1319 12.3419 33.5019 12.8268 33.7608 13.3429C34.2467 14.3103 33.9952 15.0995 33.0135 15.4548C32.133 15.7727 32.0257 16.2988 32.0134 17.1453C31.9973 18.2959 31.7458 19.4441 31.5731 20.5898C31.4017 21.7255 30.7382 22.2615 29.5987 22.1394C28.6257 22.0347 27.6552 21.9025 26.5835 21.7704C26.5502 23.6977 26.0384 25.7185 28.088 27.2108C27.9918 27.2719 27.8956 27.3317 27.8007 27.3928C26.6205 27.3928 25.4403 27.3704 24.2613 27.4015C23.6484 27.4177 23.038 27.5798 22.4275 27.5748C22.1821 27.5723 21.9392 27.3005 21.695 27.1509C21.8923 26.9814 22.0773 26.6822 22.2882 26.6623C23.4264 26.5563 24.5709 26.5189 25.6191 26.4628C25.6191 24.9331 25.6376 23.4135 25.6129 21.895C25.5969 20.9339 26.0618 20.6284 26.9325 20.7793C27.6613 20.9064 28.3852 21.0573 29.1165 21.1645C30.1623 21.3191 30.7752 20.9214 30.8307 19.7782C30.8541 19.2883 30.9886 18.8046 31.0884 18.2236C30.5273 18.0428 30.0106 17.8745 29.4927 17.7075C29.4705 17.5753 29.4483 17.442 29.4273 17.3098C29.9157 17.1615 30.4052 17.0131 31.0539 16.8161C31.0539 16.7762 31.0884 16.4646 31.0478 16.1641C30.9466 15.4249 31.1883 15.0147 31.9542 14.8227C32.9531 14.5721 33.2774 14.0423 32.5893 13.0387C31.6335 11.645 31.1316 10.0867 31.4708 8.35505C30.5754 8.17054 29.6863 7.98728 29.0006 7.84641C28.0634 8.61186 27.1767 9.4172 26.1962 10.0854C25.9274 10.2687 25.3836 10.043 24.889 9.99815C24.9939 9.71141 25.0074 9.53065 25.0765 9.50696C26.4984 9.00082 27.6058 8.20545 27.9857 6.60598C28.0066 6.51872 28.8119 6.51622 29.1955 6.64587C29.8528 6.86903 30.4632 7.22682 31.2229 7.5896C31.0231 4.07775 28.6232 1.38746 25.4045 1.11444C20.0511 0.660656 15.8594 3.11408 14.6927 8.44231C14.3252 10.1191 14.6261 12.0015 14.8826 13.7506C15.5264 18.1488 15.9543 22.5034 14.0737 26.8817C16.143 26.565 17.6463 25.4542 18.7451 23.8909C20.7035 21.1046 21.1351 18.0017 20.3088 14.6744C20.0967 13.8217 20.0375 12.8331 20.2484 11.9928C20.6443 10.4195 22.9023 9.97571 23.9431 11.2024C24.1577 11.4555 24.1331 11.9155 24.1676 12.0601C23.1637 11.8968 22.2623 11.4779 21.6666 11.7485C21.2572 11.9342 21.1117 13.0811 21.1314 13.7905C21.1758 15.375 22.3733 15.5196 23.736 15.4012C23.403 16.7812 22.4892 16.2963 21.764 16.3187C21.568 17.8097 21.4409 19.3431 21.1524 20.8441C20.3742 24.8883 16.9804 27.8154 12.9292 27.9949C12.6443 28.0074 12.3508 27.8453 12.061 27.7656C12.2719 27.5449 12.5025 27.3392 12.69 27.0998C12.9342 26.7882 13.2178 26.479 13.3596 26.1187C14.7371 22.6081 14.652 19.0015 14.1661 15.3251C13.8652 13.0437 13.7604 10.7175 13.8073 8.41613C13.8282 7.39512 14.3511 6.34294 14.8074 5.38301C15.6324 3.6489 15.3932 2.70518 13.6137 1.8749C11.6701 0.968582 9.65131 0.660657 7.4981 1.08452C5.52494 1.47223 4.13016 2.53065 3.18305 4.25977C3.00423 4.58639 2.93887 4.9766 2.76375 5.51515C3.94641 5.18479 4.71718 3.59779 5.77529 4.68238C6.46219 5.3855 6.66937 6.56858 7.0862 7.52602C7.92973 7.29663 8.70173 7.04107 9.49222 6.90144C9.7179 6.86155 10.0028 7.15701 10.2593 7.29788C10.0361 7.4936 9.82396 7.70678 9.58225 7.87633C9.49716 7.93617 9.34054 7.88381 9.21721 7.89877C8.31943 8.00848 7.20829 8.49841 6.58305 8.13439C5.91341 7.74418 5.70622 6.54864 5.28939 5.70963C5.2376 5.60491 5.13647 5.52513 5.06371 5.43911C2.81431 6.42023 2.60713 6.9164 2.59233 9.24018C2.58493 10.3859 2.13974 11.5403 1.8117 12.666C1.64398 13.242 1.29375 13.7643 0.950911 14.4637C1.86103 14.7305 2.6207 14.9524 3.39763 15.1805C2.65153 16.5805 2.65523 16.5693 4.02657 17.038C4.33735 17.1453 4.61482 17.3547 4.90709 17.5168C4.88366 17.6402 4.86023 17.7648 4.8368 17.8883C4.32131 17.9182 3.80583 17.9493 3.28294 17.9793C2.83034 20.2819 3.87735 21.4225 6.06633 20.9862C6.30804 20.9376 6.55592 20.9314 6.79886 20.889C7.94823 20.6858 8.37739 21.0922 8.36012 22.3388C8.32189 25.1675 8.06908 26.2085 6.52878 27.5773C6.52878 27.0225 6.43136 26.6623 6.54482 26.3905C7.42657 24.2699 7.4463 24.2275 7.23049 21.7803C6.80503 21.8626 6.3845 21.9299 5.97013 22.0259C4.03521 22.4735 2.79088 21.7267 2.42091 19.8094C2.1644 18.4754 2.00285 17.1228 1.79814 15.7789C-0.228052 15.0721 -0.446333 14.6569 0.684534 12.777C1.58602 11.2797 1.77717 9.80491 1.69208 8.0546C1.42324 2.61168 4.51863 -0.392772 10.2507 0.0410662C10.7834 0.0809593 11.3223 0.119606 11.8403 0.240532C13.6383 0.65941 15.3377 1.2603 16.2207 3.17766V3.17891Z" fill="#DEC8A1"/>
</g>
<defs>
<clipPath id="clip0_286_2576">
<rect width="34" height="28" fill="white"/>
</clipPath>
</defs>
</svg>
