<svg width="113" height="77" viewBox="0 0 113 77" fill="none" xmlns="http://www.w3.org/2000/svg">
<g filter="url(#filter0_d_286_2751)">
<path d="M19.9705 34.5709V35.219H13.1813C13.171 35.219 13.1659 35.2138 13.1659 35.2035V34.5863C13.1659 34.5658 13.171 34.5606 13.1813 34.5709H13.4128C14.2563 34.5401 15.0689 34.2469 15.8507 33.6914C16.6428 33.1257 17.224 32.4262 17.5943 31.5929L23.7971 16.4871C23.9514 16.0962 24.0285 15.731 24.0285 15.3916C24.0285 14.9184 23.8794 14.5172 23.5811 14.1881C23.0667 13.828 22.5678 13.648 22.0844 13.648H21.8684V13H26.6207L26.6362 13.0154L34.7369 32.7348C34.9632 33.2594 35.3232 33.6966 35.817 34.0463C36.3107 34.396 36.8096 34.5709 37.3136 34.5709L37.5297 34.5555V35.219H30.7405C30.7405 35.219 30.7354 35.2138 30.7251 35.2035V34.5863C30.7251 34.5658 30.7302 34.5606 30.7405 34.5709H30.9565C31.3577 34.5709 31.6457 34.4372 31.8206 34.1697C31.9235 34.0154 31.9749 33.8251 31.9749 33.5988C31.9749 33.3828 31.9235 33.1462 31.8206 32.8891L31.8052 32.8736L29.1204 26.3468C28.5032 26.2439 27.8757 26.1925 27.2379 26.1925C25.3144 26.1925 23.5553 26.6502 21.9609 27.5658C20.3665 28.4813 19.1733 29.7259 18.3812 31.2998C18.3812 31.3101 18.3503 31.3872 18.2886 31.5312C18.2372 31.6752 18.2115 31.7472 18.2115 31.7472C18.0469 32.169 17.9646 32.5547 17.9646 32.9045C17.9646 33.4908 18.1806 33.9434 18.6126 34.2623L18.6281 34.2777C18.9264 34.4732 19.2916 34.5709 19.7236 34.5709H19.9705ZM24.368 16.7648L19.3996 28.8156C19.3996 28.8259 19.4047 28.831 19.415 28.831C20.7831 27.36 22.5113 26.3674 24.5994 25.853C24.6817 25.8325 24.7743 25.8119 24.8772 25.7913C25.5767 25.637 26.2916 25.5547 27.0219 25.5444H28.5341C28.6472 25.5239 28.7038 25.4673 28.7038 25.3747V25.3284L24.8309 15.9008C24.8206 15.8905 24.8155 15.8853 24.8155 15.8853C24.6509 16.1322 24.5171 16.3842 24.4143 16.6414L24.368 16.7648ZM50.6142 28.5378C50.7273 28.7539 50.8199 28.9699 50.8919 29.1859C51.0257 29.5974 51.0925 30.014 51.0925 30.4357C51.0925 30.7957 51.0462 31.1506 50.9537 31.5004C50.5319 32.7759 49.6627 33.7531 48.346 34.432C47.0396 35.1007 45.7281 35.435 44.4114 35.435C42.889 35.435 41.4591 35.0184 40.1219 34.1852C40.0293 34.1234 39.9264 34.0926 39.8133 34.0926C39.6899 34.0926 39.5716 34.1337 39.4584 34.216C39.3452 34.2983 39.2681 34.4218 39.227 34.5863C39.2167 34.6789 39.2115 34.7715 39.2115 34.8641L39.227 35.0801H38.5635V28.1675H39.227L39.2115 28.3835C39.2115 28.7024 39.299 29.011 39.4738 29.3093C39.4944 29.3402 39.5098 29.3608 39.5201 29.371C39.911 29.9574 40.3533 30.5026 40.8471 31.0066C40.95 31.0992 41.0477 31.1918 41.1403 31.2844C42.5804 32.5907 44.1285 33.3828 45.7846 33.6606C46.1241 33.712 46.4481 33.7377 46.7567 33.7377C47.3739 33.7377 47.9294 33.64 48.4232 33.4445C48.5775 33.3828 48.7575 33.2851 48.9632 33.1514C49.1792 33.0074 49.3489 32.8068 49.4724 32.5496C49.5341 32.4056 49.565 32.2461 49.565 32.0713C49.565 31.8038 49.4878 31.4849 49.3335 31.1146C49.0352 30.4871 48.6443 29.9831 48.1608 29.6025C47.6877 29.2219 47.2711 28.9493 46.911 28.7847C46.2218 28.4658 45.4966 28.2087 44.7354 28.0132C44.3445 27.8898 43.9536 27.7663 43.5627 27.6429L43.501 27.612C42.3386 27.2726 41.202 26.7737 40.091 26.1153C39.6076 25.8273 39.1961 25.4364 38.8566 24.9427C38.5172 24.4489 38.3475 23.8986 38.3475 23.2917C38.3475 23.0448 38.3835 22.7928 38.4555 22.5356C38.7435 21.5481 39.5664 20.7509 40.9242 20.144C41.994 19.6811 43.1513 19.4496 44.396 19.4496H44.4731C45.4915 19.4599 46.4738 19.6605 47.4202 20.0514C47.6054 20.1131 47.7802 20.1903 47.9448 20.2829C47.9757 20.2931 48.0065 20.2983 48.0374 20.2983C48.13 20.2983 48.1917 20.252 48.2226 20.1594C48.2637 20.0051 48.2843 19.8611 48.2843 19.7274L48.2534 19.5114H48.9323V24.5878H48.2534L48.2843 24.3718C48.2843 24.0426 48.1969 23.7391 48.022 23.4614C47.8368 23.1631 47.6208 22.9008 47.3739 22.6745C46.8184 22.2013 46.263 21.8104 45.7075 21.5018C44.8331 21.0698 43.9073 20.8332 42.9301 20.792C42.6627 20.7612 42.3952 20.7458 42.1278 20.7458C41.8603 20.7458 41.598 20.7715 41.3408 20.8229C41.0837 20.8743 40.8419 20.9669 40.6156 21.1006C40.4408 21.2138 40.2916 21.3527 40.1682 21.5172C40.055 21.6715 39.9984 21.8464 39.9984 22.0419C39.9984 22.3196 40.0962 22.5819 40.2916 22.8288C40.4973 23.0654 40.7288 23.2814 40.986 23.4768C41.2534 23.662 41.49 23.8214 41.6957 23.9552C42.5084 24.4901 43.3724 24.8912 44.288 25.1587C44.6377 25.2616 44.9926 25.3593 45.3526 25.4519C46.0727 25.6267 46.7876 25.8479 47.4974 26.1153C48.1043 26.3417 48.6597 26.6245 49.1638 26.964C49.781 27.3652 50.2645 27.8898 50.6142 28.5378ZM53.2218 20.1748V19.5268H55.166V15.8391C55.166 15.3659 54.9963 14.9596 54.6568 14.6201C54.3174 14.2806 53.9059 14.1109 53.4224 14.1109H53.4379L53.2218 14.1263V13.4629H60.0573V14.1263L59.8413 14.1109C59.3475 14.1212 58.936 14.2909 58.6069 14.6201C58.2777 14.939 58.108 15.3453 58.0977 15.8391V19.5268H65.1491V20.1748H58.0977V29.4945C58.0977 29.7722 58.1388 30.0448 58.2211 30.3123C58.3754 30.7546 58.6172 31.1506 58.9463 31.5004C59.2858 31.8398 59.6458 32.1381 60.0264 32.3953C60.8493 33.0022 61.6671 33.3931 62.4798 33.568C62.7781 33.64 63.0558 33.676 63.313 33.676H63.3438C63.8067 33.676 64.2028 33.5783 64.5319 33.3828C64.892 33.1462 65.1954 32.8376 65.4423 32.457L65.5657 32.3027L66.0904 32.673L65.9669 32.8273C65.3909 33.6091 64.676 34.2212 63.8222 34.6635C62.9787 35.0955 62.0837 35.3115 61.1374 35.3115C59.8207 35.3115 58.6172 34.9104 57.5268 34.108C56.4981 33.3057 55.7935 32.2873 55.4129 31.0529C55.2483 30.4974 55.166 29.9317 55.166 29.3556V20.1748H53.2218ZM81.3351 24.8964H80.687L80.7024 24.6804C80.6613 24.1352 80.435 23.662 80.0235 23.2608C79.6121 22.8494 79.2109 22.515 78.82 22.2579C78.4085 21.9904 77.9765 21.7487 77.5239 21.5327L77.4004 21.471C76.8244 21.1932 76.2638 21.0543 75.7186 21.0543C75.3791 21.0543 75.0757 21.1058 74.8082 21.2086C74.1807 21.4452 73.6407 21.9904 73.1881 22.8442C72.7561 23.6569 72.54 24.5004 72.54 25.3747V32.9816C72.7149 33.9486 73.291 34.468 74.2682 34.5401L74.4842 34.5092V35.1881H67.6642V34.5092L67.8956 34.5401C68.3791 34.5298 68.7803 34.3652 69.0992 34.0463C69.4283 33.7171 69.6032 33.3108 69.6238 32.8273V21.7641C69.5929 21.2909 69.4129 20.8949 69.0837 20.576C68.7546 20.2469 68.3534 20.0823 67.8802 20.0823L67.6642 20.0977V19.4342H70.4107C71.0073 19.4342 71.532 19.6657 71.9846 20.1286L72 20.144C72.0206 20.1646 72.0411 20.1903 72.0617 20.2211L72.0771 20.2366C72.0874 20.2469 72.0977 20.2623 72.108 20.2829C72.1183 20.2931 72.1286 20.3086 72.1389 20.3291L72.1543 20.3446C72.1646 20.3549 72.1749 20.3703 72.1852 20.3909C72.1954 20.4114 72.2057 20.4269 72.216 20.4372C72.2469 20.4783 72.2726 20.5194 72.2932 20.5606L72.3857 20.7458C72.4166 20.828 72.4423 20.9052 72.4629 20.9772C72.5143 21.1418 72.54 21.3218 72.54 21.5172V22.7053C72.9515 21.8927 73.5224 21.2035 74.2528 20.6377C75.3328 19.8354 76.5261 19.4342 77.8325 19.4342C78.5628 19.4342 79.2623 19.5628 79.9309 19.82C80.0338 19.8611 80.1315 19.9023 80.2241 19.9434C80.2653 19.964 80.3116 19.9743 80.363 19.9743C80.4453 19.9743 80.5173 19.9434 80.579 19.8817C80.651 19.82 80.6922 19.7377 80.7024 19.6348L80.687 19.4188H81.3351V24.8964ZM91.6576 19.4496C93.1183 19.4496 94.4505 19.8097 95.654 20.5297C96.8575 21.2395 97.8142 22.1962 98.5239 23.3997C99.244 24.6032 99.604 25.9353 99.604 27.396C99.604 28.8567 99.244 30.1888 98.5239 31.3924C97.8142 32.5959 96.8575 33.5577 95.654 34.2777C94.4505 34.9875 93.1183 35.3424 91.6576 35.3424C90.197 35.3424 88.8648 34.9875 87.6613 34.2777C86.4681 33.5577 85.5114 32.5959 84.7914 31.3924C84.0816 30.1888 83.7267 28.8567 83.7267 27.396C83.7267 26.2645 83.9479 25.205 84.3902 24.2175C84.8325 23.2197 85.4394 22.3556 86.2109 21.6253L86.2418 21.5944V21.6098C86.9515 20.9309 87.7693 20.4012 88.6951 20.0205C89.6209 19.6399 90.6084 19.4496 91.6576 19.4496ZM93.9258 33.6451C95.1191 33.6451 96.086 33.2851 96.8267 32.565C97.197 32.1947 97.4696 31.7627 97.6444 31.2689C97.8296 30.7649 97.9222 30.23 97.9222 29.6642C97.9222 28.7281 97.6856 27.7509 97.2124 26.7325C96.7495 25.7142 96.0757 24.7575 95.1911 23.8626C94.327 23.0088 93.3858 22.3453 92.3674 21.8721C91.3593 21.3887 90.3667 21.1469 89.3895 21.1469C88.2168 21.1469 87.255 21.5121 86.5041 22.2424C85.7737 22.9934 85.4086 23.9449 85.4086 25.097C85.4086 25.457 85.4446 25.8273 85.5166 26.2079C85.8354 27.9155 86.7047 29.4893 88.1242 30.9295C88.9986 31.7833 89.9398 32.4519 90.9479 32.9353C91.9662 33.4085 92.9589 33.6451 93.9258 33.6451Z" fill="#F8DCAA"/>
<path d="M35.6819 37.1692V54.4815C35.6819 54.965 35.8516 55.3816 36.1911 55.7314C36.5305 56.0708 36.942 56.2405 37.4255 56.2405L37.6415 56.2097V56.8732H30.7906V56.2097L30.9912 56.2405C31.4953 56.22 31.9119 56.0451 32.241 55.7159C32.5805 55.3765 32.7502 54.965 32.7502 54.4815V38.5888L26.1771 51.0715L25.7759 51.8276L25.7605 51.8585L24.6804 53.8952L16.7495 38.8048V53.3397C16.77 54.1627 17.0581 54.8519 17.6135 55.4073C18.1793 55.9628 18.8582 56.2405 19.6503 56.2405H19.8509V56.8732H13V56.2405H13.2006C13.9926 56.2405 14.6664 55.9628 15.2219 55.4073C15.7877 54.8519 16.0808 54.1627 16.1014 53.3397V38.3265C16.0808 37.5035 15.7877 36.8143 15.2219 36.2589C14.6664 35.7034 13.9926 35.4256 13.2006 35.4256H13V34.793H17.7061L18.1227 35.5954L18.169 35.6725L25.8685 50.3155L33.2131 36.3669L34.0463 34.793H37.6415V35.4411L37.4255 35.4256C36.9317 35.4359 36.5151 35.6108 36.1757 35.9503C35.8465 36.2897 35.6819 36.696 35.6819 37.1692ZM47.7635 56.8732C46.3028 56.8732 44.9758 56.5183 43.7826 55.8085C42.5893 55.0884 41.6327 54.1318 40.9126 52.9386C40.2029 51.7453 39.848 50.4183 39.848 48.9576C39.848 47.5072 40.2029 46.1854 40.9126 44.9922C41.6327 43.7886 42.5893 42.832 43.7826 42.1222C44.9758 41.4022 46.3028 41.0421 47.7635 41.0421C49.7282 41.0421 51.5027 41.7262 53.0868 43.0943C53.8686 43.8144 54.4858 44.6527 54.9384 45.6094C55.391 46.5969 55.6327 47.641 55.6636 48.7416L55.679 48.8496V54.5278C55.6996 55.0113 55.8745 55.4176 56.2036 55.7468C56.5431 56.076 56.9494 56.2405 57.4226 56.2405L57.6386 56.2097V56.8732H54.8767C54.2698 56.8732 53.74 56.6366 53.2874 56.1634C53.2668 56.1428 53.2411 56.1171 53.2102 56.0862C53.1999 56.0657 53.1845 56.0451 53.1639 56.0245C53.1434 55.9937 53.1177 55.9577 53.0868 55.9165C53.0765 55.8959 53.0662 55.8805 53.0559 55.8702C52.9942 55.7674 52.9428 55.6645 52.9016 55.5616C52.8399 55.4073 52.7936 55.253 52.7628 55.0987C51.2609 56.2817 49.5945 56.8732 47.7635 56.8732ZM42.6408 43.8041L42.5945 43.8349C42.2345 44.2052 41.967 44.6373 41.7921 45.131C41.6173 45.6145 41.5298 46.134 41.5298 46.6895C41.5298 47.6255 41.7613 48.6028 42.2242 49.6211C42.6871 50.6292 43.3557 51.5807 44.23 52.4757C45.0941 53.3294 46.0302 53.9981 47.0383 54.4815C48.0567 54.9547 49.0493 55.1913 50.0163 55.1913C51.1169 55.1913 52.0273 54.8776 52.7473 54.2501V47.2604C52.3359 46.602 51.8473 45.9951 51.2815 45.4396C50.4174 44.5858 49.4762 43.9224 48.4578 43.4492C47.4497 42.9657 46.4622 42.724 45.4953 42.724C44.3432 42.724 43.3917 43.084 42.6408 43.8041ZM66.3565 63.4463H63.5945C63.3065 63.4463 63.0339 63.3949 62.7768 63.292C61.9435 62.9114 61.4909 62.2633 61.4189 61.3478V43.5572C61.3984 43.0737 61.2183 42.6674 60.8789 42.3382C60.5394 42.0091 60.1382 41.8445 59.6754 41.8445L59.4439 41.8599V41.1964H62.2213C62.8282 41.1964 63.3631 41.433 63.826 41.9062C63.8568 41.9371 63.8826 41.9679 63.9031 41.9988L63.9494 42.0451C63.9597 42.0656 63.97 42.0862 63.9803 42.1068L63.9957 42.1222C64.006 42.1325 64.0163 42.1479 64.0266 42.1685C64.0369 42.1788 64.0471 42.1942 64.0574 42.2148C64.1192 42.3177 64.1757 42.4205 64.2272 42.5234C64.2889 42.6777 64.33 42.832 64.3506 42.9863C65.8627 41.793 67.5446 41.1964 69.3962 41.1964C70.8569 41.1964 72.189 41.5565 73.3925 42.2765C74.596 42.9966 75.5578 43.9584 76.2779 45.1619C76.998 46.3654 77.358 47.7027 77.358 49.1737C77.358 50.6344 76.998 51.9665 76.2779 53.17C75.5578 54.3735 74.596 55.3353 73.3925 56.0554C72.189 56.7754 70.8569 57.1355 69.3962 57.1355C67.5549 57.1355 65.8833 56.544 64.3815 55.361V61.0392C64.3917 61.5433 64.5666 61.9599 64.9061 62.2891C65.2455 62.6285 65.657 62.7982 66.1405 62.7982H66.125L66.3565 62.7828V63.4463ZM69.3962 56.4874C70.3734 56.4874 71.3043 56.3074 72.189 55.9474C73.0736 55.5771 73.8657 55.0422 74.5652 54.3427C74.9355 53.9621 75.2081 53.5249 75.383 53.0311C75.5681 52.5374 75.6607 52.0025 75.6607 51.4264C75.6607 50.5006 75.4292 49.5286 74.9664 48.5102C74.5035 47.4815 73.8297 46.5197 72.945 45.6248C72.0707 44.7607 71.1243 44.0921 70.1059 43.6189C69.0876 43.1354 68.0898 42.8937 67.1125 42.8937C66.0222 42.8937 65.1118 43.2074 64.3815 43.8349V54.497C65.8422 55.8239 67.5137 56.4874 69.3962 56.4874Z" fill="#F8DCAA"/>
</g>
<defs>
<filter id="filter0_d_286_2751" x="0" y="0" width="112.604" height="76.4463" filterUnits="userSpaceOnUse" color-interpolation-filters="sRGB">
<feFlood flood-opacity="0" result="BackgroundImageFix"/>
<feColorMatrix in="SourceAlpha" type="matrix" values="0 0 0 0 0 0 0 0 0 0 0 0 0 0 0 0 0 0 127 0" result="hardAlpha"/>
<feOffset/>
<feGaussianBlur stdDeviation="6.5"/>
<feComposite in2="hardAlpha" operator="out"/>
<feColorMatrix type="matrix" values="0 0 0 0 0 0 0 0 0 0 0 0 0 0 0 0 0 0 0.5 0"/>
<feBlend mode="normal" in2="BackgroundImageFix" result="effect1_dropShadow_286_2751"/>
<feBlend mode="normal" in="SourceGraphic" in2="effect1_dropShadow_286_2751" result="shape"/>
</filter>
</defs>
</svg>
