<svg width="49" height="49" viewBox="0 0 49 49" fill="none" xmlns="http://www.w3.org/2000/svg">
<path d="M38.3512 10.5071C38.0427 10.5071 37.7915 10.2559 37.7915 9.94737C37.7915 9.63886 38.0427 9.38768 38.3512 9.38768C39.9852 9.38768 41.3135 8.05397 41.3135 6.41447C41.3135 4.77498 39.9852 3.44263 38.3512 3.44263C38.0427 3.44263 37.7915 3.19145 37.7915 2.88294C37.7915 2.57442 38.0427 2.32324 38.3512 2.32324C40.6009 2.32324 42.4329 4.15795 42.4329 6.41447C42.4329 8.671 40.6009 10.5057 38.3512 10.5057V10.5071Z" fill="#E3CEB3"/>
<path d="M38.353 10.705C37.9352 10.705 37.5967 10.3651 37.5967 9.94874C37.5967 9.53238 37.9366 9.19247 38.353 9.19247C39.8778 9.19247 41.1187 7.94749 41.1187 6.4172C41.1187 4.88691 39.8778 3.6433 38.353 3.6433C37.9352 3.6433 37.5967 3.30339 37.5967 2.88566C37.5967 2.46794 37.9366 2.12939 38.353 2.12939C40.7119 2.12939 42.6298 4.05283 42.6298 6.41857C42.6298 8.7843 40.7105 10.7077 38.353 10.7077V10.705ZM38.353 2.52255C38.1523 2.52255 37.9898 2.68363 37.9898 2.8843C37.9898 3.08497 38.1523 3.24742 38.353 3.24742C40.0948 3.24742 41.5118 4.66986 41.5118 6.4172C41.5118 8.16454 40.0948 9.58835 38.353 9.58835C38.1523 9.58835 37.9898 9.74943 37.9898 9.9501C37.9898 10.1508 38.1523 10.3119 38.353 10.3119C40.4948 10.3119 42.2367 8.56452 42.2367 6.4172C42.2367 4.26988 40.4948 2.52255 38.353 2.52255Z" fill="#E3CEB3"/>
<path d="M46.3795 39.5144H38.3527C38.0441 39.5144 37.793 39.2632 37.793 38.9547C37.793 38.6462 38.0441 38.395 38.3527 38.395H46.3795C46.5269 38.395 46.6143 38.3131 46.6553 38.2653C46.6948 38.2162 46.759 38.1138 46.7303 37.9691L45.2724 30.5238C45.2123 30.2207 45.4103 29.9272 45.7133 29.8672C46.0191 29.8098 46.3099 30.005 46.3699 30.3081L47.8279 37.7534C47.9139 38.1875 47.8006 38.6339 47.5194 38.9752C47.2382 39.3178 46.8218 39.513 46.3795 39.513V39.5144Z" fill="#E3CEB3"/>
<path d="M46.3783 39.7123H38.3515C37.9338 39.7123 37.5952 39.3724 37.5952 38.956C37.5952 38.5396 37.9351 38.1997 38.3515 38.1997H46.3783C46.4275 38.1997 46.4698 38.1806 46.5026 38.141C46.5339 38.1028 46.5449 38.0578 46.5353 38.0073L45.0774 30.5633C44.9968 30.1538 45.2658 29.7565 45.6739 29.6746C46.0862 29.6036 46.4821 29.8671 46.5626 30.2725L48.0205 37.7178C48.1175 38.212 47.9905 38.7157 47.6711 39.1034C47.353 39.4911 46.882 39.7136 46.3783 39.7136V39.7123ZM38.3515 38.5942C38.1508 38.5942 37.9884 38.7553 37.9884 38.956C37.9884 39.1567 38.1508 39.3178 38.3515 39.3178H46.3783C46.7633 39.3178 47.1237 39.1485 47.3653 38.8522C47.6097 38.556 47.7066 38.1697 47.6329 37.7943L46.1749 30.3476C46.1367 30.1483 45.9456 30.0296 45.7476 30.061C45.5538 30.0992 45.4255 30.2903 45.4637 30.4869L46.9216 37.9308C46.964 38.1547 46.8684 38.3144 46.8056 38.3895C46.6964 38.5219 46.5449 38.5929 46.377 38.5929H38.3501L38.3515 38.5942Z" fill="#E3CEB3"/>
<path d="M44.9601 31.1205C44.0168 31.1205 43.1704 30.4556 42.9752 29.496L41.4094 21.7463C41.348 21.4432 41.5446 21.1483 41.8463 21.0869C42.1521 21.0255 42.4455 21.2221 42.5056 21.5237L44.0714 29.2735C44.171 29.7635 44.6488 30.0816 45.1403 29.982C46.2187 29.7635 46.9204 28.7069 46.7033 27.6285L44.1738 15.1118C43.9417 13.961 42.9206 13.127 41.7466 13.127H38.3502C38.0417 13.127 37.7905 12.8758 37.7905 12.5673C37.7905 12.2587 38.0417 12.0076 38.3502 12.0076H41.7466C43.4516 12.0076 44.9328 13.2198 45.27 14.8893L47.7995 27.4074C48.1381 29.0919 47.0446 30.7382 45.3628 31.0781C45.2276 31.1054 45.0925 31.1191 44.9601 31.1191V31.1205Z" fill="#E3CEB3"/>
<path d="M44.96 31.3183C43.9075 31.3183 42.9915 30.5675 42.7826 29.5341L41.2168 21.7844C41.1336 21.3762 41.3984 20.9762 41.8079 20.893C42.0072 20.8588 42.2093 20.893 42.3772 21.0049C42.5451 21.1182 42.6598 21.2888 42.6994 21.4854L44.2651 29.2351C44.3429 29.6187 44.7156 29.8713 45.102 29.7894C46.0739 29.5914 46.706 28.6399 46.5107 27.668L43.9812 15.1513C43.7682 14.0934 42.8277 13.3248 41.7479 13.3248H38.3515C37.9351 13.3248 37.5952 12.9849 37.5952 12.5685C37.5952 12.1522 37.9351 11.8123 38.3515 11.8123H41.7479C43.5457 11.8123 45.1088 13.0914 45.4637 14.8537L47.9932 27.3704C48.3536 29.1601 47.1919 30.9115 45.4023 31.2746C45.2521 31.3046 45.1047 31.3197 44.9613 31.3197L44.96 31.3183ZM41.9595 21.2725C41.9349 21.2725 41.9103 21.2752 41.8858 21.2806C41.6905 21.3202 41.5636 21.5114 41.6032 21.7079L43.169 29.4576C43.3642 30.4214 44.2802 31.0971 45.3231 30.8869C46.8984 30.5675 47.9236 29.0249 47.6056 27.4468L45.076 14.9302C44.7579 13.3521 43.3573 12.2068 41.7451 12.2068H38.3488C38.1495 12.2068 37.987 12.3679 37.987 12.5685C37.987 12.7692 38.1495 12.9303 38.3488 12.9303H41.7451C43.012 12.9303 44.1136 13.8326 44.3648 15.0749L46.8943 27.5915C47.1319 28.7751 46.3633 29.9368 45.177 30.1771C44.5805 30.2904 43.9989 29.9122 43.8761 29.3143L42.3103 21.5632C42.2912 21.4677 42.2366 21.3871 42.156 21.3339C42.096 21.2943 42.0277 21.2738 41.9554 21.2738L41.9595 21.2725Z" fill="#E3CEB3"/>
<path d="M40.4371 47.862C38.9041 47.862 37.7915 46.856 37.7915 45.469V38.9547C37.7915 38.6462 38.0427 38.395 38.3512 38.395C38.6597 38.395 38.9109 38.6462 38.9109 38.9547V45.469C38.9109 46.3481 39.6781 46.7427 40.4371 46.7427C41.1961 46.7427 41.9646 46.3481 41.9646 45.469V38.9547C41.9646 38.6462 42.2158 38.395 42.5243 38.395C42.8329 38.395 43.084 38.6462 43.084 38.9547V45.469C43.084 46.856 41.9715 47.862 40.4385 47.862H40.4371Z" fill="#E3CEB3"/>
<path d="M40.4374 48.0599C38.7911 48.0599 37.5952 46.9705 37.5952 45.4703V38.956C37.5952 38.5396 37.9351 38.1997 38.3515 38.1997C38.7678 38.1997 39.1078 38.5396 39.1078 38.956V45.4703C39.1078 46.2661 39.8244 46.546 40.4374 46.546C41.0503 46.546 41.767 46.2648 41.767 45.4703V38.956C41.767 38.5396 42.1069 38.1997 42.5233 38.1997C42.9396 38.1997 43.2795 38.5396 43.2795 38.956V45.4703C43.2795 46.9705 42.0837 48.0599 40.436 48.0599H40.4374ZM38.3515 38.5942C38.1508 38.5942 37.9884 38.7553 37.9884 38.956V45.4703C37.9884 46.7426 39.0177 47.6654 40.4374 47.6654C41.8571 47.6654 42.8864 46.7426 42.8864 45.4703V38.956C42.8864 38.7553 42.7239 38.5942 42.5233 38.5942C42.3226 38.5942 42.1615 38.7553 42.1615 38.956V45.4703C42.1615 46.4805 41.2687 46.9419 40.4374 46.9419C39.606 46.9419 38.7146 46.4818 38.7146 45.4703V38.956C38.7146 38.7553 38.5522 38.5942 38.3529 38.5942H38.3515Z" fill="#E3CEB3"/>
<path d="M38.3502 10.5072C36.1005 10.5072 34.2686 8.6711 34.2686 6.41594C34.2686 4.16078 36.1005 2.32471 38.3502 2.32471C38.6587 2.32471 38.9099 2.57589 38.9099 2.8844C38.9099 3.19292 38.6587 3.4441 38.3502 3.4441C36.7162 3.4441 35.3879 4.77644 35.3879 6.41594C35.3879 8.05543 36.7162 9.38914 38.3502 9.38914C38.6587 9.38914 38.9099 9.64032 38.9099 9.94884C38.9099 10.2574 38.6587 10.5085 38.3502 10.5085V10.5072Z" fill="#E3CEB3"/>
<path d="M38.35 10.7051C35.9911 10.7051 34.0718 8.78161 34.0718 6.41588C34.0718 4.05015 35.9911 2.12671 38.35 2.12671C38.7664 2.12671 39.1063 2.46662 39.1063 2.88298C39.1063 3.29934 38.7664 3.64061 38.35 3.64061C36.8252 3.64061 35.5843 4.88423 35.5843 6.41452C35.5843 7.9448 36.8252 9.18978 38.35 9.18978C38.7664 9.18978 39.1063 9.52969 39.1063 9.94605C39.1063 10.3624 38.7664 10.7023 38.35 10.7023V10.7051ZM38.35 2.52259C36.2082 2.52259 34.4663 4.26993 34.4663 6.41725C34.4663 8.56456 36.2082 10.3119 38.35 10.3119C38.5493 10.3119 38.7118 10.1508 38.7118 9.95015C38.7118 9.74948 38.5493 9.58839 38.35 9.58839C36.6081 9.58839 35.1898 8.16595 35.1898 6.41725C35.1898 4.66854 36.6068 3.24746 38.35 3.24746C38.5493 3.24746 38.7118 3.08502 38.7118 2.88434C38.7118 2.68367 38.5493 2.52259 38.35 2.52259Z" fill="#E3CEB3"/>
<path d="M38.3501 39.5145H30.3232C29.8809 39.5145 29.4646 39.3193 29.1834 38.9766C28.9021 38.6354 28.7888 38.189 28.8748 37.7549L30.3328 30.3096C30.3928 30.0065 30.6863 29.8113 30.9894 29.8686C31.2924 29.9287 31.4904 30.2222 31.4303 30.5252L29.9724 37.9705C29.9451 38.1152 30.0079 38.2176 30.0475 38.2668C30.0884 38.3159 30.1758 38.3965 30.3232 38.3965H38.3501C38.6586 38.3965 38.9098 38.6476 38.9098 38.9562C38.9098 39.2647 38.6586 39.5159 38.3501 39.5159V39.5145Z" fill="#E3CEB3"/>
<path d="M38.3501 39.7124H30.3233C29.8196 39.7124 29.3486 39.4899 29.0305 39.1009C28.7125 38.7145 28.5841 38.2094 28.6811 37.7166L30.139 30.27C30.2182 29.8659 30.6141 29.5915 31.0249 29.6734C31.4372 29.7553 31.7048 30.1526 31.6229 30.5621L30.1649 38.0074C30.1554 38.0566 30.1677 38.1016 30.1991 38.1398C30.2305 38.1794 30.2728 38.1985 30.3219 38.1985H38.3488C38.7651 38.1985 39.105 38.5384 39.105 38.9548C39.105 39.3712 38.7651 39.7111 38.3488 39.7111L38.3501 39.7124ZM30.8843 30.0543C30.7151 30.0543 30.5594 30.1744 30.5253 30.3464L29.0674 37.7931C28.9937 38.1685 29.0906 38.5548 29.3349 38.8497C29.5779 39.1473 29.9383 39.3166 30.3219 39.3166H38.3488C38.5481 39.3166 38.7105 39.1555 38.7105 38.9548C38.7105 38.7541 38.5481 38.593 38.3488 38.593H30.3219C30.0939 38.593 29.9561 38.4647 29.8946 38.3896C29.8332 38.3159 29.7349 38.1562 29.7772 37.9323L31.2365 30.4857C31.2748 30.2905 31.1464 30.0993 30.9499 30.0611C30.928 30.0557 30.9062 30.0543 30.883 30.0543H30.8843Z" fill="#E3CEB3"/>
<path d="M31.7417 31.1203C31.6093 31.1203 31.4741 31.1067 31.339 31.0794C29.6558 30.7394 28.5624 29.0931 28.9023 27.4086L31.4318 14.8905C31.769 13.221 33.2501 12.0088 34.9552 12.0088H38.3516C38.6601 12.0088 38.9113 12.26 38.9113 12.5685C38.9113 12.877 38.6601 13.1282 38.3516 13.1282H34.9552C33.7812 13.1282 32.7614 13.9636 32.528 15.113L29.9985 27.6311C29.7814 28.7095 30.4831 29.7661 31.5615 29.9845C32.0488 30.0842 32.5307 29.7648 32.6304 29.2761L34.1962 21.5263C34.2576 21.2246 34.5538 21.0267 34.8555 21.0895C35.1586 21.1509 35.3538 21.4458 35.2923 21.7488L33.7266 29.4986C33.5327 30.4582 32.685 31.123 31.7417 31.123V31.1203Z" fill="#E3CEB3"/>
<path d="M31.7419 31.3182C31.5986 31.3182 31.4498 31.3032 31.301 31.2731C29.5113 30.91 28.3482 29.16 28.71 27.3703L31.2395 14.8523C31.5945 13.0899 33.1562 11.8108 34.9554 11.8108H38.3518C38.7681 11.8108 39.108 12.1507 39.108 12.5671C39.108 12.9834 38.7681 13.3233 38.3518 13.3233H34.9554C33.8756 13.3233 32.9364 14.0919 32.722 15.1498L30.1925 27.6665C29.9973 28.6385 30.6293 29.59 31.6013 29.7879C31.7856 29.8261 31.974 29.7879 32.1323 29.6855C32.2907 29.5804 32.3999 29.4193 32.4381 29.2323L34.0039 21.484C34.0448 21.2846 34.1595 21.1154 34.3274 21.0034C34.4967 20.8915 34.6987 20.8478 34.8953 20.8929C35.3035 20.9748 35.5683 21.3747 35.4864 21.7829L33.9206 29.5326C33.7118 30.566 32.7958 31.3168 31.7433 31.3168L31.7419 31.3182ZM34.9554 12.2053C33.3432 12.2053 31.9426 13.3506 31.6259 14.9287L29.0963 27.4467C28.7783 29.0234 29.8034 30.566 31.3788 30.8855C32.4067 31.0984 33.3391 30.4213 33.5329 29.4562L35.0987 21.7065C35.1383 21.5099 35.0113 21.3188 34.8161 21.2792C34.6182 21.2355 34.4284 21.3666 34.3888 21.5631L32.8231 29.3115C32.7644 29.6009 32.5965 29.8507 32.348 30.0145C32.1023 30.1756 31.8088 30.2357 31.5208 30.1742C30.3358 29.934 29.5673 28.7736 29.8048 27.5901L32.3344 15.0734C32.5855 13.8312 33.6872 12.9288 34.954 12.9288H38.3504C38.5497 12.9288 38.7121 12.7677 38.7121 12.5671C38.7121 12.3664 38.5497 12.2053 38.3504 12.2053H34.954H34.9554Z" fill="#E3CEB3"/>
<path d="M36.2642 47.862C34.7312 47.862 33.6187 46.856 33.6187 45.469V38.9547C33.6187 38.6462 33.8698 38.395 34.1783 38.395C34.4869 38.395 34.738 38.6462 34.738 38.9547V45.469C34.738 46.3481 35.5052 46.7427 36.2656 46.7427C37.026 46.7427 37.7918 46.3481 37.7918 45.469V38.9547C37.7918 38.6462 38.043 38.395 38.3515 38.395C38.66 38.395 38.9112 38.6462 38.9112 38.9547V45.469C38.9112 46.856 37.7986 47.862 36.2656 47.862H36.2642Z" fill="#E3CEB3"/>
<path d="M36.264 48.0599C34.6177 48.0599 33.4219 46.9705 33.4219 45.4703V38.956C33.4219 38.5396 33.7618 38.1997 34.1781 38.1997C34.5945 38.1997 34.9344 38.5396 34.9344 38.956V45.4703C34.9344 46.2661 35.6511 46.546 36.264 46.546C36.877 46.546 37.5936 46.2648 37.5936 45.4703V38.956C37.5936 38.5396 37.9336 38.1997 38.3499 38.1997C38.7663 38.1997 39.1062 38.5396 39.1062 38.956V45.4703C39.1062 46.9705 37.9104 48.0599 36.264 48.0599ZM34.1781 38.5942C33.9788 38.5942 33.8164 38.7553 33.8164 38.956V45.4703C33.8164 46.7426 34.8457 47.6654 36.2654 47.6654C37.6851 47.6654 38.7144 46.7426 38.7144 45.4703V38.956C38.7144 38.7553 38.552 38.5942 38.3526 38.5942C38.1533 38.5942 37.9895 38.7553 37.9895 38.956V45.4703C37.9895 46.4805 37.0967 46.9419 36.2668 46.9419C35.4368 46.9419 34.5426 46.4818 34.5426 45.4703V38.956C34.5426 38.7553 34.3802 38.5942 34.1809 38.5942H34.1781Z" fill="#E3CEB3"/>
<path d="M12.3923 47.8621H11.9446C10.402 47.8621 9.14746 46.6076 9.14746 45.065C9.14746 44.7565 9.39728 44.5053 9.70716 44.5053C10.017 44.5053 10.2668 44.7565 10.2668 45.065C10.2668 45.9905 11.0204 46.7427 11.9446 46.7427H12.3923C13.3179 46.7427 14.07 45.9905 14.07 45.065V27.163C14.07 26.8545 14.3199 26.6033 14.6297 26.6033C14.9396 26.6033 15.1894 26.8545 15.1894 27.163V45.065C15.1894 46.6076 13.9349 47.8621 12.3923 47.8621Z" fill="#E3CEB3"/>
<path d="M12.3921 48.06H11.9444C10.294 48.06 8.95068 46.7154 8.95068 45.0649C8.95068 44.6486 9.2906 44.3087 9.70695 44.3087C10.1233 44.3087 10.4632 44.6486 10.4632 45.0649C10.4632 45.8826 11.128 46.5461 11.9444 46.5461H12.3921C13.2098 46.5461 13.8733 45.8813 13.8733 45.0649V27.1629C13.8733 26.7452 14.2132 26.4053 14.6295 26.4053C15.0459 26.4053 15.3858 26.7452 15.3858 27.1629V45.0649C15.3858 46.7154 14.0425 48.06 12.3921 48.06ZM9.70695 44.7032C9.50765 44.7032 9.3452 44.8643 9.3452 45.0649C9.3452 46.4983 10.5124 47.6655 11.9457 47.6655H12.3935C13.8269 47.6655 14.994 46.4997 14.994 45.0649V27.1629C14.994 26.9622 14.8316 26.7998 14.6323 26.7998C14.433 26.7998 14.2691 26.9622 14.2691 27.1629V45.0649C14.2691 46.0983 13.4282 46.942 12.3935 46.942H11.9457C10.9123 46.942 10.0701 46.0997 10.0701 45.0649C10.0701 44.8643 9.90763 44.7032 9.70832 44.7032H9.70695Z" fill="#E3CEB3"/>
<path d="M7.46996 47.8621H7.02221C5.47963 47.8621 4.2251 46.6076 4.2251 45.065V27.163C4.2251 26.8545 4.47491 26.6033 4.78479 26.6033C5.09467 26.6033 5.34449 26.8545 5.34449 27.163V45.065C5.34449 45.9905 6.09803 46.7427 7.02221 46.7427H7.46996C8.3955 46.7427 9.14768 45.9905 9.14768 45.065V29.8331C9.14768 29.5246 9.39749 29.2734 9.70737 29.2734C10.0173 29.2734 10.2671 29.5246 10.2671 29.8331V45.065C10.2671 46.6076 9.01253 47.8621 7.46996 47.8621Z" fill="#E3CEB3"/>
<path d="M7.46976 48.06H7.022C5.37022 48.06 4.02832 46.7154 4.02832 45.0649V27.1629C4.02832 26.7452 4.36823 26.4053 4.78459 26.4053C5.20095 26.4053 5.54086 26.7452 5.54086 27.1629V45.0649C5.54086 45.8826 6.20567 46.5461 7.022 46.5461H7.46976C8.28746 46.5461 8.9509 45.8813 8.9509 45.0649V29.8344C8.9509 29.4167 9.29081 29.0768 9.70717 29.0768C10.1235 29.0768 10.4634 29.4167 10.4634 29.8344V45.0649C10.4634 46.7154 9.12018 48.06 7.46976 48.06ZM4.78459 26.8012C4.58528 26.8012 4.42284 26.9636 4.42284 27.1643V45.0663C4.42284 46.4997 5.59 47.6668 7.02337 47.6668H7.47112C8.90449 47.6668 10.0717 46.501 10.0717 45.0663V29.8358C10.0717 29.6351 9.90921 29.4727 9.7099 29.4727C9.5106 29.4727 9.34815 29.6351 9.34815 29.8358V45.0663C9.34815 46.0997 8.50724 46.9433 7.47249 46.9433H7.02473C5.99135 46.9433 5.14907 46.1011 5.14907 45.0663V27.1643C5.14907 26.9636 4.98663 26.8012 4.78596 26.8012H4.78459Z" fill="#E3CEB3"/>
<path d="M9.70727 8.47738C7.42481 8.47738 5.56689 6.61947 5.56689 4.33701C5.56689 2.05455 7.42481 0.197998 9.70727 0.197998C11.9897 0.197998 13.8476 2.05591 13.8476 4.33837C13.8476 6.62083 11.9911 8.47875 9.70727 8.47875V8.47738ZM9.70727 1.31602C8.04184 1.31602 6.68628 2.67158 6.68628 4.33701C6.68628 6.00244 8.04184 7.35799 9.70727 7.35799C11.3727 7.35799 12.7283 6.00244 12.7283 4.33701C12.7283 2.67158 11.3727 1.31602 9.70727 1.31602Z" fill="#E3CEB3"/>
<path d="M9.70756 8.6739C7.31589 8.6739 5.37061 6.72862 5.37061 4.33695C5.37061 1.94528 7.31589 0 9.70756 0C12.0992 0 14.0445 1.94528 14.0445 4.33832C14.0445 6.73135 12.0992 8.67527 9.70756 8.67527V8.6739ZM9.70756 0.394516C7.53294 0.394516 5.76512 2.1637 5.76512 4.33695C5.76512 6.5102 7.5343 8.27802 9.70756 8.27802C11.8808 8.27802 13.65 6.5102 13.65 4.33695C13.65 2.1637 11.8822 0.394516 9.70756 0.394516ZM9.70756 7.55588C7.93291 7.55588 6.48999 6.11159 6.48999 4.33832C6.48999 2.56504 7.93291 1.11939 9.70756 1.11939C11.4822 1.11939 12.9251 2.56367 12.9251 4.33832C12.9251 6.11296 11.4822 7.55588 9.70756 7.55588ZM9.70756 1.51391C8.14997 1.51391 6.88315 2.78073 6.88315 4.33832C6.88315 5.89591 8.14997 7.16136 9.70756 7.16136C11.2651 7.16136 12.532 5.89591 12.532 4.33832C12.532 2.78073 11.2651 1.51391 9.70756 1.51391Z" fill="#E3CEB3"/>
<path d="M14.631 27.7226C14.3225 27.7226 14.0713 27.4714 14.0713 27.1629V15.9745C14.0713 15.666 14.3211 15.4148 14.631 15.4148C14.9409 15.4148 15.1907 15.666 15.1907 15.9745V27.1629C15.1907 27.4714 14.9409 27.7226 14.631 27.7226Z" fill="#E3CEB3"/>
<path d="M14.6313 27.9206C14.2135 27.9206 13.875 27.5807 13.875 27.1643V15.9745C13.875 15.5582 14.2149 15.2183 14.6313 15.2183C15.0476 15.2183 15.3875 15.5582 15.3875 15.9745V27.1643C15.3875 27.5807 15.0476 27.9206 14.6313 27.9206ZM14.6313 15.6128C14.4306 15.6128 14.2682 15.7739 14.2682 15.9745V27.1643C14.2682 27.365 14.4306 27.5261 14.6313 27.5261C14.8319 27.5261 14.993 27.365 14.993 27.1643V15.9745C14.993 15.7739 14.8306 15.6128 14.6313 15.6128Z" fill="#E3CEB3"/>
<path d="M3.44164 29.0644C1.65198 29.0644 0.196777 27.6092 0.196777 25.8195V15.973C0.196777 12.7036 2.85737 10.043 6.12681 10.043H13.2882C13.5967 10.043 13.8479 10.2941 13.8479 10.6027C13.8479 10.9112 13.598 11.1624 13.2882 11.1624H6.12681C3.4744 11.1624 1.31617 13.3206 1.31617 15.973V25.8195C1.31617 26.9922 2.27038 27.945 3.44164 27.945C3.87301 27.945 4.22521 27.5942 4.22521 27.1614V15.973C4.22521 15.6645 4.47503 15.4133 4.78491 15.4133C5.09479 15.4133 5.3446 15.6645 5.3446 15.973V27.1614C5.3446 28.2098 4.49141 29.063 3.44301 29.063L3.44164 29.0644Z" fill="#E3CEB3"/>
<path d="M3.44144 29.2624C1.54394 29.2624 0 27.7184 0 25.8196V15.973C0 12.5944 2.74933 9.84644 6.12661 9.84644H13.288C13.7043 9.84644 14.0442 10.1863 14.0442 10.6027C14.0442 11.0191 13.7043 11.359 13.288 11.359H6.12661C3.58205 11.359 1.51254 13.4285 1.51254 15.973V25.8196C1.51254 26.883 2.37802 27.7471 3.44144 27.7471C3.76497 27.7471 4.02707 27.485 4.02707 27.1628V15.973C4.02707 15.5567 4.36698 15.2168 4.78334 15.2168C5.1997 15.2168 5.53961 15.5567 5.53961 15.973V27.1628C5.53961 28.3191 4.59769 29.2624 3.44007 29.2624H3.44144ZM6.12661 10.241C2.96502 10.241 0.393151 12.8128 0.393151 15.973V25.8196C0.393151 27.5 1.76099 28.8665 3.44144 28.8665C4.382 28.8665 5.14646 28.102 5.14646 27.1615V15.9717C5.14646 15.771 4.98401 15.6099 4.78334 15.6099C4.58267 15.6099 4.42159 15.771 4.42159 15.9717V27.1615C4.42159 27.7021 3.98202 28.1416 3.44144 28.1416C2.16097 28.1416 1.11802 27.0987 1.11802 25.8182V15.9717C1.11802 13.2101 3.36499 10.9631 6.12661 10.9631H13.288C13.4873 10.9631 13.6497 10.802 13.6497 10.6013C13.6497 10.4007 13.4873 10.2396 13.288 10.2396H6.12661V10.241Z" fill="#E3CEB3"/>
<path d="M14.6313 27.7075H4.78479C4.47628 27.7075 4.2251 27.4563 4.2251 27.1478C4.2251 26.8393 4.47491 26.5881 4.78479 26.5881H14.6313C14.9398 26.5881 15.191 26.8393 15.191 27.1478C15.191 27.4563 14.9412 27.7075 14.6313 27.7075Z" fill="#E3CEB3"/>
<path d="M14.6311 27.9041H4.78459C4.36823 27.9041 4.02832 27.5642 4.02832 27.1479C4.02832 26.7315 4.36823 26.3916 4.78459 26.3916H14.6311C15.0475 26.3916 15.3874 26.7315 15.3874 27.1479C15.3874 27.5642 15.0475 27.9041 14.6311 27.9041ZM4.78459 26.7861C4.58528 26.7861 4.42284 26.9472 4.42284 27.1479C4.42284 27.3485 4.58528 27.5096 4.78459 27.5096H14.6311C14.8304 27.5096 14.9929 27.3485 14.9929 27.1479C14.9929 26.9472 14.8304 26.7861 14.6311 26.7861H4.78459Z" fill="#E3CEB3"/>
<path d="M15.973 29.0645C14.9246 29.0645 14.0714 28.2113 14.0714 27.1629V15.9745C14.0714 15.666 14.3212 15.4148 14.6311 15.4148C14.941 15.4148 15.1908 15.666 15.1908 15.9745V27.1629C15.1908 27.5943 15.5416 27.9465 15.9744 27.9465C17.147 27.9465 18.0998 26.9923 18.0998 25.821V15.9745C18.0998 13.3221 15.9416 11.1638 13.2892 11.1638C12.9807 11.1638 12.7295 10.9126 12.7295 10.6041C12.7295 10.2956 12.9793 10.0444 13.2892 10.0444C16.5586 10.0444 19.2192 12.705 19.2192 15.9745V25.821C19.2192 27.6107 17.764 29.0659 15.9744 29.0659L15.973 29.0645Z" fill="#E3CEB3"/>
<path d="M15.9731 29.2624C14.8155 29.2624 13.8735 28.3191 13.8735 27.1628V15.973C13.8735 15.5567 14.2135 15.2168 14.6298 15.2168C15.0462 15.2168 15.3861 15.5567 15.3861 15.973V27.1628C15.3861 27.4864 15.6495 27.7471 15.9717 27.7471C17.0351 27.7471 17.9006 26.883 17.9006 25.8196V15.973C17.9006 13.4285 15.8311 11.359 13.2865 11.359C12.8702 11.359 12.5303 11.0191 12.5303 10.6027C12.5303 10.1863 12.8702 9.84644 13.2865 9.84644C16.6652 9.84644 19.4132 12.5958 19.4132 15.973V25.8196C19.4132 27.7184 17.8692 29.2624 15.9717 29.2624H15.9731ZM14.6312 15.6113C14.4305 15.6113 14.2681 15.7724 14.2681 15.973V27.1628C14.2681 28.1034 15.0325 28.8679 15.9731 28.8679C17.6535 28.8679 19.0214 27.5 19.0214 25.8209V15.9744C19.0214 12.8142 16.4495 10.2423 13.2879 10.2423C13.0886 10.2423 12.9262 10.4034 12.9262 10.6041C12.9262 10.8047 13.0886 10.9658 13.2879 10.9658C16.0495 10.9658 18.2965 13.2128 18.2965 15.9744V25.8209C18.2965 27.1014 17.2549 28.1444 15.9731 28.1444C15.4325 28.1444 14.9929 27.7048 14.9929 27.1642V15.9744C14.9929 15.7737 14.8305 15.6127 14.6312 15.6127V15.6113Z" fill="#E3CEB3"/>
<path d="M27.6092 20.1135H21.3434C21.0349 20.1135 20.7837 19.8624 20.7837 19.5538C20.7837 19.2453 21.0349 18.9941 21.3434 18.9941H27.6092C27.9178 18.9941 28.1689 19.2453 28.1689 19.5538C28.1689 19.8624 27.9178 20.1135 27.6092 20.1135Z" fill="#E3CEB3"/>
<path d="M27.6095 20.3115H21.3437C20.926 20.3115 20.5874 19.9716 20.5874 19.5552C20.5874 19.1389 20.9273 18.7976 21.3437 18.7976H27.6095C28.0259 18.7976 28.3658 19.1375 28.3658 19.5552C28.3658 19.973 28.0259 20.3115 27.6095 20.3115ZM21.3437 19.1921C21.143 19.1921 20.9806 19.3546 20.9806 19.5552C20.9806 19.7559 21.143 19.917 21.3437 19.917H27.6095C27.8088 19.917 27.9713 19.7559 27.9713 19.5552C27.9713 19.3546 27.8088 19.1921 27.6095 19.1921H21.3437Z" fill="#E3CEB3"/>
<path d="M27.6092 23.6943H21.3434C21.0349 23.6943 20.7837 23.4432 20.7837 23.1346C20.7837 22.8261 21.0349 22.575 21.3434 22.575H27.6092C27.9178 22.575 28.1689 22.8261 28.1689 23.1346C28.1689 23.4432 27.9178 23.6943 27.6092 23.6943Z" fill="#E3CEB3"/>
<path d="M27.6095 23.8907H21.3437C20.926 23.8907 20.5874 23.5508 20.5874 23.1344C20.5874 22.7181 20.9273 22.3782 21.3437 22.3782H27.6095C28.0259 22.3782 28.3658 22.7181 28.3658 23.1344C28.3658 23.5508 28.0259 23.8907 27.6095 23.8907ZM21.3437 22.7727C21.143 22.7727 20.9806 22.9338 20.9806 23.1344C20.9806 23.3351 21.143 23.4962 21.3437 23.4962H27.6095C27.8088 23.4962 27.9713 23.3351 27.9713 23.1344C27.9713 22.9338 27.8088 22.7727 27.6095 22.7727H21.3437Z" fill="#E3CEB3"/>
</svg>
