<svg width="57" height="51" viewBox="0 0 57 51" fill="none" xmlns="http://www.w3.org/2000/svg">
<path d="M39.5534 39.0168C39.2476 39.0168 38.9737 38.8034 38.9069 38.4929C38.8304 38.1362 39.0581 37.7859 39.4148 37.7095C42.8592 36.9754 45.5185 35.8527 47.4596 35.0311C49.9851 33.9642 51.6524 33.2587 52.8021 34.4021C54.1731 35.762 53.31 37.4897 52.6619 38.2142C52.4183 38.4849 51.9995 38.5072 51.7288 38.2652C51.4581 38.0232 51.4342 37.6059 51.6762 37.3337C51.7829 37.211 52.6795 36.1394 51.8721 35.3384C51.3514 34.8193 49.9342 35.418 47.9739 36.2476C45.9834 37.0884 43.2573 38.2397 39.6903 39.0009C39.6441 39.0104 39.598 39.0152 39.5518 39.0152L39.5534 39.0168Z" fill="#DEC8A1"/>
<path d="M39.5531 39.2477C39.1359 39.2477 38.7697 38.9516 38.6821 38.5423C38.5786 38.063 38.8875 37.5869 39.3668 37.485C42.8 36.7541 45.4418 35.6362 47.3702 34.8209C49.9817 33.7158 51.7079 32.9881 52.9642 34.2413C54.4595 35.7238 53.5311 37.5901 52.8337 38.3703C52.5041 38.7334 51.9403 38.7637 51.5757 38.4404C51.211 38.1124 51.1776 37.5503 51.5024 37.184C51.5916 37.0821 52.3671 36.1585 51.7094 35.504C51.297 35.09 49.797 35.727 48.0629 36.4611C46.066 37.305 43.3303 38.4627 39.7379 39.2286C39.6821 39.2414 39.6216 39.2477 39.5515 39.2477H39.5531ZM51.3273 34.0518C50.3718 34.0518 49.1377 34.5741 47.5549 35.2429C45.6058 36.0677 42.9417 37.1951 39.464 37.934C39.2331 37.9834 39.0834 38.2127 39.1327 38.4452C39.1741 38.6426 39.3509 38.7859 39.5531 38.7859C39.5898 38.7859 39.6168 38.7859 39.6407 38.778C43.1949 38.02 45.9052 36.8735 47.8845 36.0375C50.0024 35.1394 51.4021 34.5454 52.0359 35.1776C52.9929 36.1282 51.9706 37.3512 51.8496 37.4881C51.6919 37.6665 51.7079 37.9372 51.883 38.0964C52.0598 38.2509 52.3337 38.2382 52.4913 38.0598C53.0901 37.3942 53.891 35.8066 52.6426 34.5661C52.2779 34.2046 51.8432 34.0518 51.3273 34.0518Z" fill="#DEC8A1"/>
<path d="M27.44 50.1476C17.9557 50.1476 10.86 47.7367 10.7278 47.6905C10.4619 47.5982 10.2852 47.3482 10.2852 47.0663V32.4418C10.2852 32.0835 10.5702 31.7921 10.9285 31.781C20.3921 31.5198 23.6581 33.617 26.2744 35.297C28.6948 36.8511 30.6041 38.0773 36.7746 37.1505C39.2077 36.7906 40.332 38.2031 40.5549 39.528C40.6616 40.1617 40.582 40.8512 40.324 41.4675C45.2015 40.3098 48.5169 38.7556 50.8163 37.6776C53.1412 36.5868 54.5441 35.9292 55.568 36.7779C56.4087 37.4738 56.5537 38.2206 56.5282 38.727C56.4501 40.2525 54.767 41.4197 54.5743 41.5471C45.7318 48.3275 35.6838 50.1492 27.4416 50.1492L27.44 50.1476ZM11.6068 46.5838C14.9668 47.6173 36.7172 53.5712 53.8036 40.4706C54.181 40.2143 55.1699 39.3894 55.2065 38.6537C55.2113 38.5439 55.2288 38.211 54.724 37.7938C54.3466 37.4785 53.0361 38.0932 51.3768 38.8719C48.657 40.1474 44.5486 42.0742 38.16 43.2764C38.1584 43.2764 38.1552 43.2764 38.1536 43.2764C37.7953 43.3481 37.4497 43.1076 37.3829 42.7494C37.316 42.3911 37.5517 42.0455 37.9099 41.9786C37.9115 41.9786 37.9131 41.9786 37.9163 41.9786C38.91 41.7891 39.41 40.6729 39.2539 39.7477C39.0819 38.7334 38.2523 38.27 36.972 38.4579C30.3127 39.4611 28.1104 38.047 25.561 36.4101C23.0307 34.7858 20.1739 32.945 11.6068 33.0899V46.587V46.5838Z" fill="#DEC8A1"/>
<path d="M27.4383 50.3785C17.8919 50.3785 10.7198 47.931 10.6498 47.9071C10.2931 47.7829 10.0542 47.4437 10.0542 47.0664V32.4402C10.0542 31.9562 10.4348 31.5644 10.9205 31.5501C20.4668 31.2905 23.7519 33.4036 26.3969 35.1043C28.7775 36.6314 30.6565 37.8369 36.7395 36.9228C39.3462 36.5454 40.5421 38.0646 40.781 39.4882C40.8717 40.0296 40.8367 40.6028 40.6806 41.1427C45.3034 40.0041 48.4181 38.5439 50.7111 37.4706C53.1268 36.3368 54.5758 35.6601 55.7128 36.5996C56.6252 37.356 56.7829 38.1776 56.7558 38.7381C56.6714 40.3783 54.9007 41.6029 54.7001 41.7382C47.227 47.4692 38.05 50.3801 27.4383 50.3801V50.3785ZM12.4937 31.9896C11.9937 31.9896 11.473 31.9976 10.9332 32.0119C10.6991 32.0183 10.5144 32.2062 10.5144 32.4402V47.0664C10.5144 47.2495 10.6306 47.4135 10.8042 47.4724C10.8743 47.4979 17.9684 49.9167 27.4383 49.9167C37.9465 49.9167 47.0279 47.0393 54.4325 41.3608C54.6268 41.2302 56.224 40.1267 56.2956 38.7111C56.3195 38.2588 56.1858 37.5853 55.4198 36.9515C54.509 36.1967 53.157 36.8321 50.9149 37.8814C48.6633 38.9372 45.2731 40.5264 40.3765 41.6888L39.9354 41.7939L40.1106 41.3767C40.351 40.8035 40.4275 40.1602 40.3271 39.5662C40.1217 38.3464 39.0819 37.055 36.808 37.3782C30.553 38.3178 28.6087 37.0693 26.1517 35.4913C23.7058 33.9196 20.6993 31.988 12.4953 31.988L12.4937 31.9896ZM27.4622 49.0935C19.7041 49.0935 13.5495 47.423 11.5383 46.8052L11.3759 46.7542V32.8622L11.602 32.8574C20.2296 32.7316 23.1198 34.5709 25.674 36.2078C28.1931 37.8257 30.3588 39.2175 36.9353 38.227C38.3398 38.0279 39.2873 38.5773 39.4784 39.7063C39.6536 40.7382 39.0835 41.9866 37.9577 42.2032C37.7172 42.2462 37.5643 42.4723 37.6073 42.7064C37.6296 42.8226 37.6949 42.9214 37.7921 42.9866C37.886 43.0503 37.9975 43.0695 38.1058 43.0503C44.4785 41.8513 48.5694 39.9324 51.278 38.6617C53.3163 37.7031 54.4007 37.2222 54.8704 37.6155C55.4612 38.1044 55.4437 38.5232 55.4373 38.6601C55.3864 39.6633 53.9484 40.6506 53.9325 40.6602C45.2811 47.2941 35.5102 49.0903 27.4622 49.0903V49.0935ZM11.8361 46.4135C16.2677 47.7495 37.0516 53.0219 53.6634 40.2891C54.087 40.0009 54.9469 39.2334 54.9771 38.6426C54.9803 38.5614 54.9899 38.3146 54.5774 37.9706C54.3099 37.754 52.7398 38.4865 51.4739 39.0805C48.7461 40.3608 44.6218 42.2955 38.2029 43.5042C37.9672 43.5519 37.7331 43.5042 37.5357 43.372C37.335 43.2366 37.2013 43.0312 37.1551 42.794C37.0659 42.3115 37.3844 41.8449 37.8653 41.7541C38.7316 41.5885 39.1615 40.6044 39.023 39.7891C38.8239 38.6044 37.6726 38.5885 37.0022 38.6872C30.2569 39.7015 28.0227 38.2668 25.4335 36.6043C22.9494 35.0088 20.1659 33.2173 11.8345 33.3176V46.4167L11.8361 46.4135Z" fill="#DEC8A1"/>
<path d="M31.7078 43.8304C29.488 43.8304 27.0261 43.6122 24.8828 42.9004C24.5356 42.7858 24.3493 42.4116 24.464 42.066C24.5786 41.7189 24.9497 41.5278 25.3 41.6472C29.3271 42.9816 35.125 42.4832 37.9165 41.9768C38.2748 41.9099 38.6187 42.1504 38.684 42.5103C38.7493 42.8702 38.5104 43.2141 38.1522 43.2778C37.676 43.3638 34.9499 43.8304 31.7094 43.8304H31.7078Z" fill="#DEC8A1"/>
<path d="M31.7075 44.0614C29.0132 44.0614 26.6931 43.7429 24.8093 43.1187C24.5848 43.0439 24.4001 42.8862 24.295 42.6729C24.1883 42.4595 24.1692 42.219 24.2456 41.9929C24.3204 41.7636 24.4813 41.5773 24.6962 41.4706C24.908 41.3655 25.1469 41.3496 25.3746 41.4276C29.3524 42.7461 35.1041 42.2509 37.8733 41.7493C38.109 41.7047 38.3414 41.7556 38.5373 41.891C38.7348 42.0279 38.8669 42.2334 38.9083 42.4674C38.9513 42.7015 38.9004 42.9388 38.765 43.1331C38.6297 43.3289 38.4258 43.4595 38.1902 43.5025C37.6726 43.5949 34.9258 44.0598 31.7075 44.0598V44.0614ZM25.0848 41.8416C25.0211 41.8416 24.959 41.856 24.9001 41.8846C24.7966 41.9356 24.7185 42.0263 24.6819 42.1378C24.6453 42.2477 24.6548 42.3639 24.7058 42.4658C24.7568 42.5678 24.8459 42.6442 24.9542 42.6808C26.7918 43.2907 29.0626 43.5996 31.7075 43.5996C34.886 43.5996 37.5978 43.1426 38.109 43.0503C38.222 43.0296 38.3207 42.9659 38.386 42.8719C38.4513 42.778 38.4752 42.6633 38.4545 42.5518C38.4338 42.4356 38.3701 42.3369 38.2746 42.2716C38.1806 42.2079 38.066 42.184 37.9561 42.2047C35.1423 42.7143 29.2967 43.2175 25.2249 41.8655C25.1787 41.8496 25.131 41.8416 25.0832 41.8416H25.0848Z" fill="#DEC8A1"/>
<path d="M9.88881 48.6333H1.94915C1.00167 48.6333 0.230957 47.8626 0.230957 46.9151V32.6091C0.230957 31.6616 1.00167 30.8909 1.94915 30.8909H9.88881C10.8363 30.8909 11.607 31.6616 11.607 32.6091V46.9151C11.607 47.8626 10.8363 48.6333 9.88881 48.6333ZM1.94915 32.2126C1.73099 32.2126 1.55264 32.3909 1.55264 32.6091V46.9151C1.55264 47.1333 1.73099 47.3116 1.94915 47.3116H9.88881C10.107 47.3116 10.2853 47.1333 10.2853 46.9151V32.6091C10.2853 32.3909 10.107 32.2126 9.88881 32.2126H1.94915Z" fill="#DEC8A1"/>
<path d="M9.88875 48.8641H1.94909C0.874222 48.8641 0 47.9899 0 46.915V32.609C0 31.5341 0.874222 30.6599 1.94909 30.6599H9.88875C10.9636 30.6599 11.8378 31.5341 11.8378 32.609V46.915C11.8378 47.9899 10.9636 48.8641 9.88875 48.8641ZM1.94909 31.1217C1.129 31.1217 0.460201 31.7889 0.460201 32.609V46.915C0.460201 47.7351 1.12741 48.4023 1.94909 48.4023H9.88875C10.7088 48.4023 11.3776 47.7351 11.3776 46.915V32.609C11.3776 31.7889 10.7104 31.1217 9.88875 31.1217H1.94909ZM9.88875 47.5424H1.94909C1.60354 47.5424 1.32168 47.2606 1.32168 46.9134V32.6074C1.32168 32.2603 1.60354 31.9784 1.94909 31.9784H9.88875C10.2343 31.9784 10.5161 32.2603 10.5161 32.6074V46.9134C10.5161 47.2606 10.2343 47.5424 9.88875 47.5424ZM1.94909 32.4434C1.85832 32.4434 1.78188 32.5182 1.78188 32.6106V46.9166C1.78188 47.0074 1.85673 47.0838 1.94909 47.0838H9.88875C9.97951 47.0838 10.0559 47.009 10.0559 46.9166V32.6106C10.0559 32.5198 9.9811 32.4434 9.88875 32.4434H1.94909Z" fill="#DEC8A1"/>
<path d="M8.29145 44.2385C8.29145 43.6557 7.81851 43.1812 7.23411 43.1812C6.6497 43.1812 6.17676 43.6557 6.17676 44.2385C6.17676 44.8213 6.6497 45.2958 7.23411 45.2958C7.81851 45.2958 8.29145 44.8229 8.29145 44.2385Z" fill="#DEC8A1"/>
<path d="M7.23392 45.5267C6.52371 45.5267 5.94727 44.9486 5.94727 44.2384C5.94727 43.5282 6.5253 42.9502 7.23392 42.9502C7.94253 42.9502 8.52216 43.5282 8.52216 44.2384C8.52216 44.9486 7.94412 45.5267 7.23392 45.5267ZM7.23392 43.412C6.77849 43.412 6.40747 43.783 6.40747 44.2384C6.40747 44.6939 6.77849 45.0649 7.23392 45.0649C7.68934 45.0649 8.06196 44.6939 8.06196 44.2384C8.06196 43.783 7.69093 43.412 7.23392 43.412Z" fill="#DEC8A1"/>
<path d="M36.5361 34.3272C36.4278 34.3272 36.3179 34.3002 36.2192 34.246C35.4166 33.8065 16.542 23.3732 16.542 11.0974C16.542 5.10527 21.5007 0.230957 27.5932 0.230957C31.1299 0.230957 34.4691 1.93322 36.5361 4.73424C38.603 1.93481 41.9422 0.230957 45.4789 0.230957C51.5714 0.230957 56.5285 5.10686 56.5285 11.0974C56.5285 23.3732 37.6555 33.8081 36.8513 34.246C36.7526 34.3002 36.6443 34.3272 36.5345 34.3272H36.5361ZM27.5932 1.55264C22.2284 1.55264 17.8637 5.83458 17.8637 11.0974C17.8637 21.7633 34.0519 31.48 36.5361 32.9068C39.0202 31.48 55.2084 21.7617 55.2084 11.0974C55.2084 5.83458 50.8437 1.55264 45.4805 1.55264C42.0616 1.55264 38.8514 3.35682 37.1029 6.26293C36.9835 6.46039 36.7685 6.583 36.5361 6.583C36.3036 6.583 36.0886 6.46198 35.9692 6.26293C34.2223 3.35682 31.012 1.55264 27.5932 1.55264Z" fill="#DEC8A1"/>
<path d="M36.5359 34.5581C36.3878 34.5581 36.2397 34.5198 36.1091 34.4482C35.3002 34.0055 16.3125 23.475 16.3125 11.0958C16.3125 4.97781 21.3731 0 27.593 0C31.0835 0 34.4021 1.62265 36.5359 4.352C38.6697 1.62265 41.9898 0 45.4787 0C51.6986 0 56.7592 4.97781 56.7592 11.0974C56.7592 23.4766 37.7716 34.0071 36.9626 34.4498C36.832 34.5198 36.684 34.5597 36.5359 34.5597V34.5581ZM27.593 0.461793C21.6263 0.461793 16.7727 5.2326 16.7727 11.0974C16.7727 23.2059 35.5311 33.609 36.3288 34.0453C36.4578 34.1138 36.6155 34.1138 36.7413 34.0453C37.5391 33.609 56.2974 23.2059 56.2974 11.0974C56.2974 5.2326 51.4438 0.461793 45.4771 0.461793C42.0312 0.461793 38.7572 2.10992 36.719 4.86953L36.5343 5.12113L36.3496 4.86953C34.3129 2.10992 31.0389 0.461793 27.593 0.461793ZM36.5359 33.1727L36.4212 33.1074C33.2842 31.3048 17.6342 21.7696 17.6342 11.0974C17.6342 5.70713 22.1024 1.32168 27.593 1.32168C31.0931 1.32168 34.3782 3.17045 36.1664 6.14504C36.3209 6.39982 36.7492 6.40141 36.9053 6.14504C38.6935 3.17204 41.9802 1.32328 45.4787 1.32328C50.9709 1.32328 55.4375 5.70872 55.4375 11.099C55.4375 21.7712 39.7875 31.308 36.6505 33.109L36.5359 33.1743V33.1727ZM27.593 1.78348C22.3556 1.78348 18.0944 5.96032 18.0944 11.0974C18.0944 21.5498 34.1664 31.2666 36.5359 32.6424C38.9053 31.2666 54.9773 21.5482 54.9773 11.0974C54.9773 5.96032 50.7161 1.78348 45.4787 1.78348C42.1395 1.78348 39.0057 3.54466 37.2986 6.3823C37.1378 6.64982 36.8448 6.81384 36.5343 6.81384C36.2237 6.81384 35.9308 6.64664 35.7715 6.3823C34.0661 3.54625 30.9322 1.78348 27.593 1.78348Z" fill="#DEC8A1"/>
</svg>
