<svg width="46" height="35" viewBox="0 0 46 35" fill="none" xmlns="http://www.w3.org/2000/svg">
<g clip-path="url(#clip0_286_2308)">
<path d="M21.4419 0.0133801C25.978 0.0924894 29.1444 1.26155 31.6994 3.90439C32.2199 4.44204 32.5976 4.52114 33.2926 4.20471C36.2009 2.88182 39.1956 1.92372 42.4586 2.0922C45.028 2.22405 46.0791 3.9161 44.4715 5.94804C42.8349 8.01514 40.7356 9.7028 38.8337 11.5516C38.7314 11.6512 38.5973 11.7186 38.4718 11.7919C36.7272 12.813 36.0452 14.1505 35.7597 16.3714C34.9623 22.58 30.9885 26.9779 24.8707 28.2583C20.9863 29.0714 17.4796 27.9785 14.1345 26.033C13.7596 25.8147 13.1829 25.7635 12.7532 25.866C9.82762 26.5663 6.9237 27.3618 3.99381 28.0474C3.36516 28.1939 2.64999 28.0855 1.99538 27.9683C0.49151 27.6972 -0.493288 26.2601 0.252159 24.9592C1.24128 23.2305 2.56204 21.6556 3.94191 20.2141C5.03484 19.0729 6.47672 18.2818 7.67058 17.227C8.05412 16.8886 8.3944 16.1678 8.32664 15.6843C7.01165 6.38754 15.3788 -0.341147 21.4419 0.0133801ZM9.3172 17.8379C12.6508 16.7714 15.536 15.847 18.4212 14.924C18.5091 15.1013 18.5971 15.2771 18.685 15.4543C18.2409 15.7254 17.8271 16.0814 17.3499 16.2542C14.8929 17.1405 12.4201 17.9814 9.58683 18.9644C10.811 20.6463 11.8448 22.2079 13.0473 23.6216C13.3573 23.9864 14.3464 24.1739 14.7761 23.9513C21.2919 20.554 27.7703 17.0805 34.2414 13.5953C34.5485 13.4297 34.9421 12.9419 34.9003 12.6694C34.524 10.2522 33.7021 8.00928 32.2228 6.16046C29.6259 7.66794 27.1517 9.14757 24.6299 10.5349C24.0675 10.844 23.3351 10.8338 22.6805 10.9715C22.6473 10.825 22.6156 10.6799 22.5824 10.5335C25.5238 8.79451 28.4652 7.05557 31.7152 5.13497C30.2878 4.04063 29.1761 3.18947 27.9894 2.27971C27.1791 4.48598 25.495 5.406 23.7633 6.10479C19.4146 7.86131 15.0039 9.46108 10.6365 11.1722C10.1376 11.367 9.41092 11.8446 9.3792 12.2387C9.24078 13.9718 9.32008 15.7239 9.32008 17.8408L9.3172 17.8379ZM15.1351 25.2522C22.8996 30.3401 31.6893 25.6843 33.3186 20.3196C31.4528 21.2615 29.6764 22.1874 27.8698 23.0488C27.4631 23.2437 26.9527 23.2144 26.4899 23.2876C26.8085 22.895 27.0522 22.3574 27.4603 22.1361C29.3578 21.1107 31.3331 20.2317 33.2076 19.1681C33.7901 18.8385 34.3192 18.1572 34.5557 17.517C34.8643 16.682 34.8571 15.7254 34.9897 14.7936C28.2994 18.3169 21.6913 21.7977 15.1323 25.2522H15.1351ZM9.96893 10.2141C10.5096 10.0559 11.0604 9.94306 11.5752 9.73796C15.8719 8.01953 20.173 6.31282 24.4468 4.53579C25.5512 4.07725 26.5908 3.41361 26.8057 2.02481C19.0642 -1.22014 10.9854 4.59146 9.96748 10.2155L9.96893 10.2141ZM8.21417 18.169C7.79314 18.462 7.01165 18.8736 6.39597 19.464C4.72917 21.0652 2.95855 22.6049 1.56282 24.4318C0.501603 25.8206 1.23552 27.0834 2.94125 27.0644C6.26764 27.0277 9.3792 25.9891 12.1764 24.8683C10.834 22.5991 9.5479 20.425 8.21273 18.169H8.21417ZM36.2903 12.3456C38.5439 10.2873 40.8754 8.26126 43.0627 6.08575C43.5919 5.55982 43.6453 4.54019 43.9178 3.74763C43.119 3.51763 42.3231 3.28177 41.5214 3.06495C41.3902 3.02979 41.2301 3.06055 41.0917 3.09425C38.4098 3.76521 35.7279 4.44057 33.1816 5.08223C34.2717 7.62838 35.2319 9.87128 36.2903 12.3456Z" fill="#DEC8A1"/>
<path d="M46 20.0907C43.9107 20.8759 42.3766 21.9483 41.9108 24.3538C41.275 22.2164 40.0667 20.8598 37.9846 20.1932C39.6384 19.3699 41.3975 18.8996 41.6311 16.5366C42.4357 18.7282 43.7925 19.7977 45.9985 20.0892L46 20.0907ZM41.6715 19.0051C41.3918 19.4036 41.014 19.9427 40.6016 20.5302C40.8265 20.7485 41.3413 21.2495 41.8806 21.774C42.3261 21.2817 42.7673 20.7924 43.0326 20.4979C42.5409 19.9588 42.1228 19.5003 41.6715 19.0051Z" fill="#DEC8A1"/>
<path d="M13.9731 31.3301C14.5946 31.8663 15.2449 32.4274 15.9528 33.0383C15.2824 33.6799 14.5874 34.3465 13.9054 34.9999C13.2147 34.3523 12.527 33.7078 11.8435 33.0661C12.4996 32.5299 13.2133 31.9483 13.9731 31.3286V31.3301Z" fill="#DEC8A1"/>
</g>
<defs>
<clipPath id="clip0_286_2308">
<rect width="46" height="35" fill="white"/>
</clipPath>
</defs>
</svg>
