<svg width="34" height="36" viewBox="0 0 34 36" fill="none" xmlns="http://www.w3.org/2000/svg">
<g clip-path="url(#clip0_286_2294)">
<path d="M22.3663 20.8015C23.7515 23.3799 24.3275 25.0152 24.0945 25.7073C22.6964 24.8097 21.3385 23.9392 19.8585 22.99C18.9749 27.3322 18.0952 31.6499 17.2168 35.9689C17.0414 35.9792 16.8647 35.9895 16.6892 35.9998C15.7485 31.7737 14.8077 27.5476 13.8163 23.0893C12.5806 23.8902 11.5865 24.5582 10.5626 25.1785C10.3053 25.3346 9.95188 25.3333 9.64132 25.4042C9.66601 25.0638 9.58545 24.6691 9.73228 24.3932C10.3547 23.2235 11.046 22.0899 11.7931 20.8015C7.85206 19.9452 3.92528 19.0928 -0.00149536 18.239C0.00500162 18.0288 0.0101992 17.8186 0.0166962 17.6071C3.99545 16.7199 7.9755 15.8313 11.9452 14.9453C11.0174 13.3978 10.1156 11.8954 9.21512 10.3929C9.35026 10.2601 9.4867 10.1273 9.62183 9.99445C11.0278 10.7399 12.4324 11.4853 14.0346 12.3338C14.4231 10.5696 14.7999 8.92793 15.143 7.28107C15.5978 5.1016 16.0123 2.91439 16.4852 0.740072C16.545 0.465381 16.8543 0.243565 17.0479 -0.00146484C17.2012 0.26033 17.4364 0.505359 17.4975 0.787788C18.307 4.51095 19.0918 8.24056 19.891 11.9663C19.9247 12.1249 20.0456 12.2655 20.1976 12.5492C21.4281 11.6374 22.6158 10.7566 23.8047 9.87581C24.4739 10.8134 24.4609 10.8508 22.1051 14.8409C26.067 15.7256 30.034 16.6115 33.9998 17.4988C33.992 17.709 33.9842 17.9192 33.9764 18.1294C30.1081 19.0193 26.2385 19.9091 22.3663 20.8003V20.8015ZM30.9111 17.8238C27.3404 17.0087 24.1218 16.2749 20.9032 15.5411C19.9832 15.3309 19.4102 14.8989 19.2621 13.8479C19.0334 12.2397 18.6202 10.6586 18.2732 9.06721C17.8847 7.28107 17.4845 5.4988 17.0895 3.71396C16.1357 7.29526 15.4132 10.8508 14.5959 14.3843C14.492 14.8357 13.9657 15.3851 13.5187 15.5283C12.1297 15.9745 10.6873 16.2659 9.258 16.5806C7.28552 17.0152 5.30524 17.415 3.00921 17.896C6.49549 18.6298 9.64132 19.312 12.7963 19.9426C13.6889 20.1206 14.2282 20.4392 14.4374 21.4322C15.1806 24.9451 16.0318 28.4361 16.8738 32.0781C17.0167 31.6576 17.1557 31.3533 17.222 31.0335C17.7353 28.56 18.4902 26.1019 18.6669 23.6039C18.8592 20.8996 20.2301 20.0058 22.6795 19.6396C25.3445 19.2411 27.9563 18.4905 30.9098 17.8212L30.9111 17.8238ZM11.5631 11.9108C11.4709 11.9856 11.3799 12.0604 11.2877 12.1352C11.9646 12.989 12.6416 13.844 13.4525 14.868C14.4101 12.3932 11.8932 13.0496 11.5631 11.9108ZM22.7743 23.8863C21.2995 20.8196 21.2475 20.7796 20.1054 21.6862C20.9071 22.3465 21.6971 22.9978 22.7743 23.8863ZM13.2497 20.866C12.513 21.8565 11.9387 22.6289 11.3643 23.4001C11.7658 22.4845 14.0398 23.0764 13.2497 20.866ZM22.4988 12.4099C21.0522 13.1347 20.4757 13.8569 20.7694 14.5765C21.4022 13.7834 21.9505 13.0973 22.4988 12.4099Z" fill="#DEC8A1"/>
</g>
<defs>
<clipPath id="clip0_286_2294">
<rect width="34" height="36" fill="white"/>
</clipPath>
</defs>
</svg>
