<svg width="32" height="26" viewBox="0 0 32 26" fill="none" xmlns="http://www.w3.org/2000/svg">
<path d="M31.9588 5.81695C31.8805 5.16023 31.6931 4.52937 31.4179 3.9416C31.1444 3.35814 30.7841 2.81691 30.3567 2.33342C29.9319 1.85425 29.4417 1.43281 28.9042 1.08463C28.3633 0.733864 27.7742 0.457216 27.1576 0.271061C26.5341 0.0831813 25.8832 -0.012482 25.2244 0.00130727C24.582 0.0142347 23.9319 0.131444 23.2938 0.367586C22.7125 0.582182 22.1415 0.895889 21.5928 1.31991C21.1241 1.68274 20.6726 2.12486 20.2478 2.65661C20.0655 2.885 19.8875 3.1289 19.7155 3.38917C19.6381 3.50638 19.5616 3.6279 19.4868 3.752C19.4068 3.88472 19.3268 4.02175 19.2485 4.16137C18.9751 4.64744 18.7119 5.17488 18.4591 5.73421C18.2286 6.24356 18.0068 6.77961 17.7943 7.33636C17.594 7.86035 17.4005 8.40158 17.2156 8.9566C17.0376 9.49094 16.8664 10.0365 16.7031 10.5889C16.5422 11.131 16.3892 11.68 16.243 12.2307C16.1011 12.765 15.9661 13.3002 15.8379 13.8346C15.7941 13.5347 15.7382 13.208 15.6694 12.8598C15.6118 12.566 15.5447 12.2566 15.4699 11.936C15.3933 11.6076 15.3082 11.2663 15.2153 10.9173C15.1336 10.6105 15.0468 10.2976 14.953 9.98046C14.8266 9.54868 14.689 9.11001 14.542 8.66961C14.3992 8.24214 14.2479 7.81467 14.0888 7.39065C13.928 6.96232 13.7585 6.53916 13.5814 6.12635C13.3974 5.69629 13.2056 5.2783 13.0069 4.87841C12.7919 4.44491 12.5684 4.03382 12.3379 3.65289C12.0704 3.20991 11.7944 2.80829 11.5115 2.46098C11.3042 2.20587 11.0927 1.98007 10.8785 1.78961C10.7229 1.65085 10.5646 1.52072 10.4055 1.40006C9.98417 1.08032 9.54902 0.820909 9.107 0.618379C8.62456 0.396888 8.13439 0.24262 7.64421 0.150404C7.12737 0.0530172 6.61053 0.0228531 6.10315 0.0556027C5.58632 0.0883523 5.07894 0.185739 4.59134 0.340869C4.10546 0.495137 3.63936 0.705424 3.20336 0.966559C2.7665 1.22769 2.35888 1.53968 1.99081 1.89561C1.62361 2.24983 1.29596 2.64799 1.0182 3.08236C0.744728 3.50896 0.518557 3.97177 0.350005 4.46301C0.187472 4.93702 0.0773966 5.43774 0.0283788 5.96001C0.00945959 6.16168 0 6.3668 0 6.5745C0 6.88217 0.0249389 7.18812 0.0713769 7.4889C0.150493 8.00342 0.290667 8.50242 0.476419 8.96867C0.675071 9.46767 0.92532 9.92875 1.20567 10.3295C1.39658 10.6027 1.60125 10.8475 1.8128 11.0577C1.96587 11.2094 2.15851 11.3085 2.36318 11.3456C2.52915 11.3758 2.702 11.3646 2.86712 11.3068C2.90667 11.293 2.94365 11.2767 2.97805 11.2586C3.01331 11.2405 3.04599 11.2198 3.07609 11.1974C3.10704 11.175 3.13542 11.1508 3.16208 11.125C3.18874 11.0991 3.21368 11.0724 3.2369 11.044C3.27818 10.9931 3.31344 10.9388 3.34353 10.8819C3.37363 10.8251 3.39857 10.7656 3.41921 10.7053C3.43985 10.6449 3.45533 10.5837 3.46651 10.5226C3.47769 10.4622 3.48543 10.4019 3.48887 10.3433C3.49833 10.1933 3.48715 10.0778 3.45877 9.97787C3.37965 9.6995 3.16208 9.54609 2.86454 9.11259C2.83874 9.07553 2.81294 9.03589 2.78542 8.99366C2.61945 8.73425 2.48357 8.47398 2.37608 8.2137C2.23676 7.87759 2.14475 7.54234 2.09401 7.21225C2.03897 6.85373 2.03295 6.50124 2.06907 6.15823C2.10691 5.80316 2.18946 5.45929 2.30986 5.13265C2.43111 4.80343 2.59021 4.49145 2.78026 4.20188C2.97117 3.91058 3.19304 3.64255 3.43813 3.4021C3.6901 3.15475 3.96615 2.93671 4.25939 2.75486C4.5148 2.59542 4.78311 2.46356 5.05744 2.36273C5.1099 2.34377 5.16322 2.32567 5.21567 2.30843C5.55536 2.19898 5.8959 2.13693 6.23301 2.1171C6.57957 2.09642 6.9227 2.12141 7.25722 2.18605C7.59777 2.25155 7.92885 2.35928 8.24618 2.50234C8.56867 2.64799 8.87739 2.8307 9.16462 3.04616C9.36843 3.1987 9.56278 3.36676 9.74338 3.54947C9.80873 3.61497 9.87323 3.68305 9.93773 3.75458C10.1708 4.01313 10.4012 4.31564 10.6343 4.68622C10.8286 4.99476 11.0247 5.3507 11.226 5.76696C11.3911 6.10825 11.5588 6.49004 11.7325 6.92096C11.8778 7.28292 12.0266 7.67851 12.1805 8.11287C12.2932 8.43261 12.4093 8.77303 12.5271 9.13586C12.5477 9.19792 12.5675 9.26169 12.5881 9.32547C12.7085 9.70122 12.8306 10.1011 12.9562 10.5269C13.062 10.8837 13.1695 11.2594 13.2804 11.6541C13.424 12.1652 13.5728 12.7082 13.7293 13.2856C13.8764 13.8294 14.0294 14.4042 14.1902 15.0118C14.4302 15.9168 14.6873 16.8941 14.9668 17.9498C14.9092 18.2618 14.855 18.5686 14.8034 18.8685C14.7114 19.4072 14.628 19.926 14.5549 20.4172C14.548 20.4655 14.542 20.5129 14.5359 20.5612C14.4491 21.2291 14.4095 21.8229 14.4078 22.3495C14.4078 22.5899 14.4147 22.8166 14.4293 23.0295C14.4534 23.3776 14.4964 23.6905 14.5557 23.9697C14.8137 25.1866 15.3753 25.7701 15.9566 25.9433C16.4012 26.0752 16.8578 25.9674 17.1993 25.7192C17.6705 25.3762 17.8881 24.7704 17.9887 24.1955C18.0541 23.8206 18.079 23.4069 18.0713 22.9708C18.067 22.6968 18.0489 22.415 18.0214 22.1288C17.9964 21.8746 17.9629 21.6169 17.9225 21.3592C17.8889 21.1464 17.8511 20.9343 17.809 20.7232C17.7066 20.2104 17.5802 19.7088 17.4435 19.2443C17.3145 18.8091 17.176 18.4074 17.0367 18.0584C17.0668 17.905 17.0978 17.7481 17.1305 17.5878C17.2328 17.0811 17.3472 16.5381 17.4736 15.9702C17.5888 15.4514 17.7135 14.9127 17.8468 14.362C17.9741 13.838 18.11 13.3028 18.2527 12.765C18.3929 12.2385 18.5408 11.7093 18.6956 11.1836C18.8504 10.657 19.0129 10.1339 19.1815 9.6228C19.3552 9.09794 19.5349 8.58515 19.7215 8.09219C19.9185 7.57164 20.1231 7.07436 20.3347 6.60811C20.566 6.09791 20.8042 5.62648 21.051 5.20419C21.1714 4.99735 21.2935 4.80343 21.4174 4.62245C21.5773 4.38803 21.7442 4.16654 21.9161 3.9597C22.2257 3.58739 22.5551 3.26076 22.9068 2.99186C23.2611 2.72039 23.6369 2.50665 24.0368 2.36014C24.4272 2.21794 24.84 2.14037 25.2777 2.13693C25.2881 2.13693 25.2975 2.13693 25.3078 2.13693C25.7395 2.13693 26.1523 2.19639 26.541 2.30585C26.9762 2.42736 27.3812 2.6118 27.7484 2.84535C28.1328 3.09097 28.4759 3.39089 28.7675 3.73045C29.0607 4.07174 29.3015 4.45353 29.4821 4.86032C29.6575 5.2559 29.7745 5.67475 29.8269 6.1048C29.8768 6.51676 29.8656 6.93733 29.7874 7.35704C29.7108 7.76469 29.5698 8.16889 29.3574 8.56102C29.1854 8.87817 28.967 9.18757 28.6978 9.48146C28.6428 9.54092 28.5938 9.59953 28.549 9.65641C28.4329 9.80723 28.3538 9.95029 28.3177 10.0959C28.2988 10.1718 28.2928 10.2476 28.2988 10.3252C28.3048 10.4028 28.3237 10.482 28.3555 10.5648C28.3874 10.6467 28.4329 10.732 28.4931 10.8216C28.5533 10.9104 28.6273 11.0035 28.7167 11.1026C28.7288 11.1155 28.7399 11.1284 28.752 11.1413C28.8079 11.2008 28.8612 11.2542 28.9119 11.3016C28.9764 11.3603 29.0384 11.4094 29.0994 11.4464C29.1613 11.4844 29.2215 11.5102 29.2826 11.5231C29.3436 11.5361 29.4064 11.5361 29.4718 11.5231C29.6352 11.4887 29.8158 11.3654 30.0419 11.1362C30.1623 11.0147 30.2948 10.8638 30.4453 10.6803C30.7265 10.3235 30.9664 9.96408 31.1668 9.60298C31.5047 8.99625 31.7326 8.38607 31.8633 7.78365C32.0087 7.11401 32.0345 6.45384 31.9579 5.81781L31.9588 5.81695Z" fill="#172848"/>
</svg>
