<svg width="179" height="254" viewBox="0 0 179 254" fill="none" xmlns="http://www.w3.org/2000/svg">
<g filter="url(#filter0_d_427_111)">
<mask id="mask0_427_111" style="mask-type:alpha" maskUnits="userSpaceOnUse" x="7" y="3" width="166" height="252">
<path d="M89.9998 126.8C94.7529 126.8 99.2986 125.901 103.483 124.268C104.616 123.853 105.712 123.362 106.766 122.799C118.956 116.618 127.337 103.92 127.337 89.2935C127.337 68.612 110.588 51.7871 89.9998 51.7871C81.1598 51.7871 72.6251 54.9323 65.8948 60.6537C65.3803 60.2931 64.7583 60.079 64.0845 60.079C62.3376 60.079 60.9171 61.506 60.9171 63.2608C60.9171 63.9377 61.1302 64.5624 61.4892 65.0792C55.7936 71.84 52.6626 80.4154 52.6626 89.2935C52.6626 109.975 69.4116 126.8 89.9998 126.8ZM94.607 124.486C81.0043 124.486 69.9395 113.371 69.9395 99.7066C69.9395 86.0423 81.0043 74.9273 94.607 74.9273C96.6169 74.9273 98.6056 75.1722 100.529 75.6485C100.487 75.8838 100.462 76.1248 100.462 76.3736C100.462 78.6606 102.312 80.5195 104.589 80.5195C105.948 80.5195 107.152 79.8543 107.904 78.8342C111.229 80.9766 114.017 83.9057 115.99 87.344C118.138 91.0869 119.275 95.3601 119.275 99.7066C119.275 109.181 113.953 117.428 106.156 121.597C105.136 122.114 104.092 122.583 103.021 123.001C100.395 123.961 97.5594 124.486 94.607 124.486ZM104.589 79.1697C103.053 79.1697 101.806 77.9163 101.806 76.3736C101.806 74.8309 103.053 73.5775 104.589 73.5775C106.125 73.5775 107.373 74.8309 107.373 76.3736C107.373 77.9163 106.125 79.1697 104.589 79.1697ZM125.993 89.2935C125.993 98.6383 122.446 107.167 116.631 113.593C119.156 109.568 120.618 104.805 120.618 99.7066C120.618 95.1249 119.42 90.6164 117.153 86.6691C115.051 83.0071 112.072 79.8928 108.521 77.6289C108.647 77.2317 108.716 76.8113 108.716 76.3736C108.716 74.0885 106.866 72.2276 104.589 72.2276C103.036 72.2276 101.681 73.0954 100.978 74.372C98.9089 73.8474 96.7704 73.5775 94.607 73.5775C80.2653 73.5775 68.5957 85.2999 68.5957 99.7066C68.5957 112.584 77.9175 123.314 90.1361 125.448C90.0901 125.448 90.044 125.448 89.9998 125.448C70.1525 125.448 54.0064 109.229 54.0064 89.2916C54.0064 80.7529 57.0106 72.5053 62.4759 65.9952C62.9481 66.2767 63.4971 66.4406 64.0845 66.4406C65.8314 66.4406 67.252 65.0137 67.252 63.2589C67.252 62.6688 67.0888 62.1173 66.8085 61.6429C73.2893 56.1529 81.4996 53.135 89.9998 53.135C109.847 53.135 125.993 69.3544 125.993 89.2916V89.2935ZM64.0845 61.4289C65.0904 61.4289 65.9082 62.2503 65.9082 63.2608C65.9082 64.2713 65.0904 65.0927 64.0845 65.0927C63.0786 65.0927 62.2609 64.2713 62.2609 63.2608C62.2609 62.2503 63.0786 61.4289 64.0845 61.4289Z" fill="url(#paint0_linear_427_111)"/>
<path d="M90 48.3355C90.3705 48.3355 90.6719 48.0328 90.6719 47.6606V3.67492C90.6719 3.30275 90.3705 3 90 3C89.6295 3 89.3281 3.30275 89.3281 3.67492V47.6606C89.3281 48.0328 89.6295 48.3355 90 48.3355Z" fill="url(#paint1_linear_427_111)"/>
<path d="M78.6243 49.2552C78.705 49.556 78.9756 49.7566 79.2732 49.7566C79.3308 49.7566 79.3884 49.7489 79.4479 49.7335C79.8069 49.637 80.018 49.2668 79.922 48.9062L68.5884 6.41882C68.4924 6.05822 68.1239 5.84418 67.7649 5.94059C67.4059 6.03701 67.1947 6.40725 67.2907 6.76786L78.6243 49.2552Z" fill="url(#paint2_linear_427_111)"/>
<path d="M68.6959 53.5768C68.8206 53.7928 69.0472 53.9142 69.2775 53.9142C69.3908 53.9142 69.5079 53.8853 69.6135 53.8236C69.934 53.6366 70.0454 53.2239 69.8592 52.9019L47.9655 14.8073C47.7793 14.4852 47.3685 14.3734 47.0479 14.5604C46.7274 14.7475 46.616 15.1602 46.8022 15.4822L68.6959 53.5748V53.5768Z" fill="url(#paint3_linear_427_111)"/>
<path d="M60.2203 60.3317C60.3509 60.4628 60.5236 60.5284 60.6945 60.5284C60.8653 60.5284 61.0381 60.4628 61.1686 60.3317C61.4316 60.0675 61.4316 59.6414 61.1686 59.3772L30.2066 28.2748C29.9436 28.0106 29.5193 28.0106 29.2563 28.2748C28.9933 28.539 28.9933 28.9651 29.2563 29.2293L60.2184 60.3317H60.2203Z" fill="url(#paint4_linear_427_111)"/>
<path d="M15.8517 47.0686L53.7725 69.0615C53.878 69.1232 53.9932 69.1521 54.1084 69.1521C54.3407 69.1521 54.5672 69.0306 54.69 68.8146C54.8763 68.4926 54.7649 68.0799 54.4443 67.8929L16.5235 45.9C16.2029 45.713 15.7921 45.8248 15.6059 46.1469C15.4197 46.4689 15.5311 46.8816 15.8517 47.0686Z" fill="url(#paint5_linear_427_111)"/>
<path d="M49.9676 79.1931C50.2651 79.1931 50.5358 78.9944 50.6164 78.6917C50.7124 78.3311 50.4993 77.9608 50.1422 77.8644L7.84655 66.4814C7.48757 66.3849 7.119 66.599 7.02302 66.9596C6.92703 67.3202 7.14012 67.6904 7.49717 67.7869L49.7929 79.1718C49.8505 79.1873 49.91 79.195 49.9676 79.195V79.1931Z" fill="url(#paint6_linear_427_111)"/>
<path d="M100.552 49.7315C100.61 49.7469 100.669 49.7546 100.727 49.7546C101.025 49.7546 101.295 49.556 101.376 49.2533L112.71 6.7659C112.805 6.4053 112.592 6.03506 112.235 5.93864C111.876 5.84222 111.508 6.05627 111.412 6.41687L100.078 48.9042C99.9822 49.2648 100.195 49.6351 100.552 49.7315Z" fill="url(#paint7_linear_427_111)"/>
<path d="M110.387 53.8238C110.492 53.8855 110.608 53.9144 110.723 53.9144C110.955 53.9144 111.182 53.7929 111.304 53.5769L133.198 15.4843C133.384 15.1622 133.273 14.7496 132.952 14.5625C132.632 14.3774 132.221 14.4873 132.035 14.8093L110.141 52.902C109.955 53.224 110.066 53.6367 110.387 53.8238Z" fill="url(#paint8_linear_427_111)"/>
<path d="M118.831 60.3317C118.962 60.4628 119.135 60.5284 119.306 60.5284C119.476 60.5284 119.649 60.4628 119.78 60.3317L150.742 29.2293C151.005 28.9651 151.005 28.539 150.742 28.2748C150.479 28.0106 150.055 28.0106 149.792 28.2748L118.83 59.3772C118.567 59.6414 118.567 60.0675 118.83 60.3317H118.831Z" fill="url(#paint9_linear_427_111)"/>
<path d="M125.31 68.8146C125.435 69.0306 125.661 69.1521 125.892 69.1521C126.005 69.1521 126.122 69.1232 126.228 69.0615L164.148 47.0686C164.469 46.8816 164.58 46.4689 164.394 46.1469C164.208 45.8248 163.797 45.713 163.477 45.9L125.556 67.8929C125.235 68.0799 125.124 68.4926 125.31 68.8146Z" fill="url(#paint10_linear_427_111)"/>
<path d="M172.977 66.9596C172.881 66.599 172.512 66.3849 172.153 66.4814L129.858 77.8663C129.499 77.9628 129.288 78.333 129.383 78.6936C129.464 78.9944 129.735 79.195 130.032 79.195C130.09 79.195 130.148 79.1873 130.207 79.1718L172.503 67.7869C172.862 67.6904 173.073 67.3202 172.977 66.9596Z" fill="url(#paint11_linear_427_111)"/>
<path d="M22.3321 90.9328C23.1803 90.9328 23.8678 90.2421 23.8678 89.3901C23.8678 88.5381 23.1803 87.8474 22.3321 87.8474C21.484 87.8474 20.7964 88.5381 20.7964 89.3901C20.7964 90.2421 21.484 90.9328 22.3321 90.9328Z" fill="url(#paint12_linear_427_111)"/>
<path d="M148.165 85.7263C146.438 85.7263 144.994 86.974 144.679 88.6188H131.445C131.075 88.6188 130.773 88.9216 130.773 89.2938C130.773 89.6659 131.075 89.9687 131.445 89.9687H136.928C136.757 102.31 131.895 113.886 123.189 122.633C114.324 131.538 102.537 136.442 90 136.442C77.4628 136.442 65.6761 131.538 56.8112 122.633C48.1055 113.888 43.2431 102.31 43.0722 89.9687H48.5547C48.9252 89.9687 49.2266 89.6659 49.2266 89.2938C49.2266 88.9216 48.9252 88.6188 48.5547 88.6188H35.3206C35.0058 86.974 33.5642 85.7263 31.8346 85.7263C29.8765 85.7263 28.2832 87.3268 28.2832 89.2938C28.2832 91.2607 29.8765 92.8612 31.8346 92.8612C33.5622 92.8612 35.0058 91.6136 35.3206 89.9687H41.7284C41.8993 102.671 46.9 114.586 55.8609 123.588C64.8219 132.589 76.6834 137.612 89.3281 137.784V161.993C89.3281 162.365 89.6295 162.668 90 162.668C90.3705 162.668 90.6719 162.365 90.6719 161.993V137.784C103.317 137.612 115.178 132.589 124.139 123.588C133.1 114.586 138.101 102.671 138.272 89.9687H144.679C144.994 91.6136 146.436 92.8612 148.165 92.8612C150.124 92.8612 151.717 91.2607 151.717 89.2938C151.717 87.3268 150.124 85.7263 148.165 85.7263ZM31.8346 91.5114C30.6175 91.5114 29.627 90.5163 29.627 89.2938C29.627 88.0712 30.6175 87.0762 31.8346 87.0762C33.0516 87.0762 34.0422 88.0712 34.0422 89.2938C34.0422 90.5163 33.0516 91.5114 31.8346 91.5114ZM148.165 91.5114C146.948 91.5114 145.958 90.5163 145.958 89.2938C145.958 88.0712 146.948 87.0762 148.165 87.0762C149.383 87.0762 150.373 88.0712 150.373 89.2938C150.373 90.5163 149.383 91.5114 148.165 91.5114Z" fill="url(#paint13_linear_427_111)"/>
<path d="M157.668 90.9328C158.516 90.9328 159.203 90.2421 159.203 89.3901C159.203 88.5381 158.516 87.8474 157.668 87.8474C156.819 87.8474 156.132 88.5381 156.132 89.3901C156.132 90.2421 156.819 90.9328 157.668 90.9328Z" fill="url(#paint14_linear_427_111)"/>
<path d="M90 167.874C94.0755 167.874 97.3907 164.544 97.3907 160.45C97.3907 160.078 97.0893 159.775 96.7188 159.775C96.3483 159.775 96.0469 160.078 96.0469 160.45C96.0469 163.799 93.3345 166.524 90 166.524C86.6656 166.524 83.9531 163.799 83.9531 160.45C83.9531 160.078 83.6517 159.775 83.2813 159.775C82.9108 159.775 82.6094 160.078 82.6094 160.45C82.6094 164.544 85.9246 167.874 90 167.874Z" fill="url(#paint15_linear_427_111)"/>
<path d="M90 177.516C94.0755 177.516 97.3907 174.186 97.3907 170.092C97.3907 169.719 97.0893 169.417 96.7188 169.417C96.3483 169.417 96.0469 169.719 96.0469 170.092C96.0469 173.441 93.3345 176.166 90 176.166C86.6656 176.166 83.9531 173.441 83.9531 170.092C83.9531 169.719 83.6517 169.417 83.2813 169.417C82.9108 169.417 82.6094 169.719 82.6094 170.092C82.6094 174.186 85.9246 177.516 90 177.516Z" fill="url(#paint16_linear_427_111)"/>
<path d="M89.3282 187.125V197.827C87.5851 198.147 86.2567 199.68 86.2567 201.524C86.2567 203.597 87.9364 205.284 90 205.284C92.0637 205.284 93.7434 203.597 93.7434 201.524C93.7434 199.68 92.415 198.147 90.6719 197.827V187.125C94.4325 186.782 97.3907 183.598 97.3907 179.734C97.3907 179.361 97.0893 179.059 96.7188 179.059C96.3483 179.059 96.0469 179.361 96.0469 179.734C96.0469 183.083 93.3345 185.808 90 185.808C86.6656 185.808 83.9531 183.083 83.9531 179.734C83.9531 179.361 83.6517 179.059 83.2813 179.059C82.9108 179.059 82.6094 179.361 82.6094 179.734C82.6094 183.6 85.5676 186.784 89.3282 187.125ZM92.3996 201.524C92.3996 202.853 91.3227 203.934 90 203.934C88.6774 203.934 87.6005 202.853 87.6005 201.524C87.6005 200.195 88.6774 199.113 90 199.113C91.3227 199.113 92.3996 200.195 92.3996 201.524Z" fill="url(#paint17_linear_427_111)"/>
<path d="M99.3411 221C99.0301 221 98.7595 221.216 98.6865 221.521C97.7862 225.366 94.542 228.112 90.672 228.399V217.086C90.672 216.713 90.3706 216.411 90.0001 216.411C89.6296 216.411 89.3282 216.713 89.3282 217.086V228.399C85.4582 228.112 82.2159 225.366 81.3137 221.521C81.2426 221.216 80.972 221 80.6591 221C80.3462 221 80.0755 221.216 80.0045 221.521C79.8221 222.302 79.728 223.1 79.728 223.893C79.728 229.581 84.3352 234.209 89.9982 234.209C95.6611 234.209 100.268 229.581 100.268 223.893C100.268 223.1 100.176 222.302 99.9919 221.521C99.9209 221.216 99.6502 221 99.3373 221H99.3411ZM90.0001 232.859C85.3238 232.859 81.4749 229.228 81.1025 224.625C82.8955 227.759 86.2376 229.774 90.0001 229.774C93.7626 229.774 97.1047 227.757 98.8977 224.625C98.5253 229.228 94.6764 232.859 90.0001 232.859Z" fill="url(#paint18_linear_427_111)"/>
<path d="M89.9998 213.287C91.166 213.287 92.1114 212.337 92.1114 211.166C92.1114 209.994 91.166 209.044 89.9998 209.044C88.8336 209.044 87.8882 209.994 87.8882 211.166C87.8882 212.337 88.8336 213.287 89.9998 213.287Z" fill="url(#paint19_linear_427_111)"/>
<path d="M90.096 241.152C91.2622 241.152 92.2076 240.202 92.2076 239.03C92.2076 237.859 91.2622 236.909 90.096 236.909C88.9298 236.909 87.9844 237.859 87.9844 239.03C87.9844 240.202 88.9298 241.152 90.096 241.152Z" fill="url(#paint20_linear_427_111)"/>
<path d="M90.476 244.121C90.2245 243.868 89.7773 243.868 89.5258 244.121L85.1816 248.485C84.9186 248.749 84.9186 249.175 85.1816 249.439L89.5258 253.803C89.6525 253.931 89.8233 254.002 89.9999 254.002C90.1766 254.002 90.3493 253.931 90.4741 253.803L94.8183 249.439C95.0813 249.175 95.0813 248.749 94.8183 248.485L90.4741 244.121H90.476ZM90.0019 252.371L86.6079 248.961L90.0019 245.552L93.3958 248.961L90.0019 252.371Z" fill="url(#paint21_linear_427_111)"/>
</mask>
<g mask="url(#mask0_427_111)">
<rect x="6" width="166" height="198" fill="url(#paint22_linear_427_111)"/>
</g>
</g>
<defs>
<filter id="filter0_d_427_111" x="0" y="0" width="179" height="209" filterUnits="userSpaceOnUse" color-interpolation-filters="sRGB">
<feFlood flood-opacity="0" result="BackgroundImageFix"/>
<feColorMatrix in="SourceAlpha" type="matrix" values="0 0 0 0 0 0 0 0 0 0 0 0 0 0 0 0 0 0 127 0" result="hardAlpha"/>
<feOffset dy="4"/>
<feGaussianBlur stdDeviation="3.5"/>
<feComposite in2="hardAlpha" operator="out"/>
<feColorMatrix type="matrix" values="0 0 0 0 0 0 0 0 0 0 0 0 0 0 0 0 0 0 0.5 0"/>
<feBlend mode="normal" in2="BackgroundImageFix" result="effect1_dropShadow_427_111"/>
<feBlend mode="normal" in="SourceGraphic" in2="effect1_dropShadow_427_111" result="shape"/>
</filter>
<linearGradient id="paint0_linear_427_111" x1="89.9998" y1="51.7871" x2="89.9998" y2="126.8" gradientUnits="userSpaceOnUse">
<stop stop-color="#DEC8A1"/>
<stop offset="1" stop-color="#917F4E"/>
</linearGradient>
<linearGradient id="paint1_linear_427_111" x1="90" y1="3" x2="90" y2="48.3355" gradientUnits="userSpaceOnUse">
<stop stop-color="#DEC8A1"/>
<stop offset="1" stop-color="#917F4E"/>
</linearGradient>
<linearGradient id="paint2_linear_427_111" x1="73.6064" y1="5.91748" x2="73.6064" y2="49.7566" gradientUnits="userSpaceOnUse">
<stop stop-color="#DEC8A1"/>
<stop offset="1" stop-color="#917F4E"/>
</linearGradient>
<linearGradient id="paint3_linear_427_111" x1="58.3307" y1="14.4697" x2="58.3307" y2="53.9142" gradientUnits="userSpaceOnUse">
<stop stop-color="#DEC8A1"/>
<stop offset="1" stop-color="#917F4E"/>
</linearGradient>
<linearGradient id="paint4_linear_427_111" x1="45.2125" y1="28.0767" x2="45.2125" y2="60.5284" gradientUnits="userSpaceOnUse">
<stop stop-color="#DEC8A1"/>
<stop offset="1" stop-color="#917F4E"/>
</linearGradient>
<linearGradient id="paint5_linear_427_111" x1="35.148" y1="45.8093" x2="35.148" y2="69.1521" gradientUnits="userSpaceOnUse">
<stop stop-color="#DEC8A1"/>
<stop offset="1" stop-color="#917F4E"/>
</linearGradient>
<linearGradient id="paint6_linear_427_111" x1="28.8197" y1="66.4583" x2="28.8197" y2="79.195" gradientUnits="userSpaceOnUse">
<stop stop-color="#DEC8A1"/>
<stop offset="1" stop-color="#917F4E"/>
</linearGradient>
<linearGradient id="paint7_linear_427_111" x1="106.394" y1="5.91553" x2="106.394" y2="49.7546" gradientUnits="userSpaceOnUse">
<stop stop-color="#DEC8A1"/>
<stop offset="1" stop-color="#917F4E"/>
</linearGradient>
<linearGradient id="paint8_linear_427_111" x1="121.67" y1="14.4727" x2="121.67" y2="53.9144" gradientUnits="userSpaceOnUse">
<stop stop-color="#DEC8A1"/>
<stop offset="1" stop-color="#917F4E"/>
</linearGradient>
<linearGradient id="paint9_linear_427_111" x1="134.786" y1="28.0767" x2="134.786" y2="60.5284" gradientUnits="userSpaceOnUse">
<stop stop-color="#DEC8A1"/>
<stop offset="1" stop-color="#917F4E"/>
</linearGradient>
<linearGradient id="paint10_linear_427_111" x1="144.852" y1="45.8093" x2="144.852" y2="69.1521" gradientUnits="userSpaceOnUse">
<stop stop-color="#DEC8A1"/>
<stop offset="1" stop-color="#917F4E"/>
</linearGradient>
<linearGradient id="paint11_linear_427_111" x1="151.18" y1="66.4583" x2="151.18" y2="79.195" gradientUnits="userSpaceOnUse">
<stop stop-color="#DEC8A1"/>
<stop offset="1" stop-color="#917F4E"/>
</linearGradient>
<linearGradient id="paint12_linear_427_111" x1="22.3321" y1="87.8474" x2="22.3321" y2="90.9328" gradientUnits="userSpaceOnUse">
<stop stop-color="#DEC8A1"/>
<stop offset="1" stop-color="#917F4E"/>
</linearGradient>
<linearGradient id="paint13_linear_427_111" x1="90" y1="85.7263" x2="90" y2="162.668" gradientUnits="userSpaceOnUse">
<stop stop-color="#DEC8A1"/>
<stop offset="1" stop-color="#917F4E"/>
</linearGradient>
<linearGradient id="paint14_linear_427_111" x1="157.668" y1="87.8474" x2="157.668" y2="90.9328" gradientUnits="userSpaceOnUse">
<stop stop-color="#DEC8A1"/>
<stop offset="1" stop-color="#917F4E"/>
</linearGradient>
<linearGradient id="paint15_linear_427_111" x1="90" y1="159.775" x2="90" y2="167.874" gradientUnits="userSpaceOnUse">
<stop stop-color="#DEC8A1"/>
<stop offset="1" stop-color="#917F4E"/>
</linearGradient>
<linearGradient id="paint16_linear_427_111" x1="90" y1="169.417" x2="90" y2="177.516" gradientUnits="userSpaceOnUse">
<stop stop-color="#DEC8A1"/>
<stop offset="1" stop-color="#917F4E"/>
</linearGradient>
<linearGradient id="paint17_linear_427_111" x1="90" y1="179.059" x2="90" y2="205.284" gradientUnits="userSpaceOnUse">
<stop stop-color="#DEC8A1"/>
<stop offset="1" stop-color="#917F4E"/>
</linearGradient>
<linearGradient id="paint18_linear_427_111" x1="89.9982" y1="216.411" x2="89.9982" y2="234.209" gradientUnits="userSpaceOnUse">
<stop stop-color="#DEC8A1"/>
<stop offset="1" stop-color="#917F4E"/>
</linearGradient>
<linearGradient id="paint19_linear_427_111" x1="89.9998" y1="209.044" x2="89.9998" y2="213.287" gradientUnits="userSpaceOnUse">
<stop stop-color="#DEC8A1"/>
<stop offset="1" stop-color="#917F4E"/>
</linearGradient>
<linearGradient id="paint20_linear_427_111" x1="90.096" y1="236.909" x2="90.096" y2="241.152" gradientUnits="userSpaceOnUse">
<stop stop-color="#DEC8A1"/>
<stop offset="1" stop-color="#917F4E"/>
</linearGradient>
<linearGradient id="paint21_linear_427_111" x1="89.9999" y1="243.932" x2="89.9999" y2="254.002" gradientUnits="userSpaceOnUse">
<stop stop-color="#DEC8A1"/>
<stop offset="1" stop-color="#917F4E"/>
</linearGradient>
<linearGradient id="paint22_linear_427_111" x1="89" y1="0" x2="89" y2="198" gradientUnits="userSpaceOnUse">
<stop stop-color="#DEC8A1"/>
<stop offset="1" stop-color="#917F4E"/>
</linearGradient>
</defs>
</svg>
