<svg width="155" height="214" viewBox="0 0 155 214" fill="none" xmlns="http://www.w3.org/2000/svg">
<path d="M27.1775 11.4841L40.0533 27.4785L56.4563 15.1275L49.0427 34.2755L67.9406 42.3054L47.6511 45.459L50.1459 65.84L37.27 49.8456L20.867 62.1966L28.2806 43.0486L9.38281 35.0187L29.6723 31.8651L27.1775 11.4841Z" fill="#DEC8A1"/>
<path d="M136.342 97.9999L139.272 108.267L149.629 105.671L142.202 113.342L149.629 121.014L139.272 118.417L136.342 128.685L133.412 118.417L123.055 121.014L130.482 113.342L123.055 105.671L133.412 108.267L136.342 97.9999Z" fill="#DEC8A1"/>
<path d="M37.2488 106.721L36.4057 113.651L43.3049 114.718L36.8817 117.453L39.4072 123.962L33.827 119.766L29.4533 125.208L30.2964 118.278L23.3972 117.21L29.8204 114.476L27.2949 107.967L32.8751 112.162L37.2488 106.721Z" fill="#DEC8A1"/>
<path d="M47.7581 171.408L44.831 184.219L57.5405 187.56L44.9823 191.43L48.444 204.107L38.8129 195.167L29.5652 204.503L32.4923 191.692L19.7828 188.352L32.3411 184.481L28.8793 171.804L38.5104 180.745L47.7581 171.408Z" fill="#DEC8A1"/>
<path d="M27.1775 11.4841L40.0533 27.4785L56.4563 15.1275L49.0427 34.2755L67.9406 42.3054L47.6511 45.459L50.1459 65.84L37.27 49.8456L20.867 62.1966L28.2806 43.0486L9.38281 35.0187L29.6723 31.8651L27.1775 11.4841Z" stroke="#DEC8A1" stroke-width="3"/>
<path d="M136.342 97.9999L139.272 108.267L149.629 105.671L142.202 113.342L149.629 121.014L139.272 118.417L136.342 128.685L133.412 118.417L123.055 121.014L130.482 113.342L123.055 105.671L133.412 108.267L136.342 97.9999Z" stroke="#DEC8A1" stroke-width="3"/>
<path d="M37.2488 106.721L36.4057 113.651L43.3049 114.718L36.8817 117.453L39.4072 123.962L33.827 119.766L29.4533 125.208L30.2964 118.278L23.3972 117.21L29.8204 114.476L27.2949 107.967L32.8751 112.162L37.2488 106.721Z" stroke="#DEC8A1" stroke-width="3"/>
<path d="M47.7581 171.408L44.831 184.219L57.5405 187.56L44.9823 191.43L48.444 204.107L38.8129 195.167L29.5652 204.503L32.4923 191.692L19.7828 188.352L32.3411 184.481L28.8793 171.804L38.5104 180.745L47.7581 171.408Z" stroke="#DEC8A1" stroke-width="3"/>
</svg>
